<?xml version="1.0"?>
<svg width="385" height="547" xmlns="http://www.w3.org/2000/svg" xmlns:svg="http://www.w3.org/2000/svg">
 <defs>
  <radialGradient cx="0" cy="0" gradientTransform="translate(298.802 231.481) rotate(-8.37701) scale(50.5732 40.3489)" gradientUnits="userSpaceOnUse" id="paint0_radial_14094_113863" r="1">
   <stop offset="0.3" stop-color="#1E6BFF"/>
   <stop offset="1" stop-color="#174ED0"/>
  </radialGradient>
  <radialGradient cx="0" cy="0" gradientTransform="translate(306.844 268.613) rotate(-6.22021) scale(21.4584 4.9104)" gradientUnits="userSpaceOnUse" id="paint1_radial_14094_113863" r="1">
   <stop stop-color="#1E6BFF" stop-opacity="0.8"/>
   <stop offset="1" stop-color="#1E6BFF" stop-opacity="0"/>
  </radialGradient>
  <linearGradient id="paint2_linear_14094_113863" x1="-0.05" x2="1.01" y1="0.37" y2="0.87">
   <stop stop-color="#F2B6FB"/>
   <stop offset="1" stop-color="#1E6BFF"/>
  </linearGradient>
  <linearGradient id="paint3_linear_14094_113863" x1="-3.98" x2="32.08" y1="0.28" y2="2.01">
   <stop stop-color="#F2B6FB"/>
   <stop offset="1" stop-color="#1E6BFF"/>
  </linearGradient>
  <linearGradient id="paint4_linear_14094_113863" x1="-5.61" x2="23.5" y1="-0.51" y2="4.29">
   <stop stop-color="#F2B6FB"/>
   <stop offset="1" stop-color="#1E6BFF"/>
  </linearGradient>
  <linearGradient id="paint5_linear_14094_113863" x1="-14.01" x2="16.26" y1="-1.54" y2="2.7">
   <stop stop-color="#F2B6FB"/>
   <stop offset="1" stop-color="#1E6BFF"/>
  </linearGradient>
 </defs>
 <g class="layer">
  <title>Layer 1</title>
  <path d="m354.7,304.02l-23.85,14.41l-23.86,14.42l-18.09,-64.51l39.57,0.6l26.23,35.08z" fill="#EFC4FF" id="svg_1" opacity="0.51" transform="matrix(1 0 0 1 0 0) translate(0 -24) matrix(1 0 0 1 0 0) matrix(1 0 0 1 0 0) translate(0 -2) matrix(1 0 0 1 0 0) translate(0 -21) matrix(1 0 0 1 0 0) matrix(1 0 0 1 0 0) translate(0 11) matrix(1 0 0 1 0 0)"/>
  <path d="m334.06,323.63c13.19,-7.96 22.44,-16.76 20.67,-19.65c-1.77,-2.88 -13.9,1.23 -27.09,9.19c-13.19,7.96 -22.45,16.75 -20.68,19.64c1.77,2.89 13.9,-1.22 27.1,-9.18z" fill="#EFC4FF" id="svg_2" transform="matrix(1 0 0 1 0 0) translate(0 -24) matrix(1 0 0 1 0 0) matrix(1 0 0 1 0 0) translate(0 -2) matrix(1 0 0 1 0 0) translate(0 -21) matrix(1 0 0 1 0 0) matrix(1 0 0 1 0 0) translate(0 11) matrix(1 0 0 1 0 0)"/>
  <path d="m336.98,248.12c3.99,9.9 -0.89,21.11 -10.84,24.93c-4.31,1.64 -9.72,3.21 -16.43,4.51c-6.73,1.28 -12.32,1.85 -16.95,1.9c-10.69,0.18 -19.48,-8.42 -19.55,-19.06l-0.03,-3.48c-0.1,-15.52 10.88,-28.85 26.16,-31.81c15.27,-2.95 30.54,5.37 36.34,19.78l1.3,3.23z" fill="#F7F7F7" id="svg_3" transform="matrix(1 0 0 1 0 0) translate(0 -24) matrix(1 0 0 1 0 0) matrix(1 0 0 1 0 0) translate(0 -2) matrix(1 0 0 1 0 0) translate(0 -21) matrix(1 0 0 1 0 0) matrix(1 0 0 1 0 0) translate(0 11) matrix(1 0 0 1 0 0)"/>
  <path d="m289.35,279.61c-3.96,-0.62 -7.66,-2.45 -10.58,-5.31c-3.78,-3.67 -5.89,-8.6 -5.94,-13.86l-0.02,-3.48c-0.11,-15.67 11.01,-29.2 26.45,-32.15c15.43,-2.98 30.9,5.44 36.76,19.98l1.29,3.24c1.97,4.88 1.9,10.22 -0.19,15.05c-2.1,4.81 -5.96,8.48 -10.85,10.36c-4.75,1.81 -10.32,3.33 -16.5,4.52c-6.17,1.18 -11.9,1.84 -17,1.92c-1.18,-0.01 -2.32,-0.1 -3.42,-0.27zm21.09,-54.32c-3.6,-0.56 -7.32,-0.51 -11.06,0.2c-15.1,2.9 -25.97,16.14 -25.86,31.44l0.03,3.47c0.03,5.07 2.07,9.81 5.72,13.37c3.63,3.53 8.42,5.43 13.47,5.35c5.05,-0.09 10.75,-0.73 16.88,-1.92c6.15,-1.19 11.65,-2.69 16.37,-4.49c4.73,-1.8 8.42,-5.33 10.44,-9.95c2.02,-4.65 2.11,-9.79 0.2,-14.5l-1.29,-3.23c-4.33,-10.71 -13.96,-18.02 -24.9,-19.74z" fill="#888888" id="svg_4" transform="matrix(1 0 0 1 0 0) translate(0 -24) matrix(1 0 0 1 0 0) matrix(1 0 0 1 0 0) translate(0 -2) matrix(1 0 0 1 0 0) translate(0 -21) matrix(1 0 0 1 0 0) matrix(1 0 0 1 0 0) translate(0 11) matrix(1 0 0 1 0 0)"/>
  <path d="m344.91,266.71l-9.12,-5.55l-0.03,0c-2.1,4.07 -5.68,7.45 -10.32,9.22c-4.39,1.68 -9.9,3.29 -16.79,4.6c-6.89,1.32 -12.59,1.89 -17.31,1.95c-4.66,0.08 -8.97,-1.48 -12.39,-4.12l-0.28,0.05l-6.35,7.84c-1.37,1.5 -1.98,2.94 -1.73,4.3c1.19,6.01 19.51,7.52 40.9,3.4c21.38,-4.13 37.79,-12.34 36.61,-18.33c-0.24,-1.35 -1.37,-2.46 -3.19,-3.36z" fill="#11245A" id="svg_5" transform="matrix(1 0 0 1 0 0) translate(0 -24) matrix(1 0 0 1 0 0) matrix(1 0 0 1 0 0) translate(0 -2) matrix(1 0 0 1 0 0) translate(0 -21) matrix(1 0 0 1 0 0) matrix(1 0 0 1 0 0) translate(0 11) matrix(1 0 0 1 0 0)"/>
  <path d="m336.9,262.87c0.75,3.74 -11.7,10.3 -27.74,13.41c-16.04,3.11 -29.59,1.52 -30.31,-2.22c-0.72,-3.74 11.66,-9.26 27.67,-12.34c16.02,-3.09 29.63,-2.59 30.38,1.15z" fill="#F7F7F7" id="svg_6" transform="matrix(1 0 0 1 0 0) translate(0 -24) matrix(1 0 0 1 0 0) matrix(1 0 0 1 0 0) translate(0 -2) matrix(1 0 0 1 0 0) translate(0 -21) matrix(1 0 0 1 0 0) matrix(1 0 0 1 0 0) translate(0 11) matrix(1 0 0 1 0 0)"/>
  <path d="m285.5,277.75c-5.56,-0.87 -6.8,-2.59 -7,-3.62c-0.89,-4.45 13.54,-9.99 27.96,-12.79c7.78,-1.49 15.24,-2.21 21,-1.98c4.18,0.16 9.28,0.89 9.8,3.42c0.84,4.24 -12.52,10.83 -28.03,13.83c-7.55,1.46 -15,1.97 -20.99,1.45c-1,-0.06 -1.92,-0.18 -2.74,-0.31zm45.97,-17.3c-1.17,-0.18 -2.53,-0.3 -4.02,-0.36c-5.72,-0.22 -13.1,0.48 -20.83,1.96c-17.15,3.3 -28.02,8.84 -27.39,11.92c0.32,1.62 3.8,2.93 9.09,3.37c5.92,0.51 13.3,-0.02 20.8,-1.46c16.02,-3.08 28.12,-9.63 27.45,-12.96c-0.24,-1.12 -2.07,-1.99 -5.1,-2.47z" fill="#888888" id="svg_7" transform="matrix(1 0 0 1 0 0) translate(0 -24) matrix(1 0 0 1 0 0) matrix(1 0 0 1 0 0) translate(0 -2) matrix(1 0 0 1 0 0) translate(0 -21) matrix(1 0 0 1 0 0) matrix(1 0 0 1 0 0) translate(0 11) matrix(1 0 0 1 0 0)"/>
  <path d="m284.18,283.16c-5.16,-0.81 -8.59,-2.5 -9.5,-5.02c-0.07,-0.18 0.03,-0.38 0.22,-0.45c0.18,-0.07 0.39,0.04 0.46,0.22c1.93,5.27 16.91,6.62 34.88,3.16c16.9,-3.27 30.61,-10.25 31.22,-15.9c0.03,-0.2 0.2,-0.34 0.4,-0.33c0.19,0.03 0.33,0.2 0.33,0.39c-0.67,6.04 -14.35,13.14 -31.81,16.52c-10.4,2.04 -19.68,2.44 -26.2,1.41z" fill="#F7F7F7" id="svg_8" transform="matrix(1 0 0 1 0 0) translate(0 -24) matrix(1 0 0 1 0 0) matrix(1 0 0 1 0 0) translate(0 -2) matrix(1 0 0 1 0 0) translate(0 -21) matrix(1 0 0 1 0 0) matrix(1 0 0 1 0 0) translate(0 11) matrix(1 0 0 1 0 0)"/>
  <path d="m324.73,252.71c-0.33,8.48 -7.81,14.91 -16.29,13.95c-2.34,-0.28 -4.97,-0.74 -7.96,-1.43c-2.99,-0.69 -5.55,-1.46 -7.76,-2.24c-8.03,-2.88 -11.93,-11.96 -8.49,-19.73c4.09,-9.26 14.22,-14.27 24.11,-11.96c9.91,2.29 16.8,11.3 16.39,21.41z" fill="url(#paint0_radial_14094_113863)" id="svg_9" transform="matrix(1 0 0 1 0 0) translate(0 -24) matrix(1 0 0 1 0 -12)"/>
  <path d="m303.61,247.21c0.16,-0.73 0.46,-1.37 0.85,-1.97c0.4,-0.57 0.9,-1.06 1.5,-1.45c0.57,-0.38 1.2,-0.62 1.88,-0.73c0.68,-0.12 1.34,-0.09 2.03,0.07c0.66,0.15 1.28,0.45 1.83,0.83c0.55,0.4 1.02,0.89 1.39,1.49c0.38,0.6 0.6,1.24 0.71,1.94c0.09,0.7 0.08,1.41 -0.11,2.14c-0.14,0.61 -0.35,1.16 -0.65,1.68c-0.3,0.49 -0.67,0.95 -1.12,1.32c-0.64,0.53 -1.36,0.91 -2.18,1.07c-0.71,0.16 -1.45,0.16 -2.14,0.03c-0.74,-0.14 -1.38,-0.44 -1.97,-0.87c-0.56,-0.41 -1.02,-0.89 -1.37,-1.49c-0.37,-0.62 -0.62,-1.27 -0.73,-1.97c-0.12,-0.65 -0.08,-1.36 0.08,-2.09zm2.42,0.55c-0.21,0.85 -0.1,1.62 0.26,2.31c0.36,0.7 0.93,1.13 1.66,1.29c0.74,0.17 1.42,0.03 2.06,-0.43c0.64,-0.46 1.05,-1.11 1.24,-1.98c0.21,-0.87 0.11,-1.65 -0.25,-2.34c-0.36,-0.69 -0.93,-1.12 -1.67,-1.29c-0.73,-0.16 -1.42,-0.03 -2.06,0.44c-0.61,0.49 -1.03,1.15 -1.24,2z" fill="#F7F7F7" id="svg_10" transform="matrix(1 0 0 1 0 0) translate(0 -24) matrix(1 0 0 1 0 0) matrix(1 0 0 1 0 0) translate(0 -2) matrix(1 0 0 1 0 0) translate(0 -21) matrix(1 0 0 1 0 0) matrix(1 0 0 1 0 0) translate(0 11) matrix(1 0 0 1 0 0)"/>
  <path d="m299.74,241.78l-1.54,-1.12c-0.12,-0.07 -0.27,-0.05 -0.33,0.04c-1.72,2.37 -1.96,3.78 -1.96,3.78l-0.06,0.23c-0.17,0.78 -0.47,1.32 -0.89,1.65c-0.42,0.32 -0.95,0.41 -1.57,0.26c-0.64,-0.15 -1.08,-0.48 -1.29,-0.98c-0.22,-0.5 -0.24,-1.19 -0.03,-2.06l0.07,-0.31c0.23,-0.82 0.92,-2.89 2.25,-4.83c0.07,-0.11 0.04,-0.26 -0.05,-0.32l-1.55,-1.1c-0.11,-0.07 -0.26,-0.04 -0.33,0.07c-1.55,2.25 -2.31,4.62 -2.58,5.58c0,0.03 -0.03,0.05 -0.03,0.07l-0.06,0.21c-0.02,0.1 -0.05,0.16 -0.05,0.16l-0.06,0.19c-0.31,1.42 -0.23,2.61 0.33,3.57c0.54,0.97 1.48,1.6 2.8,1.91c1.31,0.3 2.44,0.16 3.32,-0.48c1.74,-1.24 2.17,-3.4 2.17,-3.4c0.01,-0.02 0.13,-0.83 1.53,-2.76c0.03,-0.15 0,-0.27 -0.09,-0.36z" fill="#F7F7F7" id="svg_11" transform="matrix(1 0 0 1 0 0) translate(0 -24) matrix(1 0 0 1 0 0) matrix(1 0 0 1 0 0) translate(0 -2) matrix(1 0 0 1 0 0) translate(0 -21) matrix(1 0 0 1 0 0) matrix(1 0 0 1 0 0) translate(0 11) matrix(1 0 0 1 0 0)"/>
  <path d="m301.09,260.23l-0.03,0c-1.97,-0.46 -3.36,-1.46 -3.4,-1.49l1.38,-1.94c0.17,0.12 4.22,2.92 7.76,-0.13l1.56,1.82c-2.06,1.75 -4.59,2.36 -7.27,1.74z" fill="#F7F7F7" id="svg_12" transform="matrix(1 0 0 1 0 0) translate(0 -24) matrix(1 0 0 1 0 0) matrix(1 0 0 1 0 0) translate(0 -2) matrix(1 0 0 1 0 0) translate(0 -21) matrix(1 0 0 1 0 0) matrix(1 0 0 1 0 0) translate(0 11) matrix(1 0 0 1 0 0)"/>
  <path d="m295.07,254.6l-0.83,-1.3c-0.08,-0.11 -0.03,-0.25 0.08,-0.33c3.34,-2.12 4.03,-3.67 5.24,-6.44c0.42,-0.98 0.94,-2.1 1.61,-3.44c1.54,-2.96 3.71,-4.1 5.25,-4.55c1.28,-0.38 2.35,-0.31 2.84,-0.26c0.14,0.02 0.22,0.13 0.2,0.28l-0.32,1.73l0.18,-1l-0.14,0.76c-0.02,0.12 -0.13,0.2 -0.25,0.21c-0.85,-0.09 -3.97,-0.06 -5.96,3.78c-0.67,1.26 -1.16,2.36 -1.57,3.32c-1.29,2.93 -2.16,4.89 -6.02,7.32c-0.09,0.08 -0.23,0.03 -0.31,-0.08z" fill="#EFC4FF" id="svg_13" transform="matrix(1 0 0 1 0 0) translate(0 -24) matrix(1 0 0 1 0 0) matrix(1 0 0 1 0 0) translate(0 -2) matrix(1 0 0 1 0 0) translate(0 -21) matrix(1 0 0 1 0 0) matrix(1 0 0 1 0 0) translate(0 11) matrix(1 0 0 1 0 0)"/>
  <path d="m296.67,245.5l-0.46,-1.5c-0.02,-0.12 0.04,-0.26 0.17,-0.29c0.79,-0.19 3.41,-0.71 5.29,0.46c1.77,1.12 3.2,0.9 3.69,0.76c0.11,-0.04 0.22,0.03 0.28,0.14l0.66,1.4c0.06,0.13 0.01,0.27 -0.14,0.32c-0.73,0.26 -2.92,0.77 -5.59,-0.9c-1.14,-0.72 -2.99,-0.37 -3.63,-0.23c-0.1,0.03 -0.24,-0.04 -0.27,-0.16z" fill="#EFC4FF" id="svg_14" transform="matrix(1 0 0 1 0 0) translate(0 -24) matrix(1 0 0 1 0 0) matrix(1 0 0 1 0 0) translate(0 -2) matrix(1 0 0 1 0 0) translate(0 -21) matrix(1 0 0 1 0 0) matrix(1 0 0 1 0 0) translate(0 11) matrix(1 0 0 1 0 0)"/>
  <path d="m309.42,229.37c-0.41,-0.36 -0.51,-0.99 -0.24,-1.46l4.13,-7.02c0.74,-1.28 2.48,-1.54 3.58,-0.56c1.03,0.92 1.08,2.51 0.05,3.48l-5.97,5.56c-0.41,0.4 -1.09,0.39 -1.55,0z" fill="#1E6BFF" id="svg_15" transform="matrix(1 0 0 1 0 0) translate(0 -24) matrix(1 0 0 1 0 0) matrix(1 0 0 1 0 0) translate(0 -2) matrix(1 0 0 1 0 0) translate(0 -21) matrix(1 0 0 1 0 0) matrix(1 0 0 1 0 0) translate(0 11) matrix(1 0 0 1 0 0)"/>
  <path d="m313.36,230.25c-0.16,-0.54 0.07,-1.09 0.56,-1.35l7.2,-3.84c1.31,-0.7 2.93,-0.03 3.35,1.39c0.41,1.31 -0.39,2.7 -1.76,2.97l-8.02,1.63c-0.58,0.1 -1.17,-0.24 -1.33,-0.8z" fill="#1E6BFF" id="svg_16" transform="matrix(1 0 0 1 0 0) translate(0 -24) matrix(1 0 0 1 0 0) matrix(1 0 0 1 0 0) translate(0 -2) matrix(1 0 0 1 0 0) translate(0 -21) matrix(1 0 0 1 0 0) matrix(1 0 0 1 0 0) translate(0 11) matrix(1 0 0 1 0 0)"/>
  <path d="m336.25,265.4c0.31,2.73 -12.61,6.35 -28.85,8.14c-16.23,1.78 -29.65,0.99 -29.95,-1.72c-0.31,-2.72 12.62,-6.35 28.85,-8.13c16.23,-1.79 29.63,-1 29.95,1.71z" fill="url(#paint1_radial_14094_113863)" id="svg_17" transform="translate(0 -24) translate(0 -2) translate(0 -21) translate(0 11)"/>
  <path d="m292.78,479.72l12.67,5.27c0,0 -0.89,24.59 -1.06,31.94c-0.2,7.35 8.57,13.29 8.57,13.29l12.7,-68.52l-26.86,-7.79l-6.02,25.81z" fill="#F7F7F7" id="svg_18"/>
  <path d="m312.89,530.58c-0.05,-0.01 -0.12,-0.05 -0.17,-0.08c-0.36,-0.26 -8.94,-6.12 -8.75,-13.6c0.18,-6.85 0.96,-28.96 1.05,-31.67l-12.42,-5.17c-0.17,-0.08 -0.28,-0.28 -0.23,-0.45l6,-25.81c0.01,-0.11 0.07,-0.2 0.18,-0.24c0.09,-0.07 0.2,-0.08 0.3,-0.04l26.86,7.8c0.21,0.05 0.31,0.25 0.29,0.46l-12.7,68.51c-0.02,0.13 -0.11,0.25 -0.22,0.28c-0.06,0.02 -0.11,0.02 -0.19,0.01zm-19.66,-51.09l12.37,5.13c0.15,0.07 0.24,0.22 0.24,0.38c0,0.23 -0.9,24.66 -1.06,31.93c-0.16,6.07 6.09,11.22 7.91,12.59l12.52,-67.56l-26.13,-7.59l-5.85,25.12z" fill="#888888" id="svg_19"/>
  <path d="m305.4,485.37c-0.2,-0.03 -0.34,-0.21 -0.34,-0.42l0.17,-4.04c0,-0.21 0.18,-0.4 0.41,-0.37c0.21,0.01 0.4,0.19 0.37,0.42l-0.16,4.05c0,0.21 -0.19,0.39 -0.42,0.36l-0.03,0z" fill="#888888" id="svg_20"/>
  <path d="m179.78,386.3l30.91,67.85c2.16,4.7 5.9,8.51 10.6,10.74l66.15,31.28l27.99,-40.87l-24.24,-15.15l-9.77,3.73l69.94,-26.66l-22.26,-48.54l-56.72,15.36l-10.47,-23.44l-82.13,25.7z" fill="#11245A" id="svg_21"/>
  <path clip-rule="evenodd" d="m292.04,405.83l-1.65,-7.34l-2.3,-13.48l-21.22,-1.13l-3.68,11.72l-2.8,8.55c-0.55,1.96 0.61,4 2.56,4.56c1.6,0.45 3.22,-0.23 4.07,-1.53l-0.57,6.44c-0.18,1.95 1.26,3.66 3.21,3.85c1.95,0.18 3.67,-1.24 3.84,-3.19l0.05,-0.59c0.58,1.46 2.05,2.45 3.7,2.33c1.76,-0.13 3.14,-1.44 3.38,-3.11c0.72,0.59 1.65,0.93 2.66,0.85c2.04,-0.14 3.57,-1.9 3.41,-3.92l-0.03,-0.22c0.64,0.33 1.41,0.48 2.19,0.38c2.09,-0.3 3.5,-2.16 3.18,-4.17z" fill="#F7F7F7" fill-rule="evenodd" id="svg_22"/>
  <path d="m269.53,417.84c-2.07,-0.28 -3.59,-2.16 -3.42,-4.27l0.48,-5.27c-1.01,0.84 -2.39,1.13 -3.68,0.77c-1.05,-0.3 -1.93,-1 -2.47,-1.94c-0.53,-0.94 -0.68,-2.06 -0.38,-3.1l2.8,-8.58l3.78,-12.02l21.81,1.18l2.35,13.77l1.64,7.37c0.32,2.22 -1.22,4.3 -3.44,4.61c-0.62,0.07 -1.25,0.04 -1.82,-0.17c-0.06,2.07 -1.68,3.79 -3.79,3.96c-0.85,0.06 -1.69,-0.15 -2.42,-0.59c-0.5,1.58 -1.89,2.74 -3.61,2.84c-1.38,0.11 -2.68,-0.49 -3.49,-1.52c-0.19,0.82 -0.65,1.54 -1.3,2.09c-0.8,0.68 -1.81,0.99 -2.88,0.9c-0.05,-0.01 -0.11,-0.02 -0.16,-0.03zm-1.94,-12.19l-0.7,8c-0.15,1.74 1.13,3.25 2.87,3.44c0.84,0.08 1.66,-0.17 2.31,-0.72c0.65,-0.54 1.04,-1.3 1.12,-2.13l0.19,-2.24l0.61,1.56c0.53,1.36 1.87,2.2 3.31,2.1c1.51,-0.11 2.8,-1.28 3.02,-2.8l0.09,-0.69l0.55,0.46c0.66,0.57 1.5,0.84 2.37,0.77c1.81,-0.12 3.18,-1.7 3.04,-3.5l-0.06,-0.91l0.61,0.32c0.62,0.32 1.29,0.42 1.96,0.32c1.8,-0.25 3.04,-1.9 2.8,-3.69l-1.65,-7.35l-2.23,-13.17l-20.59,-1.1l-3.6,11.44l-2.8,8.56c-0.24,0.83 -0.12,1.71 0.31,2.48c0.43,0.77 1.15,1.31 1.98,1.56c1.4,0.4 2.87,-0.17 3.65,-1.35l0.84,-1.36z" fill="#888888" id="svg_23"/>
  <path clip-rule="evenodd" d="m290.41,398.47l1.65,7.34c0.29,2.01 -1.11,3.87 -3.12,4.15c-2.01,0.28 -3.88,-1.13 -4.17,-3.14l-0.69,-4.82" fill="#F7F7F7" fill-rule="evenodd" id="svg_24"/>
  <path d="m287.89,410.37c-0.7,-0.1 -1.35,-0.37 -1.9,-0.78c-0.86,-0.65 -1.45,-1.62 -1.6,-2.69l-0.69,-4.82c-0.02,-0.22 0.11,-0.41 0.32,-0.43c0.21,-0.03 0.41,0.1 0.43,0.32l0.69,4.82c0.12,0.89 0.58,1.66 1.3,2.17c0.69,0.54 1.58,0.77 2.44,0.65c1.8,-0.26 3.04,-1.9 2.8,-3.69l-1.65,-7.35c-0.05,-0.22 0.08,-0.41 0.29,-0.46c0.22,-0.05 0.41,0.08 0.46,0.3l1.65,7.37c0.32,2.22 -1.22,4.3 -3.44,4.61c-0.37,0.03 -0.74,0.03 -1.1,-0.02z" fill="#888888" id="svg_25"/>
  <path clip-rule="evenodd" d="m286.1,401.09l0.65,8.73c0.16,2.05 -1.36,3.79 -3.4,3.93c-2.05,0.14 -3.8,-1.38 -3.96,-3.43l-0.55,-7.45" fill="#F7F7F7" fill-rule="evenodd" id="svg_26"/>
  <path d="m282.56,414.12c-0.77,-0.11 -1.52,-0.45 -2.14,-0.98c-0.82,-0.71 -1.33,-1.7 -1.4,-2.79l-0.55,-7.46c-0.03,-0.21 0.15,-0.39 0.37,-0.42c0.21,-0.02 0.4,0.16 0.42,0.38l0.56,7.45c0.07,0.88 0.46,1.7 1.13,2.26c0.66,0.59 1.52,0.86 2.39,0.8c1.81,-0.13 3.17,-1.71 3.04,-3.51l-0.65,-8.73c-0.03,-0.22 0.15,-0.4 0.37,-0.43c0.21,-0.02 0.4,0.16 0.42,0.38l0.66,8.73c0.15,2.23 -1.52,4.18 -3.78,4.35c-0.29,0.01 -0.58,0 -0.84,-0.03z" fill="#888888" id="svg_27"/>
  <path clip-rule="evenodd" d="m279.95,401.84l0.78,10.22c0.15,2.05 -1.36,3.78 -3.41,3.93c-2.05,0.14 -3.79,-1.38 -3.95,-3.43l-0.71,-9.47" fill="#F7F7F7" fill-rule="evenodd" id="svg_28"/>
  <path d="m276.51,416.38c-0.78,-0.11 -1.52,-0.44 -2.14,-0.98c-0.83,-0.71 -1.33,-1.7 -1.4,-2.79l-0.72,-9.47c-0.02,-0.21 0.16,-0.4 0.38,-0.42c0.21,-0.03 0.4,0.16 0.42,0.37l0.72,9.47c0.07,0.88 0.46,1.7 1.12,2.26c0.66,0.59 1.52,0.86 2.4,0.8c0.88,-0.07 1.69,-0.46 2.25,-1.12c0.59,-0.65 0.85,-1.51 0.78,-2.39l-0.77,-10.22c-0.03,-0.21 0.15,-0.4 0.37,-0.42c0.21,-0.02 0.4,0.16 0.42,0.37l0.78,10.22c0.07,1.09 -0.28,2.14 -0.97,2.97c-0.71,0.82 -1.69,1.32 -2.78,1.39c-0.32,0 -0.58,0 -0.86,-0.04z" fill="#888888" id="svg_29"/>
  <path clip-rule="evenodd" d="m268.05,403.02l-0.57,3.15c-0.54,1.95 -2.58,3.09 -4.54,2.54c-1.95,-0.55 -3.11,-2.6 -2.56,-4.55l2.79,-8.55" fill="#F7F7F7" fill-rule="evenodd" id="svg_30"/>
  <path d="m263.4,409.19c-0.18,-0.02 -0.38,-0.07 -0.56,-0.12c-1.04,-0.3 -1.92,-1 -2.46,-1.94c-0.53,-0.94 -0.68,-2.06 -0.38,-3.1l2.8,-8.58c0.08,-0.2 0.28,-0.33 0.5,-0.24c0.2,0.08 0.33,0.28 0.25,0.5l-2.79,8.55c-0.24,0.84 -0.12,1.72 0.3,2.49c0.43,0.77 1.15,1.31 1.99,1.56c0.83,0.24 1.74,0.13 2.51,-0.3c0.76,-0.42 1.3,-1.11 1.54,-1.97l0.57,-3.12c0.02,-0.21 0.23,-0.37 0.46,-0.31c0.2,0.03 0.36,0.23 0.31,0.46l-0.57,3.18c-0.55,1.98 -2.48,3.21 -4.47,2.94z" fill="#888888" id="svg_31"/>
  <path clip-rule="evenodd" d="m274.5,403l-0.99,11.27c-0.17,1.94 -1.88,3.37 -3.83,3.18c-1.95,-0.18 -3.38,-1.9 -3.21,-3.84l0.99,-11.27" fill="#F7F7F7" fill-rule="evenodd" id="svg_32"/>
  <path d="m269.5,417.82c-2.07,-0.27 -3.58,-2.16 -3.42,-4.27l1,-11.26c0.02,-0.21 0.2,-0.37 0.41,-0.36c0.21,0.02 0.37,0.2 0.37,0.41l-0.99,11.27c-0.15,1.74 1.13,3.25 2.86,3.43c0.83,0.09 1.66,-0.17 2.31,-0.71c0.65,-0.54 1.03,-1.31 1.11,-2.14l1,-11.26c0.02,-0.21 0.2,-0.37 0.41,-0.36c0.21,0.02 0.37,0.2 0.37,0.41l-0.99,11.27c-0.09,1.04 -0.58,2 -1.4,2.65c-0.82,0.65 -1.81,0.98 -2.88,0.89c-0.06,0.05 -0.11,0.04 -0.16,0.03z" fill="#888888" id="svg_33"/>
  <path clip-rule="evenodd" d="m132.97,234.5l4.04,12.92l18.96,-3.22l-1.4,-16.3l-21.6,6.6z" fill="#F7F7F7" fill-rule="evenodd" id="svg_34"/>
  <path d="m136.74,247.86l-4.23,-13.63l22.44,-6.86l1.46,17.13l-19.67,3.36zm-3.27,-13.11l3.81,12.21l18.3,-3.13l-1.34,-15.45l-20.77,6.37z" fill="#888888" id="svg_35"/>
  <path clip-rule="evenodd" d="m132.51,237.51c-1.74,-0.13 -3.04,-1.65 -2.92,-3.37l0.34,-4.83c0.24,-3.46 3.26,-6.05 6.72,-5.79l-0.79,11.11c-0.12,1.71 -1.6,3.01 -3.35,2.88z" fill="#F7F7F7" fill-rule="evenodd" id="svg_36"/>
  <path d="m132.28,237.87c-0.85,-0.11 -1.64,-0.54 -2.21,-1.19c-0.62,-0.72 -0.92,-1.62 -0.85,-2.56l0.34,-4.84c0.27,-3.66 3.47,-6.43 7.14,-6.15l0.39,0.03l-0.81,11.49c-0.07,0.94 -0.5,1.8 -1.21,2.42c-0.71,0.61 -1.62,0.91 -2.56,0.83c-0.1,-0.01 -0.15,-0.02 -0.23,-0.03zm3.95,-13.99c-3.07,-0.02 -5.69,2.33 -5.91,5.45l-0.34,4.84c-0.05,0.73 0.18,1.44 0.65,2.01c0.48,0.56 1.15,0.89 1.88,0.93c0.73,0.05 1.44,-0.17 2.01,-0.64c0.56,-0.48 0.88,-1.15 0.92,-1.87l0.79,-10.72z" fill="#888888" id="svg_37"/>
  <path clip-rule="evenodd" d="m148.17,210.68c1.94,-0.13 3.64,1.33 3.81,3.27l0.87,11.28c0.14,1.94 -1.31,3.63 -3.25,3.79c-1.94,0.13 -3.64,-1.33 -3.81,-3.27l-0.88,-11.28c-0.13,-1.97 1.32,-3.66 3.26,-3.79z" fill="#F7F7F7" fill-rule="evenodd" id="svg_38"/>
  <path d="m148.82,229.36c-1.81,-0.24 -3.28,-1.73 -3.42,-3.61l-0.88,-11.28c-0.08,-1.04 0.24,-2.07 0.92,-2.85c0.69,-0.8 1.64,-1.27 2.68,-1.34c2.15,-0.16 4.04,1.46 4.2,3.64l0.88,11.28c0.17,2.15 -1.45,4.03 -3.62,4.18c-0.24,0.02 -0.5,0.02 -0.76,-0.02zm-0.62,-18.31c-0.85,0.07 -1.61,0.44 -2.14,1.08c-0.55,0.63 -0.82,1.43 -0.74,2.29l0.87,11.28c0.14,1.72 1.66,3.03 3.38,2.92c1.73,-0.13 3.03,-1.64 2.91,-3.36l-0.87,-11.28c-0.15,-1.73 -1.69,-3.04 -3.41,-2.93z" fill="#888888" id="svg_39"/>
  <path clip-rule="evenodd" d="m136.24,235.65c-1.74,-0.13 -3.04,-1.65 -2.92,-3.37l0.34,-4.84c0.24,-3.45 3.25,-6.04 6.72,-5.78l-0.79,11.1c-0.12,1.72 -1.63,3.01 -3.35,2.89z" fill="#F7F7F7" fill-rule="evenodd" id="svg_40"/>
  <path d="m135.99,236.01c-1.84,-0.25 -3.2,-1.91 -3.06,-3.78l0.34,-4.84c0.13,-1.77 0.94,-3.39 2.27,-4.55c1.34,-1.16 3.07,-1.74 4.87,-1.6l0.39,0.03l-0.81,11.49c-0.07,0.94 -0.5,1.8 -1.21,2.42c-0.71,0.61 -1.62,0.91 -2.56,0.83c-0.08,0.02 -0.15,0.01 -0.23,0zm3.98,-13.99c-1.45,-0.01 -2.8,0.49 -3.9,1.42c-1.18,1.02 -1.89,2.45 -2.02,4.03l-0.34,4.84c-0.12,1.51 1.02,2.84 2.56,2.95c0.73,0.04 1.44,-0.18 2,-0.65c0.57,-0.48 0.89,-1.14 0.93,-1.87l0.77,-10.72z" fill="#888888" id="svg_41"/>
  <path clip-rule="evenodd" d="m142.18,234.45c-2.03,-0.14 -3.56,-1.93 -3.43,-3.96l0.48,-6.89c0.13,-2.03 1.91,-3.55 3.94,-3.41c2.03,0.14 3.56,1.93 3.43,3.96l-0.47,6.89c-0.17,2.06 -1.92,3.58 -3.95,3.41z" fill="#F7F7F7" fill-rule="evenodd" id="svg_42"/>
  <path d="m141.9,234.83c-0.98,-0.13 -1.89,-0.62 -2.56,-1.37c-0.71,-0.83 -1.07,-1.88 -0.98,-2.97l0.48,-6.89c0.15,-2.24 2.11,-3.92 4.35,-3.75c2.24,0.17 3.93,2.13 3.77,4.37l-0.47,6.9c-0.17,2.24 -2.12,3.91 -4.36,3.74c-0.08,-0.01 -0.15,-0.02 -0.23,-0.03zm1.45,-14.2c-0.08,-0.01 -0.13,-0.01 -0.21,-0.02c-1.82,-0.15 -3.39,1.22 -3.52,3.04l-0.48,6.9c-0.06,0.88 0.22,1.73 0.8,2.39c0.57,0.65 1.38,1.08 2.24,1.14c1.82,0.14 3.39,-1.22 3.53,-3.04l0.47,-6.9c0.15,-1.74 -1.12,-3.28 -2.83,-3.51z" fill="#888888" id="svg_43"/>
  <path clip-rule="evenodd" d="m143.18,232.55c-0.95,-1.81 -0.27,-4.03 1.54,-4.97l4.52,-2.36c1.81,-0.94 4.03,-0.24 4.98,1.57c0.95,1.81 0.27,4.03 -1.54,4.97l-4.52,2.36c-1.81,0.94 -4.03,0.24 -4.98,-1.57z" fill="#F7F7F7" fill-rule="evenodd" id="svg_44"/>
  <path d="m145.93,234.9c-1.27,-0.17 -2.46,-0.94 -3.09,-2.16c-1.06,-1.98 -0.29,-4.45 1.71,-5.5l4.52,-2.36c0.96,-0.5 2.08,-0.58 3.12,-0.26c1.04,0.32 1.89,1.05 2.4,2.01c1.06,1.98 0.29,4.45 -1.72,5.5l-4.52,2.36c-0.78,0.37 -1.62,0.51 -2.42,0.41zm-2.41,-2.54c0.84,1.62 2.84,2.25 4.45,1.39l4.53,-2.36c1.6,-0.83 2.23,-2.82 1.36,-4.44c-0.4,-0.79 -1.09,-1.36 -1.95,-1.63c-0.83,-0.27 -1.74,-0.18 -2.5,0.21l-4.52,2.36c-1.59,0.87 -2.21,2.86 -1.37,4.47z" fill="#888888" id="svg_45"/>
  <path d="m234.77,309.98l30.63,11.23c2.76,0.85 5.31,2.34 7.34,4.4l15.96,16.03c3.41,3.43 5.23,8.05 5.07,12.86l-1.47,41.87l-36.06,-1.59l4.26,-31.12l-79.74,27.9c-1.16,0.4 -2.4,-0.33 -2.63,-1.54l-10.24,-55.57l-26.75,-28.01c-3,-2.66 -4.98,-6.26 -5.6,-10.2l-8.57,-53l38.42,-6.34l5.69,42.37l26.87,16.95l2.14,-1.97l34.68,15.73z" fill="#1E6BFF" id="svg_46"/>
  <path d="m337.84,400.35l13.28,-3.44c0,0 14.17,20.23 18.5,26.26c4.3,5.99 14.86,5.47 14.86,5.47l-31.41,-62.54l-26.09,9.96l10.86,24.29z" fill="#F7F7F7" id="svg_47"/>
  <path d="m380.08,428.79c-0.49,-0.07 -0.98,-0.14 -1.49,-0.26c-4.27,-0.81 -7.46,-2.61 -9.29,-5.14c-4.01,-5.59 -16.77,-23.79 -18.35,-26.03l-13,3.37c-0.2,0.05 -0.39,-0.05 -0.45,-0.22l-10.88,-24.31c-0.04,-0.11 -0.05,-0.22 -0.01,-0.32c0.04,-0.1 0.13,-0.16 0.21,-0.2l26.09,-9.97c0.2,-0.07 0.4,0.01 0.5,0.2l31.41,62.54c0.06,0.12 0.04,0.27 -0.02,0.37c-0.07,0.1 -0.19,0.18 -0.32,0.19c-0.08,0.02 -1.94,0.11 -4.4,-0.22zm-28.92,-32.24c0.11,0.01 0.2,0.08 0.27,0.16c0.13,0.21 14.25,20.3 18.51,26.24c2.14,2.99 5.97,4.28 8.8,4.81c2.21,0.43 4.15,0.49 5.1,0.48l-30.96,-61.66l-25.37,9.69l10.57,23.63l12.95,-3.34c0.03,-0.03 0.08,-0.02 0.13,-0.01z" fill="#888888" id="svg_48"/>
  <path d="m351.05,397.33c-0.11,-0.02 -0.2,-0.08 -0.27,-0.17l-2.31,-3.33c-0.13,-0.18 -0.07,-0.43 0.1,-0.54c0.18,-0.14 0.43,-0.08 0.54,0.1l2.31,3.33c0.13,0.18 0.07,0.43 -0.1,0.54c-0.09,0.04 -0.17,0.08 -0.27,0.07z" fill="#888888" id="svg_49"/>
  <path d="m226.96,259.36c-11.46,-2.62 -23.28,2.07 -28.41,12.15c-2.98,5.85 -3.29,12.64 -0.89,19.08c2.43,6.47 7.29,11.83 13.69,15.09c6.43,3.28 13.6,4.06 20.24,2.22c6.65,-1.83 11.94,-6.06 14.92,-11.91c2.98,-5.85 3.29,-12.64 0.89,-19.08c-2.43,-6.48 -7.29,-11.83 -13.69,-15.09c-2.2,-1.11 -4.47,-1.94 -6.75,-2.46z" fill="#F7F7F7" id="svg_50"/>
  <path d="m227.31,309.33c-0.03,-0.01 -0.05,-0.01 -0.07,-0.04c-0.15,-0.07 -0.21,-0.26 -0.14,-0.41c0.47,-0.94 0.91,-1.88 1.37,-2.81c6.42,-13.11 11.96,-24.45 1.56,-35.6c-1.46,-1.57 -3.19,-2.22 -5.17,-2.02c-10.42,1.2 -24.72,26.25 -24.86,26.49c-0.07,0.15 -0.26,0.21 -0.41,0.11c-0.15,-0.07 -0.2,-0.27 -0.1,-0.41c0.03,-0.08 3.65,-6.44 8.55,-12.9c6.61,-8.7 12.25,-13.38 16.77,-13.9c2.19,-0.25 4.1,0.48 5.69,2.19c4.88,5.23 6.68,10.84 5.67,17.58c-0.91,6 -3.93,12.16 -7.12,18.69c-0.47,0.94 -0.91,1.88 -1.37,2.82c-0.08,0.19 -0.22,0.25 -0.37,0.21z" fill="#888888" id="svg_51"/>
  <path d="m218.04,308.8c-2.37,-0.56 -4.69,-1.4 -6.94,-2.55c-6.54,-3.35 -11.52,-8.83 -13.98,-15.42c-2.49,-6.62 -2.16,-13.57 0.89,-19.59c6.3,-12.4 22.43,-16.87 35.97,-9.94c6.54,3.35 11.52,8.83 13.98,15.42c2.48,6.62 2.16,13.57 -0.89,19.59c-3.05,6.01 -8.49,10.37 -15.29,12.24c-4.46,1.21 -9.18,1.28 -13.74,0.25zm8.92,-49.45c-11.46,-2.62 -23.27,2.06 -28.4,12.15c-2.98,5.85 -3.28,12.64 -0.88,19.09c2.42,6.48 7.28,11.84 13.68,15.1c6.42,3.28 13.59,4.06 20.23,2.23c6.65,-1.84 11.94,-6.06 14.91,-11.92c2.98,-5.85 3.28,-12.64 0.88,-19.09c-2.42,-6.48 -7.28,-11.84 -13.68,-15.1c-2.2,-1.11 -4.46,-1.94 -6.74,-2.46z" fill="#888888" id="svg_52"/>
  <path clip-rule="evenodd" d="m216.49,278.14l-9.92,3.71l5.51,4.63" fill="#F7F7F7" fill-rule="evenodd" id="svg_53"/>
  <path d="m211.96,286.75c-0.02,0 -0.05,-0.03 -0.05,-0.03l-5.5,-4.63c-0.08,-0.07 -0.14,-0.18 -0.1,-0.28c0.01,-0.1 0.08,-0.2 0.19,-0.24l9.89,-3.71c0.16,-0.05 0.34,0.02 0.39,0.19c0.06,0.16 -0.01,0.34 -0.18,0.39l-9.42,3.54l5.11,4.29c0.12,0.1 0.14,0.31 0.05,0.43c-0.12,0.06 -0.28,0.09 -0.38,0.05z" fill="#888888" id="svg_54"/>
  <path d="m219.32,284.37c0.54,0.07 1.04,-0.31 1.11,-0.85c0.07,-0.54 -0.31,-1.04 -0.85,-1.11c-0.55,-0.08 -1.05,0.3 -1.12,0.85c-0.07,0.54 0.32,1.04 0.86,1.11z" fill="#888888" id="svg_55"/>
  <path d="m212.27,278.97c0.54,0.07 1.04,-0.31 1.11,-0.85c0.07,-0.54 -0.31,-1.04 -0.85,-1.11c-0.55,-0.07 -1.05,0.3 -1.12,0.85c-0.07,0.54 0.32,1.04 0.86,1.11z" fill="#888888" id="svg_56"/>
  <path clip-rule="evenodd" d="m212.15,291.76c0,0 6.32,3.3 10.45,0.73c0,0 0.47,5.49 -2.06,4.67" fill="#F7F7F7" fill-rule="evenodd" id="svg_57"/>
  <path d="m220.62,297.51c-0.08,-0.01 -0.12,-0.04 -0.2,-0.05c-0.15,-0.05 -0.26,-0.22 -0.19,-0.37c0.07,-0.15 0.22,-0.26 0.37,-0.19c0.35,0.1 0.64,0.09 0.88,-0.11c0.77,-0.61 0.84,-2.63 0.81,-3.79c-1.7,0.88 -3.95,1.02 -6.56,0.4c-2.1,-0.49 -3.68,-1.31 -3.76,-1.34c-0.15,-0.08 -0.2,-0.27 -0.13,-0.42c0.07,-0.14 0.27,-0.2 0.41,-0.13c0.08,0.04 6.23,3.19 10.14,0.74c0.09,-0.07 0.19,-0.05 0.29,-0.01c0.1,0.04 0.16,0.15 0.18,0.26c0.03,0.37 0.27,3.75 -1.02,4.78c-0.21,0.16 -0.63,0.36 -1.22,0.23z" fill="#888888" id="svg_58"/>
  <path d="m259.86,364.36c-0.08,-0.01 -0.15,-0.05 -0.22,-0.11l-6.57,-6.27c-0.16,-0.15 -0.16,-0.39 0,-0.55c0.15,-0.17 0.39,-0.16 0.55,-0.01l6.57,6.27c0.16,0.16 0.16,0.39 0,0.56c-0.09,0.09 -0.23,0.12 -0.33,0.11z" fill="#888888" id="svg_59"/>
  <path d="m247.74,450.55c-13.64,-2.25 -25.46,-5.55 -35.89,-9.99c-25.62,-10.89 -37.88,-26.6 -49.72,-41.76c-7.47,-9.57 -14.52,-18.61 -24.68,-26.17c-17.89,-13.33 -37.25,-20.83 -54.35,-27.43c-23.01,-8.9 -42.86,-16.6 -46.65,-34.98c-3.03,-14.7 10.42,-27.48 23.42,-39.86c11.51,-10.95 22.39,-21.3 19.66,-30.76c-2.67,-9.24 -12.07,-12.83 -28.46,-18.37c-11.69,-3.94 -24.91,-8.41 -36.53,-17.1c-13.44,-10.03 -21.96,-23.76 -26.05,-41.89c-0.5,-2.18 1.26,-4.15 3.94,-4.4c2.65,-0.24 5.21,1.34 5.71,3.52c8.2,36.31 33.65,44.94 56.11,52.52c15.83,5.35 30.75,10.39 34.82,24.42c1.77,6.14 0.14,12.62 -5.02,19.83c-4.24,5.95 -10.48,11.9 -16.54,17.64c-11.65,11.07 -23.68,22.55 -21.4,33.68c2.86,13.95 18.71,20.08 40.64,28.57c17.79,6.88 37.92,14.67 56.99,28.88c11.24,8.37 18.99,18.34 26.54,27.96c11.6,14.84 22.54,28.85 45.58,38.67c12.57,5.36 27.52,8.92 45.71,10.91c20.53,2.24 45.57,2.4 74.46,0.45c23.76,-1.58 41.34,-6.72 59.91,-12.16c30.24,-8.85 61.5,-17.97 119.25,-9.62c0.03,0 0.08,0.01 0.11,0.01c2.63,0.44 4.53,2.48 4.24,4.62c-0.29,2.17 -2.69,3.61 -5.39,3.21c-24.8,-3.58 -46.6,-4.12 -66.64,-1.61c-17.9,2.23 -32.38,6.47 -47.68,10.94c-18.35,5.36 -37.32,10.91 -62.3,12.58c-29.99,2.02 -55.02,1.84 -76.56,-0.49c-4.55,-0.52 -8.98,-1.11 -13.23,-1.82z" fill="url(#paint2_linear_14094_113863)" id="svg_60"/>
  <path d="m65.41,279.81c3.36,-0.76 5.46,-4.08 4.69,-7.43c-0.77,-3.34 -4.12,-5.43 -7.48,-4.67c-3.36,0.76 -5.45,4.09 -4.68,7.43c0.77,3.34 4.12,5.43 7.47,4.67z" fill="white" id="svg_61"/>
  <path d="m65.23,281.73c-4.42,0.65 -8.55,-2.4 -9.21,-6.8c-0.66,-4.41 2.4,-8.51 6.83,-9.15c4.42,-0.65 8.55,2.4 9.21,6.8c0.66,4.41 -2.42,8.51 -6.83,9.15zm-1.85,-12.29c-2.39,0.36 -4.05,2.59 -3.69,4.97c0.35,2.37 2.6,4.03 4.99,3.68c2.39,-0.35 4.05,-2.58 3.7,-4.96c-0.36,-2.37 -2.61,-4.03 -5,-3.69z" fill="url(#paint3_linear_14094_113863)" id="svg_62"/>
  <path d="m135.66,371.31c3.36,-0.76 5.46,-4.08 4.69,-7.42c-0.77,-3.34 -4.12,-5.44 -7.48,-4.68c-3.35,0.76 -5.45,4.09 -4.68,7.43c0.77,3.34 4.12,5.43 7.47,4.67z" fill="white" id="svg_63"/>
  <path d="m135.46,373.24c-4.42,0.64 -8.55,-2.4 -9.21,-6.81c-0.66,-4.4 2.4,-8.5 6.83,-9.15c4.42,-0.64 8.55,2.41 9.21,6.81c0.66,4.41 -2.4,8.51 -6.83,9.15zm-1.83,-12.29c-2.38,0.35 -4.05,2.58 -3.69,4.96c0.36,2.37 2.61,4.03 4.99,3.68c2.39,-0.35 4.06,-2.58 3.7,-4.96c-0.38,-2.39 -2.61,-4.03 -5,-3.68z" fill="url(#paint4_linear_14094_113863)" id="svg_64"/>
  <path d="m235.58,450.48c3.36,-0.76 5.46,-4.08 4.69,-7.42c-0.77,-3.34 -4.12,-5.43 -7.48,-4.68c-3.35,0.76 -5.45,4.09 -4.68,7.43c0.77,3.34 4.11,5.43 7.47,4.67z" fill="white" id="svg_65"/>
  <path d="m235.4,452.41c-4.43,0.64 -8.56,-2.41 -9.21,-6.81c-0.66,-4.41 2.4,-8.51 6.82,-9.15c4.43,-0.64 8.56,2.4 9.21,6.81c0.66,4.38 -2.42,8.51 -6.82,9.15zm-1.85,-12.29c-2.39,0.35 -4.05,2.58 -3.7,4.96c0.36,2.37 2.61,4.03 5,3.68c2.38,-0.34 4.05,-2.58 3.69,-4.96c-0.36,-2.39 -2.6,-4.03 -4.99,-3.68z" fill="url(#paint5_linear_14094_113863)" id="svg_66"/>
  <path d="m351.18,416.76l-77.89,30.16c-4.34,1.68 -9.27,0.67 -12.62,-2.56l-19.44,-18.73l62.72,-16.84l24.95,-40.62l22.28,48.59z" fill="#11245A" id="svg_67"/>
  <path d="m267.56,448.56c-2.54,-0.34 -4.95,-1.48 -6.84,-3.34l-23.23,-22.48c-0.17,-0.16 -0.16,-0.39 -0.01,-0.56c0.15,-0.16 0.39,-0.15 0.56,0l23.23,22.49c3.25,3.14 8.06,4.08 12.24,2.35l19.3,-7.16c0.19,-0.08 0.42,0.03 0.5,0.23c0.08,0.19 -0.03,0.41 -0.23,0.49l-19.29,7.17c-2.04,0.83 -4.15,1.09 -6.23,0.81z" fill="#F7F7F7" id="svg_68"/>
  <path clip-rule="evenodd" d="m17.28,425.78l55.03,41.03l34.52,-6.75l-56.66,-47.21l-32.89,12.93z" fill="#F7F7F7" fill-rule="evenodd" id="svg_69"/>
  <path d="m106.95,460.4l-0.03,0.01l-34.55,6.76c-0.12,0.04 -0.22,0.01 -0.31,-0.06l-55,-41.04c-0.13,-0.09 -0.17,-0.23 -0.15,-0.37c0.02,-0.13 0.11,-0.25 0.23,-0.29l32.89,-12.93c0.15,-0.04 0.28,-0.02 0.38,0.08l56.66,47.21c0.12,0.08 0.17,0.23 0.12,0.37c0,0.12 -0.1,0.22 -0.24,0.26zm-34.54,6l33.59,-6.59l-55.88,-46.54l-32.04,12.61l54.33,40.52z" fill="#888888" id="svg_70"/>
  <path clip-rule="evenodd" d="m72.31,466.82l5.7,4.66l32.08,-6.63l-3.27,-4.78l-34.51,6.75z" fill="#F7F7F7" fill-rule="evenodd" id="svg_71"/>
  <path d="m110.2,465.2l-0.03,0.01l-32.08,6.63c-0.11,0.03 -0.22,0 -0.31,-0.09l-5.7,-4.64c-0.12,-0.08 -0.16,-0.23 -0.11,-0.37c0.05,-0.14 0.15,-0.24 0.29,-0.28l34.55,-6.76c0.15,-0.02 0.29,0.03 0.4,0.16l3.26,4.78c0.06,0.11 0.07,0.24 0.05,0.37c-0.13,0.1 -0.21,0.16 -0.32,0.19zm-32.09,5.88l31.33,-6.46l-2.8,-4.12l-33.49,6.57l4.96,4.01z" fill="#888888" id="svg_72"/>
  <path clip-rule="evenodd" d="m106.82,460.05l59.57,-26.4l2.94,5.3l-59.25,25.89l-3.26,-4.79z" fill="#F7F7F7" fill-rule="evenodd" id="svg_73"/>
  <path d="m110.19,465.18c-0.14,0.05 -0.32,-0.02 -0.43,-0.15l-3.26,-4.78c-0.06,-0.11 -0.09,-0.2 -0.04,-0.34c0.03,-0.1 0.1,-0.19 0.21,-0.25l59.54,-26.39c0.19,-0.09 0.38,0.01 0.49,0.16l2.98,5.32c0.06,0.07 0.07,0.2 0.04,0.3c-0.04,0.11 -0.11,0.19 -0.22,0.23l-59.26,25.86c-0.02,0.03 -0.02,0.03 -0.05,0.04zm-2.79,-4.99l2.82,4.17l58.58,-25.59l-2.58,-4.65l-58.82,26.07z" fill="#888888" id="svg_74"/>
  <path clip-rule="evenodd" d="m166.38,433.65l-54.47,14.55l-12.95,5.28l7.85,6.57l59.57,-26.4z" fill="#F7F7F7" fill-rule="evenodd" id="svg_75"/>
  <path d="m106.92,460.39c-0.11,0.04 -0.25,0.02 -0.37,-0.07l-7.87,-6.54c-0.1,-0.09 -0.16,-0.2 -0.14,-0.33c0.02,-0.14 0.11,-0.26 0.23,-0.29l12.94,-5.3c0.03,-0.01 0.03,-0.01 0.06,-0.02l54.47,-14.55c0.2,-0.06 0.4,0.07 0.45,0.24c0.06,0.17 -0.03,0.39 -0.2,0.47l-59.54,26.39c0,0 0,0 -0.03,0zm-7.22,-6.8l7.19,5.99l54.93,-24.35l-49.78,13.28l-12.34,5.08z" fill="#888888" id="svg_76"/>
  <path d="m66.99,448.57c1.1,-1.21 -0.59,-4.52 -3.78,-7.38c-3.18,-2.87 -6.66,-4.2 -7.77,-2.99c-1.1,1.21 0.59,4.51 3.78,7.38c3.19,2.86 6.67,4.2 7.77,2.99z" fill="#1E6BFF" id="svg_77"/>
 </g>
</svg>