<svg width="1625" height="666" viewBox="0 0 1625 666" fill="none" xmlns="http://www.w3.org/2000/svg">
<path opacity="0.51" d="M1190.73 146.656L1163.57 195.118L1136.42 243.58L1041.58 149.573L1110.74 111.674L1190.73 146.656Z" fill="#EFC4FF"/>
<path d="M1174.24 200.963C1189.27 174.182 1196.66 149.828 1190.75 146.566C1184.84 143.304 1167.86 162.37 1152.83 189.151C1137.8 215.932 1130.41 240.286 1136.32 243.548C1142.23 246.81 1159.21 227.744 1174.24 200.963Z" fill="#EFC4FF"/>
<path d="M1105 67.2175C1121.66 80.4372 1124.24 104.679 1110.74 121.085C1104.89 128.177 1097.07 136.218 1086.71 145.062C1076.31 153.924 1067.17 160.403 1059.2 165.052C1040.85 175.881 1017.15 169.634 1006.55 151.248L1003.08 145.249C987.636 118.451 993.552 84.5271 1017.12 64.3768C1040.68 44.2266 1075.34 43.6157 1099.58 62.8818L1105 67.2175Z" fill="#F7F7F7"/>
<path d="M1053.43 168.669C1045.96 171.485 1037.76 171.954 1029.88 169.881C1019.71 167.231 1011.2 160.765 1005.94 151.685L1002.47 145.685C986.878 118.635 992.821 84.2372 1016.69 63.9225C1040.49 43.5799 1075.61 42.9504 1100.06 62.3903L1105.49 66.726C1113.71 73.2489 1118.85 82.5778 1119.97 93.0144C1121.06 103.406 1117.99 113.571 1111.36 121.624C1104.91 129.457 1096.76 137.572 1087.21 145.698C1077.67 153.824 1068.39 160.613 1059.63 165.767C1057.58 166.901 1055.52 167.883 1053.43 168.669ZM1036.54 53.7645C1029.75 56.3247 1023.35 60.0724 1017.56 64.9843C994.256 84.88 988.435 118.511 1003.69 144.92L1007.15 150.92C1012.18 159.674 1020.39 165.893 1030.22 168.466C1039.99 171.011 1050.16 169.593 1058.83 164.474C1067.5 159.354 1076.75 152.627 1086.2 144.535C1095.7 136.426 1103.74 128.407 1110.16 120.636C1116.58 112.866 1119.51 103.119 1118.46 93.1213C1117.39 83.0789 1112.47 74.0761 1104.55 67.8L1099.13 63.4643C1081.07 49.1735 1057.19 45.9813 1036.54 53.7645Z" fill="#888888"/>
<path d="M1137.04 91.6294L1115.77 90.9936L1115.73 91.0107C1116.09 100.144 1113.22 109.515 1106.9 117.15C1100.95 124.389 1092.98 132.593 1082.33 141.653C1071.68 150.712 1062.38 157.309 1054.25 162.074C1046.25 166.788 1037.25 168.325 1028.72 167.115L1028.29 167.483L1024.99 187.315C1024.1 191.254 1024.45 194.366 1026.24 196.474C1034.2 205.728 1067.45 190.313 1100.45 162.115C1133.46 133.917 1153.82 103.531 1145.88 94.3219C1144.14 92.1965 1141.09 91.3896 1137.04 91.6294Z" fill="#11245A"/>
<path d="M1119.39 92.8513C1124.36 98.5986 1109.25 122.222 1084.5 143.397C1059.76 164.571 1034.72 175.143 1029.78 169.379C1024.85 163.614 1040.89 141.861 1065.6 120.748C1090.32 99.6354 1114.41 87.104 1119.39 92.8513Z" fill="#F7F7F7"/>
<path d="M1044.95 169.224C1034.44 173.186 1030.62 171.433 1029.24 169.842C1023.33 163.004 1042.88 139.202 1065.12 120.158C1077.13 109.913 1089.36 101.337 1099.58 96.045C1106.98 92.2236 1116.53 88.468 1119.92 92.3424C1125.56 98.8712 1108.88 123.441 1084.95 143.896C1073.3 153.852 1060.89 162.084 1049.99 167.069C1048.2 167.949 1046.49 168.643 1044.95 169.224ZM1107.6 93.9981C1105.38 94.8349 1102.91 95.9715 1100.27 97.3286C1090.15 102.586 1078.04 111.066 1066.1 121.231C1039.62 143.833 1026.24 164.122 1030.36 168.851C1032.5 171.342 1039.83 170.178 1049.43 165.734C1060.19 160.801 1072.47 152.62 1084.05 142.743C1108.77 121.631 1123.3 98.3826 1118.87 93.2541C1117.35 91.5617 1113.31 91.8464 1107.6 93.9981Z" fill="#888888"/>
<path d="M1047.97 179.914C1038.23 183.585 1030.63 184.028 1026.57 180.561C1026.26 180.314 1026.25 179.857 1026.5 179.557C1026.74 179.257 1027.2 179.239 1027.5 179.486C1036.05 186.723 1063.35 174.323 1091.08 150.633C1117.15 128.337 1134.06 102.748 1129.54 92.3438C1129.41 91.9833 1129.56 91.5653 1129.9 91.3837C1130.27 91.247 1130.69 91.3979 1130.87 91.7414C1135.66 102.867 1118.93 128.647 1091.99 151.679C1075.98 165.441 1060.29 175.27 1047.97 179.914Z" fill="#F7F7F7"/>
<path d="M1088.73 87.2106C1096.51 102.239 1089.87 120.746 1074.23 127.411C1069.9 129.246 1064.89 131.033 1059.03 132.778C1053.17 134.524 1047.98 135.708 1043.37 136.519C1026.61 139.436 1010.92 127.545 1009.23 110.686C1007.2 90.6104 1019.84 71.9535 1039.26 66.2327C1058.7 60.4499 1079.5 69.2849 1088.73 87.2106Z" fill="url(#paint0_radial_13947_106761)"/>
<path d="M1046.27 98.4682C1045.83 97.0388 1045.72 95.6421 1045.8 94.2221C1045.94 92.8301 1046.32 91.505 1046.97 90.2295C1047.6 89.0161 1048.45 87.9766 1049.51 87.111C1050.58 86.2453 1051.75 85.6498 1053.1 85.2451C1054.4 84.8575 1055.76 84.757 1057.1 84.8707C1058.45 85.0294 1059.74 85.4193 1060.98 86.0854C1062.21 86.7515 1063.23 87.6549 1064.11 88.7616C1064.95 89.8854 1065.63 91.1225 1066.03 92.5689C1066.38 93.7733 1066.56 94.9388 1066.55 96.1275C1066.52 97.2712 1066.33 98.4211 1065.92 99.5042C1065.32 101.067 1064.44 102.427 1063.19 103.513C1062.11 104.486 1060.84 105.223 1059.51 105.673C1058.09 106.156 1056.69 106.274 1055.22 106.104C1053.87 105.946 1052.58 105.556 1051.39 104.873C1050.14 104.161 1049.08 103.275 1048.19 102.168C1047.34 101.152 1046.71 99.8975 1046.27 98.4682ZM1051.01 97.0433C1051.49 98.7148 1052.43 99.9566 1053.73 100.803C1055.03 101.649 1056.45 101.835 1057.89 101.397C1059.33 100.958 1060.38 100.047 1061.03 98.6198C1061.67 97.1922 1061.77 95.6652 1061.23 93.9658C1060.73 92.2493 1059.79 91.0075 1058.49 90.1614C1057.18 89.3153 1055.77 89.1286 1054.33 89.5674C1052.89 90.0062 1051.84 90.9168 1051.19 92.3443C1050.61 93.7998 1050.53 95.3718 1051.01 97.0433Z" fill="#F7F7F7"/>
<path d="M1034.23 92.8614L1030.44 92.4352C1030.18 92.4304 1029.95 92.6228 1029.92 92.8369C1029.28 98.6353 1030.24 101.308 1030.24 101.308L1030.37 101.775C1030.84 103.294 1030.84 104.527 1030.44 105.503C1030.03 106.479 1029.2 107.152 1027.99 107.506C1026.73 107.876 1025.64 107.722 1024.77 107.072C1023.91 106.422 1023.2 105.247 1022.7 103.53L1022.53 102.928C1022.11 101.285 1021.27 97.0239 1021.67 92.3473C1021.67 92.0882 1021.48 91.8523 1021.26 91.8305L1017.5 91.4493C1017.24 91.4445 1017 91.6369 1016.99 91.896C1016.52 97.322 1017.54 102.185 1018.01 104.116C1018.03 104.161 1018 104.223 1018.02 104.268L1018.13 104.69C1018.19 104.87 1018.2 105.022 1018.2 105.022L1018.29 105.399C1019.14 108.167 1020.45 110.14 1022.38 111.265C1024.26 112.408 1026.51 112.592 1029.11 111.817C1031.67 111.059 1033.48 109.706 1034.38 107.72C1036.18 103.856 1034.8 99.692 1034.8 99.692C1034.79 99.647 1034.2 98.1169 1034.74 93.3891C1034.64 93.1191 1034.46 92.9282 1034.23 92.8614Z" fill="#F7F7F7"/>
<path d="M1054.71 123.525L1054.67 123.542C1050.8 124.688 1047.4 124.321 1047.29 124.31L1047.78 119.592C1048.21 119.636 1057.96 120.496 1061.11 111.736L1065.6 113.341C1063.75 118.419 1059.97 121.957 1054.71 123.525Z" fill="#F7F7F7"/>
<path d="M1038.74 119.686L1036.02 118.242C1035.77 118.13 1035.72 117.843 1035.83 117.595C1039.55 110.639 1039.2 107.272 1038.58 101.282C1038.35 99.1597 1038.14 96.7162 1038 93.7376C1037.75 87.093 1040.37 82.9675 1042.61 80.6848C1044.46 78.7525 1046.38 77.8225 1047.27 77.4365C1047.54 77.3343 1047.79 77.4461 1047.89 77.716L1049.05 81.0349L1048.38 79.128L1048.88 80.5849C1048.97 80.8099 1048.85 81.0581 1048.64 81.1883C1047.09 81.8749 1041.71 84.9848 1042.03 93.6058C1042.13 96.4494 1042.36 98.8309 1042.58 100.908C1043.23 107.247 1043.66 111.509 1039.35 119.509C1039.28 119.74 1038.99 119.798 1038.74 119.686Z" fill="#EFC4FF"/>
<path d="M1032.56 102.33L1030.29 100.19C1030.12 99.9988 1030.1 99.6938 1030.3 99.5181C1031.48 98.402 1035.49 94.9279 1039.92 95.1188C1044.08 95.3047 1046.35 93.5189 1047.06 92.7882C1047.21 92.6296 1047.47 92.6345 1047.67 92.7639L1050.21 94.5417C1050.43 94.7162 1050.49 95.0041 1050.27 95.242C1049.26 96.3972 1045.96 99.4455 1039.7 99.1752C1037.01 99.0529 1034.15 101.473 1033.18 102.351C1033.04 102.51 1032.73 102.522 1032.56 102.33Z" fill="#EFC4FF"/>
<path d="M1038.79 61.8273C1037.73 61.6114 1036.94 60.623 1036.94 59.5416L1037.19 43.2981C1037.21 40.3581 1039.96 38.1914 1042.83 38.8064C1045.53 39.3826 1047.19 42.1026 1046.34 44.7864L1041.47 60.3028C1041.16 61.3965 1039.96 62.0541 1038.79 61.8273Z" fill="#1E6BFF"/>
<path d="M1046.49 59.4779C1045.68 58.7029 1045.54 57.5198 1046.12 56.5822L1054.83 42.8497C1056.42 40.3473 1059.88 39.918 1062 41.9509C1064 43.8207 1063.97 47.0222 1061.87 48.8445L1049.57 59.5516C1048.67 60.3044 1047.32 60.2979 1046.49 59.4779Z" fill="#1E6BFF"/>
<path d="M1120.74 97.8907C1123.97 102.293 1105.13 121.302 1078.75 140.371C1052.37 159.439 1028.33 171.286 1025.15 166.867C1021.92 162.464 1040.76 143.455 1067.14 124.387C1093.52 105.319 1117.52 93.488 1120.74 97.8907Z" fill="url(#paint1_radial_13947_106761)"/>
<path d="M1388.99 379.813L1416.54 363.055C1416.54 363.055 1461.97 398.74 1475.7 409.232C1489.38 419.767 1512.78 411.318 1512.78 411.318L1400.28 292.479L1348.33 332.695L1388.99 379.813Z" fill="#F7F7F7"/>
<path d="M1513.36 411.952C1513.28 412.04 1513.1 412.131 1512.98 412.178C1511.99 412.505 1489.01 420.685 1475.07 409.983C1462.31 400.158 1421.43 368.114 1416.39 364.183L1389.4 380.625C1389.02 380.851 1388.5 380.778 1388.23 380.439L1347.52 333.364C1347.34 333.196 1347.25 332.939 1347.33 332.678C1347.33 332.419 1347.45 332.2 1347.67 332.065L1399.62 291.848C1400 291.536 1400.52 291.609 1400.88 291.946L1513.38 410.786C1513.6 410.996 1513.69 411.339 1513.61 411.6C1513.57 411.731 1513.49 411.819 1513.36 411.952ZM1389.18 378.644L1416.05 362.248C1416.39 362.067 1416.78 362.1 1417.09 362.308C1417.53 362.643 1462.65 398.12 1476.25 408.485C1487.55 417.181 1505.96 412.441 1511.08 410.887L1400.13 293.691L1349.59 332.794L1389.18 378.644Z" fill="#888888"/>
<path d="M1417.18 363.657C1416.84 364.011 1416.33 364.024 1415.93 363.731L1408.47 357.831C1408.08 357.538 1407.97 356.937 1408.36 356.539C1408.65 356.143 1409.25 356.042 1409.65 356.42L1417.11 362.321C1417.51 362.613 1417.61 363.215 1417.23 363.613L1417.18 363.657Z" fill="#888888"/>
<path d="M1055.43 465.147L1226.98 500.272C1238.88 502.682 1251.3 500.838 1262.02 495.015L1412.87 412.691L1373.98 303.038L1311.71 328.1L1305.27 351.81L1351.38 182.178L1228.45 157.316L1179.17 286.228L1120.22 273.687L1055.43 465.147Z" fill="#11245A"/>
<path fill-rule="evenodd" clip-rule="evenodd" d="M1247.63 279.138L1231.4 272.118L1202.64 257.853L1171.16 296.561L1188.31 319.766L1200.68 336.911C1203.63 340.64 1209.12 341.278 1212.87 338.329C1215.94 335.917 1216.9 331.916 1215.6 328.492L1227.03 338.487C1230.49 341.511 1235.73 341.161 1238.78 337.712C1241.83 334.263 1241.5 329.042 1238.04 326.018L1236.98 325.094C1240.56 326.04 1244.48 324.6 1246.53 321.306C1248.71 317.793 1248.14 313.356 1245.29 310.576C1247.41 310.046 1249.34 308.744 1250.59 306.724C1253.15 302.639 1251.9 297.311 1247.85 294.821L1247.41 294.573C1248.91 293.8 1250.27 292.555 1251.15 290.934C1253.48 286.552 1251.89 281.32 1247.63 279.138Z" fill="#F7F7F7"/>
<path d="M1239.32 338.477C1235.92 342.021 1230.24 342.296 1226.48 339.063L1217.13 330.874C1217.33 333.937 1215.96 336.954 1213.49 338.919C1211.48 340.483 1208.94 341.196 1206.41 340.915C1203.89 340.634 1201.56 339.353 1199.99 337.362L1187.58 320.174L1169.98 296.376L1202.39 256.607L1231.77 271.201L1248.04 278.264C1252.7 280.738 1254.52 286.526 1252.02 291.172C1251.31 292.443 1250.38 293.591 1249.18 294.399C1253.03 297.37 1254.06 302.832 1251.46 307.048C1250.42 308.76 1248.84 310.054 1246.99 310.836C1249.32 313.975 1249.59 318.204 1247.41 321.63C1245.69 324.397 1242.77 326.027 1239.69 326.149C1240.98 327.629 1241.72 329.512 1241.85 331.497C1242.04 333.956 1241.22 336.31 1239.57 338.211C1239.49 338.299 1239.4 338.388 1239.32 338.477ZM1213.49 325.305L1227.7 337.692C1230.8 340.379 1235.44 340.045 1238.2 336.993C1239.51 335.533 1240.16 333.614 1240.03 331.63C1239.9 329.645 1238.99 327.853 1237.53 326.55L1233.54 323.108L1237.34 324.091C1240.66 324.957 1244.11 323.573 1245.91 320.718C1247.79 317.687 1247.36 313.636 1244.78 311.108L1243.58 309.972L1245.22 309.584C1247.21 309.101 1248.88 307.892 1249.97 306.135C1252.23 302.533 1251.12 297.764 1247.51 295.522L1245.71 294.401L1247.17 293.672C1248.63 292.944 1249.73 291.792 1250.48 290.39C1252.48 286.622 1251.07 281.99 1247.34 279.967L1231.11 272.947L1203.01 258.968L1172.45 296.529L1189.2 319.181L1201.57 336.327C1202.83 337.938 1204.67 338.928 1206.72 339.178C1208.77 339.429 1210.79 338.815 1212.42 337.564C1215.1 335.464 1216.07 331.895 1214.91 328.769L1213.49 325.305Z" fill="#888888"/>
<path fill-rule="evenodd" clip-rule="evenodd" d="M1231.4 272.055L1247.62 279.076C1251.84 281.303 1253.43 286.532 1251.19 290.736C1248.94 294.939 1243.68 296.54 1239.46 294.313L1229.35 288.952" fill="#F7F7F7"/>
<path d="M1250.51 293.3C1249.36 294.495 1247.95 295.352 1246.4 295.823C1243.98 296.574 1241.33 296.339 1239.09 295.143L1228.98 289.782C1228.54 289.534 1228.35 289.02 1228.6 288.582C1228.85 288.144 1229.37 287.958 1229.81 288.206L1239.92 293.567C1241.76 294.557 1243.85 294.764 1245.84 294.109C1247.82 293.541 1249.48 292.16 1250.44 290.365C1252.44 286.6 1251.03 281.97 1247.29 279.948L1231.07 272.927C1230.59 272.723 1230.4 272.209 1230.61 271.729C1230.81 271.249 1231.33 271.063 1231.81 271.267L1248.08 278.33C1252.74 280.804 1254.56 286.589 1252.07 291.231C1251.6 291.977 1251.1 292.681 1250.51 293.3Z" fill="#888888"/>
<path fill-rule="evenodd" clip-rule="evenodd" d="M1230.42 283.865L1247.9 294.698C1251.99 297.23 1253.2 302.512 1250.64 306.593C1248.09 310.674 1242.78 311.887 1238.68 309.355L1223.75 300.099" fill="#F7F7F7"/>
<path d="M1250.25 308.59C1248.98 309.918 1247.31 310.867 1245.45 311.302C1242.95 311.884 1240.38 311.473 1238.22 310.102L1223.29 300.846C1222.85 300.598 1222.75 299.996 1223 299.558C1223.25 299.119 1223.86 299.018 1224.3 299.266L1239.23 308.522C1240.99 309.601 1243.08 309.98 1245.07 309.498C1247.1 309.058 1248.8 307.806 1249.89 306.051C1252.15 302.452 1251.05 297.686 1247.44 295.444L1229.95 284.611C1229.51 284.363 1229.41 283.761 1229.66 283.323C1229.92 282.885 1230.52 282.783 1230.96 283.031L1248.44 293.864C1252.89 296.646 1254.28 302.528 1251.48 307.048C1251.1 307.619 1250.68 308.147 1250.25 308.59Z" fill="#888888"/>
<path fill-rule="evenodd" clip-rule="evenodd" d="M1223.35 296.572L1243.82 309.23C1247.91 311.761 1249.12 317.043 1246.57 321.123C1244.01 325.204 1238.7 326.417 1234.61 323.885L1215.63 312.14" fill="#F7F7F7"/>
<path d="M1246.18 323.206C1244.91 324.534 1243.24 325.483 1241.38 325.918C1238.88 326.499 1236.3 326.089 1234.15 324.718L1215.17 312.973C1214.73 312.725 1214.63 312.123 1214.88 311.685C1215.13 311.246 1215.74 311.145 1216.18 311.393L1235.15 323.138C1236.91 324.217 1239.01 324.596 1240.99 324.114C1243.02 323.674 1244.73 322.422 1245.82 320.667C1246.91 318.913 1247.29 316.83 1246.81 314.855C1246.38 312.837 1245.12 311.141 1243.36 310.062L1222.89 297.404C1222.45 297.156 1222.35 296.554 1222.6 296.116C1222.85 295.678 1223.45 295.576 1223.89 295.824L1244.37 308.482C1246.53 309.853 1248.05 311.974 1248.67 314.42C1249.25 316.91 1248.83 319.469 1247.45 321.62C1247.03 322.235 1246.65 322.72 1246.18 323.206Z" fill="#888888"/>
<path fill-rule="evenodd" clip-rule="evenodd" d="M1209.13 320.784L1214.33 326.224C1217.28 329.95 1216.63 335.407 1212.88 338.351C1209.12 341.295 1203.64 340.655 1200.69 336.929L1188.32 319.795" fill="#F7F7F7"/>
<path d="M1214.43 338.139C1214.14 338.449 1213.75 338.761 1213.41 339.028C1211.41 340.59 1208.86 341.302 1206.34 341.02C1203.82 340.737 1201.49 339.457 1199.92 337.467L1187.51 320.29C1187.24 319.865 1187.27 319.303 1187.74 318.989C1188.17 318.719 1188.73 318.748 1189.05 319.215L1201.42 336.35C1202.67 337.959 1204.51 338.95 1206.56 339.2C1208.6 339.451 1210.63 338.839 1212.25 337.589C1213.87 336.34 1214.91 334.457 1215.17 332.421C1215.43 330.385 1214.86 328.413 1213.57 326.761L1208.41 321.363C1208.05 321.027 1208.04 320.423 1208.46 320.066C1208.8 319.713 1209.41 319.697 1209.77 320.12L1215.01 325.602C1218.01 329.37 1217.7 334.732 1214.43 338.139Z" fill="#888888"/>
<path fill-rule="evenodd" clip-rule="evenodd" d="M1218.04 308.506L1238.05 325.965C1241.5 328.987 1241.84 334.202 1238.79 337.645C1235.75 341.089 1230.51 341.436 1227.05 338.414L1207.04 320.955" fill="#F7F7F7"/>
<path d="M1239.25 338.498C1235.86 342.037 1230.18 342.309 1226.42 339.078L1206.41 321.619C1206.05 321.282 1205.99 320.723 1206.29 320.327C1206.63 319.973 1207.19 319.915 1207.59 320.208L1227.6 337.667C1230.7 340.353 1235.33 340.021 1238.08 336.973C1239.4 335.515 1240.05 333.599 1239.91 331.617C1239.78 329.634 1238.87 327.844 1237.41 326.542L1217.4 309.082C1217.04 308.746 1216.99 308.186 1217.28 307.79C1217.62 307.436 1218.18 307.379 1218.58 307.671L1238.59 325.131C1240.45 326.725 1241.59 328.984 1241.69 331.443C1241.79 333.901 1241.06 336.251 1239.41 338.149C1239.42 338.321 1239.33 338.41 1239.25 338.498Z" fill="#888888"/>
<path fill-rule="evenodd" clip-rule="evenodd" d="M702.539 344.081L732.654 354.294L752.768 313.833L719.874 293.963L702.539 344.081Z" fill="#F7F7F7"/>
<path d="M733.114 355.406L701.379 344.586L719.408 292.506L753.932 313.415L733.114 355.406ZM703.7 343.489L732.151 353.139L751.515 314.082L720.339 295.249L703.7 343.489Z" fill="#888888"/>
<path fill-rule="evenodd" clip-rule="evenodd" d="M707.621 349.115C704.96 352.246 700.285 352.622 697.189 350.023L688.475 342.686C682.238 337.446 681.503 328.14 686.782 321.923L706.775 338.777C709.871 341.376 710.281 345.984 707.621 349.115Z" fill="#F7F7F7"/>
<path d="M707.99 350.056C706.592 351.515 704.704 352.426 702.669 352.606C700.461 352.791 698.32 352.111 696.638 350.685L687.924 343.348C681.332 337.771 680.497 327.863 686.115 321.291L686.706 320.585L707.409 338.026C709.09 339.452 710.134 341.455 710.315 343.652C710.496 345.849 709.807 347.982 708.371 349.658C708.201 349.835 708.117 349.923 707.99 350.056ZM686.897 323.214C682.606 329.019 683.446 337.243 689.064 341.981L697.778 349.318C699.105 350.407 700.766 350.97 702.498 350.841C704.231 350.711 705.773 349.895 706.871 348.573C707.968 347.25 708.538 345.596 708.411 343.872C708.285 342.149 707.469 340.615 706.142 339.526L686.897 323.214Z" fill="#888888"/>
<path fill-rule="evenodd" clip-rule="evenodd" d="M678.343 282.285C680.771 278.425 685.906 277.218 689.822 279.58L712.442 293.521C716.315 295.928 717.517 301.035 715.134 304.937C712.706 308.797 707.571 310.005 703.655 307.642L681.035 293.702C677.117 291.253 675.915 286.145 678.343 282.285Z" fill="#F7F7F7"/>
<path d="M714.704 306.891C711.738 309.987 706.895 310.713 703.11 308.39L680.488 294.45C678.419 293.163 676.897 291.129 676.366 288.768C675.79 286.365 676.211 283.893 677.508 281.831C680.187 277.533 685.883 276.182 690.241 278.879L712.863 292.819C717.176 295.474 718.521 301.139 715.8 305.482C715.508 305.964 715.128 306.448 714.704 306.891ZM679.091 282.742C678.046 284.452 677.7 286.403 678.177 288.291C678.612 290.223 679.777 291.834 681.493 292.871L704.115 306.811C707.592 308.925 712.167 307.861 714.345 304.439C716.478 300.975 715.419 296.425 711.985 294.266L689.363 280.326C685.886 278.211 681.269 279.32 679.091 282.742Z" fill="#888888"/>
<path fill-rule="evenodd" clip-rule="evenodd" d="M709.246 339.459C706.585 342.59 701.91 342.966 698.814 340.367L690.1 333.03C683.863 327.79 683.128 318.484 688.407 312.267L708.4 329.121C711.496 331.72 711.864 336.372 709.246 339.459Z" fill="#F7F7F7"/>
<path d="M709.572 340.444C706.564 343.584 701.539 343.883 698.177 341.031L689.462 333.694C686.277 331.011 684.325 327.218 683.969 323.082C683.614 318.947 684.908 314.857 687.654 311.637L688.245 310.932L708.947 328.373C710.629 329.798 711.673 331.801 711.853 333.998C712.034 336.195 711.345 338.328 709.909 340.004C709.826 340.179 709.699 340.312 709.572 340.444ZM688.522 313.558C686.502 316.285 685.58 319.546 685.83 322.906C686.132 326.568 687.856 329.892 690.689 332.325L699.403 339.662C702.102 341.969 706.216 341.651 708.538 338.873C709.636 337.55 710.205 335.896 710.079 334.172C709.952 332.449 709.136 330.915 707.81 329.826L688.522 313.558Z" fill="#888888"/>
<path fill-rule="evenodd" clip-rule="evenodd" d="M715.187 326.528C712.103 330.189 706.603 330.629 702.931 327.569L690.499 317.129C686.827 314.069 686.398 308.597 689.482 304.936C692.565 301.275 698.066 300.835 701.737 303.895L714.169 314.335C717.843 317.481 718.315 322.909 715.187 326.528Z" fill="#F7F7F7"/>
<path d="M715.513 327.6C713.902 329.281 711.713 330.329 709.375 330.56C706.819 330.754 704.329 329.996 702.381 328.318L689.948 317.878C685.921 314.481 685.436 308.449 688.859 304.434C692.282 300.419 698.345 299.921 702.372 303.318L714.805 313.757C718.832 317.154 719.317 323.187 715.894 327.202C715.767 327.334 715.64 327.467 715.513 327.6ZM690.569 305.211C690.442 305.344 690.357 305.432 690.23 305.565C687.441 308.83 687.856 313.699 691.13 316.466L703.563 326.906C705.156 328.248 707.167 328.888 709.203 328.708C711.238 328.527 713.169 327.572 714.479 326.028C717.268 322.763 716.853 317.894 713.578 315.127L701.145 304.687C698.046 302.001 693.366 302.291 690.569 305.211Z" fill="#888888"/>
<path fill-rule="evenodd" clip-rule="evenodd" d="M712.961 322.014C708.209 321.312 704.938 316.942 705.656 312.213L707.428 300.368C708.146 295.638 712.547 292.372 717.299 293.073C722.051 293.775 725.322 298.144 724.604 302.874L722.832 314.719C722.114 319.449 717.713 322.715 712.961 322.014Z" fill="#F7F7F7"/>
<path d="M721.215 320.033C719.135 322.204 716.034 323.406 712.852 322.924C707.621 322.191 703.991 317.312 704.784 312.062L706.556 300.217C706.933 297.7 708.316 295.461 710.367 293.94C712.418 292.418 714.967 291.792 717.495 292.161C722.726 292.893 726.356 297.773 725.563 303.023L723.791 314.868C723.402 316.866 722.531 318.66 721.215 320.033ZM713.071 321.103C717.3 321.731 721.274 318.822 721.873 314.57L723.645 302.725C724.288 298.516 721.374 294.57 717.102 293.986C715.053 293.649 713.023 294.175 711.313 295.429C709.646 296.638 708.558 298.48 708.256 300.476L706.484 312.322C705.928 316.528 708.842 320.475 713.071 321.103Z" fill="#888888"/>
<path d="M986.59 255.222L1050.26 212.6C1055.68 208.519 1062.05 205.753 1068.75 204.753L1121.27 196.609C1132.47 194.884 1143.78 197.828 1152.69 204.774L1230.12 265.456L1177.24 331.718L1124.06 280.603L1065.85 473.552C1065.5 474.727 1064.17 475.308 1063.07 474.776L940.552 416.015L850.405 428.057C841.203 430.076 831.629 428.859 823.291 424.581L710.834 367.555L751.923 285.857L840.226 333.659L909.555 306.073L908.76 299.301L986.59 255.222Z" fill="#1E6BFF"/>
<mask id="mask0_13947_106761" style="mask-type:alpha" maskUnits="userSpaceOnUse" x="0" y="82" width="1625" height="584">
<rect y="82" width="1625" height="584" fill="#D9D9D9"/>
</mask>
<g mask="url(#mask0_13947_106761)">
<path d="M1015.27 587.438C982.112 602.282 951.406 612.205 922.088 617.619C850.112 630.931 800.444 614.28 752.462 598.215C722.215 588.088 693.63 578.492 660.375 576.685C601.794 573.409 548.469 585.076 501.4 595.419C438.041 609.299 383.339 621.248 348.356 586.425C320.38 558.59 331.312 511.059 341.845 465.048C351.179 424.333 360.019 385.85 340.303 369.066C321.023 352.69 295.216 358.476 251.242 370.115C219.899 378.446 184.43 387.819 146.324 385.636C102.311 383.147 63.6994 365.435 28.4187 331.617C24.1578 327.558 25.1429 320.681 30.6683 316.264C36.1241 311.877 44.0341 311.622 48.295 315.681C118.976 383.396 187.305 365.348 247.545 349.378C290.028 338.139 330.04 327.536 359.333 352.369C372.123 363.269 377.947 379.836 377.118 403.135C376.445 422.342 371.397 444.445 366.445 465.835C356.984 507.009 347.263 549.64 368.428 570.737C394.927 597.155 438.59 587.6 498.986 574.376C547.97 563.646 603.417 551.497 665.858 554.99C702.644 557.027 734.104 567.616 764.609 577.76C811.593 593.468 855.918 608.287 920.678 596.395C956.024 589.891 993.961 575.994 1036.74 553.961C1085.01 529.073 1140.12 493.076 1200.64 446.878C1250.42 408.906 1281.52 372.127 1314.33 333.236C1367.8 269.953 1423.08 204.583 1561.8 139.067C1561.87 139.036 1562.01 138.973 1562.08 138.942C1568.48 136.079 1575.6 137.784 1578.09 142.907C1580.6 148.085 1577.42 154.736 1570.94 157.773C1511.36 185.917 1462.77 216.379 1422.49 250.967C1386.47 281.841 1360.88 312.133 1333.82 344.156C1301.37 382.55 1267.82 422.235 1215.49 462.151C1152.67 510.114 1097.54 546.056 1046.92 572.2C1036.19 577.675 1025.63 582.801 1015.27 587.438Z" fill="url(#paint2_linear_13947_106761)"/>
</g>
<path d="M1300.64 184.509L1312.48 154.549C1312.48 154.549 1370.49 155.621 1387.91 155.739C1405.25 155.859 1418.85 135.106 1418.85 135.106L1256.71 108.243L1239.54 171.541L1300.64 184.509Z" fill="#F7F7F7"/>
<path d="M1413.05 143.642C1412.24 144.484 1411.44 145.326 1410.5 146.128C1403.06 153.105 1395.23 156.677 1387.89 156.648C1371.73 156.541 1319.54 155.581 1313.11 155.486L1301.52 184.833C1301.35 185.27 1300.88 185.498 1300.49 185.378L1239.3 172.413C1239.04 172.333 1238.82 172.209 1238.68 171.996C1238.55 171.783 1238.54 171.524 1238.58 171.307L1255.75 108.009C1255.87 107.53 1256.3 107.26 1256.82 107.333L1418.96 134.196C1419.27 134.231 1419.53 134.484 1419.63 134.741C1419.72 134.998 1419.73 135.344 1419.56 135.608C1419.48 135.783 1417.08 139.432 1413.05 143.642ZM1311.86 153.961C1312.03 153.784 1312.29 153.691 1312.55 153.684C1313.11 153.713 1370.77 154.707 1387.93 154.831C1396.58 154.913 1404.32 149.398 1409.25 144.776C1413.12 141.176 1415.91 137.56 1417.22 135.754L1257.34 109.265L1240.65 170.822L1300.14 183.442L1311.69 154.225C1311.69 154.138 1311.77 154.05 1311.86 153.961Z" fill="#888888"/>
<path d="M1313.18 155.26C1313.01 155.438 1312.75 155.531 1312.49 155.537L1302.98 155.305C1302.46 155.318 1302.05 154.853 1302.09 154.376C1302.08 153.858 1302.54 153.457 1303.02 153.488L1312.54 153.721C1313.06 153.708 1313.46 154.173 1313.43 154.649C1313.39 154.866 1313.35 155.083 1313.18 155.26Z" fill="#888888"/>
<path d="M879.709 200.042C858.876 218.183 851.437 247.091 863.465 270.779C870.454 284.523 882.918 294.492 898.471 298.845C914.112 303.197 931.005 301.375 946.034 293.72C961.149 286.063 972.553 273.529 978.254 258.375C983.956 243.221 983.259 227.325 976.269 213.582C969.28 199.838 956.816 189.869 941.263 185.516C925.623 181.165 908.729 182.987 893.701 190.641C888.548 193.283 883.842 196.432 879.709 200.042Z" fill="#F7F7F7"/>
<path d="M975.031 268.476C974.989 268.52 974.946 268.564 974.86 268.566C974.516 268.748 974.079 268.586 973.897 268.245C972.763 266.07 971.586 263.939 970.452 261.764C954.443 231.445 940.567 205.263 905.016 209.583C900.036 210.186 896.399 212.569 894.058 216.605C881.904 238.048 909.693 299.832 909.967 300.43C910.148 300.771 909.984 301.207 909.597 301.347C909.253 301.528 908.815 301.367 908.677 300.981C908.586 300.811 901.503 285.131 896.013 266.903C888.644 242.327 887.563 225.155 892.825 215.858C895.373 211.342 899.395 208.733 904.852 208.075C921.523 206.051 934.647 210.384 946.059 221.632C956.184 231.66 963.712 245.902 971.694 260.998C972.828 263.173 974.005 265.304 975.139 267.479C975.409 267.904 975.33 268.252 975.031 268.476Z" fill="#888888"/>
<path d="M961.206 285.33C956.86 289.072 952.068 292.307 946.786 294.992C931.367 302.778 914.079 304.645 898.169 300.209C882.172 295.775 869.433 285.552 862.209 271.427C847.396 242.321 861.207 205.525 893.073 189.408C908.492 181.623 925.78 179.755 941.69 184.191C957.687 188.625 970.426 198.849 977.65 212.974C984.829 227.057 985.587 243.422 979.724 258.919C975.869 269.047 969.471 278.115 961.206 285.33ZM879.674 200.039C858.841 218.165 851.411 247.06 863.454 270.746C870.451 284.488 882.924 294.459 898.485 298.818C914.133 303.174 931.031 301.36 946.062 293.714C961.179 286.065 972.582 273.54 978.279 258.394C983.976 243.247 983.272 227.356 976.274 213.614C969.276 199.872 956.804 189.901 941.243 185.543C925.595 181.187 908.696 183.001 893.666 190.647C888.513 193.286 883.806 196.432 879.674 200.039Z" fill="#888888"/>
<path fill-rule="evenodd" clip-rule="evenodd" d="M900.855 245.906L894.183 269.853L910.597 265.803" fill="#F7F7F7"/>
<path d="M910.954 266.398C910.912 266.443 910.825 266.445 910.825 266.445L894.411 270.495C894.195 270.544 893.89 270.508 893.755 270.295C893.577 270.127 893.485 269.87 893.566 269.609L900.195 245.706C900.317 245.314 900.703 245.088 901.096 245.208C901.49 245.327 901.716 245.711 901.594 246.103L895.287 268.873L910.491 265.113C910.836 265.018 911.276 265.266 911.371 265.61C911.334 265.913 911.168 266.263 910.954 266.398Z" fill="#888888"/>
<path d="M916.608 249.131C917.499 248.2 917.466 246.73 916.535 245.847C915.605 244.963 914.128 245.002 913.238 245.932C912.347 246.863 912.379 248.333 913.31 249.217C914.241 250.1 915.717 250.062 916.608 249.131Z" fill="#888888"/>
<path d="M896.606 255.049C897.497 254.119 897.464 252.648 896.534 251.765C895.603 250.882 894.126 250.92 893.236 251.851C892.345 252.781 892.377 254.252 893.308 255.135C894.239 256.018 895.715 255.98 896.606 255.049Z" fill="#888888"/>
<path fill-rule="evenodd" clip-rule="evenodd" d="M920.72 272.975C920.72 272.975 935.724 265.541 936.552 254.136C936.552 254.136 947.616 260.825 942.57 264.502" fill="#F7F7F7"/>
<path d="M943.357 264.829C943.229 264.962 943.1 265.008 942.973 265.141C942.673 265.365 942.194 265.334 942.013 264.992C941.831 264.651 941.821 264.218 942.165 264.036C942.848 263.5 943.227 262.928 943.167 262.193C943.071 259.902 939.353 256.967 937.101 255.422C936.419 259.854 933.564 264.341 928.789 268.443C924.951 271.743 921.211 273.612 921.039 273.703C920.696 273.885 920.257 273.723 920.076 273.381C919.894 273.039 920.058 272.603 920.402 272.421C920.573 272.33 935.057 264.995 935.813 254.2C935.807 253.94 935.977 253.763 936.191 253.628C936.405 253.492 936.71 253.528 936.931 253.652C937.68 254.109 944.426 258.31 944.601 262.2C944.615 262.806 944.422 263.893 943.357 264.829Z" fill="#888888"/>
<path d="M1124.45 282.859C1124.33 282.992 1124.16 283.083 1123.94 283.131L1102.96 286.919C1102.44 287.019 1102 286.685 1101.9 286.168C1101.8 285.651 1102.14 285.21 1102.66 285.11L1123.64 281.322C1124.16 281.223 1124.6 281.557 1124.7 282.074C1124.75 282.375 1124.62 282.681 1124.45 282.859Z" fill="#888888"/>
<path d="M1350.26 181.884L1299.81 371.441C1296.99 381.986 1288.27 389.963 1277.5 391.85L1215.06 402.854L1269.83 260.518L1227.21 156.984L1350.26 181.884Z" fill="#11245A"/>
<path d="M1295 384.592C1290.84 388.942 1285.34 391.94 1279.2 392.964L1204.39 405.967C1203.87 406.067 1203.43 405.732 1203.33 405.215C1203.23 404.698 1203.57 404.256 1204.09 404.157L1278.9 391.153C1289.37 389.326 1297.8 381.489 1300.31 371.164L1313.4 324.631C1313.52 324.152 1314.03 323.879 1314.51 323.997C1314.99 324.114 1315.26 324.627 1315.14 325.106L1302.06 371.639C1300.82 376.649 1298.4 381.041 1295 384.592Z" fill="#F7F7F7"/>
<path d="M367.743 477.706C374.002 471.167 373.774 460.835 367.235 454.628C360.696 448.421 350.322 448.691 344.064 455.229C337.806 461.768 338.033 472.1 344.572 478.307C351.111 484.514 361.485 484.245 367.743 477.706Z" fill="white"/>
<path d="M370.144 482.185C361.373 490.023 347.898 489.334 340.065 480.63C332.232 471.925 332.979 458.501 341.75 450.663C350.521 442.825 363.996 443.514 371.829 452.218C379.662 460.923 378.873 474.391 370.144 482.185ZM348.249 457.932C343.523 462.163 343.12 469.481 347.347 474.171C351.575 478.861 358.921 479.233 363.647 475.002C368.373 470.772 368.776 463.454 364.548 458.763C360.321 454.073 352.975 453.702 348.249 457.932Z" fill="url(#paint3_linear_13947_106761)"/>
<path d="M654.552 576.364C660.81 569.825 660.583 559.493 654.044 553.286C647.505 547.079 637.131 547.348 630.873 553.887C624.614 560.426 624.842 570.758 631.381 576.965C637.92 583.171 648.294 582.902 654.552 576.364Z" fill="white"/>
<path d="M656.911 580.885C648.14 588.723 634.666 588.035 626.833 579.331C619 570.626 619.746 557.202 628.518 549.364C637.289 541.526 650.763 542.214 658.596 550.919C666.429 559.623 665.683 573.047 656.911 580.885ZM635.059 556.589C630.333 560.819 629.93 568.137 634.157 572.827C638.385 577.518 645.731 577.889 650.457 573.659C655.183 569.428 655.586 562.11 651.358 557.42C647.044 552.732 639.785 552.358 635.059 556.589Z" fill="url(#paint4_linear_13947_106761)"/>
<path d="M988.534 604.919C994.793 598.38 994.565 588.048 988.026 581.841C981.487 575.634 971.113 575.903 964.855 582.442C958.597 588.981 958.824 599.313 965.363 605.52C971.902 611.726 982.276 611.457 988.534 604.919Z" fill="white"/>
<path d="M990.933 609.397C982.162 617.235 968.687 616.547 960.854 607.843C953.021 599.138 953.768 585.714 962.539 577.876C971.31 570.038 984.785 570.726 992.618 579.431C1000.41 588.093 999.662 601.604 990.933 609.397ZM969.038 585.145C964.312 589.375 963.909 596.694 968.137 601.384C972.364 606.074 979.71 606.445 984.436 602.215C989.162 597.984 989.565 590.666 985.338 585.976C981.065 581.244 973.764 580.914 969.038 585.145Z" fill="url(#paint5_linear_13947_106761)"/>
<path d="M1439.75 238.901C1446 232.362 1445.78 222.03 1439.24 215.823C1432.7 209.617 1422.32 209.886 1416.07 216.424C1409.81 222.963 1410.04 233.295 1416.57 239.502C1423.11 245.709 1433.49 245.44 1439.75 238.901Z" fill="white"/>
<path d="M1442.1 243.423C1433.33 251.261 1419.86 250.572 1412.02 241.868C1404.19 233.163 1404.94 219.739 1413.71 211.901C1422.48 204.063 1435.95 204.752 1443.79 213.456C1451.62 222.161 1450.87 235.585 1442.1 243.423ZM1420.21 219.17C1415.48 223.401 1415.08 230.719 1419.31 235.409C1423.53 240.099 1430.88 240.471 1435.61 236.24C1440.33 232.01 1440.74 224.692 1436.51 220.001C1432.28 215.311 1424.93 214.94 1420.21 219.17Z" fill="url(#paint6_linear_13947_106761)"/>
<path fill-rule="evenodd" clip-rule="evenodd" d="M137.739 519.906L239.549 595.815L303.421 583.318L198.595 495.977L137.739 519.906Z" fill="#F7F7F7"/>
<path d="M303.633 583.961L303.58 583.977L239.654 596.488C239.439 596.555 239.245 596.498 239.088 596.372L137.327 520.444C137.1 520.281 137.018 520.015 137.059 519.769C137.1 519.523 137.265 519.297 137.48 519.23L198.336 495.303C198.605 495.22 198.852 495.26 199.026 495.44L303.856 582.783C304.083 582.946 304.166 583.212 304.071 583.475C304.083 583.705 303.902 583.877 303.633 583.961ZM239.74 595.061L301.884 582.869L198.497 496.77L139.217 520.092L239.74 595.061Z" fill="#888888"/>
<path fill-rule="evenodd" clip-rule="evenodd" d="M239.541 595.838L250.092 604.46L309.434 592.193L303.396 583.338L239.541 595.838Z" fill="#F7F7F7"/>
<path d="M309.638 592.84L309.584 592.856L250.24 605.117C250.025 605.184 249.832 605.127 249.658 604.948L239.122 596.377C238.895 596.215 238.812 595.949 238.907 595.686C239.002 595.423 239.184 595.251 239.452 595.168L303.364 582.658C303.649 582.628 303.913 582.721 304.102 582.954L310.142 591.809C310.261 592.006 310.274 592.235 310.232 592.481C309.997 592.67 309.853 592.773 309.638 592.84ZM250.273 603.708L308.244 591.756L303.062 584.15L241.094 596.291L250.273 603.708Z" fill="#888888"/>
<path fill-rule="evenodd" clip-rule="evenodd" d="M303.386 583.314L413.591 534.474L419.037 544.269L309.423 592.168L303.386 583.314Z" fill="#F7F7F7"/>
<path d="M309.621 592.806C309.353 592.889 309.019 592.759 308.829 592.527L302.792 583.673C302.672 583.477 302.622 583.317 302.717 583.055C302.775 582.862 302.903 582.706 303.101 582.586L413.253 533.767C413.612 533.598 413.963 533.78 414.169 534.066L419.686 543.897C419.79 544.04 419.802 544.27 419.744 544.462C419.686 544.655 419.558 544.811 419.344 544.878L309.712 592.72C309.675 592.789 309.675 592.789 309.621 592.806ZM304.462 583.563L309.675 591.274L418.053 543.937L413.269 535.336L304.462 583.563Z" fill="#888888"/>
<path fill-rule="evenodd" clip-rule="evenodd" d="M413.58 534.468L312.81 561.389L288.85 571.146L303.378 583.308L413.58 534.468Z" fill="#F7F7F7"/>
<path d="M303.582 583.948C303.367 584.014 303.12 583.974 302.893 583.812L288.325 571.718C288.152 571.538 288.032 571.342 288.073 571.096C288.115 570.85 288.28 570.624 288.494 570.558L312.439 560.751C312.493 560.734 312.493 560.734 312.546 560.717L413.321 533.809C413.696 533.693 414.063 533.929 414.162 534.247C414.261 534.566 414.092 534.969 413.786 535.121L303.635 583.931C303.635 583.931 303.635 583.931 303.582 583.948ZM290.215 571.365L303.529 582.449L405.142 537.392L313.049 561.96L290.215 571.365Z" fill="#888888"/>
<path d="M229.706 562.067C231.746 559.825 228.619 553.712 222.72 548.414C216.822 543.116 210.386 540.638 208.346 542.88C206.306 545.122 209.434 551.235 215.332 556.533C221.231 561.831 227.666 564.309 229.706 562.067Z" fill="#1E6BFF"/>
<defs>
<radialGradient id="paint0_radial_13947_106761" cx="0" cy="0" r="1" gradientUnits="userSpaceOnUse" gradientTransform="translate(1022.9 75.93) rotate(-37.9646) scale(100.802 80.4232)">
<stop offset="0.298" stop-color="#1E6BFF"/>
<stop offset="1" stop-color="#174ED0"/>
</radialGradient>
<radialGradient id="paint1_radial_13947_106761" cx="0" cy="0" r="1" gradientUnits="userSpaceOnUse" gradientTransform="translate(1072.93 132.39) rotate(-35.8077) scale(42.7709 9.78738)">
<stop stop-color="#1E6BFF" stop-opacity="0.8"/>
<stop offset="1" stop-color="#1E6BFF" stop-opacity="0"/>
</radialGradient>
<linearGradient id="paint2_linear_13947_106761" x1="120.167" y1="603.155" x2="1566.61" y2="108.959" gradientUnits="userSpaceOnUse">
<stop stop-color="#F2B6FB"/>
<stop offset="0.9968" stop-color="#1E6BFF"/>
</linearGradient>
<linearGradient id="paint3_linear_13947_106761" x1="191.423" y1="564.094" x2="1514.03" y2="-223.713" gradientUnits="userSpaceOnUse">
<stop stop-color="#F2B6FB"/>
<stop offset="0.9968" stop-color="#1E6BFF"/>
</linearGradient>
<linearGradient id="paint4_linear_13947_106761" x1="401.761" y1="673.302" x2="1549.51" y2="157.753" gradientUnits="userSpaceOnUse">
<stop stop-color="#F2B6FB"/>
<stop offset="0.9968" stop-color="#1E6BFF"/>
</linearGradient>
<linearGradient id="paint5_linear_13947_106761" x1="413.226" y1="863.031" x2="1588.26" y2="300.613" gradientUnits="userSpaceOnUse">
<stop stop-color="#F2B6FB"/>
<stop offset="0.9968" stop-color="#1E6BFF"/>
</linearGradient>
<linearGradient id="paint6_linear_13947_106761" x1="223.664" y1="942.536" x2="1546.27" y2="154.73" gradientUnits="userSpaceOnUse">
<stop stop-color="#F2B6FB"/>
<stop offset="0.9968" stop-color="#1E6BFF"/>
</linearGradient>
</defs>
</svg>
