<svg width="605" height="494" viewBox="0 0 605 494" fill="none" xmlns="http://www.w3.org/2000/svg">
<path d="M290.496 410.903C277.208 408.217 265.802 404.261 255.864 398.921C231.462 385.82 220.689 366.84 210.277 348.513C203.713 336.96 197.516 326.031 188.11 316.917C171.562 300.826 153.059 291.814 136.717 283.876C114.73 273.175 95.754 263.922 93.5878 241.671C91.8526 223.88 106.243 208.364 120.158 193.331C132.476 180.032 144.123 167.467 142.235 156.019C140.38 144.838 131.394 140.531 115.662 133.875C104.441 129.144 91.7555 123.771 81.0036 113.283C68.5774 101.183 61.3218 84.5945 58.8317 62.6537C58.5251 60.0134 60.4307 57.6175 63.1011 57.3171C65.7436 57.011 68.1419 58.9152 68.4485 61.5555C73.4453 105.498 97.8807 115.854 119.437 124.962C134.634 131.394 148.951 137.445 151.781 154.414C153.002 161.845 150.835 169.692 145.12 178.445C140.412 185.663 133.731 192.887 127.245 199.862C114.782 213.305 101.9 227.243 103.204 240.717C104.836 257.588 119.986 264.967 140.944 275.17C157.943 283.444 177.186 292.808 194.824 309.96C205.22 320.056 212.033 332.094 218.67 343.72C228.871 361.657 238.495 378.579 260.43 390.4C272.405 396.847 286.882 401.105 304.702 403.461C324.811 406.106 349.553 406.21 378.29 403.762C401.921 401.759 419.747 395.483 438.578 388.831C469.238 378.022 500.925 366.871 557.315 376.79C557.343 376.796 557.399 376.807 557.427 376.813C559.99 377.331 561.696 379.79 561.228 382.39C560.754 385.017 558.253 386.771 555.623 386.298C531.404 382.04 509.891 381.458 489.864 384.566C471.967 387.323 457.292 392.497 441.774 397.965C423.167 404.517 403.935 411.291 379.095 413.397C349.265 415.944 324.529 415.811 303.428 413.053C298.97 412.442 294.646 411.742 290.496 410.903Z" fill="url(#paint0_linear_13947_113717)"/>
<path d="M412.04 415.649L429.68 421.527C429.68 421.527 430.774 454.897 431.232 464.87C431.655 474.84 444.08 481.996 444.08 481.996L454.846 387.973L417.773 380.108L412.04 415.649Z" fill="#D7EAFF"/>
<path d="M444.008 482.489C443.937 482.484 443.834 482.443 443.765 482.403C443.253 482.089 431.106 475.021 430.658 464.872C430.265 455.575 429.25 425.573 429.12 421.884L411.827 416.133C411.584 416.048 411.422 415.79 411.473 415.545L417.17 380.002C417.179 379.861 417.258 379.724 417.403 379.662C417.516 379.563 417.659 379.536 417.798 379.58L454.871 387.445C455.152 387.497 455.313 387.755 455.296 388.037L444.53 482.06C444.519 482.236 444.403 482.406 444.257 482.468C444.184 482.499 444.114 482.495 444.008 482.489ZM412.621 415.296L429.846 421.008C430.053 421.091 430.184 421.276 430.206 421.489C430.222 421.809 431.294 454.965 431.759 464.832C432.11 473.064 441.042 479.407 443.633 481.086L454.249 388.363L418.19 380.701L412.621 415.296Z" fill="#3D3D3D"/>
<path d="M429.643 422.022C429.361 422.005 429.162 421.78 429.144 421.496L428.981 416C428.962 415.715 429.191 415.446 429.509 415.465C429.794 415.447 430.063 415.676 430.044 415.993L430.207 421.49C430.225 421.774 429.996 422.043 429.679 422.024L429.643 422.022Z" fill="#3D3D3D"/>
<path d="M250.928 300.303L298.996 389.066C302.343 395.214 307.755 400 314.295 402.554L406.449 438.309L440.359 380.191L406.249 362.099L393.417 368.119L485.245 325.073L450.663 261.58L375.603 288.014L359.292 257.335L250.928 300.303Z" fill="#11245A"/>
<path fill-rule="evenodd" clip-rule="evenodd" d="M404.076 315.495L401.161 305.729L396.798 287.735L368.034 288.335L364.146 304.557L361.16 316.409C360.607 319.101 362.359 321.754 365.053 322.306C367.257 322.758 369.377 321.682 370.41 319.834L370.233 328.6C370.178 331.251 372.278 333.43 374.931 333.484C377.584 333.538 379.766 331.44 379.821 328.789L379.834 327.976C380.745 329.906 382.833 331.094 385.049 330.768C387.408 330.415 389.154 328.503 389.328 326.213C390.346 326.947 391.635 327.308 392.993 327.107C395.745 326.707 397.635 324.166 397.232 321.452L397.179 321.166C398.077 321.539 399.132 321.673 400.172 321.453C402.972 320.843 404.692 318.187 404.076 315.495Z" fill="#D7EAFF"/>
<path d="M374.8 334.006C371.976 333.835 369.748 331.436 369.78 328.571L369.932 321.396C368.653 322.629 366.815 323.155 365.03 322.799C363.595 322.5 362.337 321.646 361.525 320.429C360.713 319.212 360.415 317.708 360.714 316.275L363.702 304.387L367.686 287.747L397.264 287.161L401.71 305.548L404.622 315.35C405.257 318.326 403.377 321.291 400.398 321.926C399.574 322.088 398.722 322.108 397.921 321.882C398.035 324.685 396.006 327.181 393.182 327.612C392.037 327.791 390.881 327.58 389.85 327.058C389.327 329.256 387.559 330.954 385.238 331.274C383.379 331.551 381.578 330.876 380.382 329.565C380.208 330.687 379.65 331.715 378.822 332.514C377.805 333.515 376.463 334.035 375.011 334.019C374.941 334.014 374.87 334.01 374.8 334.006ZM371.041 317.712L370.841 328.6C370.804 330.969 372.671 332.886 375.04 332.959C376.172 332.991 377.26 332.562 378.088 331.762C378.916 330.963 379.37 329.893 379.404 328.763L379.446 325.722L380.421 327.762C381.269 329.548 383.156 330.546 385.086 330.274C387.123 329.972 388.75 328.265 388.911 326.187L388.969 325.235L389.748 325.813C390.698 326.507 391.85 326.789 393.03 326.612C395.459 326.264 397.156 323.995 396.807 321.567L396.633 320.353L397.496 320.724C398.359 321.095 399.276 321.15 400.174 320.956C402.579 320.429 404.103 318.079 403.611 315.678L400.696 305.912L396.45 288.315L368.538 288.895L364.744 304.733L361.758 316.585C361.511 317.738 361.758 318.921 362.406 319.916C363.054 320.91 364.077 321.574 365.231 321.82C367.155 322.22 369.087 321.31 370.039 319.633L371.041 317.712Z" fill="#3D3D3D"/>
<path fill-rule="evenodd" clip-rule="evenodd" d="M401.161 305.73L404.076 315.497C404.657 318.186 402.937 320.843 400.245 321.424C397.553 322.005 394.894 320.287 394.313 317.598L392.933 311.144" fill="#D7EAFF"/>
<path d="M398.859 322.083C397.906 322.026 397.004 321.724 396.22 321.216C394.992 320.434 394.111 319.178 393.809 317.744L392.429 311.29C392.375 311.004 392.533 310.73 392.82 310.677C393.107 310.623 393.38 310.781 393.434 311.068L394.814 317.521C395.061 318.704 395.745 319.701 396.769 320.329C397.757 320.991 398.983 321.206 400.132 320.957C402.537 320.43 404.062 318.08 403.569 315.679L400.654 305.912C400.566 305.623 400.724 305.35 401.013 305.261C401.301 305.172 401.575 305.33 401.664 305.619L404.577 315.421C405.211 318.397 403.331 321.363 400.352 321.997C399.852 322.073 399.353 322.113 398.859 322.083Z" fill="#3D3D3D"/>
<path fill-rule="evenodd" clip-rule="evenodd" d="M395.607 309.713L397.303 321.459C397.703 324.208 395.816 326.713 393.063 327.114C390.311 327.514 387.804 325.628 387.404 322.879L385.958 312.847" fill="#D7EAFF"/>
<path d="M392.038 327.689C390.979 327.625 389.94 327.244 389.058 326.589C387.872 325.703 387.1 324.418 386.905 322.955L385.458 312.923C385.405 312.636 385.634 312.367 385.921 312.313C386.207 312.26 386.477 312.489 386.53 312.775L387.977 322.807C388.153 323.986 388.762 325.049 389.712 325.743C390.659 326.473 391.847 326.757 393.026 326.581C395.456 326.232 397.153 323.963 396.804 321.535L395.107 309.789C395.053 309.503 395.282 309.233 395.569 309.18C395.856 309.126 396.125 309.355 396.179 309.641L397.876 321.388C398.296 324.386 396.213 327.198 393.174 327.651C392.782 327.698 392.391 327.71 392.038 327.689Z" fill="#3D3D3D"/>
<path fill-rule="evenodd" clip-rule="evenodd" d="M387.398 311.34L389.398 325.087C389.798 327.836 387.91 330.341 385.158 330.741C382.406 331.142 379.899 329.256 379.499 326.507L377.651 313.76" fill="#D7EAFF"/>
<path d="M384.094 331.35C383.035 331.286 381.996 330.905 381.114 330.25C379.928 329.364 379.156 328.079 378.961 326.616L377.112 313.87C377.059 313.583 377.287 313.314 377.574 313.261C377.861 313.207 378.13 313.436 378.184 313.722L380.033 326.469C380.209 327.647 380.818 328.71 381.768 329.405C382.715 330.134 383.903 330.418 385.082 330.242C386.262 330.065 387.326 329.457 388.021 328.508C388.752 327.561 389.036 326.375 388.86 325.197L386.859 311.45C386.805 311.164 387.034 310.894 387.321 310.841C387.608 310.787 387.877 311.016 387.931 311.302L389.932 325.049C390.126 326.512 389.754 327.976 388.903 329.163C388.016 330.348 386.73 331.12 385.265 331.315C384.837 331.36 384.482 331.374 384.094 331.35Z" fill="#3D3D3D"/>
<path fill-rule="evenodd" clip-rule="evenodd" d="M371.467 314.094L370.992 318.418C370.439 321.11 367.782 322.861 365.088 322.309C362.394 321.757 360.642 319.103 361.195 316.412L364.181 304.558" fill="#D7EAFF"/>
<path d="M365.759 322.916C365.512 322.901 365.232 322.849 364.987 322.799C363.552 322.5 362.293 321.645 361.481 320.428C360.67 319.211 360.371 317.707 360.67 316.274L363.658 304.385C363.746 304.107 364.006 303.911 364.319 304C364.597 304.088 364.794 304.348 364.704 304.661L361.719 316.514C361.472 317.667 361.719 318.85 362.367 319.844C363.015 320.839 364.038 321.503 365.192 321.749C366.346 321.996 367.565 321.751 368.561 321.103C369.557 320.456 370.219 319.469 370.468 318.281L370.941 313.992C370.958 313.709 371.22 313.477 371.535 313.532C371.818 313.549 372.05 313.811 371.995 314.126L371.518 318.486C370.963 321.213 368.477 323.08 365.759 322.916Z" fill="#3D3D3D"/>
<path fill-rule="evenodd" clip-rule="evenodd" d="M380.187 313.453L379.894 328.796C379.839 331.447 377.657 333.545 375.004 333.491C372.35 333.437 370.25 331.257 370.305 328.606L370.598 313.264" fill="#D7EAFF"/>
<path d="M374.796 334.009C371.972 333.839 369.744 331.439 369.776 328.574L370.069 313.232C370.086 312.949 370.312 312.715 370.597 312.697C370.879 312.714 371.114 312.941 371.132 313.225L370.839 328.568C370.802 330.937 372.67 332.854 375.039 332.927C376.171 332.96 377.259 332.53 378.087 331.73C378.915 330.931 379.37 329.861 379.403 328.731L379.695 313.388C379.712 313.106 379.939 312.872 380.223 312.854C380.506 312.871 380.74 313.097 380.758 313.381L380.466 328.724C380.451 330.139 379.874 331.484 378.823 332.447C377.773 333.41 376.464 333.968 375.012 333.951C374.937 334.018 374.867 334.013 374.796 334.009Z" fill="#3D3D3D"/>
<path fill-rule="evenodd" clip-rule="evenodd" d="M173.523 99.1005L180.175 116.17L205.491 109.912L202.072 88.0125L173.523 99.1005Z" fill="#D7EAFF"/>
<path d="M179.852 116.789L172.868 98.7787L202.541 87.2631L206.105 110.269L179.852 116.789ZM174.212 99.3907L180.496 115.518L204.914 109.454L201.675 88.6972L174.212 99.3907Z" fill="#3D3D3D"/>
<path fill-rule="evenodd" clip-rule="evenodd" d="M173.209 103.185C170.835 103.183 168.932 101.263 168.932 98.9275L168.942 92.345C168.944 87.6379 172.788 83.8351 177.5 83.8363L177.469 98.9471C177.469 101.283 175.582 103.187 173.209 103.185Z" fill="#D7EAFF"/>
<path d="M172.93 103.699C171.765 103.629 170.661 103.137 169.826 102.308C168.924 101.404 168.43 100.207 168.436 98.9328L168.446 92.3503C168.465 87.3611 172.538 83.289 177.532 83.3073L178.064 83.304L178.036 98.9459C178.03 100.22 177.532 101.428 176.627 102.329C175.722 103.23 174.523 103.724 173.248 103.718C173.107 103.709 173.036 103.705 172.93 103.699ZM176.972 84.3706C172.81 84.6503 169.483 88.095 169.474 92.3415L169.464 98.924C169.475 99.9156 169.843 100.858 170.544 101.573C171.244 102.288 172.178 102.662 173.171 102.652C174.163 102.641 175.107 102.273 175.822 101.573C176.538 100.873 176.913 99.9399 176.903 98.9482L176.972 84.3706Z" fill="#3D3D3D"/>
<path fill-rule="evenodd" clip-rule="evenodd" d="M191.793 65.3061C194.402 64.9326 196.843 66.7434 197.251 69.3517L199.484 84.5282C199.857 87.1344 198.044 89.5732 195.433 89.982C192.824 90.3554 190.384 88.5447 189.975 85.9364L187.742 70.7598C187.371 68.1184 189.184 65.6796 191.793 65.3061Z" fill="#D7EAFF"/>
<path d="M194.411 90.5214C191.94 90.3722 189.821 88.5101 189.443 85.9744L187.21 70.7978C187.011 69.4055 187.346 67.9746 188.193 66.8578C189.042 65.7057 190.292 64.9671 191.685 64.7681C194.581 64.3413 197.293 66.3455 197.718 69.2733L199.951 84.4499C200.378 87.3424 198.372 90.0527 195.441 90.4774C195.119 90.5288 194.764 90.5427 194.411 90.5214ZM191.871 65.8057C190.726 65.9843 189.735 66.5615 189.077 67.4774C188.384 68.3912 188.104 69.5068 188.282 70.6502L190.515 85.8268C190.87 88.1487 193.04 89.7662 195.362 89.4463C197.686 89.0911 199.305 86.9237 198.985 84.6039L196.752 69.4273C196.397 67.1054 194.193 65.4858 191.871 65.8057Z" fill="#3D3D3D"/>
<path fill-rule="evenodd" clip-rule="evenodd" d="M178.058 100.293C175.685 100.291 173.782 98.3711 173.782 96.0351L173.791 89.4527C173.793 84.7455 177.637 80.9428 182.349 80.944L182.318 96.0548C182.318 98.3907 180.396 100.292 178.058 100.293Z" fill="#D7EAFF"/>
<path d="M177.744 100.805C175.238 100.653 173.24 98.5509 173.253 96.0034L173.262 89.4209C173.267 87.0145 174.219 84.7361 175.917 83.0335C177.614 81.3309 179.904 80.372 182.348 80.3779L182.88 80.3746L182.853 96.0165C182.846 97.2902 182.348 98.4989 181.443 99.3999C180.538 100.301 179.339 100.795 178.064 100.789C177.956 100.817 177.85 100.811 177.744 100.805ZM181.821 81.4786C179.865 81.6083 178.08 82.4208 176.686 83.7878C175.178 85.2894 174.348 87.2921 174.323 89.4496L174.314 96.032C174.296 98.0837 175.965 99.7771 178.056 99.7617C179.048 99.7508 179.992 99.3831 180.707 98.683C181.423 97.983 181.798 97.05 181.787 96.0584L181.821 81.4786Z" fill="#3D3D3D"/>
<path fill-rule="evenodd" clip-rule="evenodd" d="M185.949 98.0797C183.185 98.0899 180.948 95.8314 180.938 93.0702L180.94 83.6914C180.931 80.9302 183.192 78.6953 185.956 78.6852C188.72 78.675 190.956 80.9335 190.966 83.6947L190.964 93.0735C190.936 95.8678 188.71 98.1048 185.949 98.0797Z" fill="#D7EAFF"/>
<path d="M185.599 98.6245C184.257 98.5435 182.981 97.971 182.011 97.0276C180.977 95.9742 180.387 94.5937 180.406 93.1084L180.408 83.7295C180.415 80.6862 182.903 78.2174 185.949 78.2243C188.996 78.2313 191.467 80.7164 191.459 83.7597L191.458 93.1385C191.45 96.1818 188.962 98.6506 185.916 98.6437C185.81 98.6373 185.704 98.6309 185.599 98.6245ZM186.24 79.2683C186.135 79.2619 186.064 79.2576 185.958 79.2512C183.479 79.2431 181.48 81.246 181.471 83.7229L181.47 93.1018C181.468 94.305 181.931 95.4301 182.766 96.2592C183.602 97.0883 184.741 97.5817 185.91 97.5815C188.389 97.5896 190.388 95.5868 190.397 93.1098L190.398 83.731C190.435 81.362 188.57 79.4089 186.24 79.2683Z" fill="#3D3D3D"/>
<path fill-rule="evenodd" clip-rule="evenodd" d="M187.104 95.4238C185.652 93.0713 186.37 90.0002 188.725 88.5498L194.614 84.906C196.969 83.4556 200.043 84.1719 201.494 86.5244C202.945 88.877 202.228 91.948 199.873 93.3984L193.984 97.0422C191.629 98.4926 188.555 97.7763 187.104 95.4238Z" fill="#D7EAFF"/>
<path d="M191.036 98.3161C189.307 98.2116 187.626 97.2962 186.66 95.7161C185.044 93.1412 185.854 89.7219 188.467 88.1101L194.355 84.4666C195.607 83.6928 197.108 83.4649 198.54 83.7991C199.972 84.1333 201.194 85.021 201.968 86.2711C203.583 88.8459 202.774 92.2652 200.161 93.877L194.272 97.5205C193.246 98.0956 192.13 98.3821 191.036 98.3161ZM187.545 95.1325C188.835 97.2276 191.593 97.8896 193.693 96.5654L199.581 92.9218C201.679 91.6329 202.342 88.8771 201.016 86.7798C200.406 85.752 199.42 85.0555 198.233 84.7715C197.081 84.4896 195.864 84.6993 194.871 85.3117L188.982 88.9552C186.918 90.2816 186.255 93.0374 187.545 95.1325Z" fill="#3D3D3D"/>
<path d="M317.899 191.319L360.268 203.469C364.076 204.336 367.652 206.109 370.577 208.692L393.62 228.806C398.531 233.102 401.421 239.187 401.663 245.714L403.604 302.528L354.816 303.97L357.642 261.423L251.967 307.45C250.838 307.942 249.537 307.306 249.231 306.114L229.988 231.098L191.286 195.846C186.987 192.543 183.977 187.866 182.773 182.591L166.243 111.694L217.467 99.2865L229.114 156.086L266.953 176.35L269.642 173.469L317.899 191.319Z" fill="#1E6BFF"/>
<path d="M465.245 303.586L482.858 297.606C482.858 297.606 503.884 323.542 510.288 331.254C516.659 338.928 530.863 337.167 530.863 337.167L482.632 255.763L448.326 271.847L465.245 303.586Z" fill="#D7EAFF"/>
<path d="M524.944 337.8C524.273 337.76 523.603 337.719 522.901 337.606C517.062 336.935 512.585 334.825 509.877 331.583C503.935 324.429 485.018 301.099 482.677 298.232L465.426 304.092C465.172 304.183 464.896 304.06 464.803 303.842L447.85 272.066C447.788 271.921 447.762 271.777 447.805 271.638C447.849 271.5 447.962 271.4 448.072 271.336L482.379 255.252C482.634 255.126 482.912 255.213 483.074 255.471L531.305 336.875C531.402 337.022 531.389 337.234 531.31 337.371C531.231 337.507 531.081 337.64 530.903 337.664C530.795 337.693 528.296 338.003 524.944 337.8ZM482.886 297.113C483.028 297.121 483.164 297.2 483.264 297.312C483.461 297.572 504.392 323.324 510.696 330.924C513.864 334.761 519.166 336.107 523.036 336.553C526.06 336.912 528.689 336.788 529.97 336.688L482.414 256.422L449.055 272.068L465.529 302.966L482.708 297.137C482.745 297.104 482.816 297.108 482.886 297.113Z" fill="#3D3D3D"/>
<path d="M482.829 298.171C482.687 298.162 482.55 298.083 482.451 297.971L479.025 293.693C478.826 293.469 478.883 293.118 479.106 292.955C479.33 292.756 479.681 292.812 479.845 293.035L483.27 297.313C483.469 297.537 483.413 297.888 483.19 298.051C483.08 298.115 482.97 298.179 482.829 298.171Z" fill="#3D3D3D"/>
<path d="M302.593 123.537C286.87 121.137 271.361 128.659 265.367 142.807C261.894 151.021 262.114 160.235 265.957 168.713C269.833 177.229 276.897 183.99 285.843 187.751C294.822 191.549 304.577 191.89 313.376 188.74C322.174 185.591 328.928 179.345 332.401 171.132C335.874 162.919 335.654 153.704 331.811 145.226C327.935 136.711 320.871 129.949 311.925 126.189C308.85 124.906 305.717 124.009 302.593 123.537Z" fill="#D7EAFF"/>
<path d="M307.744 191.089C307.709 191.087 307.674 191.085 307.641 191.048C307.433 190.964 307.342 190.711 307.426 190.504C307.966 189.192 308.47 187.877 309.011 186.565C316.465 168.188 322.884 152.296 307.796 138.255C305.683 136.288 303.282 135.576 300.632 136.053C286.656 138.714 269.673 174.034 269.51 174.378C269.427 174.586 269.173 174.676 268.968 174.558C268.76 174.475 268.669 174.221 268.788 174.016C268.83 173.913 273.129 164.935 279.144 155.707C287.265 143.28 294.448 136.388 300.505 135.232C303.444 134.666 306.088 135.463 308.401 137.619C315.476 144.204 318.428 151.602 317.691 160.83C317.016 169.035 313.517 177.671 309.809 186.826C309.269 188.138 308.765 189.452 308.225 190.765C308.137 191.042 307.954 191.137 307.744 191.089Z" fill="#3D3D3D"/>
<path d="M295.153 191.285C291.89 190.77 288.686 189.868 285.543 188.546C276.392 184.667 269.16 177.755 265.222 169.094C261.251 160.397 261.043 150.971 264.602 142.515C271.962 125.123 293.325 117.459 312.25 125.466C321.402 129.345 328.634 136.258 332.571 144.918C336.543 153.616 336.75 163.042 333.191 171.498C329.634 179.918 322.691 186.364 313.676 189.572C307.776 191.658 301.401 192.228 295.153 191.285ZM302.591 123.539C286.868 121.139 271.357 128.661 265.363 142.809C261.89 151.022 262.111 160.236 265.953 168.714C269.829 177.229 276.893 183.99 285.839 187.75C294.818 191.548 304.574 191.889 313.372 188.739C322.171 185.59 328.925 179.344 332.399 171.131C335.872 162.918 335.652 153.704 331.809 145.226C327.933 136.711 320.869 129.95 311.923 126.19C308.848 124.907 305.715 124.01 302.591 123.539Z" fill="#3D3D3D"/>
<path fill-rule="evenodd" clip-rule="evenodd" d="M290.226 149.97L277.18 155.977L285.052 161.69" fill="#D7EAFF"/>
<path d="M284.919 162.072C284.884 162.07 284.851 162.033 284.851 162.033L276.979 156.32C276.877 156.243 276.78 156.095 276.824 155.956C276.833 155.815 276.912 155.679 277.057 155.617L290.068 149.607C290.286 149.514 290.529 149.599 290.622 149.817C290.715 150.035 290.629 150.278 290.411 150.371L278.02 156.099L285.315 161.388C285.485 161.505 285.539 161.791 285.422 161.961C285.274 162.058 285.058 162.116 284.919 162.072Z" fill="#3D3D3D"/>
<path d="M294.619 158.128C295.36 158.173 295.997 157.609 296.042 156.869C296.087 156.129 295.523 155.492 294.782 155.448C294.041 155.403 293.404 155.967 293.359 156.707C293.314 157.447 293.879 158.084 294.619 158.128Z" fill="#3D3D3D"/>
<path d="M284.606 151.506C285.347 151.551 285.984 150.987 286.028 150.247C286.073 149.507 285.509 148.87 284.768 148.826C284.027 148.781 283.39 149.345 283.346 150.085C283.301 150.825 283.865 151.462 284.606 151.506Z" fill="#3D3D3D"/>
<path fill-rule="evenodd" clip-rule="evenodd" d="M285.643 168.877C285.643 168.877 294.479 172.701 299.815 168.812C299.815 168.812 300.963 176.171 297.472 175.324" fill="#D7EAFF"/>
<path d="M297.621 175.793C297.515 175.787 297.447 175.747 297.341 175.741C297.132 175.693 296.968 175.471 297.051 175.263C297.135 175.056 297.322 174.89 297.529 174.974C298.019 175.074 298.412 175.027 298.713 174.727C299.688 173.83 299.606 171.1 299.453 169.534C297.246 170.887 294.209 171.305 290.631 170.735C287.754 170.278 285.545 169.331 285.441 169.289C285.233 169.206 285.142 168.953 285.226 168.745C285.309 168.538 285.563 168.447 285.77 168.53C285.874 168.572 294.474 172.206 299.515 168.511C299.627 168.412 299.768 168.42 299.907 168.464C300.046 168.508 300.144 168.655 300.17 168.799C300.246 169.299 300.893 173.832 299.242 175.36C298.98 175.592 298.429 175.913 297.621 175.793Z" fill="#3D3D3D"/>
<path d="M356.781 262.505C356.675 262.499 356.572 262.457 356.47 262.38L347.026 254.555C346.79 254.364 346.774 254.044 346.965 253.808C347.157 253.572 347.477 253.556 347.713 253.747L357.157 261.572C357.393 261.763 357.409 262.083 357.218 262.319C357.103 262.454 356.922 262.514 356.781 262.505Z" fill="#3D3D3D"/>
<path d="M485.239 325.107L383.017 373.684C377.328 376.384 370.58 375.516 365.76 371.474L337.781 348.054L420.791 319.02L450.626 261.542L485.239 325.107Z" fill="#11245A"/>
<path d="M375.164 375.829C371.706 375.62 368.349 374.32 365.621 371.997L332.186 343.933C331.95 343.742 331.934 343.422 332.126 343.186C332.317 342.95 332.637 342.934 332.873 343.125L366.307 371.189C370.993 375.117 377.568 375.903 383.048 373.155L408.402 361.558C408.658 361.431 408.969 361.556 409.095 361.812C409.221 362.067 409.096 362.378 408.841 362.504L383.486 374.102C380.82 375.427 377.988 375.999 375.164 375.829Z" fill="#D7EAFF"/>
<path opacity="0.51" d="M501.391 119.639L471.004 146.759L440.618 173.879L397.728 85.8999L454.571 76.1811L501.391 119.639Z" fill="#EFC4FF"/>
<path d="M476.959 153.422C493.739 138.436 504.673 123.303 501.381 119.621C498.088 115.938 481.816 125.101 465.035 140.087C448.255 155.073 437.321 170.206 440.613 173.889C443.906 177.571 460.178 168.408 476.959 153.422Z" fill="#EFC4FF"/>
<path d="M461.24 43.8475C469.568 57.0162 465.523 74.4551 452.267 82.604C446.526 86.1234 439.198 89.8285 429.922 93.4818C420.611 97.1362 412.749 99.4418 406.133 100.758C390.862 103.871 376.004 93.8551 373.102 78.5549L372.15 73.5604C367.921 51.2607 380.152 29.1382 401.258 20.8054C422.364 12.4727 446.433 20.3579 458.537 39.5384L461.24 43.8475Z" fill="#D7EAFF"/>
<path d="M401.279 101.884C395.445 102.047 389.667 100.405 384.726 97.0774C378.344 92.8003 374.023 86.2734 372.574 78.7116L371.622 73.7172C367.352 51.2065 379.715 28.7619 401.068 20.387C422.384 11.9777 446.775 19.96 458.989 39.3141L461.692 43.6232C465.801 50.1208 467.112 57.8278 465.374 65.3371C463.635 72.8111 459.069 79.1264 452.563 83.1267C446.231 87.0162 438.654 90.6928 430.113 94.0428C421.572 97.3928 413.538 99.88 406.254 101.356C404.563 101.651 402.905 101.839 401.279 101.884ZM417.211 18.0978C411.907 18.2458 406.594 19.3134 401.413 21.3321C380.551 29.5519 368.457 51.4939 372.641 73.4766L373.594 78.471C374.964 85.7521 379.137 92.0356 385.303 96.1774C391.433 100.285 398.798 101.741 406.011 100.267C413.224 98.7926 421.224 96.3417 429.695 92.9937C438.2 89.6447 445.672 86.0063 451.97 82.1532C458.268 78.3001 462.629 72.2381 464.304 65.0487C465.979 57.8241 464.747 50.3977 460.787 44.1435L458.084 39.8344C449.054 25.5892 433.334 17.6478 417.211 18.0978Z" fill="#3D3D3D"/>
<path d="M477.496 68.5378L462.976 63.003L462.941 63.004C460.996 69.4226 456.769 75.2331 450.576 79.0124C444.731 82.6052 437.263 86.3847 427.742 90.1154C418.221 93.8462 410.219 96.1909 403.462 97.5463C396.812 98.8987 390.236 97.8093 384.635 94.9249L384.25 95.0771L377.215 108.037C375.657 110.556 375.153 112.798 375.878 114.687C379.152 123.01 405.792 120.287 435.334 108.643C464.876 96.9992 486.223 80.8108 482.95 72.5224C482.26 70.6324 480.349 69.3421 477.496 68.5378Z" fill="#11245A"/>
<path d="M465.017 65.1375C467.072 70.313 450.972 83.0664 428.816 91.8168C406.661 100.567 386.847 101.898 384.828 96.7215C382.808 91.5451 399.092 80.3068 421.213 71.5928C443.334 62.8787 462.963 59.962 465.017 65.1375Z" fill="#D7EAFF"/>
<path d="M395.328 100.247C387.126 100.475 384.908 98.3452 384.337 96.9115C381.902 90.7567 401.106 78.9419 421.021 71.0672C431.767 66.8427 442.264 63.8273 450.58 62.6052C456.607 61.7299 464.1 61.4147 465.506 64.9112C467.828 70.7863 450.427 83.8236 429.006 92.2707C418.575 96.3803 408.036 99.1141 399.319 99.9584C397.873 100.14 396.531 100.213 395.328 100.247ZM456.61 63.1087C454.877 63.1571 452.901 63.3537 450.751 63.6612C442.505 64.8813 432.114 67.8584 421.438 72.0456C397.741 81.3693 383.641 92.2285 385.352 96.4943C386.228 98.7327 391.562 99.6799 399.254 98.8995C407.865 98.0581 418.298 95.3273 428.659 91.255C450.78 82.5409 466.388 69.9072 464.561 65.2911C463.917 63.7534 461.065 62.9844 456.61 63.1087Z" fill="#3D3D3D"/>
<path d="M394.847 108.392C387.246 108.604 381.896 107.091 379.927 103.717C379.778 103.473 379.876 103.153 380.119 103.004C380.363 102.856 380.684 102.953 380.832 103.197C384.991 110.258 406.802 108.199 431.619 98.4202C454.965 89.2124 472.772 75.5274 472.153 67.236C472.145 66.9533 472.35 66.7001 472.632 66.6569C472.915 66.649 473.169 66.8541 473.212 67.1357C473.847 75.9924 456.115 89.852 431.999 99.3642C417.649 105.068 404.465 108.123 394.847 108.392Z" fill="#D7EAFF"/>
<path d="M445.205 53.8062C446.962 66.0975 437.933 77.346 425.537 78.2223C422.111 78.4593 418.219 78.4971 413.755 78.3035C409.291 78.1098 405.422 77.6873 402.046 77.1451C389.782 75.1536 381.805 63.142 384.689 51.0395C388.11 36.6237 401.317 26.7083 416.092 27.3922C430.901 28.0398 443.135 39.1547 445.205 53.8062Z" fill="url(#paint1_radial_13947_113717)"/>
<path d="M413.184 51.4469C413.224 50.3496 413.48 49.3524 413.878 48.3865C414.312 47.455 414.89 46.6256 415.649 45.8972C416.373 45.2051 417.208 44.6868 418.153 44.3421C419.099 43.9974 420.051 43.8648 421.079 43.9068C422.071 43.9499 423.033 44.2059 423.929 44.6052C424.826 45.0398 425.62 45.6188 426.314 46.3774C427.007 47.136 427.492 48.0065 427.837 48.9869C428.148 49.9684 428.317 50.9891 428.242 52.0874C428.197 53.008 428.043 53.861 427.748 54.6825C427.451 55.4687 427.047 56.2226 426.499 56.8744C425.711 57.8158 424.776 58.5491 423.656 59.0047C422.677 59.421 421.621 59.6273 420.595 59.6206C419.498 59.6158 418.5 59.3608 417.531 58.8928C416.634 58.4581 415.84 57.8792 415.182 57.1196C414.487 56.3257 413.968 55.4562 413.622 54.4757C413.278 53.5659 413.144 52.5442 413.184 51.4469ZM416.798 51.5936C416.727 52.8685 417.076 53.955 417.773 54.8549C418.47 55.7548 419.403 56.2238 420.502 56.2639C421.6 56.3039 422.545 55.9239 423.335 55.0886C424.126 54.2532 424.557 53.2157 424.592 51.9064C424.662 50.5961 424.313 49.5096 423.616 48.6097C422.918 47.7098 421.985 47.2408 420.887 47.2007C419.789 47.1607 418.844 47.5407 418.053 48.376C417.299 49.2458 416.869 50.3186 416.798 51.5936Z" fill="#D7EAFF"/>
<path d="M406.237 44.6383L403.727 43.4354C403.548 43.3696 403.338 43.4462 403.271 43.5895C401.432 47.4599 401.455 49.5455 401.455 49.5455L401.429 49.8999C401.391 51.0679 401.096 51.9248 400.581 52.5049C400.067 53.085 399.331 53.3531 398.41 53.3081C397.453 53.2641 396.735 52.8952 396.292 52.2357C395.849 51.5762 395.645 50.5918 395.714 49.2815L395.737 48.8211C395.844 47.5805 396.287 44.421 397.686 41.2702C397.752 41.0915 397.675 40.8815 397.532 40.8148L395.022 39.6472C394.843 39.5815 394.633 39.6581 394.567 39.8367C392.935 43.4891 392.469 47.1089 392.332 48.5626C392.333 48.5979 392.299 48.6342 392.3 48.6696L392.274 48.9885C392.277 49.1299 392.245 49.2369 392.245 49.2369L392.218 49.5205C392.135 51.6445 392.571 53.3297 393.632 54.573C394.657 55.8174 396.162 56.4826 398.146 56.5687C400.095 56.6557 401.673 56.152 402.774 54.9897C404.941 52.7368 404.993 49.5175 404.993 49.5175C404.992 49.4822 404.958 48.2808 406.463 45.127C406.457 44.915 406.382 44.7403 406.237 44.6383Z" fill="#D7EAFF"/>
<path d="M413.017 70.8643L412.982 70.8652C410.041 70.7352 407.782 69.6668 407.711 69.6335L409.18 66.481C409.467 66.6144 415.989 69.5438 420.264 64.2269L422.979 66.414C420.481 69.4891 417.021 71.0354 413.017 70.8643Z" fill="#D7EAFF"/>
<path d="M402.889 64.3577L401.357 62.7032C401.212 62.5658 401.241 62.3528 401.379 62.2075C405.622 58.2702 406.192 55.8498 407.205 51.543C407.551 50.0128 407.998 48.2677 408.612 46.1644C410.039 41.4924 412.844 39.2571 414.938 38.2086C416.682 37.3113 418.234 37.1265 418.941 37.0714C419.153 37.0655 419.298 37.2029 419.304 37.4149L419.305 39.9961L419.299 38.5112L419.295 39.6428C419.3 39.8195 419.162 39.9648 418.987 40.005C417.751 40.1102 413.281 40.9776 411.432 47.0404C410.815 49.0377 410.403 50.7465 410.055 52.2413C408.978 56.7975 408.249 59.8588 403.35 64.3802C403.248 64.5244 403.035 64.495 402.889 64.3577Z" fill="#EFC4FF"/>
<path d="M402.797 50.8176L401.751 48.7963C401.675 48.6216 401.74 48.4077 401.915 48.3321C402.998 47.8423 406.603 46.3982 409.608 47.587C412.435 48.7102 414.433 48.018 415.096 47.6813C415.235 47.6067 415.414 47.6724 415.524 47.8108L416.849 49.6476C416.96 49.8213 416.93 50.0342 416.721 50.1461C415.746 50.7037 412.739 52.025 408.481 50.3408C406.657 49.6139 404.101 50.6045 403.227 50.9824C403.087 51.057 402.873 50.9923 402.797 50.8176Z" fill="#EFC4FF"/>
<path d="M416.777 24.1887C416.093 23.7834 415.786 22.908 416.048 22.1581L420.125 10.9407C420.847 8.90499 423.265 8.05953 425.101 9.17522C426.829 10.2232 427.317 12.5081 426.089 14.169L418.995 23.7732C418.519 24.4583 417.532 24.6273 416.777 24.1887Z" fill="#1E6BFF"/>
<path d="M422.657 24.4139C422.283 23.6818 422.472 22.8279 423.094 22.3155L432.407 14.8775C434.103 13.5218 436.595 14.0534 437.568 15.971C438.502 17.7483 437.715 19.9626 435.825 20.7225L424.767 25.2037C423.962 25.509 423.032 25.1814 422.657 24.4139Z" fill="#1E6BFF"/>
<path d="M464.735 68.9633C465.903 72.7845 448.345 81.4415 425.572 88.3349C402.799 95.2283 383.37 97.6796 382.238 93.8575C381.07 90.0363 398.628 81.3792 421.401 74.4859C444.174 67.5925 463.568 65.1422 464.735 68.9633Z" fill="url(#paint2_radial_13947_113717)"/>
<path d="M101.909 129.649C106.017 130.479 110.02 127.825 110.851 123.72C111.681 119.616 109.024 115.616 104.916 114.785C100.808 113.955 96.8047 116.609 95.9742 120.714C95.1436 124.818 97.8005 128.818 101.909 129.649Z" fill="white"/>
<path d="M100.736 131.701C95.4999 130.208 92.4567 124.755 93.9504 119.523C95.4441 114.291 100.902 111.251 106.138 112.744C111.375 114.237 114.418 119.691 112.924 124.922C111.431 130.154 105.945 133.189 100.736 131.701ZM104.881 117.097C102.056 116.294 99.0818 117.953 98.2788 120.775C97.4758 123.596 99.1362 126.569 101.961 127.371C104.785 128.174 107.759 126.515 108.562 123.693C109.365 120.871 107.705 117.899 104.881 117.097Z" fill="url(#paint3_linear_13947_113717)"/>
<path d="M63.821 74.7368C95.1873 75.2171 120.681 71.3395 120.762 66.0759C120.843 60.8123 95.4812 56.156 64.115 55.6758C32.7487 55.1955 7.25549 59.0731 7.17433 64.3367C7.09316 69.6002 32.4548 74.2565 63.821 74.7368Z" fill="url(#paint4_radial_13947_113717)"/>
<path d="M82.5799 33.9052C83.5672 31.5444 84.1148 28.9234 84.1568 26.1996C84.3351 14.6394 75.0987 5.15253 63.5633 4.9759C51.9962 4.79879 42.5029 14.0305 42.3251 25.5591C42.2831 28.2829 42.7818 30.8882 43.6637 33.3094C44.3029 35.0298 45.1975 36.6275 46.2525 38.1009L60.5511 64.6454C61.9074 67.1372 65.4899 67.097 66.7649 64.5822L81.0123 36.8908C81.6291 35.9498 82.1518 34.9441 82.5799 33.9052Z" fill="url(#paint5_linear_13947_113717)"/>
<path d="M63.0693 37.0602C69.2481 37.1548 74.3341 32.2258 74.4293 26.051C74.5245 19.8762 69.5929 14.7939 63.4141 14.6993C57.2354 14.6046 52.1494 19.5336 52.0542 25.7084C51.9589 31.8832 56.8906 36.9656 63.0693 37.0602Z" fill="white"/>
<path d="M102.015 228.588C106.123 229.418 110.127 226.764 110.958 222.659C111.788 218.555 109.131 214.555 105.023 213.724C100.915 212.894 96.9117 215.548 96.0811 219.653C95.2505 223.757 97.9074 227.757 102.015 228.588Z" fill="white"/>
<path d="M100.816 230.635C95.5799 229.142 92.5368 223.689 94.0305 218.457C95.5242 213.225 100.982 210.185 106.218 211.678C111.455 213.171 114.498 218.624 113.004 223.856C111.511 229.088 106.053 232.128 100.816 230.635ZM104.989 216.036C102.164 215.233 99.1898 216.892 98.3868 219.714C97.5837 222.536 99.2442 225.508 102.069 226.31C104.893 227.113 107.867 225.454 108.67 222.632C109.451 219.777 107.813 216.838 104.989 216.036Z" fill="url(#paint6_linear_13947_113717)"/>
<path d="M214.105 354.426C218.213 355.256 222.216 352.602 223.047 348.498C223.877 344.393 221.221 340.393 217.113 339.563C213.005 338.732 209.001 341.387 208.17 345.491C207.34 349.596 209.997 353.596 214.105 354.426Z" fill="white"/>
<path d="M212.933 356.479C207.696 354.986 204.653 349.532 206.147 344.3C207.64 339.069 213.098 336.029 218.335 337.521C223.571 339.014 226.614 344.468 225.121 349.7C223.633 354.904 218.141 357.966 212.933 356.479ZM217.077 341.874C214.253 341.071 211.278 342.73 210.475 345.552C209.672 348.374 211.333 351.346 214.157 352.148C216.981 352.951 219.956 351.292 220.759 348.47C221.567 345.621 219.901 342.676 217.077 341.874Z" fill="url(#paint7_linear_13947_113717)"/>
<path d="M533.604 387.002C537.712 387.832 541.716 385.178 542.546 381.073C543.377 376.969 540.72 372.969 536.612 372.138C532.504 371.308 528.501 373.962 527.67 378.067C526.839 382.171 529.496 386.172 533.604 387.002Z" fill="white"/>
<path d="M532.405 389.049C527.169 387.556 524.126 382.103 525.619 376.871C527.113 371.639 532.571 368.599 537.807 370.092C543.044 371.585 546.087 377.038 544.593 382.27C543.1 387.502 537.642 390.542 532.405 389.049ZM536.55 374.444C533.725 373.642 530.751 375.3 529.948 378.122C529.145 380.944 530.805 383.916 533.63 384.719C536.454 385.521 539.428 383.863 540.231 381.041C541.034 378.219 539.374 375.247 536.55 374.444Z" fill="url(#paint8_linear_13947_113717)"/>
<path d="M553.611 217.484C553.482 217.505 553.321 217.53 553.187 217.519L500.39 221.816C497.394 222.063 494.764 219.845 494.551 216.846L492.262 188.566C492.016 185.572 494.238 182.944 497.239 182.729L550.036 178.432C553.032 178.185 555.662 180.403 555.875 183.401L558.164 211.682C558.293 213.112 557.827 214.538 556.881 215.644C556.049 216.634 554.898 217.279 553.611 217.484ZM553.136 216.571C554.309 216.483 555.406 215.912 556.185 214.997C556.963 214.082 557.341 212.934 557.221 211.766L554.932 183.486C554.741 181.044 552.569 179.215 550.126 179.406L497.328 183.704C494.884 183.895 493.052 186.066 493.242 188.508L495.532 216.789C495.722 219.231 497.894 221.06 500.338 220.868L553.136 216.571Z" fill="#11245A"/>
<path d="M555.421 183.669L492.76 188.778C492.535 185.913 494.648 183.434 497.51 183.176L549.817 178.926C552.684 178.7 555.196 180.805 555.421 183.669Z" fill="#11245A"/>
<path d="M527.171 206.204C527.107 206.215 527.042 206.225 526.946 206.24L500.207 208.426C499.457 208.48 498.73 208.266 498.155 207.764C497.586 207.295 497.243 206.591 497.194 205.874L496.238 194.06C496.127 192.529 497.262 191.161 498.794 191.049L525.533 188.863C526.283 188.809 527.01 189.023 527.585 189.524C528.155 189.994 528.497 190.698 528.546 191.415L529.502 203.229C529.635 204.691 528.619 205.974 527.171 206.204ZM498.75 192.012C497.817 192.16 497.157 192.991 497.209 193.938L498.165 205.752C498.209 206.239 498.442 206.664 498.793 207.003C499.171 207.306 499.625 207.464 500.113 207.419L526.852 205.233C527.859 205.139 528.61 204.261 528.521 203.286L527.565 191.473C527.52 190.985 527.288 190.561 526.937 190.221C526.559 189.919 526.105 189.76 525.617 189.805L498.878 191.991C498.846 191.996 498.814 192.001 498.75 192.012Z" fill="#11245A"/>
<path d="M515.994 217.218C515.93 217.229 515.866 217.239 515.801 217.249L500.821 218.483C500.135 218.527 499.478 218.335 498.945 217.892C498.413 217.45 498.117 216.838 498.042 216.157L497.738 212.382C497.695 211.696 497.888 211.039 498.331 210.507C498.774 209.975 499.387 209.68 500.068 209.604L515.048 208.37C515.734 208.326 516.392 208.518 516.924 208.961C517.456 209.403 517.752 210.016 517.827 210.696L518.131 214.471C518.174 215.157 517.981 215.814 517.538 216.346C517.149 216.803 516.606 217.121 515.994 217.218ZM500.06 210.594C499.674 210.656 499.341 210.841 499.124 211.139C498.843 211.447 498.712 211.864 498.746 212.287L499.05 216.063C499.084 216.486 499.274 216.851 499.615 217.126C499.924 217.407 500.341 217.538 500.764 217.504L515.744 216.269C516.168 216.235 516.534 216.045 516.809 215.704C517.09 215.395 517.222 214.979 517.187 214.556L516.884 210.78C516.849 210.357 516.659 209.992 516.318 209.717C516.01 209.436 515.593 209.305 515.17 209.339L500.189 210.574C500.125 210.584 500.093 210.589 500.06 210.594Z" fill="#11245A"/>
<path d="M528.2 216.198C528.136 216.208 528.072 216.218 528.007 216.228L522.272 216.681C520.873 216.805 519.649 215.748 519.526 214.35L519.222 210.574C519.098 209.176 520.157 207.952 521.556 207.828L527.291 207.376C528.69 207.251 529.915 208.309 530.038 209.707L530.342 213.483C530.385 214.168 530.193 214.825 529.749 215.357C529.36 215.815 528.812 216.1 528.2 216.198ZM521.517 208.824C520.712 208.952 520.134 209.671 520.203 210.517L520.506 214.292C520.58 215.171 521.341 215.808 522.22 215.733L527.955 215.281C528.379 215.246 528.745 215.056 529.02 214.715C529.301 214.407 529.433 213.99 529.399 213.567L529.095 209.791C529.021 208.913 528.26 208.276 527.381 208.35L521.646 208.803C521.581 208.813 521.549 208.819 521.517 208.824Z" fill="#11245A"/>
<path d="M551.346 191.64L532.422 193.173C532.127 193.187 531.861 192.965 531.815 192.676L531.781 192.253C531.767 191.959 531.988 191.693 532.278 191.646L551.202 190.114C551.497 190.1 551.763 190.321 551.809 190.61L551.843 191.033C551.857 191.328 551.636 191.594 551.346 191.64Z" fill="#11245A"/>
<path d="M551.609 195.158L532.684 196.691C532.39 196.705 532.124 196.484 532.078 196.195L532.043 195.772C532.029 195.477 532.251 195.211 532.541 195.165L551.465 193.632C551.76 193.618 552.026 193.839 552.072 194.129L552.106 194.552C552.152 194.841 551.931 195.107 551.609 195.158Z" fill="#11245A"/>
<path d="M551.916 198.736L532.992 200.269C532.697 200.283 532.431 200.061 532.385 199.772L532.35 199.349C532.336 199.055 532.558 198.789 532.848 198.743L551.772 197.21C552.067 197.196 552.333 197.417 552.379 197.706L552.413 198.129C552.459 198.419 552.206 198.69 551.916 198.736Z" fill="#11245A"/>
<path d="M552.125 202.329L533.201 203.862C532.906 203.876 532.64 203.655 532.594 203.366L532.56 202.943C532.546 202.648 532.768 202.382 533.057 202.336L551.982 200.803C552.276 200.789 552.542 201.01 552.588 201.3L552.623 201.723C552.674 202.044 552.42 202.315 552.125 202.329Z" fill="#11245A"/>
<path fill-rule="evenodd" clip-rule="evenodd" d="M17.3383 283.352L57.8829 345.18L95.1531 350.951L55.2154 282.247L17.3383 283.352Z" fill="#D7EAFF"/>
<path d="M95.1357 351.34L95.1031 351.338L57.8004 345.567C57.6704 345.561 57.5758 345.491 57.5152 345.391L17.0032 283.564C16.9116 283.43 16.919 283.267 16.9899 283.14C17.0609 283.013 17.1954 282.922 17.3255 282.928L55.2026 281.822C55.3652 281.83 55.4923 281.901 55.5513 282.034L95.489 350.737C95.5806 350.872 95.5732 351.034 95.4697 351.16C95.4312 351.288 95.2982 351.347 95.1357 351.34ZM58.1286 344.8L94.3968 350.395L55.0015 282.66L18.1027 283.744L58.1286 344.8Z" fill="#3D3D3D"/>
<path fill-rule="evenodd" clip-rule="evenodd" d="M57.8774 345.181L61.9319 352.009L96.6961 357.014L95.1481 350.952L57.8774 345.181Z" fill="#D7EAFF"/>
<path d="M96.6804 357.403L96.6479 357.402L61.8837 352.397C61.7536 352.391 61.659 352.322 61.5999 352.189L57.544 345.393C57.4524 345.259 57.4598 345.096 57.5633 344.971C57.6668 344.845 57.7998 344.786 57.9624 344.794L95.2655 350.566C95.4266 350.606 95.5522 350.709 95.6098 350.874L97.1579 356.937C97.1844 357.068 97.146 357.197 97.075 357.324C96.9095 357.381 96.8105 357.409 96.6804 357.403ZM62.1793 351.629L96.1337 356.532L94.8073 351.326L58.6362 345.736L62.1793 351.629Z" fill="#3D3D3D"/>
<path fill-rule="evenodd" clip-rule="evenodd" d="M95.1508 350.952L164.844 345.925L165.885 352.387L96.6988 357.014L95.1508 350.952Z" fill="#D7EAFF"/>
<path d="M96.6815 357.404C96.519 357.397 96.3623 357.259 96.3047 357.094L94.7567 351.032C94.7301 350.9 94.7346 350.803 94.838 350.677C94.9075 350.583 95.008 350.522 95.1395 350.495L164.8 345.467C165.029 345.445 165.185 345.615 165.241 345.813L166.313 352.309C166.341 352.408 166.302 352.537 166.233 352.631C166.163 352.726 166.063 352.786 165.933 352.78L96.748 357.375C96.714 357.406 96.714 357.406 96.6815 357.404ZM95.6892 351.302L97.0127 356.573L165.414 352.008L164.5 346.333L95.6892 351.302Z" fill="#3D3D3D"/>
<path fill-rule="evenodd" clip-rule="evenodd" d="M164.845 345.925L104.609 340.767L89.6258 341.386L95.1518 350.952L164.845 345.925Z" fill="#D7EAFF"/>
<path d="M95.134 351.342C95.0039 351.336 94.8768 351.265 94.7852 351.13L89.2251 341.596C89.166 341.463 89.1394 341.331 89.2104 341.204C89.2813 341.077 89.4158 340.986 89.5459 340.992L104.531 340.34C104.563 340.342 104.563 340.342 104.596 340.343L164.832 345.501C165.059 345.511 165.213 345.714 165.204 345.909C165.195 346.103 165.024 346.291 164.827 346.315L95.1665 351.343C95.1665 351.343 95.1665 351.343 95.134 351.342ZM90.3246 341.776L95.4001 350.507L159.668 345.851L104.625 341.126L90.3246 341.776Z" fill="#3D3D3D"/>
<path d="M59.1585 324.694C60.7133 323.867 60.2124 319.892 58.0397 315.817C55.867 311.743 52.8452 309.11 51.2904 309.938C49.7355 310.766 50.2364 314.741 52.4092 318.816C54.5819 322.89 57.6037 325.522 59.1585 324.694Z" fill="#1E6BFF"/>
<path d="M233.511 45.4713C233.34 45.4418 233.179 45.3586 233.05 45.2535L230.444 43.1732C230.03 42.853 229.98 42.2915 230.31 41.9062C235.686 35.7564 236.041 32.3346 236.64 26.1352C236.849 23.9044 237.108 21.3784 237.636 18.318C238.811 11.3333 242.588 7.64459 245.551 5.77829C248.023 4.21409 250.294 3.63824 251.413 3.44427C251.684 3.40797 251.94 3.45221 252.15 3.59892C252.359 3.74562 252.527 3.96794 252.542 4.21938L252.772 5.77942L253.021 7.39807C253.04 7.45668 253.031 7.51037 253.026 7.53721L253.061 7.84726C253.081 8.07185 252.93 8.26695 252.688 8.30816C252.626 8.32517 252.569 8.31535 252.512 8.30552C252.446 8.34937 252.356 8.36147 252.261 8.40042C250.402 8.79856 244.263 10.6978 242.819 19.2394C242.319 22.1387 242.074 24.5843 241.879 26.7345C241.22 33.4488 240.779 37.8787 234.35 45.2013C234.199 45.3964 233.948 45.4914 233.711 45.5057C233.654 45.4959 233.597 45.4861 233.511 45.4713ZM251.63 4.22807L251.602 4.22316C250.539 4.42696 248.391 4.96877 246.053 6.44526C243.222 8.22384 239.62 11.7493 238.491 18.4655C237.968 21.499 237.737 24.03 237.505 26.229C236.877 32.5894 236.537 36.0967 230.982 42.4367C230.949 42.4586 230.968 42.5172 230.992 42.549L233.598 44.6293C233.622 44.661 233.655 44.6391 233.655 44.6391C233.683 44.644 233.688 44.6172 233.717 44.6221C239.966 37.4896 240.388 33.1672 241.052 26.592C241.28 24.4198 241.497 21.9693 242.002 19.0432C243.529 10.0183 250.133 7.97808 252.11 7.57275C252.139 7.57767 252.172 7.55574 252.177 7.52889L251.707 4.29651C251.711 4.26967 251.687 4.23791 251.659 4.23299C251.659 4.23299 251.659 4.23299 251.63 4.22807Z" fill="#11245A"/>
<path d="M230.64 26.5381C230.384 26.4938 230.169 26.374 230.002 26.1517L228.025 23.4887C227.882 23.2981 227.81 23.0369 227.851 22.7953C227.893 22.5537 228.049 22.3317 228.276 22.205C229.749 21.3256 234.973 18.6051 239.868 19.8362C244.088 20.8957 246.765 19.671 247.688 19.0838C248.081 18.8475 248.599 18.9091 248.894 19.2366L251.241 21.6315C251.412 21.8269 251.518 22.0663 251.5 22.3396C251.487 22.5862 251.355 22.8399 251.128 22.9665C249.594 24.029 245.318 26.36 238.565 24.6703C235.808 23.9738 232.261 25.8223 231.247 26.4216C231.082 26.5313 230.84 26.5725 230.64 26.5381ZM230.727 25.6961C230.751 25.7278 230.808 25.7376 230.841 25.7157C232.242 24.907 235.833 23.1488 238.846 23.8895C245.233 25.4885 249.245 23.3329 250.655 22.3045C250.688 22.2826 250.693 22.2557 250.693 22.2557C250.697 22.2289 250.702 22.202 250.673 22.1971L248.327 19.8022C248.303 19.7705 248.246 19.7606 248.213 19.7826C247.167 20.4038 244.258 21.782 239.7 20.6367C235.143 19.4914 230.203 22.095 228.797 22.9306C228.764 22.9526 228.759 22.9794 228.759 22.9794C228.754 23.0062 228.754 23.0062 228.778 23.038L230.727 25.6961Z" fill="#11245A"/>
<path d="M219.336 459.306C218.298 459.306 217.26 459.224 216.249 459.061C213.654 458.652 211.168 457.726 208.873 456.282C206.497 454.811 204.503 452.959 202.918 450.753C201.334 448.546 200.186 446.013 199.503 443.207C198.821 440.401 198.629 437.623 199.012 434.926C199.367 432.229 200.268 429.642 201.689 427.245C203.027 424.956 204.776 422.995 206.907 421.415C209.037 419.835 211.414 418.719 214.009 418.092C216.604 417.466 219.254 417.329 221.877 417.738C224.499 418.147 226.985 419.073 229.307 420.489C231.629 421.906 233.596 423.758 235.153 425.964C236.71 428.171 237.858 430.759 238.568 433.591C239.142 435.961 239.387 438.304 239.224 440.565C239.087 442.826 238.541 445.005 237.666 447.075C236.382 450.044 234.498 452.605 232.066 454.675C229.908 456.473 227.368 457.835 224.663 458.57C222.887 459.061 221.112 459.306 219.336 459.306ZM200.296 443.016C200.979 445.713 202.071 448.165 203.574 450.289C205.076 452.387 207.016 454.185 209.283 455.601C211.469 456.963 213.845 457.862 216.359 458.271C219.036 458.707 221.74 458.543 224.417 457.808C226.985 457.099 229.444 455.792 231.52 454.076C233.869 452.115 235.672 449.663 236.902 446.803C237.748 444.842 238.24 442.744 238.404 440.565C238.541 438.386 238.322 436.125 237.776 433.837C237.093 431.085 236 428.634 234.498 426.482C232.995 424.357 231.11 422.587 228.897 421.225C226.685 419.863 224.281 418.964 221.767 418.582C219.254 418.201 216.714 418.31 214.228 418.909C211.742 419.509 209.447 420.598 207.426 422.096C205.349 423.594 203.683 425.474 202.399 427.653C201.033 429.969 200.186 432.447 199.831 435.035C199.476 437.623 199.64 440.32 200.296 443.016ZM219.527 450.562C217.506 450.562 215.594 449.908 213.763 448.628C211.25 446.857 209.556 444.269 208.71 440.919C207.863 437.541 208.163 434.463 209.556 431.712C211.004 428.988 213.19 427.217 216.085 426.509C219.008 425.801 221.767 426.346 224.308 428.116C226.821 429.887 228.515 432.502 229.362 435.88C230.181 439.23 229.908 442.308 228.515 445.032C227.094 447.783 224.909 449.527 221.986 450.262C221.139 450.48 220.32 450.562 219.527 450.562ZM209.529 440.756C210.294 443.888 211.906 446.312 214.255 447.974C216.604 449.608 219.118 450.126 221.795 449.472C224.472 448.819 226.493 447.184 227.777 444.678C229.089 442.118 229.334 439.23 228.57 436.07C227.777 432.91 226.193 430.459 223.844 428.797C221.522 427.163 218.981 426.645 216.304 427.299C213.654 427.953 211.633 429.56 210.321 432.121C209.01 434.681 208.737 437.568 209.529 440.756Z" fill="#11245A"/>
<path d="M197.483 449.908C194.806 449.908 192.484 449.445 191.992 448.001C191.227 445.795 195.161 442.907 198.576 440.864C203.247 438.086 209.748 435.199 216.851 432.801C223.981 430.377 230.865 428.715 236.274 428.062C240.235 427.599 245.098 427.517 245.863 429.723C246.627 431.93 242.694 434.817 239.279 436.86C234.608 439.639 228.106 442.526 221.003 444.923C213.873 447.348 206.989 449.009 201.58 449.663C200.242 449.799 198.821 449.908 197.483 449.908ZM240.372 428.607C239.306 428.607 237.968 428.688 236.356 428.879C231.002 429.505 224.172 431.167 217.097 433.564C210.022 435.961 203.602 438.794 198.958 441.573C192.566 445.386 192.593 447.266 192.757 447.729C192.921 448.219 194.041 449.69 201.471 448.818C206.825 448.192 213.655 446.53 220.73 444.133C227.806 441.736 234.225 438.903 238.869 436.125C245.289 432.284 245.262 430.432 245.098 429.941C244.934 429.614 244.251 428.607 240.372 428.607Z" fill="#11245A"/>
<defs>
<linearGradient id="paint0_linear_13947_113717" x1="22.2059" y1="190.336" x2="571.523" y2="346.286" gradientUnits="userSpaceOnUse">
<stop stop-color="#F2B6FB"/>
<stop offset="0.9968" stop-color="#1E6BFF"/>
</linearGradient>
<radialGradient id="paint1_radial_13947_113717" cx="0" cy="0" r="1" gradientUnits="userSpaceOnUse" gradientTransform="translate(402.472 30.2002) rotate(-18.9709) scale(73.7582 58.9686)">
<stop offset="0.298" stop-color="#1E6BFF"/>
<stop offset="1" stop-color="#174ED0"/>
</radialGradient>
<radialGradient id="paint2_radial_13947_113717" cx="0" cy="0" r="1" gradientUnits="userSpaceOnUse" gradientTransform="translate(423.475 81.4151) rotate(-16.7872) scale(31.2656 7.1666)">
<stop stop-color="#1E6BFF" stop-opacity="0.8"/>
<stop offset="1" stop-color="#1E6BFF" stop-opacity="0"/>
</radialGradient>
<linearGradient id="paint3_linear_13947_113717" x1="24.6039" y1="81.9689" x2="658.682" y2="406.28" gradientUnits="userSpaceOnUse">
<stop stop-color="#F2B6FB"/>
<stop offset="0.9968" stop-color="#1E6BFF"/>
</linearGradient>
<radialGradient id="paint4_radial_13947_113717" cx="0" cy="0" r="1" gradientUnits="userSpaceOnUse" gradientTransform="translate(63.9516 65.22) rotate(0.877236) scale(41.2053 9.44352)">
<stop stop-color="#F2B6FB" stop-opacity="0.9"/>
<stop offset="0.9968" stop-color="#EEABF6" stop-opacity="0"/>
</radialGradient>
<linearGradient id="paint5_linear_13947_113717" x1="61.3139" y1="4.32615" x2="66.8276" y2="65.7645" gradientUnits="userSpaceOnUse">
<stop stop-color="#EFC4FF"/>
<stop offset="1" stop-color="#DFA3EA"/>
</linearGradient>
<linearGradient id="paint6_linear_13947_113717" x1="1.7599" y1="153.547" x2="486.254" y2="476.005" gradientUnits="userSpaceOnUse">
<stop stop-color="#F2B6FB"/>
<stop offset="0.9968" stop-color="#1E6BFF"/>
</linearGradient>
<linearGradient id="paint7_linear_13947_113717" x1="-28.7877" y1="192.957" x2="480.749" y2="514.631" gradientUnits="userSpaceOnUse">
<stop stop-color="#F2B6FB"/>
<stop offset="0.9968" stop-color="#1E6BFF"/>
</linearGradient>
<linearGradient id="paint8_linear_13947_113717" x1="-41.9099" y1="84.9247" x2="592.168" y2="409.236" gradientUnits="userSpaceOnUse">
<stop stop-color="#F2B6FB"/>
<stop offset="0.9968" stop-color="#1E6BFF"/>
</linearGradient>
</defs>
</svg>
