<svg width="375" height="723" viewBox="0 0 375 723" fill="none" xmlns="http://www.w3.org/2000/svg">
<path opacity="0.51" d="M354.699 304.018L330.846 318.434L306.993 332.849L288.905 268.343L328.466 268.94L354.699 304.018Z" fill="#EFC4FF"/>
<path d="M334.055 323.626C347.247 315.665 356.505 306.871 354.734 303.984C352.962 301.096 340.832 305.209 327.64 313.169C314.448 321.13 305.19 329.924 306.961 332.812C308.733 335.699 320.863 331.587 334.055 323.626Z" fill="#EFC4FF"/>
<path d="M336.975 248.122C340.971 258.018 336.088 269.231 326.136 273.046C321.827 274.691 316.424 276.263 309.713 277.555C302.978 278.843 297.387 279.407 292.76 279.461C282.069 279.639 273.278 271.043 273.207 260.396L273.181 256.919C273.079 241.401 284.064 228.066 299.337 225.112C314.61 222.159 329.881 230.477 335.683 244.887L336.975 248.122Z" fill="#F7F7F7"/>
<path d="M289.346 279.61C285.389 278.988 281.692 277.159 278.768 274.303C274.989 270.628 272.878 265.699 272.833 260.435L272.807 256.959C272.703 241.293 283.817 227.759 299.262 224.808C314.686 221.829 330.162 230.253 336.017 244.793L337.31 248.028C339.281 252.911 339.214 258.255 337.115 263.085C335.019 267.89 331.158 271.562 326.273 273.435C321.519 275.255 315.952 276.775 309.774 277.956C303.596 279.136 297.867 279.8 292.769 279.879C291.592 279.865 290.45 279.783 289.346 279.61ZM310.439 225.294C306.841 224.728 303.123 224.779 299.378 225.486C284.284 228.394 273.413 241.625 273.524 256.925L273.551 260.401C273.577 265.467 275.618 270.214 279.268 273.771C282.898 277.3 287.69 279.203 292.74 279.116C297.79 279.03 303.491 278.386 309.621 277.198C315.775 276.014 321.267 274.506 325.993 272.706C330.719 270.906 334.41 267.378 336.428 262.757C338.45 258.111 338.535 252.965 336.634 248.265L335.342 245.029C331.006 234.322 321.377 227.013 310.439 225.294Z" fill="#888888"/>
<path d="M344.906 266.709L335.786 261.164L335.762 261.16C333.656 265.234 330.085 268.612 325.436 270.378C321.046 272.061 315.537 273.667 308.648 274.982C301.758 276.297 296.065 276.87 291.336 276.934C286.679 277.01 282.373 275.452 278.948 272.809L278.669 272.863L272.318 280.699C270.955 282.197 270.338 283.642 270.594 285.004C271.777 291.014 290.1 292.525 311.485 288.398C332.869 284.272 349.283 276.06 348.096 270.074C347.864 268.716 346.733 267.608 344.906 266.709Z" fill="#11245A"/>
<path d="M336.9 262.869C337.648 266.609 325.201 273.171 309.159 276.279C293.118 279.388 279.574 277.797 278.85 274.06C278.127 270.324 290.51 264.804 306.524 261.716C322.538 258.628 336.152 259.128 336.9 262.869Z" fill="#F7F7F7"/>
<path d="M285.505 277.751C279.938 276.876 278.704 275.164 278.496 274.128C277.612 269.681 292.039 264.14 306.459 261.34C314.237 259.846 321.697 259.134 327.464 259.355C331.642 259.523 336.74 260.251 337.258 262.78C338.1 267.024 324.739 273.614 309.231 276.61C301.68 278.066 294.226 278.583 288.236 278.058C287.237 277.999 286.321 277.879 285.505 277.751ZM331.473 260.451C330.298 260.266 328.939 260.15 327.449 260.087C321.73 259.874 314.346 260.573 306.62 262.051C289.467 265.351 278.604 270.889 279.232 273.974C279.547 275.59 283.032 276.897 288.323 277.337C294.241 277.851 301.623 277.323 309.122 275.883C325.136 272.795 337.236 266.252 336.573 262.917C336.328 261.801 334.497 260.926 331.473 260.451Z" fill="#888888"/>
<path d="M284.177 283.163C279.017 282.352 275.592 280.662 274.679 278.144C274.609 277.961 274.715 277.758 274.897 277.688C275.08 277.619 275.285 277.725 275.355 277.907C277.291 283.182 292.273 284.534 310.238 281.067C327.139 277.8 340.854 270.824 341.46 265.165C341.49 264.974 341.66 264.83 341.855 264.836C342.047 264.866 342.193 265.036 342.188 265.231C341.522 271.272 327.837 278.374 310.378 281.75C299.984 283.788 290.704 284.189 284.177 283.163Z" fill="#F7F7F7"/>
<path d="M324.73 252.71C324.399 261.193 316.917 267.622 308.443 266.656C306.102 266.385 303.471 265.923 300.482 265.232C297.493 264.542 294.934 263.773 292.722 262.985C284.691 260.107 280.79 251.032 284.229 243.258C288.317 233.997 298.454 228.988 308.341 231.302C318.255 233.595 325.141 242.601 324.73 252.71Z" fill="url(#paint0_radial_14094_113863)"/>
<path d="M303.611 247.209C303.773 246.476 304.068 245.838 304.456 245.239C304.864 244.667 305.356 244.183 305.958 243.788C306.531 243.414 307.158 243.17 307.839 243.057C308.52 242.944 309.178 242.975 309.866 243.132C310.53 243.285 311.148 243.578 311.703 243.959C312.255 244.363 312.719 244.852 313.093 245.449C313.468 246.046 313.687 246.692 313.799 247.394C313.888 248.092 313.877 248.8 313.69 249.528C313.546 250.141 313.338 250.695 313.037 251.21C312.74 251.702 312.374 252.158 311.924 252.527C311.277 253.061 310.555 253.436 309.744 253.602C309.032 253.759 308.294 253.765 307.602 253.632C306.863 253.491 306.221 253.194 305.625 252.758C305.074 252.354 304.609 251.865 304.259 251.272C303.888 250.651 303.645 250.002 303.533 249.299C303.413 248.645 303.448 247.941 303.611 247.209ZM306.03 247.761C305.825 248.609 305.927 249.383 306.286 250.075C306.646 250.767 307.217 251.199 307.953 251.364C308.689 251.529 309.374 251.392 310.01 250.93C310.646 250.468 311.065 249.824 311.25 248.949C311.459 248.077 311.357 247.303 310.998 246.611C310.638 245.918 310.067 245.486 309.331 245.321C308.595 245.157 307.91 245.294 307.274 245.756C306.658 246.246 306.235 246.913 306.03 247.761Z" fill="#F7F7F7"/>
<path d="M299.743 241.779L298.198 240.656C298.085 240.589 297.934 240.614 297.871 240.702C296.154 243.072 295.912 244.477 295.912 244.477L295.851 244.712C295.681 245.492 295.377 246.031 294.958 246.356C294.539 246.681 294.01 246.769 293.394 246.623C292.754 246.474 292.315 246.136 292.098 245.637C291.88 245.138 291.864 244.451 292.072 243.579L292.144 243.273C292.37 242.453 293.058 240.385 294.39 238.443C294.456 238.331 294.431 238.181 294.342 238.118L292.793 237.018C292.681 236.952 292.53 236.977 292.463 237.089C290.912 239.338 290.151 241.712 289.88 242.672C289.876 242.696 289.849 242.716 289.845 242.74L289.788 242.951C289.773 243.046 289.738 243.114 289.738 243.114L289.684 243.301C289.367 244.718 289.453 245.905 290.015 246.874C290.554 247.839 291.487 248.474 292.814 248.781C294.118 249.084 295.245 248.944 296.13 248.301C297.87 247.058 298.302 244.902 298.302 244.902C298.305 244.878 298.431 244.066 299.835 242.136C299.857 241.993 299.828 241.866 299.743 241.779Z" fill="#F7F7F7"/>
<path d="M301.087 260.232L301.063 260.228C299.094 259.771 297.701 258.768 297.656 258.736L299.038 256.799C299.215 256.924 303.256 259.716 306.799 256.673L308.362 258.486C306.296 260.243 303.769 260.85 301.087 260.232Z" fill="#F7F7F7"/>
<path d="M295.072 254.602L294.242 253.298C294.161 253.187 294.207 253.048 294.318 252.967C297.664 250.854 298.347 249.299 299.56 246.533C299.983 245.548 300.499 244.431 301.173 243.095C302.711 240.135 304.877 238.985 306.418 238.543C307.705 238.159 308.774 238.229 309.257 238.281C309.401 238.304 309.482 238.414 309.46 238.557L309.143 240.292L309.322 239.293L309.18 240.053C309.161 240.173 309.05 240.253 308.927 240.258C308.081 240.174 304.96 240.196 302.966 244.037C302.304 245.302 301.815 246.399 301.396 247.359C300.109 250.286 299.24 252.251 295.379 254.675C295.293 254.759 295.153 254.712 295.072 254.602Z" fill="#EFC4FF"/>
<path d="M296.671 245.497L296.214 244.002C296.185 243.875 296.255 243.739 296.382 243.71C297.174 243.516 299.787 242.995 301.67 244.174C303.44 245.286 304.874 245.071 305.364 244.927C305.467 244.894 305.58 244.961 305.637 245.068L306.304 246.473C306.358 246.604 306.311 246.743 306.156 246.793C305.429 247.046 303.235 247.559 300.568 245.889C299.426 245.17 297.578 245.517 296.941 245.662C296.837 245.694 296.701 245.624 296.671 245.497Z" fill="#EFC4FF"/>
<path d="M309.422 229.369C309.011 229.011 308.911 228.384 309.181 227.913L313.313 220.888C314.051 219.611 315.787 219.346 316.887 220.326C317.923 221.246 317.971 222.843 316.938 223.805L310.969 229.368C310.563 229.768 309.877 229.758 309.422 229.369Z" fill="#1E6BFF"/>
<path d="M313.363 230.252C313.201 229.712 313.433 229.162 313.917 228.895L321.121 225.063C322.433 224.364 324.049 225.034 324.469 226.446C324.881 227.758 324.076 229.148 322.706 229.422L314.689 231.047C314.108 231.152 313.521 230.815 313.363 230.252Z" fill="#1E6BFF"/>
<path d="M336.249 265.405C336.565 268.125 323.636 271.751 307.404 273.536C291.172 275.32 277.747 274.533 277.455 271.818C277.139 269.098 290.068 265.472 306.3 263.687C322.532 261.903 335.933 262.686 336.249 265.405Z" fill="url(#paint1_radial_14094_113863)"/>
<path d="M292.776 515.715L305.449 520.994C305.449 520.994 304.557 545.578 304.387 552.931C304.191 560.282 312.965 566.217 312.965 566.217L325.663 497.704L298.798 489.907L292.776 515.715Z" fill="#F7F7F7"/>
<path d="M312.893 566.575C312.842 566.568 312.768 566.532 312.719 566.499C312.358 566.241 303.784 560.385 303.971 552.902C304.155 546.049 304.933 523.944 305.025 521.226L292.599 516.059C292.425 515.983 292.319 515.785 292.369 515.608L298.366 489.797C298.379 489.693 298.444 489.597 298.554 489.559C298.642 489.493 298.749 489.481 298.849 489.52L325.714 497.318C325.918 497.371 326.023 497.569 325.996 497.776L313.299 566.289C313.282 566.418 313.188 566.536 313.078 566.574C313.023 566.593 312.971 566.586 312.893 566.575ZM293.226 515.487L305.603 520.622C305.752 520.694 305.838 520.837 305.844 520.995C305.84 521.231 304.942 545.656 304.782 552.933C304.622 559.002 310.869 564.15 312.689 565.524L325.21 497.958L299.08 490.365L293.226 515.487Z" fill="#888888"/>
<path d="M305.405 521.366C305.198 521.339 305.063 521.163 305.064 520.953L305.226 516.908C305.227 516.698 305.409 516.512 305.641 516.544C305.851 516.546 306.038 516.728 306.007 516.96L305.846 521.006C305.845 521.216 305.663 521.401 305.43 521.37L305.405 521.366Z" fill="#888888"/>
<path d="M179.776 422.304L210.694 490.152C212.848 494.852 216.595 498.663 221.289 500.895L287.439 532.174L315.428 491.298L291.192 476.15L281.418 479.878L351.36 453.221L329.098 404.679L272.375 420.036L261.913 396.603L179.776 422.304Z" fill="#11245A"/>
<path fill-rule="evenodd" clip-rule="evenodd" d="M292.039 441.829L290.388 434.485L288.086 421.009L266.871 419.878L263.185 431.599L260.386 440.155C259.842 442.105 260.998 444.153 262.954 444.706C264.554 445.159 266.17 444.484 267.025 443.18L266.449 449.619C266.275 451.566 267.711 453.284 269.662 453.469C271.614 453.654 273.327 452.23 273.501 450.282L273.553 449.685C274.125 451.155 275.603 452.143 277.252 452.024C279.007 451.893 280.39 450.582 280.634 448.907C281.347 449.503 282.278 449.839 283.288 449.765C285.335 449.621 286.856 447.856 286.697 445.837L286.672 445.624C287.315 445.947 288.085 446.103 288.862 445.998C290.955 445.703 292.356 443.843 292.039 441.829Z" fill="#F7F7F7"/>
<path d="M269.533 453.844C267.462 453.564 265.943 451.678 266.112 449.572L266.587 444.302C265.583 445.138 264.202 445.425 262.906 445.066C261.864 444.768 260.981 444.07 260.445 443.131C259.908 442.191 259.765 441.068 260.058 440.03L262.861 431.448L266.639 419.425L288.453 420.61L290.795 434.381L292.443 441.751C292.759 443.974 291.224 446.053 288.999 446.357C288.383 446.431 287.755 446.399 287.177 446.189C287.118 448.257 285.497 449.983 283.395 450.146C282.543 450.215 281.703 449.996 280.97 449.555C280.473 451.144 279.085 452.296 277.359 452.405C275.976 452.507 274.684 451.912 273.87 450.882C273.684 451.698 273.221 452.424 272.571 452.967C271.771 453.647 270.756 453.957 269.688 453.865C269.636 453.858 269.585 453.851 269.533 453.844ZM267.591 441.652L266.892 449.651C266.744 451.392 268.022 452.904 269.763 453.087C270.595 453.173 271.419 452.916 272.069 452.374C272.719 451.831 273.108 451.069 273.19 450.239L273.375 448.004L273.989 449.559C274.523 450.918 275.863 451.756 277.298 451.661C278.814 451.55 280.098 450.384 280.322 448.864L280.413 448.166L280.958 448.634C281.622 449.197 282.456 449.467 283.334 449.402C285.141 449.278 286.506 447.702 286.372 445.897L286.305 444.994L286.922 445.314C287.539 445.634 288.212 445.725 288.882 445.632C290.681 445.375 291.922 443.73 291.681 441.937L290.03 434.593L287.795 421.415L267.208 420.316L263.611 431.76L260.811 440.316C260.571 441.151 260.693 442.034 261.12 442.801C261.547 443.568 262.266 444.112 263.103 444.357C264.5 444.756 265.969 444.192 266.755 443.011L267.591 441.652Z" fill="#888888"/>
<path fill-rule="evenodd" clip-rule="evenodd" d="M290.41 434.466L292.061 441.81C292.353 443.82 290.953 445.68 288.942 445.96C286.932 446.24 285.062 444.831 284.771 442.821L284.082 437.998" fill="#F7F7F7"/>
<path d="M287.888 446.369C287.189 446.274 286.54 446.003 285.989 445.587C285.125 444.944 284.541 443.972 284.391 442.9L283.701 438.077C283.677 437.864 283.807 437.671 284.021 437.647C284.234 437.624 284.428 437.755 284.453 437.969L285.142 442.792C285.264 443.675 285.716 444.446 286.439 444.964C287.132 445.505 288.023 445.73 288.881 445.61C290.678 445.354 291.918 443.709 291.678 441.915L290.027 434.571C289.976 434.354 290.106 434.161 290.323 434.112C290.54 434.063 290.734 434.194 290.784 434.411L292.432 441.781C292.749 444.005 291.215 446.083 288.991 446.387C288.619 446.415 288.25 446.418 287.888 446.369Z" fill="#888888"/>
<path fill-rule="evenodd" clip-rule="evenodd" d="M286.096 437.09L286.75 445.822C286.906 447.866 285.39 449.605 283.345 449.749C281.3 449.893 279.551 448.369 279.395 446.325L278.839 438.867" fill="#F7F7F7"/>
<path d="M282.561 450.116C281.785 450.011 281.039 449.673 280.424 449.143C279.596 448.427 279.093 447.44 279.024 446.353L278.467 438.895C278.442 438.681 278.624 438.496 278.838 438.472C279.051 438.448 279.238 438.631 279.263 438.845L279.82 446.303C279.89 447.18 280.284 447.995 280.948 448.557C281.608 449.146 282.467 449.42 283.344 449.355C285.15 449.231 286.513 447.655 286.379 445.85L285.725 437.118C285.7 436.904 285.882 436.718 286.095 436.695C286.309 436.671 286.496 436.854 286.521 437.068L287.175 445.8C287.333 448.029 285.657 449.983 283.399 450.15C283.107 450.163 282.82 450.151 282.561 450.116Z" fill="#888888"/>
<path fill-rule="evenodd" clip-rule="evenodd" d="M279.949 437.842L280.725 448.061C280.88 450.105 279.365 451.844 277.32 451.988C275.275 452.131 273.526 450.608 273.371 448.564L272.656 439.088" fill="#F7F7F7"/>
<path d="M276.507 452.377C275.731 452.272 274.985 451.935 274.37 451.405C273.542 450.689 273.039 449.701 272.97 448.614L272.255 439.139C272.23 438.925 272.412 438.74 272.625 438.716C272.839 438.692 273.026 438.875 273.051 439.089L273.766 448.564C273.836 449.441 274.23 450.256 274.894 450.819C275.554 451.407 276.413 451.681 277.29 451.616C278.167 451.55 278.98 451.161 279.54 450.501C280.125 449.845 280.394 448.988 280.324 448.112L279.548 437.892C279.523 437.678 279.705 437.493 279.919 437.469C280.132 437.446 280.319 437.629 280.344 437.842L281.12 448.062C281.189 449.148 280.842 450.205 280.155 451.031C279.443 451.854 278.457 452.352 277.37 452.415C277.053 452.424 276.791 452.415 276.507 452.377Z" fill="#888888"/>
<path fill-rule="evenodd" clip-rule="evenodd" d="M268.05 439.019L267.482 442.173C266.939 444.122 264.896 445.264 262.943 444.711C260.989 444.158 259.835 442.111 260.378 440.161L263.174 431.609" fill="#F7F7F7"/>
<path d="M263.404 445.194C263.223 445.17 263.02 445.116 262.842 445.066C261.802 444.767 260.919 444.07 260.384 443.131C259.848 442.191 259.705 441.069 259.998 440.031L262.797 431.452C262.876 431.253 263.077 431.123 263.303 431.206C263.503 431.285 263.635 431.487 263.553 431.712L260.756 440.265C260.516 441.1 260.638 441.983 261.065 442.75C261.491 443.517 262.21 444.061 263.046 444.305C263.883 444.55 264.792 444.436 265.557 444.014C266.322 443.592 266.859 442.903 267.103 442.043L267.667 438.915C267.694 438.708 267.899 438.552 268.128 438.609C268.335 438.637 268.492 438.842 268.436 439.071L267.865 442.251C267.318 444.226 265.395 445.463 263.404 445.194Z" fill="#888888"/>
<path fill-rule="evenodd" clip-rule="evenodd" d="M274.504 439.005L273.511 450.269C273.337 452.215 271.627 453.639 269.678 453.454C267.73 453.27 266.296 451.553 266.471 449.607L267.463 438.343" fill="#F7F7F7"/>
<path d="M269.5 453.824C267.432 453.545 265.915 451.659 266.084 449.554L267.076 438.29C267.103 438.083 267.281 437.923 267.491 437.925C267.698 437.953 267.859 438.133 267.858 438.343L266.866 449.607C266.718 451.347 267.995 452.859 269.733 453.042C270.564 453.128 271.386 452.871 272.035 452.328C272.685 451.786 273.073 451.024 273.155 450.195L274.147 438.93C274.174 438.724 274.352 438.564 274.562 438.566C274.769 438.594 274.93 438.773 274.929 438.983L273.937 450.248C273.854 451.287 273.361 452.245 272.54 452.896C271.719 453.546 270.728 453.885 269.662 453.794C269.603 453.838 269.552 453.831 269.5 453.824Z" fill="#888888"/>
<path fill-rule="evenodd" clip-rule="evenodd" d="M132.972 270.498L137.006 283.423L155.975 280.202L154.567 263.899L132.972 270.498Z" fill="#F7F7F7"/>
<path d="M136.741 283.86L132.509 270.225L154.953 263.374L156.412 280.498L136.741 283.86ZM133.468 270.749L137.279 282.96L155.577 279.833L154.242 264.382L133.468 270.749Z" fill="#888888"/>
<path fill-rule="evenodd" clip-rule="evenodd" d="M132.514 273.508C130.769 273.377 129.467 271.862 129.586 270.145L129.926 265.307C130.166 261.847 133.185 259.261 136.648 259.519L135.86 270.625C135.741 272.342 134.258 273.639 132.514 273.508Z" fill="#F7F7F7"/>
<path d="M132.282 273.871C131.429 273.756 130.643 273.334 130.07 272.679C129.453 271.965 129.151 271.058 129.22 270.122L129.56 265.283C129.827 261.616 133.028 258.845 136.698 259.131L137.089 259.158L136.277 270.655C136.208 271.591 135.78 272.453 135.069 273.066C134.358 273.679 133.452 273.976 132.515 273.902C132.411 273.888 132.359 273.881 132.282 273.871ZM136.232 259.882C133.158 259.861 130.538 262.211 130.316 265.333L129.976 270.172C129.934 270.901 130.156 271.614 130.635 272.178C131.114 272.741 131.782 273.068 132.512 273.114C133.242 273.16 133.954 272.941 134.516 272.466C135.077 271.99 135.401 271.325 135.443 270.595L136.232 259.882Z" fill="#888888"/>
<path fill-rule="evenodd" clip-rule="evenodd" d="M148.169 246.678C150.106 246.546 151.809 248.01 151.978 249.95L152.851 261.23C152.993 263.167 151.537 264.861 149.596 265.019C147.659 265.151 145.956 263.687 145.788 261.747L144.915 250.466C144.775 248.504 146.232 246.81 148.169 246.678Z" fill="#F7F7F7"/>
<path d="M148.817 265.361C147.008 265.116 145.544 263.631 145.395 261.746L144.521 250.466C144.445 249.431 144.764 248.397 145.443 247.622C146.126 246.822 147.082 246.347 148.117 246.277C150.268 246.121 152.161 247.743 152.325 249.919L153.199 261.199C153.366 263.349 151.754 265.233 149.577 265.385C149.338 265.405 149.076 265.396 148.817 265.361ZM148.201 247.05C147.35 247.118 146.592 247.489 146.062 248.126C145.506 248.76 145.243 249.565 145.317 250.416L146.19 261.696C146.334 263.423 147.847 264.731 149.571 264.622C151.298 264.488 152.599 262.983 152.481 261.26L151.607 249.979C151.464 248.252 149.924 246.941 148.201 247.05Z" fill="#888888"/>
<path fill-rule="evenodd" clip-rule="evenodd" d="M136.244 271.647C134.499 271.516 133.198 270.001 133.316 268.284L133.657 263.445C133.897 259.985 136.915 257.4 140.379 257.657L139.59 268.764C139.472 270.481 137.963 271.774 136.244 271.647Z" fill="#F7F7F7"/>
<path d="M135.988 272.006C134.154 271.758 132.791 270.104 132.93 268.231L133.27 263.393C133.395 261.624 134.211 260.001 135.545 258.842C136.879 257.683 138.611 257.103 140.408 257.241L140.799 257.267L139.986 268.765C139.917 269.701 139.49 270.562 138.779 271.175C138.068 271.788 137.161 272.086 136.224 272.012C136.143 272.027 136.066 272.017 135.988 272.006ZM139.965 258.021C138.52 258.01 137.166 258.509 136.072 259.438C134.887 260.46 134.176 261.887 134.049 263.472L133.708 268.31C133.591 269.818 134.732 271.154 136.27 271.257C137 271.303 137.712 271.084 138.274 270.608C138.835 270.133 139.159 269.467 139.201 268.738L139.965 258.021Z" fill="#888888"/>
<path fill-rule="evenodd" clip-rule="evenodd" d="M142.184 270.45C140.151 270.307 138.621 268.524 138.753 266.493L139.229 259.597C139.362 257.566 141.138 256.047 143.171 256.19C145.204 256.334 146.734 258.116 146.602 260.147L146.125 267.043C145.964 269.096 144.214 270.62 142.184 270.45Z" fill="#F7F7F7"/>
<path d="M141.898 270.831C140.916 270.698 140.006 270.208 139.34 269.461C138.633 268.63 138.269 267.583 138.359 266.492L138.835 259.595C138.994 257.358 140.949 255.678 143.189 255.85C145.429 256.021 147.12 257.984 146.961 260.221L146.485 267.117C146.325 269.355 144.371 271.034 142.131 270.863C142.053 270.852 141.976 270.842 141.898 270.831ZM143.35 256.633C143.273 256.623 143.221 256.616 143.143 256.605C141.32 256.464 139.749 257.828 139.617 259.648L139.141 266.545C139.079 267.429 139.362 268.282 139.935 268.937C140.507 269.593 141.32 270.018 142.18 270.081C144.003 270.223 145.574 268.859 145.706 267.038L146.182 260.142C146.329 258.402 145.056 256.864 143.35 256.633Z" fill="#888888"/>
<path fill-rule="evenodd" clip-rule="evenodd" d="M143.176 268.552C142.226 266.741 142.91 264.519 144.717 263.581L149.238 261.221C151.046 260.283 153.274 260.978 154.224 262.79C155.173 264.601 154.49 266.822 152.682 267.761L148.161 270.121C146.353 271.059 144.125 270.364 143.176 268.552Z" fill="#F7F7F7"/>
<path d="M145.928 270.896C144.66 270.725 143.469 269.959 142.837 268.743C141.778 266.759 142.547 264.286 144.553 263.243L149.074 260.883C150.034 260.382 151.152 260.297 152.19 260.621C153.227 260.945 154.082 261.666 154.589 262.628C155.648 264.612 154.879 267.085 152.873 268.128L148.352 270.488C147.567 270.855 146.731 271.005 145.928 270.896ZM143.519 268.362C144.363 269.975 146.36 270.613 147.973 269.753L152.495 267.394C154.104 266.56 154.732 264.567 153.862 262.951C153.464 262.161 152.774 261.594 151.914 261.32C151.08 261.049 150.173 261.137 149.411 261.533L144.89 263.893C143.302 264.756 142.675 266.749 143.519 268.362Z" fill="#888888"/>
<path d="M234.768 345.984L265.4 357.212C268.164 358.056 270.712 359.553 272.737 361.61L288.705 377.642C292.108 381.066 293.928 385.695 293.773 390.505L292.298 432.365L256.236 430.778L260.498 399.662L180.763 427.556C179.605 427.961 178.356 427.234 178.133 426.024L167.886 370.45L141.142 342.443C138.14 339.782 136.159 336.181 135.541 332.239L126.975 279.238L165.394 272.898L171.079 315.273L197.954 332.219L200.085 330.248L234.768 345.984Z" fill="#1E6BFF"/>
<path d="M337.839 436.345L351.118 432.908C351.118 432.908 365.292 453.143 369.619 459.168C373.924 465.164 384.477 464.645 384.477 464.645L353.073 402.104L326.984 412.064L337.839 436.345Z" fill="#F7F7F7"/>
<path d="M380.084 464.787C379.592 464.721 379.1 464.654 378.589 464.533C374.321 463.72 371.13 461.922 369.3 459.388C365.285 453.799 352.532 435.596 350.952 433.359L337.946 436.728C337.755 436.781 337.558 436.675 337.5 436.51L326.622 412.199C326.584 412.089 326.572 411.982 326.611 411.882C326.65 411.783 326.738 411.716 326.822 411.675L352.912 401.715C353.107 401.636 353.307 401.716 353.413 401.914L384.817 464.454C384.881 464.568 384.861 464.723 384.796 464.819C384.731 464.915 384.614 465.005 384.481 465.013C384.4 465.028 382.544 465.119 380.084 464.787ZM351.163 432.546C351.267 432.56 351.364 432.626 351.431 432.714C351.563 432.916 365.677 453.011 369.936 458.948C372.076 461.944 375.914 463.225 378.742 463.765C380.952 464.195 382.894 464.247 383.843 464.243L352.879 402.578L327.509 412.267L338.08 435.905L351.031 432.555C351.06 432.532 351.112 432.539 351.163 432.546Z" fill="#888888"/>
<path d="M351.047 433.327C350.943 433.313 350.846 433.248 350.779 433.16L348.473 429.826C348.338 429.651 348.398 429.396 348.57 429.288C348.745 429.154 349.001 429.215 349.11 429.387L351.415 432.72C351.551 432.896 351.491 433.151 351.319 433.259C351.234 433.3 351.15 433.341 351.047 433.327Z" fill="#888888"/>
<path d="M226.964 295.364C215.498 292.742 203.683 297.428 198.546 307.507C195.568 313.358 195.261 320.147 197.662 326.591C200.086 333.065 204.948 338.423 211.35 341.676C217.775 344.958 224.948 345.741 231.593 343.904C238.238 342.068 243.534 337.843 246.512 331.992C249.49 326.141 249.796 319.352 247.395 312.907C244.972 306.433 240.109 301.076 233.707 297.823C231.506 296.712 229.242 295.881 226.964 295.364Z" fill="#F7F7F7"/>
<path d="M227.31 345.327C227.284 345.324 227.258 345.32 227.235 345.291C227.087 345.218 227.033 345.027 227.105 344.879C227.569 343.944 228.007 343.004 228.472 342.069C234.893 328.958 240.426 317.618 230.026 306.466C228.57 304.903 226.838 304.249 224.862 304.455C214.435 305.647 200.137 330.701 200 330.945C199.928 331.093 199.737 331.146 199.592 331.047C199.443 330.975 199.389 330.784 199.487 330.639C199.523 330.565 203.144 324.196 208.041 317.737C214.652 309.04 220.291 304.363 224.81 303.843C227.003 303.588 228.91 304.318 230.504 306.031C235.38 311.262 237.179 316.865 236.169 323.612C235.256 329.611 232.241 335.773 229.047 342.304C228.582 343.24 228.144 344.179 227.68 345.115C227.601 345.314 227.462 345.374 227.31 345.327Z" fill="#888888"/>
<path d="M218.044 344.795C215.667 344.237 213.352 343.399 211.103 342.254C204.558 338.899 199.581 333.417 197.12 326.829C194.635 320.212 194.96 313.265 198.011 307.237C204.314 294.842 220.441 290.371 233.977 297.298C240.522 300.653 245.499 306.135 247.96 312.723C250.445 319.34 250.12 326.287 247.069 332.315C244.022 338.316 238.58 342.68 231.776 344.547C227.324 345.759 222.599 345.831 218.044 344.795ZM226.959 295.351C215.497 292.726 203.69 297.412 198.557 307.495C195.582 313.349 195.277 320.141 197.678 326.589C200.101 333.067 204.962 338.428 211.362 341.685C217.784 344.97 224.954 345.754 231.595 343.918C238.236 342.082 243.529 337.855 246.504 332.002C249.479 326.148 249.784 319.356 247.383 312.908C244.96 306.43 240.099 301.069 233.699 297.813C231.499 296.701 229.236 295.869 226.959 295.351Z" fill="#888888"/>
<path fill-rule="evenodd" clip-rule="evenodd" d="M216.488 314.14L206.573 317.847L212.082 322.481" fill="#F7F7F7"/>
<path d="M211.962 322.753C211.937 322.75 211.914 322.72 211.914 322.72L206.405 318.087C206.334 318.024 206.27 317.911 206.309 317.811C206.323 317.707 206.388 317.611 206.498 317.573L216.387 313.863C216.552 313.806 216.727 313.883 216.784 314.048C216.842 314.213 216.767 314.387 216.601 314.444L207.183 317.981L212.289 322.272C212.408 322.367 212.433 322.58 212.338 322.699C212.225 322.762 212.063 322.793 211.962 322.753Z" fill="#888888"/>
<path d="M219.32 320.37C219.864 320.444 220.362 320.064 220.432 319.522C220.503 318.98 220.12 318.482 219.576 318.409C219.032 318.335 218.534 318.715 218.464 319.257C218.393 319.799 218.776 320.297 219.32 320.37Z" fill="#888888"/>
<path d="M212.269 314.97C212.813 315.043 213.311 314.663 213.381 314.121C213.452 313.58 213.069 313.081 212.525 313.008C211.982 312.935 211.484 313.314 211.413 313.856C211.342 314.398 211.726 314.897 212.269 314.97Z" fill="#888888"/>
<path fill-rule="evenodd" clip-rule="evenodd" d="M212.145 327.764C212.145 327.764 218.465 331.064 222.598 328.49C222.598 328.49 223.069 333.975 220.539 333.16" fill="#F7F7F7"/>
<path d="M220.622 333.512C220.545 333.501 220.496 333.469 220.418 333.458C220.266 333.411 220.157 333.239 220.229 333.09C220.301 332.942 220.448 332.83 220.596 332.903C220.952 333.004 221.244 332.991 221.482 332.786C222.246 332.179 222.324 330.163 222.291 329.001C220.595 329.877 218.335 330.019 215.726 329.404C213.628 328.91 212.047 328.092 211.973 328.056C211.824 327.983 211.77 327.791 211.842 327.643C211.914 327.495 212.106 327.442 212.254 327.515C212.329 327.551 218.484 330.697 222.389 328.251C222.477 328.184 222.581 328.198 222.681 328.238C222.781 328.277 222.845 328.391 222.858 328.498C222.888 328.871 223.134 332.246 221.839 333.281C221.634 333.438 221.212 333.644 220.622 333.512Z" fill="#888888"/>
<path d="M259.862 400.36C259.784 400.349 259.709 400.313 259.638 400.251L253.075 393.979C252.911 393.826 252.915 393.59 253.068 393.427C253.221 393.263 253.458 393.269 253.622 393.423L260.186 399.694C260.35 399.847 260.346 400.083 260.193 400.247C260.101 400.339 259.965 400.374 259.862 400.36Z" fill="#888888"/>
<path d="M247.735 486.553C234.103 484.298 222.282 480.999 211.848 476.56C186.228 465.671 173.973 449.963 162.129 434.795C154.663 425.234 147.613 416.189 137.446 408.634C119.557 395.297 100.197 387.801 83.0986 381.199C60.0919 372.299 40.2359 364.604 36.4528 346.217C33.4248 331.516 46.8705 318.738 59.8705 306.358C71.3785 295.406 82.2609 285.058 79.5323 275.596C76.8561 266.355 67.4577 262.772 51.0688 257.231C39.3802 253.292 26.1642 248.819 14.5382 240.126C1.10321 230.096 -7.42276 216.373 -11.5113 198.242C-12.0103 196.06 -10.2542 194.086 -7.57453 193.845C-4.92346 193.599 -2.36137 195.179 -1.86234 197.361C6.33589 233.674 31.7936 242.296 54.2498 249.878C70.0819 255.233 84.9968 260.271 89.0728 274.296C90.8403 280.438 89.209 286.915 84.0548 294.129C79.8089 300.079 73.5677 306.029 67.5065 311.772C55.8619 322.843 43.8289 334.322 46.1118 345.455C48.9688 359.397 64.8216 365.533 86.7507 374.019C104.537 380.9 124.672 388.689 143.74 402.905C154.978 411.274 162.731 421.237 170.276 430.859C181.878 445.704 192.823 459.709 215.857 469.534C228.431 474.892 243.379 478.45 261.573 480.445C282.103 482.684 307.136 482.839 336.029 480.895C359.789 479.305 377.372 474.17 395.943 468.726C426.183 459.882 457.438 450.757 515.186 459.105C515.215 459.11 515.272 459.119 515.301 459.124C517.93 459.559 519.832 461.596 519.544 463.742C519.253 465.911 516.849 467.353 514.155 466.955C489.352 463.371 467.55 462.832 447.515 465.344C429.609 467.572 415.135 471.806 399.83 476.28C381.477 481.642 362.509 487.185 337.533 488.857C307.542 490.878 282.512 490.701 260.97 488.365C256.417 487.848 251.994 487.258 247.735 486.553Z" fill="url(#paint2_linear_14094_113863)"/>
<path d="M65.4125 315.81C68.7699 315.05 70.8669 311.726 70.0964 308.385C69.3258 305.044 65.9795 302.951 62.6221 303.711C59.2647 304.471 57.1676 307.795 57.9382 311.136C58.7088 314.477 62.0551 316.57 65.4125 315.81Z" fill="white"/>
<path d="M65.2336 317.733C60.8065 318.377 56.678 315.33 56.0214 310.925C55.3648 306.52 58.4199 302.42 62.847 301.776C67.2741 301.132 71.4026 304.179 72.0591 308.584C72.7157 312.989 69.6379 317.094 65.2336 317.733ZM63.3819 305.445C60.9949 305.795 59.3306 308.031 59.6867 310.406C60.0428 312.781 62.2942 314.441 64.6812 314.091C67.0681 313.742 68.7324 311.506 68.3763 309.131C68.0202 306.756 65.7688 305.096 63.3819 305.445Z" fill="url(#paint3_linear_14094_113863)"/>
<path d="M135.664 407.311C139.022 406.551 141.119 403.227 140.348 399.886C139.578 396.545 136.231 394.452 132.874 395.212C129.517 395.972 127.42 399.296 128.19 402.637C128.961 405.978 132.307 408.071 135.664 407.311Z" fill="white"/>
<path d="M135.464 409.24C131.037 409.884 126.908 406.837 126.252 402.432C125.595 398.027 128.65 393.927 133.077 393.282C137.505 392.638 141.633 395.685 142.29 400.09C142.946 404.495 139.891 408.596 135.464 409.24ZM133.635 396.947C131.248 397.296 129.584 399.532 129.94 401.907C130.296 404.282 132.547 405.942 134.934 405.593C137.321 405.244 138.986 403.007 138.63 400.632C138.245 398.24 136.022 396.597 133.635 396.947Z" fill="url(#paint4_linear_14094_113863)"/>
<path d="M235.582 486.484C238.94 485.724 241.037 482.4 240.266 479.059C239.496 475.718 236.149 473.625 232.792 474.385C229.435 475.145 227.338 478.469 228.108 481.81C228.879 485.151 232.225 487.244 235.582 486.484Z" fill="white"/>
<path d="M235.4 488.406C230.972 489.05 226.844 486.003 226.187 481.598C225.531 477.193 228.586 473.093 233.013 472.449C237.44 471.805 241.569 474.852 242.225 479.257C242.876 483.639 239.804 487.767 235.4 488.406ZM233.548 476.118C231.161 476.468 229.497 478.704 229.853 481.079C230.209 483.454 232.46 485.114 234.847 484.764C237.234 484.415 238.898 482.179 238.542 479.804C238.181 477.406 235.935 475.769 233.548 476.118Z" fill="url(#paint5_linear_14094_113863)"/>
<path d="M351.18 452.764L273.29 482.919C268.955 484.595 264.022 483.591 260.673 480.359L241.233 461.628L303.951 444.794L328.899 404.168L351.18 452.764Z" fill="#11245A"/>
<path d="M267.562 484.565C265.022 484.223 262.612 483.083 260.718 481.223L237.489 458.737C237.324 458.583 237.329 458.347 237.482 458.184C237.635 458.02 237.872 458.026 238.037 458.179L261.266 480.666C264.521 483.813 269.332 484.75 273.514 483.025L292.81 475.863C293.005 475.784 293.228 475.893 293.308 476.088C293.388 476.283 293.28 476.505 293.085 476.584L273.789 483.746C271.755 484.576 269.636 484.844 267.562 484.565Z" fill="#F7F7F7"/>
<path fill-rule="evenodd" clip-rule="evenodd" d="M17.2799 461.779L72.3102 502.809L106.834 496.055L50.1737 448.845L17.2799 461.779Z" fill="#F7F7F7"/>
<path d="M106.949 496.402L106.92 496.411L72.3667 503.173C72.2507 503.209 72.1458 503.179 72.0611 503.111L17.0572 462.07C16.9345 461.982 16.8899 461.838 16.9122 461.705C16.9345 461.572 17.0238 461.45 17.1398 461.414L50.0339 448.481C50.1789 448.436 50.3127 448.458 50.4064 448.555L107.07 495.766C107.192 495.854 107.237 495.998 107.186 496.14C107.192 496.264 107.094 496.357 106.949 496.402ZM72.4136 502.402L106.003 495.812L50.1208 449.274L18.0789 461.88L72.4136 502.402Z" fill="#888888"/>
<path fill-rule="evenodd" clip-rule="evenodd" d="M72.3086 502.823L78.0119 507.483L110.087 500.853L106.823 496.066L72.3086 502.823Z" fill="#F7F7F7"/>
<path d="M110.198 501.202L110.169 501.211L78.092 507.838C77.976 507.874 77.8712 507.844 77.7776 507.747L72.0823 503.114C71.9596 503.026 71.9151 502.882 71.9664 502.74C72.0177 502.599 72.1159 502.505 72.2608 502.46L106.807 495.698C106.96 495.682 107.103 495.733 107.206 495.858L110.47 500.645C110.535 500.751 110.541 500.875 110.519 501.008C110.392 501.11 110.314 501.166 110.198 501.202ZM78.11 507.076L109.444 500.616L106.644 496.505L73.1484 503.068L78.11 507.076Z" fill="#888888"/>
<path fill-rule="evenodd" clip-rule="evenodd" d="M106.819 496.053L166.387 469.654L169.331 474.948L110.083 500.838L106.819 496.053Z" fill="#F7F7F7"/>
<path d="M110.191 501.183C110.046 501.228 109.866 501.158 109.763 501.032L106.5 496.246C106.435 496.14 106.408 496.054 106.46 495.912C106.491 495.808 106.56 495.723 106.667 495.659L166.206 469.271C166.4 469.18 166.59 469.278 166.701 469.433L169.684 474.747C169.739 474.824 169.746 474.948 169.715 475.052C169.684 475.156 169.614 475.241 169.498 475.277L110.24 501.136C110.22 501.174 110.22 501.174 110.191 501.183ZM107.403 496.187L110.22 500.355L168.801 474.768L166.215 470.119L107.403 496.187Z" fill="#888888"/>
<path fill-rule="evenodd" clip-rule="evenodd" d="M166.379 469.65L111.911 484.202L98.9598 489.475L106.812 496.049L166.379 469.65Z" fill="#F7F7F7"/>
<path d="M106.922 496.395C106.806 496.431 106.672 496.409 106.55 496.321L98.6753 489.784C98.5817 489.687 98.5171 489.581 98.5394 489.448C98.5617 489.315 98.651 489.193 98.7669 489.157L111.709 483.856C111.738 483.847 111.738 483.847 111.767 483.838L166.238 469.294C166.441 469.231 166.639 469.358 166.693 469.531C166.746 469.703 166.655 469.92 166.49 470.003L106.951 496.386C106.951 496.386 106.951 496.386 106.922 496.395ZM99.6967 489.594L106.893 495.585L161.817 471.23L112.039 484.51L99.6967 489.594Z" fill="#888888"/>
<path d="M66.9894 484.568C68.0921 483.356 66.4015 480.052 63.2133 477.188C60.0251 474.324 56.5466 472.985 55.4439 474.197C54.3412 475.409 56.0318 478.713 59.22 481.577C62.4082 484.44 65.8867 485.78 66.9894 484.568Z" fill="#1E6BFF"/>
<defs>
<radialGradient id="paint0_radial_14094_113863" cx="0" cy="0" r="1" gradientUnits="userSpaceOnUse" gradientTransform="translate(298.802 231.481) rotate(-8.37701) scale(50.5732 40.3489)">
<stop offset="0.298" stop-color="#1E6BFF"/>
<stop offset="1" stop-color="#174ED0"/>
</radialGradient>
<radialGradient id="paint1_radial_14094_113863" cx="0" cy="0" r="1" gradientUnits="userSpaceOnUse" gradientTransform="translate(306.844 268.613) rotate(-6.22021) scale(21.4584 4.9104)">
<stop stop-color="#1E6BFF" stop-opacity="0.8"/>
<stop offset="1" stop-color="#1E6BFF" stop-opacity="0"/>
</radialGradient>
<linearGradient id="paint2_linear_14094_113863" x1="-39.4237" y1="303.615" x2="523.032" y2="450.567" gradientUnits="userSpaceOnUse">
<stop stop-color="#F2B6FB"/>
<stop offset="0.9968" stop-color="#1E6BFF"/>
</linearGradient>
<linearGradient id="paint3_linear_14094_113863" x1="-8.63939" y1="306.187" x2="576.185" y2="334.028" gradientUnits="userSpaceOnUse">
<stop stop-color="#F2B6FB"/>
<stop offset="0.9968" stop-color="#1E6BFF"/>
</linearGradient>
<linearGradient id="paint4_linear_14094_113863" x1="35.1472" y1="384.98" x2="507.363" y2="462.451" gradientUnits="userSpaceOnUse">
<stop stop-color="#F2B6FB"/>
<stop offset="0.9968" stop-color="#1E6BFF"/>
</linearGradient>
<linearGradient id="paint5_linear_14094_113863" x1="-1.0539" y1="447.553" x2="489.655" y2="515.889" gradientUnits="userSpaceOnUse">
<stop stop-color="#F2B6FB"/>
<stop offset="0.9968" stop-color="#1E6BFF"/>
</linearGradient>
</defs>
</svg>
