<svg width="380" height="320" viewBox="0 0 380 320" fill="none" xmlns="http://www.w3.org/2000/svg">
<g clip-path="url(#clip0_13836_155087)">
<path opacity="0.51" d="M378.675 249.723L264.233 317.789L185.715 146.707L250.569 99.6851L378.675 249.723Z" fill="#F0C5FF"/>
<path d="M329.01 296.626C360.751 278.065 383.165 257.371 379.073 250.404C374.981 243.437 345.933 252.836 314.193 271.397C282.452 289.958 260.039 310.652 264.13 317.619C268.222 324.586 297.27 315.187 329.01 296.626Z" fill="#F0C5FF"/>
<path d="M164.267 146.985C155.697 146.985 147.312 144.58 139.854 139.91C129.199 133.252 121.787 122.803 119.054 110.55L117.248 102.459C109.094 65.9789 127.995 28.8513 162.182 14.1482C196.37 -0.554865 236.394 11.2353 257.333 42.2135L261.965 49.1027C269.007 59.5521 271.554 72.0358 269.053 84.3808C266.598 96.5409 259.556 106.99 249.226 113.787C239.127 120.445 227.037 126.779 213.278 132.698C199.52 138.616 186.595 143.008 174.829 145.782C171.355 146.568 167.788 146.985 164.267 146.985ZM192.664 9.24719C182.611 9.24719 172.42 11.2353 162.692 15.3966C129.107 29.8685 110.577 66.3025 118.591 102.135L120.398 110.227C123.084 122.156 130.218 132.235 140.595 138.708C150.833 145.089 162.877 147.123 174.551 144.349C186.271 141.575 199.103 137.229 212.769 131.357C226.434 125.485 238.432 119.15 248.485 112.585C258.491 106.019 265.347 95.8474 267.71 84.0572C270.118 72.1283 267.663 59.9682 260.807 49.8425L256.175 42.9533C241.536 21.361 217.447 9.24719 192.664 9.24719Z" fill="#11245A"/>
<path d="M290.038 88.6809L265.995 80.3584H265.949C263.077 90.9927 256.499 100.61 246.539 107.129C237.135 113.278 225.137 119.844 209.757 126.456C194.424 133.068 181.36 137.275 170.428 139.864C159.588 142.407 148.794 140.974 139.529 136.489L138.927 136.766L128.041 158.312C125.632 162.52 124.937 166.219 126.234 169.224C132.025 182.633 175.431 176.853 223.191 156.324C270.952 135.795 305.001 108.285 299.21 94.8765C297.913 91.8249 294.716 89.7906 290.038 88.6809Z" fill="#11245A"/>
<path d="M269.423 83.7337C273.036 92.0562 247.373 113.787 211.61 129.138C175.848 144.488 143.513 147.771 139.9 139.402C136.287 131.033 162.367 111.845 198.13 96.4486C233.892 81.052 265.81 75.365 269.423 83.7337Z" fill="#EDF7FF"/>
<path d="M153.658 144.58C145.737 144.58 140.641 142.916 139.251 139.679C134.99 129.831 165.703 109.672 197.852 95.8475C215.177 88.4035 232.178 82.9476 245.705 80.5433C263.401 77.3993 268.728 80.4046 270.026 83.4562C274.102 92.8421 246.354 114.943 211.842 129.785C195.026 137.044 177.932 142.037 163.757 143.887C160.005 144.349 156.623 144.58 153.658 144.58ZM258.583 80.5896C255.109 80.5896 250.894 81.0057 245.983 81.8842C232.549 84.2885 215.687 89.6981 198.454 97.0958C181.221 104.494 165.656 113.047 154.724 121.139C144.162 128.906 139.02 135.472 140.595 139.124C142.216 142.87 150.833 144.118 163.664 142.453C177.701 140.65 194.656 135.657 211.379 128.49C228.148 121.277 243.621 112.308 254.877 103.245C265.208 94.9228 270.442 87.7099 268.821 84.011C267.802 81.7455 264.235 80.5896 258.583 80.5896Z" fill="#11245A"/>
<path d="M210.585 134.95C248.824 122.493 277.557 105.439 274.764 96.8595C271.971 88.2802 238.708 91.4242 200.47 103.882C162.231 116.339 133.497 133.393 136.291 141.972C139.084 150.552 172.347 147.408 210.585 134.95Z" fill="url(#paint0_radial_13836_155087)"/>
<path d="M152.454 157.942C142.448 157.942 135.36 155.677 132.395 151.007C132.21 150.683 132.303 150.267 132.627 150.036C132.951 149.851 133.368 149.944 133.6 150.267C140.78 161.641 176.496 157.249 216.613 139.957C235.236 131.958 252.144 122.017 264.188 112.076C276.001 102.274 282.116 93.3044 281.468 86.7851C281.421 86.4152 281.699 86.0453 282.07 86.0453C282.44 85.9991 282.811 86.2765 282.811 86.6464C284.293 101.026 256.082 124.514 217.169 141.251C191.644 152.163 168.389 157.942 152.454 157.942Z" fill="#EDF7FF"/>
<path d="M234.309 71.2961C238.062 91.2239 224.118 110.273 203.921 112.539C198.362 113.186 191.969 113.556 184.696 113.51C177.423 113.51 171.03 113.094 165.471 112.446C145.274 110.088 131.376 91.0389 135.221 71.0649C139.807 47.2996 160.654 30.146 184.881 30.1922C209.063 30.2847 229.816 47.5308 234.309 71.2961Z" fill="url(#paint1_radial_13836_155087)"/>
<path d="M170.289 61.9102L165.935 60.3844C165.61 60.292 165.286 60.4307 165.193 60.7543C162.831 67.4586 163.248 70.88 163.248 70.88L163.294 71.4349C163.387 73.3305 163.063 74.8101 162.321 75.8735C161.58 76.937 160.422 77.4918 158.847 77.5843C157.226 77.6767 156.021 77.2144 155.141 76.1972C154.307 75.18 153.798 73.5617 153.659 71.3886L153.612 70.6026C153.612 68.5682 153.751 63.2511 155.512 57.8414C155.604 57.564 155.465 57.2404 155.141 57.1017L150.787 55.6221C150.462 55.5296 150.138 55.6684 150.045 55.992C148.007 62.2801 147.822 68.337 147.822 70.7413C147.822 70.7876 147.822 70.8338 147.822 70.9263L147.868 71.4349C147.868 71.666 147.868 71.851 147.868 71.851L147.914 72.3596C148.1 75.9198 149.165 78.6015 151.111 80.4509C153.01 82.3003 155.604 83.1326 158.893 82.9476C162.136 82.7627 164.638 81.6993 166.305 79.5724C169.502 75.4574 169.038 70.1402 169.038 70.1402C169.038 70.094 168.807 68.1059 170.706 62.6038C170.706 62.3263 170.567 62.0027 170.289 61.9102Z" fill="#EDF7FF"/>
<path d="M207.164 63.1585L202.809 61.6327C202.485 61.5403 202.161 61.679 202.068 62.0026C199.705 68.7069 200.122 72.1283 200.122 72.1283L200.169 72.6832C200.261 74.5788 199.937 76.0584 199.196 77.1218C198.455 78.1853 197.297 78.7401 195.722 78.8326C194.1 78.925 192.896 78.4627 192.016 77.4455C191.182 76.4283 190.672 74.81 190.533 72.6369L190.487 71.8509C190.487 69.8165 190.626 64.4994 192.386 59.0897C192.479 58.8123 192.34 58.4887 192.016 58.35L187.661 56.8704C187.337 56.7779 187.013 56.9166 186.92 57.2403C184.882 63.5284 184.696 69.5853 184.696 71.9896C184.696 72.0358 184.696 72.0821 184.696 72.1746L184.743 72.6832C184.743 72.9143 184.743 73.0993 184.743 73.0993L184.789 73.6079C184.974 77.1681 186.04 79.8497 187.985 81.6992C189.885 83.5486 192.479 84.3809 195.768 84.1959C199.011 84.011 201.512 82.9476 203.18 80.8207C206.376 76.7057 205.913 71.3885 205.913 71.3885C205.913 71.3423 205.681 69.3542 207.581 63.8521C207.581 63.5746 207.442 63.251 207.164 63.1585Z" fill="#EDF7FF"/>
<path d="M168.112 95.0152L165.332 92.5185C165.101 92.2873 165.054 91.9637 165.286 91.6862C171.586 84.4734 172.142 80.4046 173.115 73.1456C173.439 70.5563 173.856 67.5972 174.551 64.0371C176.126 56.0844 180.388 51.9232 183.631 49.8426C186.41 48.0856 188.912 47.4845 190.07 47.2996C190.394 47.2534 190.718 47.4845 190.765 47.8082L191.181 52.0619L190.95 49.6114L191.135 51.5071C191.181 51.7845 190.95 52.0619 190.672 52.1544C188.634 52.5705 181.407 54.7436 179.369 65.008C178.674 68.3833 178.303 71.2499 177.979 73.7929C176.96 81.5143 176.311 86.6465 168.946 94.969C168.714 95.2002 168.343 95.2002 168.112 95.0152Z" fill="#F0C5FF"/>
<path d="M165.657 72.6832L163.572 69.5392C163.387 69.2618 163.479 68.8919 163.757 68.7069C165.471 67.6897 171.169 64.7306 176.311 66.2102C181.175 67.5973 184.325 66.0715 185.391 65.4242C185.622 65.2854 185.947 65.3317 186.132 65.5166L188.634 68.337C188.865 68.6144 188.819 68.9843 188.541 69.1693C187.059 70.2327 182.287 72.9144 174.968 70.8338C171.818 69.9553 167.741 71.9897 166.398 72.7757C166.166 73.0069 165.842 72.9606 165.657 72.6832Z" fill="#F0C5FF"/>
<path d="M225.739 76.0585C225.23 76.0585 224.72 75.966 224.211 75.8273C220.829 74.8101 219.486 71.1112 219.022 69.8628C217.447 65.5166 217.262 58.1188 217.308 52.1082H221.478C221.478 54.1888 221.478 56.6393 221.617 59.0898L224.813 57.0092L227.824 61.5866C228.704 62.9274 229.723 64.4994 230.372 66.2102C230.928 67.736 231.391 70.0015 230.603 72.3133C230.001 74.0241 228.797 75.2724 227.314 75.781C226.805 75.966 226.295 76.0585 225.739 76.0585ZM221.617 59.7371C221.802 63.0661 222.172 66.3026 222.914 68.4295C223.608 70.4177 224.442 71.5273 225.369 71.8047C225.554 71.851 225.786 71.8972 225.925 71.851C226.11 71.8047 226.434 71.4811 226.62 70.9262C226.944 70.0015 226.851 68.8456 226.434 67.5972C225.971 66.3026 225.183 65.1005 224.35 63.8059L221.617 59.7371Z" fill="#EDF7FF"/>
<path d="M188.124 103.153C185.159 103.153 183.167 102.644 183.121 102.644L184.187 98.6216C184.742 98.7603 197.945 101.951 204.801 88.8196L208.507 90.7615C202.948 101.303 193.822 103.153 188.124 103.153Z" fill="#EDF7FF"/>
<path d="M188.402 26.5395C187.198 26.0309 186.503 24.6901 186.781 23.3955L190.996 4.39243C191.784 0.970961 195.49 -0.924719 198.732 0.462363C201.79 1.75697 203.041 5.40963 201.419 8.3225L191.923 25.3374C191.228 26.5858 189.699 27.0944 188.402 26.5395Z" fill="#1E6BFF"/>
<path d="M199.983 23.5805C199.335 22.4246 199.566 20.9913 200.539 20.1128L215.224 7.30538C217.865 4.99357 221.987 5.64088 223.748 8.69246C225.416 11.5591 224.257 15.2118 221.246 16.5988L203.504 24.7364C202.207 25.2912 200.678 24.8289 199.983 23.5805Z" fill="#1E6BFF"/>
<path fill-rule="evenodd" clip-rule="evenodd" d="M0.694824 133.391L74.3508 235.203L138.186 242.092L64.9469 128.583L0.694824 133.391Z" fill="#EDF7FF"/>
<path d="M138.186 242.786C138.14 242.786 138.14 242.786 138.093 242.786L74.2583 235.896C74.073 235.896 73.8876 235.758 73.7487 235.619L0.139025 133.807C5.17145e-05 133.622 -0.0462728 133.345 0.0927007 133.114C0.18535 132.882 0.416972 132.744 0.648595 132.697L64.9007 127.889C65.1323 127.889 65.4103 127.981 65.5492 128.213L138.742 241.722C138.881 241.953 138.881 242.231 138.742 242.462C138.649 242.647 138.418 242.786 138.186 242.786ZM74.7215 234.556L136.796 241.26L64.5764 129.322L1.99201 133.992L74.7215 234.556Z" fill="#11245A"/>
<path fill-rule="evenodd" clip-rule="evenodd" d="M74.3511 235.203L81.8093 246.438L141.244 252.264L138.186 242.092L74.3511 235.203Z" fill="#EDF7FF"/>
<path d="M141.244 252.958H141.197L81.763 247.132C81.5777 247.132 81.346 246.993 81.2534 246.808L73.7951 235.573C73.6562 235.342 73.6562 235.064 73.7951 234.833C73.9341 234.602 74.2121 234.463 74.4437 234.509L138.279 241.399C138.557 241.445 138.788 241.63 138.881 241.907L141.939 252.079C141.985 252.31 141.939 252.541 141.8 252.726C141.661 252.865 141.475 252.958 141.244 252.958ZM82.1799 245.791L140.271 251.478L137.63 242.739L75.7408 236.081L82.1799 245.791Z" fill="#11245A"/>
<path fill-rule="evenodd" clip-rule="evenodd" d="M138.186 242.092L256.175 228.129L258.444 239.087L141.243 252.264L138.186 242.092Z" fill="#EDF7FF"/>
<path d="M141.243 252.958C140.919 252.958 140.688 252.773 140.595 252.449L137.537 242.277C137.491 242.092 137.491 241.861 137.63 241.676C137.769 241.491 137.908 241.399 138.14 241.352L256.128 227.435C256.499 227.389 256.823 227.62 256.869 227.99L259.186 238.902C259.232 239.087 259.186 239.272 259.047 239.457C258.954 239.595 258.769 239.734 258.583 239.734L141.382 252.911C141.29 252.958 141.29 252.958 141.243 252.958ZM139.066 242.647L141.753 251.478L257.611 238.44L255.619 228.869L139.066 242.647Z" fill="#11245A"/>
<path fill-rule="evenodd" clip-rule="evenodd" d="M256.175 228.129L153.381 224.06L127.995 226.326L138.187 242.092L256.175 228.129Z" fill="#EDF7FF"/>
<path d="M138.186 242.786C137.955 242.786 137.723 242.647 137.584 242.462L127.439 226.695C127.3 226.511 127.3 226.233 127.393 226.002C127.485 225.771 127.717 225.632 127.949 225.632L153.334 223.366C153.381 223.366 153.381 223.366 153.427 223.366L256.175 227.435C256.545 227.435 256.823 227.759 256.823 228.083C256.823 228.406 256.592 228.776 256.221 228.776L138.233 242.739C138.233 242.786 138.186 242.786 138.186 242.786ZM129.199 226.88L138.511 241.352L247.327 228.499L153.381 224.754L129.199 226.88Z" fill="#11245A"/>
<path d="M74.9349 200.295C77.5098 198.771 76.3499 192.07 72.3441 185.326C68.3384 178.583 63.0038 174.351 60.4289 175.875C57.854 177.399 59.0139 184.1 63.0196 190.844C67.0254 197.587 72.36 201.819 74.9349 200.295Z" fill="#1E6BFF"/>
</g>
<defs>
<radialGradient id="paint0_radial_13836_155087" cx="0" cy="0" r="1" gradientUnits="userSpaceOnUse" gradientTransform="translate(205.518 119.414) rotate(-18.045) scale(52.8461 16.2334)">
<stop stop-color="#1E6BFF" stop-opacity="0.6"/>
<stop offset="1" stop-color="#1E6BFF" stop-opacity="0"/>
</radialGradient>
<radialGradient id="paint1_radial_13836_155087" cx="0" cy="0" r="1" gradientUnits="userSpaceOnUse" gradientTransform="translate(162.673 35.7939) rotate(-21.5875) scale(120.621 96.4324)">
<stop offset="0.298" stop-color="#1E6BFF"/>
<stop offset="1" stop-color="#174ED1"/>
</radialGradient>
<clipPath id="clip0_13836_155087">
<rect width="380" height="320" fill="white"/>
</clipPath>
</defs>
</svg>
