<svg width="88" height="89" viewBox="0 0 88 89" fill="none" xmlns="http://www.w3.org/2000/svg">
<path d="M51.4292 38.495C51.4292 35.878 51.8861 33.4271 52.7998 31.1424C53.7136 28.8577 55.0427 26.8222 56.7872 24.9944C58.4486 23.2913 60.3592 21.962 62.5605 21.0481C64.7619 20.1342 67.0463 19.6772 69.4553 19.6772C71.8644 19.6772 74.1488 20.1342 76.3501 21.0481C78.5515 21.962 80.5036 23.2913 82.2066 25.036C83.9095 26.7807 85.2386 28.7746 86.1108 31.0593C86.9831 33.344 87.44 35.7949 87.44 38.4535C87.44 40.6551 87.1492 42.7322 86.5262 44.6845C85.9032 46.6369 84.9894 48.4232 83.7849 50.0433C82.0404 52.3695 79.8391 54.1973 77.2639 55.4851C74.9795 56.6066 72.5289 57.2297 69.9953 57.3128C67.4201 57.3959 64.928 56.939 62.6021 55.942C60.4007 55.0281 58.4901 53.6988 56.7872 51.9541C55.0427 50.1679 53.7136 48.1324 52.7998 45.8477C51.8861 43.563 51.4292 41.1121 51.4292 38.495ZM60.11 38.495C60.11 41.569 61.0237 44.1445 62.8097 46.2215C64.5958 48.2986 66.8386 49.3371 69.4553 49.3371C72.1136 49.3371 74.3149 48.2986 76.1009 46.2215C77.8869 44.1445 78.8007 41.569 78.8007 38.495C78.8007 35.3795 77.8869 32.804 76.1009 30.727C74.3149 28.65 72.1136 27.6115 69.4553 27.6115C66.8386 27.6115 64.5958 28.65 62.8097 30.727C61.0237 32.804 60.11 35.3795 60.11 38.495Z" fill="white"/>
<path d="M34.0676 23.0423L27.9205 20.4668C27.5051 20.3007 27.0067 20.5084 26.8406 20.9238C22.8948 30.395 23.1855 35.3798 23.1855 35.3798V36.2106C23.1855 38.9938 22.604 41.0708 21.3995 42.5248C20.2365 43.9787 18.4921 44.6848 16.2492 44.6848C13.9232 44.6848 12.1788 43.8956 11.0573 42.3586C9.89433 40.8216 9.35438 38.4538 9.35438 35.3383V34.2167C9.52052 31.2673 10.1851 23.6654 13.1341 15.9389C13.3002 15.5235 13.0925 15.025 12.6772 14.8589L6.53001 12.3664C6.11466 12.2003 5.61624 12.408 5.4501 12.8234C2.0027 21.7546 1.21354 30.395 1.0474 33.8844C1.00586 33.9674 1.00586 34.0505 1.00586 34.1336V34.8813C1.00586 35.2552 1.00586 35.4629 1.00586 35.5044V36.2106C1.00586 41.3201 2.29345 45.308 4.91015 48.1327C7.52685 50.9574 11.1819 52.3698 15.8754 52.3698C20.5273 52.3698 24.2239 50.999 26.7575 48.0912C31.7002 42.4417 31.451 34.7567 31.451 34.7567C31.451 34.6736 31.2848 31.8073 34.4415 24.0808C34.6907 23.6654 34.483 23.2085 34.0676 23.0423Z" fill="white"/>
<path d="M28.3771 70.5227L24.5559 66.701C24.2236 66.3687 24.2236 65.8702 24.5559 65.5379C34.2335 55.6928 35.3134 49.8772 37.3071 39.4505C38.0132 35.7534 38.8023 31.5163 40.0899 26.4484C42.9973 15.1079 49.4353 9.45838 54.3364 6.71672C58.4483 4.432 62.1034 3.72581 63.7648 3.55965C64.2632 3.51811 64.6786 3.85043 64.6786 4.34892L64.9278 10.5384L64.7616 7.0075L64.8862 9.74917C64.9278 10.1646 64.5955 10.5384 64.1802 10.6215C61.2312 11.0369 50.6398 13.5709 46.9016 28.2346C45.6556 33.0949 44.8664 37.1658 44.2019 40.7798C42.1251 51.788 40.7545 59.1407 29.54 70.5643C29.2493 70.855 28.7093 70.8551 28.3771 70.5227Z" fill="#F0C5FF"/>
<path d="M26.8818 38.2046L24.182 33.5105C23.9328 33.0951 24.099 32.5551 24.5143 32.3474C27.0895 31.0181 35.4795 27.1964 42.7481 29.7304C49.6429 32.0982 54.2948 30.1873 55.8732 29.3565C56.247 29.1488 56.6623 29.2734 56.9115 29.5642L60.2759 33.8429C60.5666 34.2167 60.4835 34.7983 60.0682 35.0475C57.8253 36.4599 50.7644 39.9493 40.4222 36.3768C35.9364 34.8398 29.9554 37.4569 27.9617 38.4954C27.5879 38.7031 27.131 38.5785 26.8818 38.2046Z" fill="#F0C5FF"/>
<path d="M54.3285 85.5658C54.2869 85.5658 54.2454 85.5658 54.2039 85.5658C47.1429 85.5243 41.7018 83.2811 41.4526 83.1981L44.6508 75.5131C45.3154 75.8039 61.1817 82.118 70.8593 68.9497L77.5465 73.8515C71.9393 81.4949 63.923 85.5658 54.3285 85.5658Z" fill="white"/>
</svg>
