<svg width="32" height="32" viewBox="0 0 32 32" fill="none" xmlns="http://www.w3.org/2000/svg">
<path d="M18.7012 13.8018C18.7012 12.8502 18.8673 11.9589 19.1996 11.1281C19.5319 10.2973 20.0152 9.55715 20.6495 8.8925C21.2537 8.27317 21.9484 7.78979 22.7489 7.45747C23.5494 7.12515 24.3801 6.95898 25.2561 6.95898C26.1321 6.95898 26.9628 7.12515 27.7633 7.45747C28.5638 7.78979 29.2737 8.27317 29.8929 8.90761C30.5122 9.54204 30.9955 10.2671 31.3127 11.0979C31.6299 11.9287 31.796 12.82 31.796 13.7867C31.796 14.5873 31.6903 15.3426 31.4637 16.0525C31.2372 16.7625 30.9049 17.4121 30.4669 18.0012C29.8325 18.8471 29.032 19.5117 28.0956 19.98C27.2649 20.3879 26.3738 20.6144 25.4525 20.6446C24.5161 20.6749 23.6098 20.5087 22.764 20.1462C21.9635 19.8138 21.2688 19.3305 20.6495 18.696C20.0152 18.0465 19.5319 17.3063 19.1996 16.4755C18.8673 15.6447 18.7012 14.7535 18.7012 13.8018ZM21.8578 13.8018C21.8578 14.9196 22.1901 15.8562 22.8396 16.6115C23.489 17.3667 24.3046 17.7444 25.2561 17.7444C26.2228 17.7444 27.0233 17.3667 27.6727 16.6115C28.3222 15.8562 28.6544 14.9196 28.6544 13.8018C28.6544 12.6689 28.3222 11.7324 27.6727 10.9771C27.0233 10.2218 26.2228 9.84415 25.2561 9.84415C24.3046 9.84415 23.489 10.2218 22.8396 10.9771C22.1901 11.7324 21.8578 12.6689 21.8578 13.8018Z" fill="#11245A"/>
<path d="M12.3877 8.18327L10.1524 7.24672C10.0013 7.1863 9.82009 7.26183 9.75968 7.41288C8.32483 10.857 8.43056 12.6696 8.43056 12.6696V12.9717C8.43056 13.9838 8.21911 14.7391 7.7811 15.2678C7.3582 15.7965 6.72385 16.0533 5.90826 16.0533C5.06246 16.0533 4.42811 15.7663 4.02031 15.2074C3.59741 14.6485 3.40106 13.7874 3.40106 12.6545V12.2467C3.46147 11.1742 3.70313 8.40985 4.77549 5.60021C4.8359 5.44916 4.76038 5.26789 4.60935 5.20747L2.37402 4.30113C2.22298 4.24071 2.04174 4.31624 1.98132 4.46729C0.727723 7.715 0.440753 10.857 0.380339 12.1258C0.365235 12.156 0.365234 12.1862 0.365234 12.2165V12.4884C0.365234 12.6243 0.365234 12.6998 0.365234 12.7149V12.9717C0.365234 14.8297 0.83345 16.2799 1.78498 17.307C2.7365 18.3342 4.06562 18.8478 5.77233 18.8478C7.46393 18.8478 8.80815 18.3493 9.72947 17.2919C11.5268 15.2376 11.4362 12.443 11.4362 12.443C11.4362 12.4128 11.3758 11.3705 12.5236 8.56091C12.6143 8.40985 12.5387 8.24369 12.3877 8.18327Z" fill="#11245A"/>
<path d="M10.319 25.4482L8.92949 24.0584C8.80866 23.9376 8.80866 23.7563 8.92949 23.6355C12.4486 20.0555 12.8413 17.9407 13.5663 14.1492C13.8231 12.8048 14.11 11.264 14.5782 9.42113C15.6355 5.29731 17.9765 3.24295 19.7588 2.24598C21.254 1.41517 22.5831 1.15837 23.1873 1.09795C23.3685 1.08285 23.5196 1.20369 23.5196 1.38496L23.6102 3.63569L23.5498 2.35172L23.5951 3.34868C23.6102 3.49974 23.4894 3.63569 23.3383 3.6659C22.266 3.81696 18.4145 4.7384 17.0552 10.0707C16.6021 11.838 16.3151 13.3184 16.0735 14.6326C15.3183 18.6355 14.8199 21.3092 10.7419 25.4633C10.6362 25.569 10.4399 25.569 10.319 25.4482Z" fill="#1E6BFF"/>
<path d="M9.77529 13.6967L8.79356 11.9898C8.70293 11.8387 8.76335 11.6424 8.91438 11.5668C9.85081 11.0835 12.9017 9.69375 15.5449 10.6152C18.0521 11.4762 19.7437 10.7814 20.3176 10.4792C20.4535 10.4037 20.6046 10.449 20.6952 10.5548L21.9186 12.1106C22.0243 12.2466 21.9941 12.4581 21.8431 12.5487C21.0275 13.0623 18.4599 14.3312 14.6991 13.0321C13.0679 12.4732 10.893 13.4248 10.168 13.8025C10.0321 13.878 9.86591 13.8327 9.77529 13.6967Z" fill="#1E6BFF"/>
<path d="M19.7563 30.9192C19.7412 30.9192 19.7261 30.9192 19.711 30.9192C17.1434 30.9041 15.1648 30.0884 15.0742 30.0582L16.2372 27.2636C16.4789 27.3694 22.2484 29.6654 25.7676 24.877L28.1993 26.6594C26.1603 29.4388 23.2453 30.9192 19.7563 30.9192Z" fill="#11245A"/>
</svg>
