<svg width="313" height="62" viewBox="0 0 313 62" fill="none" xmlns="http://www.w3.org/2000/svg">
<path d="M306.105 8.64062H309.918L299.495 32.4031C297.589 36.9681 295.115 38.3947 291.83 38.3947C289.762 38.3947 287.653 37.7018 286.314 36.3975L287.977 33.4628C289.032 34.4818 290.37 35.0524 291.83 35.0524C293.696 35.0524 294.872 34.1965 295.926 31.7102L296.615 30.2021L287.126 8.64062H291.181L298.684 25.9224L306.105 8.64062Z" fill="white"/>
<path d="M287.103 19.5642C287.103 19.8903 287.062 20.3794 287.022 20.7462H269.583C270.069 24.5368 273.111 27.0639 277.369 27.0639C279.884 27.0639 281.993 26.2079 283.574 24.4553L285.724 26.9823C283.777 29.2648 280.817 30.4876 277.248 30.4876C270.313 30.4876 265.689 25.8818 265.689 19.4419C265.689 13.0428 270.272 8.43701 276.477 8.43701C282.682 8.43701 287.103 12.9205 287.103 19.5642ZM276.477 11.7385C272.746 11.7385 269.988 14.2655 269.583 17.9338H283.372C282.966 14.3063 280.249 11.7385 276.477 11.7385Z" fill="white"/>
<path d="M254.741 30.4876C251.172 30.4876 247.644 29.3871 245.859 27.9605L247.482 24.8629C249.307 26.1672 252.227 27.1046 255.025 27.1046C258.634 27.1046 260.135 26.0041 260.135 24.17C260.135 19.3197 246.549 23.5178 246.549 14.9177C246.549 11.0456 249.996 8.43701 255.512 8.43701C258.31 8.43701 261.473 9.17067 263.339 10.3934L261.676 13.4911C259.729 12.2276 257.58 11.7792 255.471 11.7792C252.064 11.7792 250.402 13.0428 250.402 14.7546C250.402 19.8495 264.028 15.6921 264.028 24.0884C264.028 28.0013 260.459 30.4876 254.741 30.4876Z" fill="white"/>
<path d="M235.639 30.4876C232.071 30.4876 228.542 29.3871 226.758 27.9605L228.38 24.8629C230.205 26.1672 233.125 27.1046 235.923 27.1046C239.533 27.1046 241.033 26.0041 241.033 24.17C241.033 19.3197 227.447 23.5178 227.447 14.9177C227.447 11.0456 230.894 8.43701 236.41 8.43701C239.208 8.43701 242.372 9.17067 244.237 10.3934L242.574 13.4911C240.628 12.2276 238.478 11.7792 236.369 11.7792C232.963 11.7792 231.3 13.0428 231.3 14.7546C231.3 19.8495 244.927 15.6921 244.927 24.0884C244.927 28.0013 241.358 30.4876 235.639 30.4876Z" fill="white"/>
<path d="M223.523 8.64062H227.336L216.913 32.4031C215.007 36.9681 212.533 38.3947 209.248 38.3947C207.18 38.3947 205.071 37.7018 203.732 36.3975L205.395 33.4628C206.45 34.4818 207.788 35.0524 209.248 35.0524C211.114 35.0524 212.29 34.1965 213.344 31.7102L214.033 30.2021L204.544 8.64062H208.599L216.102 25.9224L223.523 8.64062Z" fill="white"/>
<path d="M198.272 0H202.165V30.2431H198.434V26.8194C196.69 29.2649 193.933 30.4877 190.769 30.4877C184.483 30.4877 179.9 26.045 179.9 19.442C179.9 12.8391 184.483 8.4371 190.769 8.4371C193.811 8.4371 196.488 9.57835 198.272 11.9016V0ZM191.094 27.0639C195.19 27.0639 198.313 24.0478 198.313 19.442C198.313 14.8363 195.19 11.8609 191.094 11.8609C186.957 11.8609 183.834 14.8363 183.834 19.442C183.834 24.0478 186.957 27.0639 191.094 27.0639Z" fill="white"/>
<path d="M162.428 30.5691C153.709 30.5691 147.301 24.333 147.301 15.9774C147.301 7.62186 153.709 1.38574 162.428 1.38574C171.066 1.38574 177.474 7.5811 177.474 15.9774C177.474 24.3738 171.066 30.5691 162.428 30.5691ZM162.428 26.9416C168.714 26.9416 173.418 22.2951 173.418 15.9774C173.418 9.65981 168.714 5.01329 162.428 5.01329C156.061 5.01329 151.356 9.65981 151.356 15.9774C151.356 22.2951 156.061 26.9416 162.428 26.9416Z" fill="white"/>
<path d="M106.229 30.2433L98.3613 8.31494H104.323L110.852 27.1863H108.013L114.827 8.31494H120.18L126.791 27.1863H123.952L130.684 8.31494H136.281L128.372 30.2433H122.248L116.449 14.062H118.315L112.312 30.2433H106.229Z" fill="white"/>
<path d="M86.8598 30.5692C84.5347 30.5692 82.4664 30.0801 80.6549 29.1019C78.8704 28.1237 77.451 26.7922 76.3966 25.1075C75.3692 23.3957 74.8555 21.4528 74.8555 19.279C74.8555 17.078 75.3692 15.1352 76.3966 13.4505C77.451 11.7386 78.8704 10.4071 80.6549 9.45609C82.4664 8.47788 84.5347 7.98877 86.8598 7.98877C89.158 7.98877 91.2128 8.47788 93.0243 9.45609C94.8357 10.4071 96.2552 11.725 97.2826 13.4097C98.31 15.0944 98.8237 17.0508 98.8237 19.279C98.8237 21.4528 98.31 23.3957 97.2826 25.1075C96.2552 26.7922 94.8357 28.1237 93.0243 29.1019C91.2128 30.0801 89.158 30.5692 86.8598 30.5692ZM86.8598 25.3521C87.9143 25.3521 88.8606 25.1075 89.6987 24.6184C90.5369 24.1293 91.1993 23.4364 91.6859 22.5397C92.1726 21.6158 92.4159 20.5289 92.4159 19.279C92.4159 18.0019 92.1726 16.915 91.6859 16.0183C91.1993 15.1216 90.5369 14.4287 89.6987 13.9396C88.8606 13.4505 87.9143 13.2059 86.8598 13.2059C85.8054 13.2059 84.8591 13.4505 84.021 13.9396C83.1828 14.4287 82.5069 15.1216 81.9932 16.0183C81.5065 16.915 81.2632 18.0019 81.2632 19.279C81.2632 20.5289 81.5065 21.6158 81.9932 22.5397C82.5069 23.4364 83.1828 24.1293 84.021 24.6184C84.8591 25.1075 85.8054 25.3521 86.8598 25.3521Z" fill="white"/>
<path d="M65.4961 30.2431V0H71.8227V30.2431H65.4961Z" fill="white"/>
<path d="M47.3392 14.551H60.9657V19.8496H47.3392V14.551ZM47.8258 30.2432H41.2559V1.71191H62.7096V7.01058H47.8258V30.2432Z" fill="white"/>
<path d="M12.856 30.7323C8.82754 30.7323 5.67774 29.6046 3.40665 27.3493C1.13555 25.094 0 21.874 0 17.6894V1.71191H6.56996V17.4449C6.56996 20.1621 7.12422 22.1186 8.23273 23.3142C9.34124 24.5098 10.8959 25.1076 12.8966 25.1076C14.8973 25.1076 16.4519 24.5098 17.5605 23.3142C18.669 22.1186 19.2232 20.1621 19.2232 17.4449V1.71191H25.7121V17.6894C25.7121 21.874 24.5765 25.094 22.3054 27.3493C20.0343 29.6046 16.8845 30.7323 12.856 30.7323Z" fill="white"/>
<path d="M89.6651 46.6743H91.0451L85.8602 58.3444C84.9927 60.3852 83.8887 61.039 82.4102 61.039C81.4442 61.039 80.5176 60.722 79.8867 60.088L80.5373 59.0379C81.0499 59.553 81.6807 59.8304 82.4299 59.8304C83.3565 59.8304 83.9873 59.3945 84.5787 58.0868L85.0322 57.0763L80.3993 46.6743H81.8582L85.7616 55.5309L89.6651 46.6743Z" fill="white"/>
<path d="M74.9424 46.5952C77.4658 46.5952 79.1219 48.0614 79.1219 51.0532V57.0963H77.7221V51.1919C77.7221 48.9926 76.6181 47.8633 74.7453 47.8633C72.6161 47.8633 71.2755 49.2502 71.2755 51.6278V57.0963H69.8758V51.1919C69.8758 48.9926 68.7718 47.8633 66.8792 47.8633C64.7698 47.8633 63.4095 49.2502 63.4095 51.6278V57.0963H62.0098V46.6745H63.3503V48.5766C64.0798 47.3283 65.4204 46.5952 67.1552 46.5952C68.8704 46.5952 70.211 47.3283 70.8418 48.7945C71.591 47.4472 73.0695 46.5952 74.9424 46.5952Z" fill="white"/>
<path d="M59.5547 51.8854C59.5547 52.0043 59.535 52.1628 59.535 52.3213H50.8607C51.0184 54.5008 52.6744 55.9471 54.9415 55.9471C56.2033 55.9471 57.327 55.4914 58.1156 54.58L58.9041 55.4914C57.9776 56.601 56.5384 57.1954 54.9021 57.1954C51.669 57.1954 49.4609 54.9763 49.4609 51.8854C49.4609 48.7945 51.6098 46.5952 54.5275 46.5952C57.4453 46.5952 59.5547 48.7549 59.5547 51.8854ZM54.5275 47.8038C52.5167 47.8038 51.0381 49.2304 50.8607 51.2712H58.2141C58.0367 49.2304 56.5581 47.8038 54.5275 47.8038Z" fill="white"/>
<path d="M45.6022 42.3945H47.0019V57.0961H45.6613V55.0355C44.8136 56.4422 43.3745 57.1951 41.6593 57.1951C38.7022 57.1951 36.4941 55.0355 36.4941 51.8851C36.4941 48.7348 38.7022 46.595 41.6593 46.595C43.3153 46.595 44.7348 47.3082 45.6022 48.6556V42.3945ZM41.7776 55.9469C43.9659 55.9469 45.6219 54.3222 45.6219 51.8851C45.6219 49.4481 43.9659 47.8234 41.7776 47.8234C39.5696 47.8234 37.9136 49.4481 37.9136 51.8851C37.9136 54.3222 39.5696 55.9469 41.7776 55.9469Z" fill="white"/>
<path d="M29.8953 46.5952C32.5764 46.5952 34.0944 47.9425 34.0944 50.6371V57.0963H32.7539V55.4716C32.123 56.5415 30.9007 57.1954 29.1856 57.1954C26.8395 57.1954 25.4004 55.9669 25.4004 54.1639C25.4004 52.559 26.4255 51.2117 29.4024 51.2117H32.6947V50.5777C32.6947 48.7945 31.6893 47.8236 29.7573 47.8236C28.4167 47.8236 27.155 48.2992 26.3073 49.0521L25.6764 48.002C26.7213 47.1104 28.259 46.5952 29.8953 46.5952ZM29.4024 56.0858C30.9796 56.0858 32.1427 55.3329 32.6947 53.9658V52.2618H29.4418C27.431 52.2618 26.7804 53.0544 26.7804 54.1243C26.7804 55.3329 27.7464 56.0858 29.4024 56.0858Z" fill="white"/>
<path d="M19.8504 57.1954C16.7553 57.1954 14.5078 54.9961 14.5078 51.8854C14.5078 48.7747 16.7553 46.5952 19.8504 46.5952C21.605 46.5952 23.0836 47.2887 23.9116 48.6558L22.8667 49.3691C22.157 48.319 21.053 47.8236 19.8504 47.8236C17.5833 47.8236 15.9272 49.4483 15.9272 51.8854C15.9272 54.3422 17.5833 55.9471 19.8504 55.9471C21.053 55.9471 22.157 55.4716 22.8667 54.4215L23.9116 55.1348C23.0836 56.4821 21.605 57.1954 19.8504 57.1954Z" fill="white"/>
<path d="M12.5186 57.0959L10.8626 53.3908H3.17402L1.51801 57.0959H0L6.30861 43.2266H7.74776L14.0564 57.0959H12.5186ZM3.70631 52.202H10.3303L7.01832 44.7522L3.70631 52.202Z" fill="white"/>
</svg>
