<svg width="230" height="44" viewBox="0 0 230 44" fill="none" xmlns="http://www.w3.org/2000/svg">
<path d="M103.473 32.1948H104.255L101.318 38.8591C100.826 40.0245 100.201 40.3978 99.3632 40.3978C98.8159 40.3978 98.291 40.2168 97.9336 39.8548L98.3022 39.2551C98.5926 39.5493 98.95 39.7077 99.3744 39.7077C99.8993 39.7077 100.257 39.4587 100.592 38.712L100.849 38.1349L98.224 32.1948H99.0505L101.262 37.2524L103.473 32.1948Z" fill="#5D5D5D"/>
<path d="M95.1329 32.1494C96.5625 32.1494 97.5007 32.9867 97.5007 34.6952V38.1461H96.7077V34.7744C96.7077 33.5185 96.0823 32.8735 95.0212 32.8735C93.815 32.8735 93.0555 33.6656 93.0555 35.0233V38.1461H92.2625V34.7744C92.2625 33.5185 91.6371 32.8735 90.5649 32.8735C89.3698 32.8735 88.5991 33.6656 88.5991 35.0233V38.1461H87.8062V32.1947H88.5656V33.2809C88.9789 32.5681 89.7384 32.1494 90.7212 32.1494C91.6929 32.1494 92.4524 32.5681 92.8098 33.4053C93.2342 32.6359 94.0719 32.1494 95.1329 32.1494Z" fill="#5D5D5D"/>
<path d="M86.4157 35.1704C86.4157 35.2383 86.4045 35.3288 86.4045 35.4193H81.4903C81.5796 36.6639 82.5178 37.4899 83.8022 37.4899C84.517 37.4899 85.1536 37.2296 85.6004 36.7092L86.0471 37.2296C85.5222 37.8632 84.7069 38.2027 83.7799 38.2027C81.9482 38.2027 80.6973 36.9355 80.6973 35.1704C80.6973 33.4053 81.9147 32.1494 83.5677 32.1494C85.2206 32.1494 86.4157 33.3827 86.4157 35.1704ZM83.5677 32.8396C82.4284 32.8396 81.5908 33.6542 81.4903 34.8196H85.6562C85.5557 33.6542 84.718 32.8396 83.5677 32.8396Z" fill="#5D5D5D"/>
<path d="M78.5111 29.751H79.3041V38.1463H78.5446V36.9696C78.0643 37.773 77.249 38.2029 76.2773 38.2029C74.602 38.2029 73.3511 36.9696 73.3511 35.1706C73.3511 33.3716 74.602 32.1497 76.2773 32.1497C77.2155 32.1497 78.0196 32.557 78.5111 33.3264V29.751ZM76.3443 37.4901C77.5841 37.4901 78.5222 36.5623 78.5222 35.1706C78.5222 33.7789 77.5841 32.8512 76.3443 32.8512C75.0934 32.8512 74.1552 33.7789 74.1552 35.1706C74.1552 36.5623 75.0934 37.4901 76.3443 37.4901Z" fill="#5D5D5D"/>
<path d="M69.6114 32.1494C71.1304 32.1494 71.9904 32.9188 71.9904 34.4576V38.1461H71.2309V37.2183C70.8735 37.8293 70.181 38.2027 69.2094 38.2027C67.8803 38.2027 67.0649 37.5012 67.0649 36.4716C67.0649 35.5551 67.6457 34.7857 69.3322 34.7857H71.1974V34.4236C71.1974 33.4053 70.6278 32.8509 69.5333 32.8509C68.7738 32.8509 68.059 33.1225 67.5787 33.5524L67.2213 32.9527C67.8133 32.4436 68.6844 32.1494 69.6114 32.1494ZM69.3322 37.5691C70.2257 37.5691 70.8847 37.1391 71.1974 36.3584V35.3854H69.3546C68.2153 35.3854 67.8468 35.8379 67.8468 36.4489C67.8468 37.1391 68.394 37.5691 69.3322 37.5691Z" fill="#5D5D5D"/>
<path d="M63.9213 38.2027C62.1678 38.2027 60.8945 36.9468 60.8945 35.1704C60.8945 33.394 62.1678 32.1494 63.9213 32.1494C64.9153 32.1494 65.753 32.5454 66.2221 33.3261L65.6301 33.7334C65.228 33.1338 64.6026 32.8509 63.9213 32.8509C62.6369 32.8509 61.6987 33.7787 61.6987 35.1704C61.6987 36.5734 62.6369 37.4899 63.9213 37.4899C64.6026 37.4899 65.228 37.2183 65.6301 36.6186L66.2221 37.026C65.753 37.7954 64.9153 38.2027 63.9213 38.2027Z" fill="#5D5D5D"/>
<path d="M59.7675 38.1462L58.8293 36.0304H54.4735L53.5353 38.1462H52.6753L56.2493 30.2261H57.0646L60.6387 38.1462H59.7675ZM54.775 35.3516H58.5278L56.6514 31.0973L54.775 35.3516Z" fill="#5D5D5D"/>
<path d="M227.84 14.4951H230L224.095 28.0648C223.015 30.6716 221.614 31.4863 219.753 31.4863C218.581 31.4863 217.386 31.0906 216.628 30.3458L217.57 28.6699C218.167 29.2518 218.926 29.5777 219.753 29.5777C220.81 29.5777 221.476 29.0889 222.073 27.6691L222.464 26.8079L217.087 14.4951H219.385L223.636 24.364L227.84 14.4951Z" fill="#11245A"/>
<path d="M217.075 20.7331C217.075 20.9193 217.052 21.1986 217.029 21.4081H207.149C207.425 23.5728 209.148 25.0158 211.56 25.0158C212.985 25.0158 214.18 24.5271 215.076 23.5262L216.293 24.9693C215.191 26.2727 213.513 26.971 211.491 26.971C207.563 26.971 204.943 24.3409 204.943 20.6633C204.943 17.009 207.54 14.3789 211.055 14.3789C214.57 14.3789 217.075 16.9392 217.075 20.7331ZM211.055 16.2642C208.941 16.2642 207.379 17.7073 207.149 19.8021H214.961C214.731 17.7306 213.192 16.2642 211.055 16.2642Z" fill="#11245A"/>
<path d="M198.741 26.971C196.719 26.971 194.72 26.3426 193.709 25.5279L194.628 23.759C195.662 24.5038 197.316 25.0391 198.902 25.0391C200.946 25.0391 201.796 24.4107 201.796 23.3633C201.796 20.5935 194.1 22.9909 194.1 18.0797C194.1 15.8685 196.053 14.3789 199.177 14.3789C200.763 14.3789 202.555 14.7979 203.612 15.4961L202.67 17.2651C201.567 16.5435 200.349 16.2875 199.154 16.2875C197.224 16.2875 196.282 17.009 196.282 17.9866C196.282 20.8961 204.002 18.522 204.002 23.3167C204.002 25.5512 201.98 26.971 198.741 26.971Z" fill="#11245A"/>
<path d="M187.919 26.971C185.898 26.971 183.899 26.3426 182.888 25.5279L183.807 23.759C184.841 24.5038 186.495 25.0391 188.08 25.0391C190.125 25.0391 190.975 24.4107 190.975 23.3633C190.975 20.5935 183.278 22.9909 183.278 18.0797C183.278 15.8685 185.231 14.3789 188.356 14.3789C189.941 14.3789 191.733 14.7979 192.79 15.4961L191.848 17.2651C190.745 16.5435 189.528 16.2875 188.333 16.2875C186.403 16.2875 185.461 17.009 185.461 17.9866C185.461 20.8961 193.181 18.522 193.181 23.3167C193.181 25.5512 191.159 26.971 187.919 26.971Z" fill="#11245A"/>
<path d="M181.055 14.4951H183.215L177.31 28.0648C176.23 30.6716 174.829 31.4863 172.968 31.4863C171.796 31.4863 170.601 31.0906 169.843 30.3458L170.785 28.6699C171.382 29.2518 172.14 29.5777 172.968 29.5777C174.024 29.5777 174.691 29.0889 175.288 27.6691L175.679 26.8079L170.302 14.4951H172.6L176.85 24.364L181.055 14.4951Z" fill="#11245A"/>
<path d="M166.749 9.56104H168.955V26.8315H166.841V24.8764C165.853 26.2729 164.291 26.9712 162.499 26.9712C158.938 26.9712 156.341 24.4341 156.341 20.6635C156.341 16.8928 158.938 14.3791 162.499 14.3791C164.222 14.3791 165.738 15.0308 166.749 16.3575V9.56104ZM162.683 25.016C165.003 25.016 166.772 23.2936 166.772 20.6635C166.772 18.0333 165.003 16.3342 162.683 16.3342C160.339 16.3342 158.57 18.0333 158.57 20.6635C158.57 23.2936 160.339 25.016 162.683 25.016Z" fill="#11245A"/>
<path d="M146.443 27.0178C141.503 27.0178 137.873 23.4567 137.873 18.6852C137.873 13.9137 141.503 10.3525 146.443 10.3525C151.336 10.3525 154.967 13.8904 154.967 18.6852C154.967 23.48 151.336 27.0178 146.443 27.0178ZM146.443 24.9463C150.004 24.9463 152.669 22.2929 152.669 18.6852C152.669 15.0775 150.004 12.4241 146.443 12.4241C142.835 12.4241 140.17 15.0775 140.17 18.6852C140.17 22.2929 142.835 24.9463 146.443 24.9463Z" fill="#11245A"/>
<path d="M114.604 26.8313L110.147 14.3091H113.524L117.224 25.0857H115.615L119.475 14.3091H122.508L126.253 25.0857H124.645L128.459 14.3091H131.629L127.149 26.8313H123.68L120.394 17.5909H121.451L118.051 26.8313H114.604Z" fill="#11245A"/>
<path d="M103.63 27.0177C102.313 27.0177 101.141 26.7384 100.115 26.1798C99.1042 25.6212 98.3 24.8608 97.7027 23.8988C97.1206 22.9212 96.8296 21.8117 96.8296 20.5704C96.8296 19.3135 97.1206 18.204 97.7027 17.242C98.3 16.2644 99.1042 15.5041 100.115 14.961C101.141 14.4024 102.313 14.123 103.63 14.123C104.932 14.123 106.097 14.4024 107.123 14.961C108.149 15.5041 108.953 16.2566 109.535 17.2187C110.117 18.1808 110.408 19.298 110.408 20.5704C110.408 21.8117 110.117 22.9212 109.535 23.8988C108.953 24.8608 108.149 25.6212 107.123 26.1798C106.097 26.7384 104.932 27.0177 103.63 27.0177ZM103.63 24.0384C104.228 24.0384 104.764 23.8988 105.239 23.6195C105.714 23.3402 106.089 22.9445 106.365 22.4324C106.64 21.9048 106.778 21.2842 106.778 20.5704C106.778 19.8411 106.64 19.2204 106.365 18.7083C106.089 18.1963 105.714 17.8006 105.239 17.5213C104.764 17.242 104.228 17.1023 103.63 17.1023C103.033 17.1023 102.497 17.242 102.022 17.5213C101.547 17.8006 101.164 18.1963 100.873 18.7083C100.598 19.2204 100.46 19.8411 100.46 20.5704C100.46 21.2842 100.598 21.9048 100.873 22.4324C101.164 22.9445 101.547 23.3402 102.022 23.6195C102.497 23.8988 103.033 24.0384 103.63 24.0384Z" fill="#11245A"/>
<path d="M91.5269 26.8315V9.56104H95.1111V26.8315H91.5269Z" fill="#11245A"/>
<path d="M81.2413 17.8704H88.9612V20.8962H81.2413V17.8704ZM81.517 26.8315H77.7949V10.5386H89.9492V13.5644H81.517V26.8315Z" fill="#11245A"/>
<path d="M61.7052 27.1108C59.423 27.1108 57.6385 26.4668 56.3518 25.1789C55.0652 23.891 54.4219 22.0522 54.4219 19.6626V10.5386H58.144V19.5229C58.144 21.0747 58.458 22.1919 59.086 22.8746C59.714 23.5574 60.5947 23.8988 61.7282 23.8988C62.8617 23.8988 63.7424 23.5574 64.3704 22.8746C64.9984 22.1919 65.3124 21.0747 65.3124 19.5229V10.5386H68.9886V19.6626C68.9886 22.0522 68.3453 23.891 67.0586 25.1789C65.772 26.4668 63.9875 27.1108 61.7052 27.1108Z" fill="#11245A"/>
<g clip-path="url(#clip0_13859_155136)">
<path d="M25.3833 18.9782C25.3833 17.6697 25.6088 16.4443 26.0598 15.3019C26.5108 14.1595 27.1668 13.1418 28.0278 12.2279C28.8478 11.3763 29.7908 10.7117 30.8773 10.2548C31.9638 9.79781 33.0913 9.56934 34.2803 9.56934C35.4693 9.56934 36.5968 9.79781 37.6833 10.2548C38.7698 10.7117 39.7333 11.3763 40.5738 12.2487C41.4143 13.121 42.0704 14.118 42.5009 15.2604C42.9314 16.4027 43.1569 17.6282 43.1569 18.9575C43.1569 20.0583 43.0134 21.0968 42.7059 22.073C42.3984 23.0492 41.9473 23.9423 41.3528 24.7523C40.4918 25.9155 39.4053 26.8294 38.1343 27.4732C37.0068 28.034 35.7973 28.3456 34.5468 28.3871C33.2758 28.4287 32.0458 28.2002 30.8978 27.7017C29.8113 27.2448 28.8683 26.5801 28.0278 25.7078C27.1668 24.8147 26.5108 23.7969 26.0598 22.6546C25.6088 21.5122 25.3833 20.2868 25.3833 18.9782ZM29.6678 18.9782C29.6678 20.5152 30.1188 21.803 31.0003 22.8415C31.8818 23.88 32.9888 24.3992 34.2803 24.3992C35.5923 24.3992 36.6788 23.88 37.5603 22.8415C38.4418 21.803 38.8928 20.5152 38.8928 18.9782C38.8928 17.4205 38.4418 16.1327 37.5603 15.0942C36.6788 14.0557 35.5923 13.5364 34.2803 13.5364C32.9888 13.5364 31.8818 14.0557 31.0003 15.0942C30.1188 16.1327 29.6678 17.4205 29.6678 18.9782Z" fill="#11245A"/>
<path d="M16.8146 11.2514L13.7806 9.96363C13.5756 9.88055 13.3296 9.9844 13.2476 10.1921C11.3001 14.9277 11.4436 17.4201 11.4436 17.4201V17.8355C11.4436 19.2271 11.1566 20.2656 10.5621 20.9926C9.98811 21.7196 9.12711 22.0726 8.02011 22.0726C6.8721 22.0726 6.0111 21.678 5.4576 20.9095C4.8836 20.141 4.61709 18.9571 4.61709 17.3994V16.8386C4.6991 15.3639 5.0271 11.5629 6.4826 7.69968C6.5646 7.49198 6.4621 7.24274 6.2571 7.15966L3.22309 5.91345C3.01809 5.83037 2.77209 5.93422 2.69009 6.14192C0.988586 10.6075 0.599084 14.9277 0.517083 16.6724C0.496583 16.7139 0.496582 16.7555 0.496582 16.797V17.1709C0.496582 17.3578 0.496582 17.4617 0.496582 17.4824V17.8355C0.496582 20.3903 1.13209 22.3842 2.42359 23.7966C3.7151 25.2089 5.5191 25.9151 7.83561 25.9151C10.1316 25.9151 11.9561 25.2297 13.2066 23.7758C15.6461 20.9511 15.5231 17.1086 15.5231 17.1086C15.5231 17.067 15.4411 15.6339 16.9991 11.7706C17.1221 11.5629 17.0196 11.3345 16.8146 11.2514Z" fill="#11245A"/>
<path d="M14.0061 34.9921L12.1201 33.0812C11.9561 32.9151 11.9561 32.6658 12.1201 32.4997C16.8966 27.5771 17.4296 24.6693 18.4136 19.456C18.7621 17.6074 19.1516 15.4889 19.7871 12.9549C21.2221 7.28465 24.3996 4.4599 26.8186 3.08907C28.8481 1.94671 30.6521 1.59362 31.4721 1.51054C31.7181 1.48977 31.9231 1.65593 31.9231 1.90517L32.0461 4.99993L31.9641 3.23446L32.0256 4.6053C32.0461 4.813 31.8821 4.99993 31.6771 5.04147C30.2216 5.24917 24.9941 6.51615 23.1491 13.848C22.5341 16.2781 22.1446 18.3136 21.8166 20.1206C20.7916 25.6247 20.1151 29.301 14.5801 35.0128C14.4366 35.1582 14.1701 35.1582 14.0061 34.9921Z" fill="#1E6BFF"/>
<path d="M13.2677 18.8328L11.9352 16.4857C11.8122 16.278 11.8942 16.008 12.0992 15.9042C13.3702 15.2395 17.5112 13.3287 21.0988 14.5956C24.5018 15.7795 26.7978 14.8241 27.5768 14.4087C27.7613 14.3049 27.9663 14.3672 28.0893 14.5126L29.7498 16.6519C29.8933 16.8388 29.8523 17.1296 29.6473 17.2542C28.5403 17.9604 25.0553 19.7051 19.9508 17.9189C17.7368 17.1504 14.7847 18.4589 13.8007 18.9782C13.6162 19.082 13.3907 19.0197 13.2677 18.8328Z" fill="#1E6BFF"/>
<path d="M26.8145 42.5131C26.794 42.5131 26.7735 42.5131 26.753 42.5131C23.268 42.4924 20.5825 41.3708 20.4595 41.3293L22.038 37.4868C22.366 37.6322 30.197 40.7892 34.9735 34.2051L38.274 36.656C35.5065 40.4777 31.55 42.5131 26.8145 42.5131Z" fill="#11245A"/>
</g>
<defs>
<clipPath id="clip0_13859_155136">
<rect width="43.4335" height="44" fill="white"/>
</clipPath>
</defs>
</svg>
