<svg width="343" height="193" viewBox="0 0 343 193" fill="none" xmlns="http://www.w3.org/2000/svg">
<g clip-path="url(#clip0_14695_50284)">
<path d="M0 16C0 7.16344 7.16344 0 16 0H327C335.837 0 343 7.16344 343 16V177C343 185.837 335.837 193 327 193H16C7.16345 193 0 185.837 0 177V16Z" fill="#EDF7FF"/>
<path opacity="0.51" d="M166.514 92.8589L144.773 101.976L123.015 111.108L117.383 73.2678L142.244 59.7383L166.514 92.8589Z" fill="#F0C5FF"/>
<path d="M146.8 106.668C158.805 101.631 167.626 95.4437 166.502 92.8486C165.378 90.2535 154.736 92.2332 142.731 97.2702C130.726 102.307 121.905 108.494 123.029 111.089C124.152 113.684 134.795 111.705 146.8 106.668Z" fill="#F0C5FF"/>
<path d="M153.378 44.8699C156.087 53.3561 151.227 62.4081 142.573 64.9621C138.829 66.0613 134.182 67.0311 128.419 67.6939C122.655 68.3566 117.909 68.4536 114.001 68.2273C104.97 67.71 98.1388 59.9997 98.7956 51.1255L99.0091 48.2321C99.9451 35.3007 110.093 24.8585 123.18 23.3553C136.268 21.852 148.583 29.724 152.508 42.0896L153.378 44.8699Z" fill="#EDF7FF"/>
<path d="M117.828 68.5813C116.498 68.5813 115.218 68.549 113.97 68.4682C109.552 68.2095 105.513 66.2698 102.59 62.9885C99.6507 59.691 98.2057 55.4721 98.5341 51.1077L98.7476 48.2143C99.7 35.1859 109.963 24.6307 123.132 23.1112C136.318 21.5918 148.765 29.5446 152.722 42.0073L153.609 44.7714C154.939 48.9579 154.529 53.3869 152.427 57.2502C150.341 61.0973 146.86 63.9099 142.624 65.1545C138.486 66.3668 133.707 67.2882 128.42 67.9024C124.676 68.3712 121.113 68.5813 117.828 68.5813ZM126.334 23.4183C125.283 23.4183 124.233 23.483 123.182 23.5962C110.242 25.0833 100.16 35.4446 99.2238 48.2467L99.0103 51.1401C98.6983 55.3751 100.094 59.4808 102.951 62.6652C105.792 65.8496 109.717 67.7408 114.002 67.9832C118.272 68.2257 123.116 68.0479 128.371 67.4498C133.625 66.8517 138.387 65.9304 142.492 64.7181C146.598 63.5057 149.98 60.7901 152 57.04C154.02 53.2899 154.43 48.9902 153.133 44.933L152.246 42.1689C148.683 30.9347 138.075 23.4183 126.334 23.4183Z" fill="#888888"/>
<path d="M158.812 60.884L151.505 55.6953H151.488C149.436 58.9605 146.217 61.5306 142.178 62.7268C138.352 63.8583 133.606 64.8443 127.728 65.5232C121.849 66.2021 116.988 66.2991 113.015 66.0728C109.074 65.8465 105.56 64.2785 102.85 61.8539L102.62 61.8862L96.7418 68.0125C95.4938 69.1763 94.8862 70.3401 95.0176 71.4878C95.6252 76.5634 110.946 78.9719 129.255 76.8705C147.564 74.7692 161.932 68.95 161.324 63.8906C161.177 62.7429 160.306 61.7407 158.812 60.884Z" fill="#11245A"/>
<path d="M152.326 57.1717C152.704 60.3237 141.784 65.0275 128.073 66.5955C114.361 68.1634 103.047 66.0135 102.67 62.8615C102.292 59.7095 113.113 55.8785 126.825 54.3106C140.536 52.7427 151.948 54.0197 152.326 57.1717Z" fill="#EDF7FF"/>
<path d="M119.04 67.3702C115.887 67.3702 112.931 67.1601 110.321 66.7398C105.493 65.9639 102.619 64.5577 102.422 62.8927C102.291 61.7289 103.375 59.8862 109.385 57.7687C113.966 56.1522 120.14 54.8268 126.791 54.067C133.441 53.3073 139.763 53.178 144.607 53.7276C150.945 54.4388 152.44 55.9744 152.571 57.1383C152.85 59.4982 147.776 61.8097 145.576 62.6988C140.781 64.6223 134.574 66.0933 128.104 66.8368C125.001 67.1924 121.93 67.3702 119.04 67.3702ZM137.957 53.8892C134.525 53.8892 130.748 54.1155 126.84 54.5681C120.222 55.3279 114.081 56.6372 109.532 58.2374C105.148 59.7892 102.734 61.4703 102.898 62.8442C103.063 64.2667 105.871 65.5437 110.386 66.2711C115.345 67.0631 121.602 67.0954 128.022 66.3681C134.459 65.6245 140.617 64.1697 145.362 62.2623C149.73 60.5166 152.226 58.6254 152.062 57.2029C151.898 55.8289 149.156 54.7298 144.525 54.2125C142.571 54.0024 140.354 53.8892 137.957 53.8892Z" fill="#888888"/>
<path d="M118.105 71.8462C107.53 71.8462 99.9765 69.6963 98.942 65.9947C98.9091 65.8654 98.9748 65.7361 99.1062 65.7038C99.2375 65.6714 99.3689 65.7361 99.4018 65.8654C100.683 70.4076 113.261 72.4928 128.647 70.7147C135.79 69.8903 142.539 68.2739 147.646 66.124C152.654 64.0227 155.643 61.6304 156.086 59.3835C156.119 59.2542 156.234 59.1734 156.382 59.1895C156.513 59.2219 156.595 59.335 156.579 59.4805C155.626 64.4429 143.639 69.4862 128.729 71.1996C124.952 71.636 121.373 71.8462 118.105 71.8462Z" fill="#EDF7FF"/>
<path d="M141.833 45.9345C142.769 52.966 137.449 59.3347 130.24 59.7388C128.253 59.852 125.987 59.852 123.409 59.7065C120.831 59.561 118.582 59.3024 116.628 58.9629C109.517 57.7506 104.985 50.8162 106.742 43.9302C108.828 35.7187 116.545 30.142 125.133 30.627C133.721 31.1119 140.733 37.5453 141.833 45.9345Z" fill="url(#paint0_radial_14695_50284)"/>
<path d="M123.278 44.3484C123.31 43.718 123.458 43.1523 123.705 42.6189C123.951 42.0854 124.312 41.6167 124.755 41.2126C125.182 40.8246 125.675 40.5337 126.217 40.3397C126.759 40.1457 127.334 40.0811 127.908 40.1134C128.499 40.1457 129.041 40.2912 129.567 40.5337C130.092 40.7923 130.536 41.1318 130.93 41.5682C131.324 42.0046 131.603 42.5057 131.8 43.0553C131.981 43.6049 132.063 44.203 132.013 44.8334C131.981 45.3668 131.882 45.8517 131.701 46.3043C131.521 46.7569 131.274 47.1772 130.962 47.5328C130.503 48.0662 129.944 48.4703 129.304 48.729C128.746 48.9714 128.122 49.0846 127.514 49.0684C126.89 49.0522 126.299 48.9068 125.741 48.632C125.232 48.3734 124.772 48.0339 124.394 47.5975C124 47.1449 123.705 46.6438 123.507 46.078C123.31 45.5608 123.245 44.9789 123.278 44.3484ZM125.379 44.4778C125.33 45.2052 125.511 45.8356 125.921 46.3528C126.332 46.8701 126.857 47.1449 127.481 47.1934C128.122 47.2257 128.68 47.0156 129.14 46.5468C129.6 46.078 129.862 45.4799 129.895 44.7364C129.944 43.9928 129.764 43.3624 129.353 42.8452C128.943 42.3279 128.434 42.0531 127.777 42.0046C127.136 41.9723 126.595 42.1824 126.118 42.6512C125.675 43.1361 125.429 43.7342 125.379 44.4778Z" fill="#EDF7FF"/>
<path d="M119.286 40.4202L117.841 39.7252C117.743 39.6767 117.628 39.7252 117.579 39.8222C116.478 42.0205 116.495 43.2167 116.495 43.2167L116.478 43.4106C116.446 44.0734 116.265 44.5583 115.969 44.8977C115.657 45.221 115.23 45.3827 114.688 45.3503C114.13 45.318 113.72 45.1079 113.457 44.7199C113.194 44.332 113.096 43.7662 113.145 43.0227L113.161 42.7641C113.243 42.0528 113.506 40.2586 114.344 38.4644C114.393 38.3674 114.344 38.2542 114.245 38.2057L112.784 37.5268C112.685 37.4783 112.554 37.5268 112.521 37.6238C111.552 39.709 111.257 41.7619 111.158 42.5863C111.158 42.6024 111.142 42.6186 111.142 42.6347L111.125 42.8126C111.125 42.8934 111.109 42.9419 111.109 42.958L111.092 43.1197C111.027 44.3482 111.273 45.3019 111.881 46.0131C112.472 46.7243 113.342 47.1123 114.475 47.1769C115.608 47.2416 116.511 46.9668 117.184 46.304C118.465 45.0271 118.515 43.1843 118.515 43.1843C118.515 43.1682 118.515 42.4731 119.385 40.6789C119.418 40.598 119.385 40.4687 119.286 40.4202Z" fill="#EDF7FF"/>
<path d="M123.046 55.4527C123.03 55.4527 123.03 55.4527 123.013 55.4527C121.305 55.3557 120.008 54.7415 119.959 54.7091L120.846 52.9311C121.01 53.0119 124.77 54.7415 127.299 51.7188L128.859 52.9796C127.381 54.7253 125.361 55.582 123.046 55.4527Z" fill="#EDF7FF"/>
<path d="M117.218 51.6729L116.348 50.703C116.282 50.6222 116.282 50.4929 116.365 50.4282C118.844 48.2137 119.189 46.8398 119.813 44.3828C120.043 43.5099 120.289 42.5077 120.667 41.3277C121.537 38.6606 123.179 37.3998 124.394 36.8179C125.429 36.333 126.316 36.2198 126.726 36.1875C126.841 36.1875 126.94 36.2683 126.94 36.3815L126.923 37.8686L126.94 37.028V37.6908C126.94 37.7878 126.857 37.8847 126.759 37.8847C126.036 37.9494 123.442 38.402 122.325 41.845C121.948 42.9765 121.718 43.9464 121.488 44.8031C120.831 47.4055 120.388 49.1351 117.514 51.7052C117.416 51.7699 117.284 51.7537 117.218 51.6729Z" fill="#F0C5FF"/>
<path d="M117.251 43.9469L116.66 42.7992C116.611 42.7023 116.66 42.5729 116.758 42.5245C117.399 42.2497 119.484 41.4414 121.209 42.1527C122.834 42.8154 124 42.4275 124.394 42.2497C124.476 42.2012 124.591 42.2335 124.64 42.3143L125.396 43.3812C125.461 43.4781 125.429 43.6075 125.33 43.6721C124.772 43.9792 122.998 44.7228 120.552 43.7206C119.484 43.2842 118.006 43.8338 117.497 44.0439C117.415 44.0762 117.3 44.0277 117.251 43.9469Z" fill="#F0C5FF"/>
<path d="M125.563 28.8167C125.169 28.5743 124.988 28.0893 125.152 27.6529L127.583 21.268C128.026 20.1204 129.422 19.6516 130.489 20.282C131.491 20.8801 131.737 22.2055 131.031 23.1269L126.86 28.5581C126.548 28.9784 125.99 29.0754 125.563 28.8167Z" fill="#1E6BFF"/>
<path d="M128.962 28.9773C128.748 28.557 128.863 28.0559 129.241 27.7811L134.693 23.5946C135.678 22.8348 137.123 23.1581 137.681 24.2411C138.223 25.2757 137.731 26.5365 136.63 26.9567L130.193 29.446C129.717 29.6238 129.192 29.4299 128.962 28.9773Z" fill="#1E6BFF"/>
<path d="M248.256 25.3308C248.156 25.3308 248.056 25.2974 247.972 25.2472L246.281 24.2604C246.013 24.1099 245.93 23.7754 246.08 23.5078C248.541 19.2262 248.407 17.1189 248.139 13.3056C248.039 11.9342 247.938 10.3787 247.938 8.47211C247.922 4.12363 249.713 1.49782 251.219 0.0594787C252.475 -1.14471 253.714 -1.73009 254.333 -1.96423C254.484 -2.01441 254.634 -2.01441 254.768 -1.94751C254.902 -1.88061 255.019 -1.76354 255.053 -1.61301L255.337 -0.693142L255.639 0.260178C255.655 0.293628 255.655 0.327077 255.655 0.343802L255.706 0.527776C255.739 0.661575 255.672 0.795375 255.538 0.845549C255.505 0.862274 255.471 0.862274 255.438 0.862274C255.404 0.895724 255.354 0.912449 255.304 0.945899C254.283 1.38075 250.968 3.17031 250.985 8.48883C250.985 10.2951 251.085 11.8004 251.186 13.1216C251.471 17.2527 251.655 19.9788 248.708 25.0799C248.641 25.2137 248.508 25.2974 248.374 25.3308C248.34 25.3308 248.307 25.3308 248.256 25.3308ZM254.534 -1.51266H254.517C253.931 -1.27851 252.759 -0.726592 251.571 0.410702C250.131 1.78214 248.424 4.29088 248.441 8.47211C248.441 10.362 248.558 11.9174 248.641 13.2722C248.909 17.1858 249.06 19.3433 246.515 23.7587C246.499 23.7754 246.515 23.8088 246.532 23.8256L248.223 24.8123C248.24 24.8291 248.256 24.8123 248.256 24.8123C248.273 24.8123 248.273 24.7956 248.29 24.7956C251.152 19.8283 250.968 17.1691 250.7 13.1216C250.617 11.7836 250.5 10.2784 250.5 8.45538C250.483 2.83581 254.048 0.912449 255.137 0.460877C255.153 0.460877 255.17 0.444152 255.17 0.427427L254.584 -1.47921C254.584 -1.49594 254.567 -1.51266 254.551 -1.51266C254.551 -1.51266 254.551 -1.51266 254.534 -1.51266Z" fill="#888888"/>
<path d="M244.757 14.172C244.607 14.172 244.473 14.1219 244.356 14.0048L242.966 12.5999C242.866 12.4996 242.799 12.349 242.799 12.1985C242.799 12.048 242.866 11.8975 242.983 11.7971C243.736 11.1114 246.448 8.92042 249.361 9.15457C251.872 9.35527 253.278 8.33505 253.747 7.88348C253.948 7.69951 254.249 7.68278 254.45 7.85003L256.023 9.05422C256.141 9.15457 256.224 9.28837 256.241 9.45562C256.258 9.60614 256.207 9.77339 256.09 9.87374C255.32 10.6765 253.111 12.533 249.093 12.2152C247.453 12.0814 245.611 13.5699 245.092 14.0382C245.008 14.1219 244.875 14.172 244.757 14.172ZM244.724 13.6536C244.741 13.6703 244.774 13.6703 244.791 13.6536C245.511 13.018 247.386 11.5797 249.177 11.7135C252.977 12.0145 255.052 10.2919 255.756 9.52252C255.772 9.5058 255.772 9.48907 255.772 9.48907C255.772 9.47235 255.772 9.45562 255.756 9.45562L254.182 8.25143C254.165 8.2347 254.132 8.2347 254.115 8.25143C253.579 8.73645 252.056 9.87374 249.344 9.65632C246.632 9.4389 244.071 11.5295 243.351 12.1818C243.335 12.1985 243.335 12.2152 243.335 12.2152C243.335 12.232 243.335 12.232 243.351 12.2487L244.724 13.6536Z" fill="#888888"/>
<path d="M185.816 32.4776C185.18 32.4776 184.544 32.4275 183.924 32.3271C182.334 32.0762 180.811 31.5076 179.404 30.6212C177.948 29.718 176.726 28.5807 175.755 27.226C174.784 25.8713 174.081 24.3159 173.663 22.5932C173.244 20.8706 173.127 19.1646 173.361 17.5088C173.579 15.8531 174.131 14.2642 175.002 12.7924C175.822 11.3875 176.893 10.1833 178.199 9.21329C179.505 8.24325 180.961 7.55753 182.551 7.17286C184.142 6.78818 185.766 6.70456 187.373 6.95543C188.98 7.20631 190.503 7.77495 191.926 8.64465C193.349 9.51434 194.554 10.6516 195.508 12.0064C196.462 13.3611 197.165 14.9499 197.601 16.6893C197.952 18.1444 198.103 19.5827 198.002 20.9709C197.919 22.3591 197.584 23.6971 197.048 24.9682C196.261 26.7912 195.106 28.3633 193.617 29.6344C192.294 30.7382 190.737 31.5745 189.08 32.0261C187.992 32.3271 186.904 32.4776 185.816 32.4776ZM174.148 22.4761C174.567 24.1319 175.236 25.6372 176.157 26.9417C177.078 28.2295 178.266 29.3334 179.655 30.2031C180.995 31.0393 182.451 31.5912 183.991 31.8421C185.632 32.1097 187.289 32.0093 188.929 31.5578C190.503 31.1229 192.01 30.3201 193.282 29.2665C194.721 28.0623 195.826 26.557 196.58 24.8009C197.098 23.5967 197.4 22.3089 197.5 20.9709C197.584 19.6329 197.45 18.2447 197.115 16.8399C196.697 15.1506 196.027 13.6454 195.106 12.3241C194.186 11.0196 193.031 9.93247 191.675 9.09622C190.319 8.25997 188.846 7.70805 187.306 7.4739C185.766 7.23976 184.209 7.30666 182.685 7.6746C181.162 8.04255 179.756 8.71155 178.517 9.63142C177.245 10.5513 176.224 11.7053 175.437 13.0433C174.6 14.4649 174.081 15.9869 173.863 17.5757C173.646 19.1646 173.746 20.8204 174.148 22.4761ZM185.933 27.1089C184.694 27.1089 183.522 26.7075 182.401 25.9215C180.861 24.8344 179.823 23.2455 179.304 21.1883C178.785 19.1144 178.969 17.2245 179.823 15.5353C180.71 13.8628 182.049 12.7757 183.824 12.3409C185.615 11.906 187.306 12.2405 188.862 13.3276C190.403 14.4147 191.44 16.0203 191.959 18.0942C192.462 20.1514 192.294 22.0413 191.44 23.7138C190.57 25.403 189.231 26.4734 187.44 26.925C186.921 27.0588 186.418 27.1089 185.933 27.1089ZM179.806 21.088C180.275 23.0113 181.263 24.4999 182.702 25.5201C184.142 26.5236 185.682 26.8413 187.322 26.4399C188.963 26.0386 190.202 25.0351 190.988 23.4964C191.792 21.9242 191.943 20.1514 191.474 18.2113C190.988 16.2712 190.017 14.766 188.578 13.7457C187.155 12.7422 185.598 12.4245 183.958 12.8259C182.334 13.2273 181.095 14.214 180.292 15.7862C179.488 17.3583 179.321 19.1312 179.806 21.088Z" fill="#888888"/>
<path d="M172.424 26.7052C170.783 26.7052 169.36 26.4209 169.059 25.5345C168.59 24.1797 171.001 22.4069 173.093 21.1525C175.956 19.4466 179.94 17.6737 184.292 16.202C188.661 14.7134 192.88 13.6932 196.194 13.2918C198.622 13.0075 201.601 12.9573 202.07 14.312C202.539 15.6668 200.128 17.4396 198.036 18.694C195.173 20.3999 191.189 22.1727 186.837 23.6445C182.468 25.1331 178.249 26.1533 174.935 26.5547C174.115 26.6383 173.244 26.7052 172.424 26.7052ZM198.705 13.6263C198.053 13.6263 197.232 13.6765 196.245 13.7936C192.964 14.1782 188.779 15.1985 184.443 16.6703C180.107 18.142 176.174 19.8814 173.328 21.5874C169.411 23.9289 169.427 25.0829 169.528 25.3672C169.628 25.6683 170.315 26.5714 174.868 26.0362C178.149 25.6515 182.334 24.6313 186.669 23.1595C191.005 21.6877 194.939 19.9483 197.785 18.2424C201.719 15.8842 201.702 14.7469 201.601 14.4458C201.501 14.2451 201.082 13.6263 198.705 13.6263Z" fill="#888888"/>
<path d="M249.311 163.127L245.042 167.609C245.042 167.609 227.013 157.741 221.07 156.37C215.128 154.999 209.135 158.778 209.135 158.778L258.668 192.747L269.85 176.958L249.311 163.127Z" fill="#EDF7FF"/>
<path d="M258.634 192.998C258.584 192.998 258.534 192.982 258.5 192.948L208.967 158.98C208.9 158.93 208.85 158.846 208.85 158.762C208.85 158.679 208.9 158.595 208.967 158.562C209.034 158.528 215.127 154.748 221.103 156.12C226.778 157.424 243.016 166.222 244.974 167.292L249.126 162.944C249.209 162.86 249.343 162.843 249.444 162.91L269.967 176.758C270.017 176.792 270.067 176.859 270.067 176.926C270.084 176.993 270.067 177.059 270.017 177.11L258.835 192.898C258.801 192.965 258.718 192.998 258.634 192.998ZM209.586 158.796L258.584 192.413L269.482 177.043L249.343 163.445L245.209 167.777C245.125 167.861 245.008 167.878 244.907 167.827C244.723 167.727 226.845 157.96 221.003 156.622C216.014 155.468 210.909 158.043 209.586 158.796Z" fill="#888888"/>
<path d="M207.494 92.384L200.764 93.6049C200.764 93.6049 192.009 75.0236 188.008 70.4242C184.008 65.8249 176.943 65.3398 176.943 65.3398L196.964 121.937L214.842 115.598L207.494 92.384Z" fill="#EDF7FF"/>
<path d="M196.964 122.188C196.931 122.188 196.897 122.188 196.864 122.171C196.797 122.137 196.763 122.087 196.73 122.02L176.709 65.44C176.675 65.3563 176.692 65.2727 176.742 65.2058C176.793 65.1389 176.876 65.1055 176.96 65.1055C177.027 65.1055 184.175 65.6407 188.209 70.2735C189.883 72.1968 192.545 76.6958 196.127 83.6367C198.504 88.236 200.496 92.434 200.931 93.3371L207.46 92.1496C207.577 92.1329 207.711 92.1998 207.745 92.3169L215.077 115.531C215.11 115.665 215.043 115.799 214.926 115.849L197.048 122.188C197.014 122.188 196.981 122.188 196.964 122.188ZM177.311 65.6407L197.115 121.619L214.524 115.447L207.326 92.6681L200.814 93.8556C200.697 93.8723 200.597 93.8221 200.546 93.7218C200.463 93.5378 191.758 75.1237 187.824 70.5912C184.459 66.7278 178.835 65.8246 177.311 65.6407Z" fill="#888888"/>
<ellipse cx="22.4671" cy="20.691" rx="22.4671" ry="20.691" transform="matrix(0.992812 0.119685 -0.119391 0.992847 294.93 9.72656)" fill="#EDF7FF"/>
<path d="M323.384 52.7132C323.367 52.7132 323.35 52.7132 323.334 52.7132C323.2 52.6798 323.116 52.546 323.149 52.4122C323.35 51.5592 323.551 50.723 323.735 49.8867C326.514 38.0957 328.925 27.9269 318.529 20.8523C317.073 19.8655 315.55 19.6481 313.993 20.2C305.807 23.0934 298.843 45.9564 298.776 46.1905C298.743 46.3243 298.592 46.3912 298.458 46.3578C298.324 46.3243 298.257 46.1738 298.291 46.04C298.307 45.9898 300.065 40.1528 302.844 34.0482C306.577 25.8028 310.277 20.9861 313.825 19.715C315.55 19.1129 317.224 19.347 318.814 20.4342C323.702 23.7624 326.163 27.9269 326.564 33.5799C326.916 38.5807 325.61 44.1333 324.238 49.9871C324.037 50.8233 323.836 51.6596 323.652 52.5125C323.601 52.6463 323.501 52.7132 323.384 52.7132Z" fill="#888888"/>
<path fill-rule="evenodd" clip-rule="evenodd" d="M254.667 66.075L268.611 64.6032L279.492 49.8686C280.714 48.2128 282.773 47.3766 284.816 47.7111L297.086 49.7682L298.291 46.1055C298.291 46.1055 302.861 50.5208 309.005 52.6784C315.148 54.8359 323.87 52.4609 323.87 52.4609L323.602 55.3042L343.606 60.4722C346.519 61.2248 348.578 63.8171 348.645 66.8276L349.365 98.1868C349.113 101.649 345.766 104.007 342.418 103.07L333.947 100.846L333.278 108.138L277.266 91.547L277.283 89.423L269.649 80.3079L259.655 75.5915L254.667 66.075Z" fill="#1E6BFF"/>
<path fill-rule="evenodd" clip-rule="evenodd" d="M252.373 113.775L213.084 121.853L205.016 85.5769L242.212 83.7539L277.265 91.5477L333.277 108.139L334.281 127.724C334.432 130.651 332.758 133.36 330.096 134.547L302.007 147.041L278.839 185.742L240.32 159.15L264.811 124.546L252.373 113.775Z" fill="#11245A"/>
<path fill-rule="evenodd" clip-rule="evenodd" d="M276.445 84.9991L275.307 81.721L266.519 84.2465C265.096 84.6646 264.259 86.1531 264.677 87.5747C265.096 88.9963 266.586 89.8326 268.009 89.4145L273.148 88.0765L289.603 91.4549L287.845 77.3725L274.202 73.0742L276.445 84.9991Z" fill="#EDF7FF"/>
<path d="M289.603 91.691C289.587 91.691 289.57 91.691 289.553 91.691L273.148 88.3126L268.059 89.6506C267.306 89.868 266.519 89.7676 265.833 89.3997C265.146 89.015 264.644 88.3962 264.426 87.6436C264.209 86.891 264.293 86.0882 264.678 85.4025C265.063 84.7167 265.682 84.215 266.435 83.9976L275.224 81.4721C275.358 81.4386 275.492 81.5055 275.525 81.6226L275.559 81.7062L273.935 73.1096C273.918 73.026 273.951 72.9424 274.018 72.8755C274.085 72.8086 274.169 72.7919 274.253 72.8253L287.913 77.1069C288.013 77.1403 288.08 77.224 288.08 77.3076L289.838 91.39C289.854 91.4736 289.821 91.5572 289.754 91.6074C289.737 91.6576 289.67 91.691 289.603 91.691ZM273.148 87.7941C273.165 87.7941 273.181 87.7941 273.198 87.7941L289.319 91.1056L287.628 77.525L274.521 73.4107L276.697 84.9342C276.714 85.068 276.647 85.185 276.513 85.2185C276.379 85.2519 276.262 85.185 276.211 85.0512L275.14 81.9906L266.586 84.4659C265.967 84.6498 265.448 85.0512 265.13 85.6199C264.811 86.1885 264.745 86.8408 264.912 87.4763C265.096 88.0952 265.498 88.6136 266.067 88.9314C266.636 89.2492 267.289 89.3161 267.925 89.1488L273.081 87.7941C273.114 87.8108 273.131 87.7941 273.148 87.7941Z" fill="#888888"/>
<path d="M315.8 53.9829C313.792 53.9829 311.766 53.7321 309.741 53.2303C303.865 51.7418 298.86 48.2463 295.679 43.3626C292.482 38.4789 291.477 32.8092 292.85 27.3903C295.679 16.2181 307.866 9.62848 320.002 12.7059C325.878 14.1944 330.883 17.6899 334.064 22.5736C337.261 27.4572 338.265 33.127 336.893 38.5458C335.52 43.9647 331.938 48.4804 326.798 51.2568C323.451 53.0463 319.667 53.9829 315.8 53.9829ZM313.992 12.455C304.3 12.455 295.629 18.4425 293.335 27.5241C291.996 32.8092 292.984 38.3284 296.098 43.095C299.228 47.8616 304.116 51.2902 309.874 52.7453C315.633 54.2004 321.559 53.5146 326.581 50.7885C331.586 48.079 335.085 43.6804 336.424 38.3953C337.763 33.1103 336.775 27.591 333.662 22.8244C330.531 18.0578 325.643 14.6292 319.885 13.1742C317.91 12.6891 315.934 12.455 313.992 12.455Z" fill="#888888"/>
<path d="M328.389 79.5055C328.372 79.5055 328.355 79.5055 328.339 79.5055L320.437 77.8999C320.303 77.8665 320.22 77.7327 320.236 77.5989C320.27 77.4651 320.404 77.3815 320.538 77.3982L328.138 78.9369V74.5048C328.138 74.371 328.255 74.2539 328.389 74.2539C328.523 74.2539 328.64 74.371 328.64 74.5048V79.2547C328.64 79.3383 328.606 79.4052 328.539 79.4554C328.506 79.4888 328.456 79.5055 328.389 79.5055Z" fill="#EDF7FF"/>
<path fill-rule="evenodd" clip-rule="evenodd" d="M206.323 35.8906L224.787 77.4018L246.851 84.5768L229.408 38.968L206.323 35.8906Z" fill="#EDF7FF"/>
<path d="M246.85 84.8279C246.817 84.8279 246.8 84.8279 246.766 84.8112L224.703 77.6362C224.636 77.6195 224.586 77.5693 224.552 77.5024L206.088 35.9912C206.055 35.9076 206.055 35.8072 206.122 35.7403C206.172 35.6734 206.273 35.6232 206.356 35.64L229.441 38.7173C229.524 38.7341 229.608 38.7842 229.641 38.8846L247.084 84.4934C247.118 84.577 247.101 84.6774 247.034 84.761C246.984 84.8112 246.917 84.8279 246.85 84.8279ZM224.971 77.2013L246.415 84.1756L229.223 39.2024L206.741 36.2086L224.971 77.2013Z" fill="#888888"/>
<path fill-rule="evenodd" clip-rule="evenodd" d="M224.787 77.4023L226.595 81.9348L247.185 88.4073L246.85 84.5773L224.787 77.4023Z" fill="#EDF7FF"/>
<path d="M247.185 88.6566C247.152 88.6566 247.135 88.6566 247.101 88.6399L226.511 82.1673C226.444 82.1506 226.377 82.0837 226.361 82.0168L224.569 77.4843C224.536 77.4007 224.553 77.2836 224.62 77.2167C224.687 77.1498 224.787 77.1164 224.888 77.1498L246.951 84.3248C247.051 84.3583 247.118 84.4419 247.118 84.5423L247.453 88.3723C247.453 88.4559 247.419 88.5395 247.352 88.5897C247.286 88.6399 247.235 88.6566 247.185 88.6566ZM226.779 81.7325L246.9 88.0545L246.616 84.7597L225.222 77.8021L226.779 81.7325Z" fill="#888888"/>
<path fill-rule="evenodd" clip-rule="evenodd" d="M246.85 84.5742L289.603 88.4042V92.4516L247.184 88.4042L246.85 84.5742Z" fill="#EDF7FF"/>
<path d="M289.604 92.7038H289.587L247.151 88.6564C247.034 88.6397 246.934 88.5561 246.917 88.4223L246.582 84.5923C246.582 84.5254 246.599 84.4417 246.649 84.3916C246.699 84.3414 246.783 84.3079 246.85 84.3247L289.62 88.1547C289.754 88.1714 289.855 88.2717 289.855 88.4055V92.453C289.855 92.5199 289.821 92.5868 289.771 92.6369C289.737 92.6704 289.671 92.7038 289.604 92.7038ZM247.419 88.1881L289.352 92.1686V88.6397L247.118 84.8599L247.419 88.1881Z" fill="#888888"/>
<path fill-rule="evenodd" clip-rule="evenodd" d="M289.604 88.3981L253.58 79.3332L244.423 78.2461L246.85 84.5681L289.604 88.3981Z" fill="#EDF7FF"/>
<path d="M289.604 88.6521H289.587L246.833 84.8221C246.733 84.8053 246.649 84.7552 246.616 84.6548L244.188 78.3161C244.155 78.2324 244.172 78.1488 244.222 78.0652C244.272 77.9983 244.356 77.9648 244.456 77.9648L253.613 79.052C253.63 79.052 253.63 79.052 253.646 79.052L289.687 88.1336C289.821 88.167 289.888 88.2841 289.871 88.4179C289.838 88.5684 289.738 88.6521 289.604 88.6521ZM247.034 84.337L286.473 87.866L253.529 79.5704L244.808 78.5335L247.034 84.337Z" fill="#888888"/>
<path d="M227.595 65.1032C228.62 64.7551 228.709 62.2966 227.794 59.612C226.88 56.9274 225.309 55.0333 224.285 55.3814C223.261 55.7295 223.172 58.188 224.086 60.8726C225 63.5572 226.571 65.4513 227.595 65.1032Z" fill="#1E6BFF"/>
<path fill-rule="evenodd" clip-rule="evenodd" d="M260.676 66.8164L264.811 74.5433L262.032 78.1893L258.634 71.9342L260.676 66.8164Z" fill="#EDF7FF"/>
<path fill-rule="evenodd" clip-rule="evenodd" d="M246.748 76.4325C245.475 75.7635 244.973 74.1914 245.643 72.9203L247.501 69.3579C248.823 66.8157 251.97 65.8122 254.532 67.1335L250.28 75.3119C249.593 76.5998 248.02 77.1015 246.748 76.4325Z" fill="#EDF7FF"/>
<path d="M247.953 76.9841C247.518 76.9841 247.066 76.8838 246.647 76.6664C245.258 75.9472 244.706 74.2078 245.425 72.8196L247.284 69.2572C247.953 67.9694 249.092 67.0161 250.481 66.5645C251.87 66.1297 253.343 66.2468 254.649 66.9325L254.867 67.0496L250.498 75.4622C249.979 76.4155 248.974 76.9841 247.953 76.9841ZM246.865 76.2148C248.02 76.8169 249.443 76.3653 250.046 75.2113L254.18 67.2503C253.059 66.7318 251.803 66.6649 250.632 67.0328C249.376 67.4342 248.338 68.3039 247.719 69.4747L245.861 73.0371C245.258 74.1911 245.71 75.6127 246.865 76.2148Z" fill="#888888"/>
<path fill-rule="evenodd" clip-rule="evenodd" d="M251.017 76.885C249.527 76.1157 248.941 74.2592 249.711 72.7707L252.356 67.6863C253.126 66.1978 254.984 65.6125 256.474 66.3818C257.964 67.1511 258.55 69.0076 257.78 70.4961L255.135 75.5972C254.348 77.0857 252.507 77.6711 251.017 76.885Z" fill="#EDF7FF"/>
<path d="M252.423 77.4869C251.904 77.4869 251.385 77.3698 250.9 77.1189C249.276 76.2827 248.656 74.2757 249.493 72.6701L252.138 67.5857C252.54 66.7997 253.226 66.231 254.08 65.9634C254.917 65.6958 255.821 65.7794 256.591 66.1808C257.378 66.5822 257.947 67.2679 258.215 68.1209C258.483 68.9572 258.399 69.8603 257.997 70.6297L255.352 75.714C254.766 76.8346 253.611 77.4869 252.423 77.4869ZM251.134 76.6673C251.803 77.0186 252.557 77.0855 253.277 76.8513C253.996 76.6339 254.566 76.1321 254.917 75.4799L257.562 70.3955C257.914 69.7265 257.981 68.9739 257.746 68.2547C257.529 67.5356 257.026 66.9669 256.373 66.6157C255.704 66.2645 254.951 66.1976 254.231 66.4317C253.511 66.6491 252.942 67.1509 252.59 67.8031L249.945 72.8875C249.226 74.259 249.761 75.9649 251.134 76.6673Z" fill="#888888"/>
<path fill-rule="evenodd" clip-rule="evenodd" d="M254.75 77.0513C253.461 76.3154 253.026 74.6596 253.762 73.3718L256.993 67.7857C257.729 66.4978 259.387 66.063 260.676 66.7989C261.965 67.5348 262.4 69.1905 261.663 70.4784L258.433 76.0645C257.696 77.3523 256.039 77.7872 254.75 77.0513Z" fill="#EDF7FF"/>
<path d="M256.089 77.6686C255.587 77.6686 255.068 77.5348 254.616 77.2672C253.21 76.4644 252.725 74.6581 253.545 73.2532L256.776 67.6671C257.161 66.9814 257.797 66.4964 258.567 66.2957C259.32 66.095 260.124 66.1953 260.793 66.5967C262.199 67.3995 262.685 69.2058 261.865 70.6107L258.634 76.1968C258.249 76.8825 257.613 77.3675 256.843 77.5682C256.608 77.6351 256.357 77.6686 256.089 77.6686ZM254.884 76.8324C256.056 77.5013 257.546 77.1 258.215 75.9459L261.446 70.3598C262.116 69.1891 261.714 67.7006 260.559 67.0316C259.387 66.3626 257.897 66.764 257.228 67.918L253.997 73.5041C253.31 74.6748 253.712 76.1634 254.884 76.8324Z" fill="#888888"/>
<path fill-rule="evenodd" clip-rule="evenodd" d="M256.273 80.3785C255.202 79.074 255.386 77.1674 256.675 76.0802L259.922 73.4042C261.228 72.3339 263.136 72.5178 264.224 73.8056C265.296 75.1102 265.112 77.0168 263.823 78.1039L260.575 80.7799C259.269 81.8503 257.344 81.6664 256.273 80.3785Z" fill="#EDF7FF"/>
<path d="M258.633 81.7344C258.533 81.7344 258.416 81.7344 258.315 81.7177C257.445 81.6341 256.641 81.216 256.089 80.5302C254.934 79.1254 255.118 77.0515 256.524 75.8807L259.772 73.2047C260.458 72.6361 261.312 72.3852 262.182 72.4688C263.053 72.5525 263.856 72.9706 264.409 73.6563C264.978 74.342 265.229 75.195 265.145 76.0647C265.061 76.9344 264.643 77.7372 263.957 78.2891L260.709 80.9651C260.14 81.4668 259.403 81.7344 258.633 81.7344ZM261.864 72.9539C261.228 72.9539 260.609 73.1713 260.09 73.5894L256.842 76.2654C256.273 76.7337 255.905 77.4194 255.838 78.1553C255.771 78.8912 255.988 79.6271 256.474 80.1957C256.943 80.7644 257.629 81.1323 258.366 81.1992C259.102 81.2661 259.839 81.0487 260.408 80.5637L263.655 77.8877C264.844 76.9009 265.011 75.1448 264.024 73.9574C263.471 73.3051 262.684 72.9539 261.864 72.9539Z" fill="#888888"/>
<path d="M252.372 79.4447C252.255 79.4447 252.154 79.3611 252.121 79.2607L251.619 77.2537C251.585 77.1199 251.669 76.9861 251.803 76.9527C251.937 76.9192 252.071 77.0029 252.104 77.1367L252.606 79.1437C252.64 79.2775 252.556 79.4112 252.422 79.4447C252.405 79.4447 252.389 79.4447 252.372 79.4447Z" fill="#888888"/>
<path fill-rule="evenodd" clip-rule="evenodd" d="M264.292 83.1817C262.969 82.613 262.367 81.0743 262.936 79.7698L264.526 76.0736C265.665 73.431 268.728 72.2101 271.373 73.3474L267.724 81.8102C267.138 83.1315 265.614 83.7503 264.292 83.1817Z" fill="#EDF7FF"/>
<path d="M265.313 83.6527C264.945 83.6527 264.56 83.5858 264.192 83.4186C263.488 83.1175 262.953 82.5656 262.668 81.8465C262.384 81.144 262.4 80.3579 262.702 79.6555L264.292 75.9593C265.481 73.1997 268.695 71.9119 271.473 73.1161L271.708 73.2164L267.958 81.9134C267.473 83.0005 266.418 83.6527 265.313 83.6527ZM269.314 73.183C267.389 73.183 265.564 74.3035 264.761 76.1767L263.17 79.8729C262.919 80.4416 262.919 81.0938 263.137 81.6792C263.371 82.2646 263.823 82.7162 264.392 82.967C265.581 83.4855 266.97 82.9336 267.489 81.7461L271.038 73.5175C270.469 73.2833 269.883 73.183 269.314 73.183Z" fill="#888888"/>
<path fill-rule="evenodd" clip-rule="evenodd" d="M276.563 86.0087C275.14 85.6073 274.303 84.1188 274.705 82.6972L276.446 76.4922C276.848 75.0706 278.338 74.2344 279.761 74.6358C281.184 75.0372 282.021 76.5257 281.619 77.9473L279.878 84.1522C279.476 85.5739 278.003 86.4101 276.563 86.0087Z" fill="#EDF7FF"/>
<path d="M277.299 86.3613C277.032 86.3613 276.764 86.3279 276.496 86.2443C274.939 85.8094 274.018 84.1871 274.454 82.615L276.195 76.41C276.63 74.8546 278.254 73.9347 279.827 74.3696C280.58 74.587 281.217 75.072 281.602 75.7578C281.987 76.4435 282.087 77.2295 281.869 77.9989L280.128 84.2038C279.911 84.9564 279.425 85.592 278.739 85.9767C278.287 86.2443 277.785 86.3613 277.299 86.3613ZM279.024 74.771C277.952 74.771 276.981 75.4734 276.68 76.5438L274.939 82.7488C274.571 84.0366 275.341 85.3913 276.63 85.7592C277.249 85.9265 277.919 85.8596 278.488 85.5418C279.057 85.224 279.459 84.7056 279.643 84.07L281.384 77.8651C281.551 77.2463 281.484 76.5773 281.166 76.0086C280.848 75.44 280.329 75.0386 279.693 74.8546C279.459 74.8044 279.241 74.771 279.024 74.771Z" fill="#888888"/>
<path fill-rule="evenodd" clip-rule="evenodd" d="M271.005 84.4582C269.381 84.0066 268.427 82.3174 268.896 80.6951L270.436 75.1759C270.888 73.5535 272.579 72.6002 274.202 73.0685C275.826 73.5201 276.78 75.2093 276.312 76.8316L274.771 82.3508C274.32 83.9732 272.629 84.9098 271.005 84.4582Z" fill="#EDF7FF"/>
<path d="M271.825 84.8273C271.524 84.8273 271.222 84.7938 270.938 84.7102C270.084 84.476 269.381 83.9241 268.946 83.1548C268.511 82.3854 268.41 81.499 268.645 80.646L270.185 75.1268C270.67 73.3707 272.495 72.3505 274.252 72.8355C275.106 73.0696 275.809 73.6216 276.244 74.3909C276.68 75.1603 276.78 76.0467 276.546 76.8996L275.006 82.4189C274.771 83.2718 274.219 83.9743 273.449 84.4091C272.947 84.6935 272.394 84.8273 271.825 84.8273ZM273.365 73.2202C272.143 73.2202 271.005 74.023 270.67 75.2606L269.13 80.7798C268.929 81.499 269.013 82.2516 269.381 82.9039C269.749 83.5562 270.352 84.0245 271.072 84.2251C271.792 84.4258 272.545 84.3422 273.198 83.9743C273.851 83.6063 274.319 83.0042 274.52 82.2851L276.06 76.7658C276.261 76.0467 276.177 75.2941 275.809 74.6418C275.441 73.9895 274.838 73.5212 274.118 73.3205C273.884 73.2536 273.616 73.2202 273.365 73.2202Z" fill="#888888"/>
<path d="M264.074 125.331C264.007 125.331 263.957 125.314 263.906 125.264C263.806 125.18 263.789 125.013 263.89 124.913L269.632 118.423C269.648 118.407 269.665 118.39 269.682 118.373L275.574 114.593C275.691 114.527 275.842 114.56 275.926 114.66C275.993 114.777 275.959 114.928 275.859 115.012L270 118.775L264.275 125.247C264.208 125.314 264.141 125.331 264.074 125.331Z" fill="#EDF7FF"/>
<path fill-rule="evenodd" clip-rule="evenodd" d="M312.688 31.5547L306.762 37.9938L312.537 39.3652" fill="#EDF7FF"/>
<path d="M312.537 39.6175C312.52 39.6175 312.503 39.6175 312.487 39.6175L306.711 38.246C306.628 38.2293 306.561 38.1624 306.527 38.0788C306.494 37.9952 306.527 37.8948 306.577 37.8279L312.503 31.3888C312.604 31.2885 312.754 31.2718 312.855 31.3721C312.955 31.4725 312.972 31.623 312.872 31.7233L307.23 37.8446L312.587 39.1157C312.721 39.1492 312.805 39.283 312.771 39.4168C312.754 39.5339 312.637 39.6175 312.537 39.6175Z" fill="#888888"/>
<path d="M315.7 35.4515C316.153 35.4515 316.52 35.0846 316.52 34.632C316.52 34.1794 316.153 33.8125 315.7 33.8125C315.247 33.8125 314.88 34.1794 314.88 34.632C314.88 35.0846 315.247 35.4515 315.7 35.4515Z" fill="#888888"/>
<path d="M307.582 33.3773C308.035 33.3773 308.402 33.0104 308.402 32.5578C308.402 32.1052 308.035 31.7383 307.582 31.7383C307.129 31.7383 306.762 32.1052 306.762 32.5578C306.762 33.0104 307.129 33.3773 307.582 33.3773Z" fill="#888888"/>
<path fill-rule="evenodd" clip-rule="evenodd" d="M309.724 42.3147C309.724 42.3147 315.398 43.8868 318.278 41.0938C318.278 41.0938 319.583 45.4422 317.407 45.2415" fill="#EDF7FF"/>
<path d="M317.541 45.4893C317.491 45.4893 317.424 45.4893 317.374 45.4893C317.24 45.4726 317.139 45.3555 317.139 45.2217C317.139 45.0879 317.273 44.9875 317.407 44.9875C317.725 45.021 317.943 44.9374 318.11 44.7534C318.629 44.1346 318.361 42.4788 318.127 41.5589C316.888 42.5624 315.097 43.0642 312.904 43.014C311.113 42.9638 309.707 42.5792 309.657 42.5624C309.523 42.529 309.439 42.3952 309.489 42.2614C309.54 42.1276 309.657 42.044 309.791 42.0941C309.841 42.1109 315.348 43.5994 318.094 40.9401C318.161 40.8732 318.244 40.8565 318.328 40.8732C318.412 40.8899 318.479 40.9568 318.512 41.0405C318.596 41.3415 319.383 44.0175 318.512 45.0879C318.345 45.2551 318.043 45.4893 317.541 45.4893Z" fill="#888888"/>
<path d="M202.84 97.8538C202.756 97.8538 202.656 97.8036 202.622 97.72L200.563 93.7395C200.496 93.6224 200.546 93.4719 200.664 93.405C200.781 93.3381 200.931 93.3882 200.998 93.5053L203.057 97.4858C203.124 97.6029 203.074 97.7534 202.957 97.8203C202.907 97.8371 202.873 97.8538 202.84 97.8538Z" fill="#888888"/>
<path d="M248.791 170.518C248.741 170.518 248.69 170.502 248.64 170.468L244.874 167.809C244.757 167.725 244.74 167.575 244.807 167.458C244.89 167.341 245.041 167.324 245.158 167.391L248.925 170.05C249.042 170.134 249.059 170.284 248.992 170.401C248.941 170.485 248.875 170.518 248.791 170.518Z" fill="#888888"/>
</g>
<defs>
<radialGradient id="paint0_radial_14695_50284" cx="0" cy="0" r="1" gradientUnits="userSpaceOnUse" gradientTransform="translate(117.206 32.1518) rotate(-18.0158) scale(42.7222 33.7475)">
<stop offset="0.298" stop-color="#1E6BFF"/>
<stop offset="1" stop-color="#174ED1"/>
</radialGradient>
<clipPath id="clip0_14695_50284">
<rect width="343" height="193" fill="white"/>
</clipPath>
</defs>
</svg>
