<svg width="185" height="245" viewBox="0 0 185 245" fill="none" xmlns="http://www.w3.org/2000/svg">
<path opacity="0.51" d="M179.91 185.802L125.217 209.05L70.4817 232.34L56.3125 135.842L118.855 101.34L179.91 185.802Z" fill="#B9DCFF"/>
<path d="M130.316 221.011C160.517 208.166 182.707 192.388 179.88 185.771C177.054 179.153 150.28 184.201 120.079 197.046C89.8788 209.892 67.6881 225.669 70.5149 232.287C73.3417 238.905 100.116 233.857 130.316 221.011Z" fill="#B9DCFF"/>
<path d="M146.856 63.4168C153.672 85.0578 141.445 108.142 119.674 114.654C110.256 117.457 98.5653 119.931 84.0657 121.621C69.566 123.311 57.6276 123.558 47.796 122.981C25.0758 121.662 7.89107 102 9.54345 79.3693L10.0804 71.9907C12.4351 39.0139 37.9644 12.3852 70.888 8.55163C103.812 4.71807 134.794 24.7927 144.667 56.3268L146.856 63.4168Z" fill="#EDF7FF"/>
<path d="M57.4215 123.888C54.0754 123.888 50.8533 123.805 47.7138 123.599C36.6015 122.939 26.4394 117.993 19.0864 109.625C11.692 101.216 8.0567 90.4573 8.88289 79.3276L9.41993 71.9491C11.8159 38.7249 37.6343 11.8076 70.7645 7.93287C103.936 4.05809 135.248 24.3388 145.204 56.1202L147.435 63.169C150.781 73.8452 149.748 85.1398 144.461 94.9916C139.214 104.802 130.457 111.975 119.799 115.149C109.389 118.24 97.3677 120.59 84.0661 122.156C74.6475 123.352 65.6834 123.888 57.4215 123.888ZM78.8198 8.71607C76.176 8.71607 73.5322 8.88095 70.8884 9.1695C38.3366 12.9618 12.9726 39.3845 10.6179 72.0315L10.0809 79.4101C9.29599 90.21 12.8073 100.68 19.9951 108.801C27.1417 116.921 37.0146 121.744 47.7964 122.362C58.5369 122.981 70.7232 122.527 83.9422 121.002C97.1612 119.477 109.141 117.127 119.468 114.036C129.796 110.944 138.305 104.019 143.386 94.4557C148.468 84.8925 149.5 73.9277 146.237 63.5812L144.006 56.5324C135.042 27.8838 108.356 8.71607 78.8198 8.71607Z" fill="#11245A"/>
<path d="M160.531 104.266L142.149 91.0342H142.107C136.944 99.3608 128.847 105.915 118.685 108.965C109.06 111.851 97.1214 114.365 82.3326 116.097C67.5438 117.828 55.3163 118.075 45.3194 117.498C35.4051 116.921 26.5649 112.923 19.7488 106.739L19.1705 106.822L4.38173 122.445C1.24221 125.412 -0.286236 128.38 0.0442391 131.307C1.57269 144.25 40.1144 150.392 86.1744 145.034C132.234 139.675 168.38 124.835 166.852 111.933C166.48 109.007 164.291 106.451 160.531 104.266Z" fill="#11245A"/>
<path d="M144.213 94.7849C145.164 102.823 117.693 114.818 83.1994 118.817C48.706 122.815 20.2438 117.333 19.2937 109.295C18.3435 101.257 45.5665 91.4873 80.0598 87.4888C114.553 83.4904 143.263 86.7468 144.213 94.7849Z" fill="#EDF7FF"/>
<path d="M60.4791 120.796C52.5476 120.796 45.1119 120.26 38.5437 119.189C26.3988 117.21 19.1696 113.624 18.6739 109.378C18.3434 106.41 21.0699 101.711 36.1891 96.311C47.7145 92.1889 63.2468 88.8088 79.9771 86.8714C96.7075 84.934 112.612 84.6043 124.798 86.0058C140.743 87.8195 144.502 91.7355 144.833 94.7034C145.535 100.722 132.771 106.616 127.235 108.883C115.173 113.789 99.5578 117.54 83.2819 119.436C75.4744 120.343 67.7495 120.796 60.4791 120.796ZM108.068 86.418C99.4339 86.418 89.9327 86.9951 80.101 88.1493C63.4533 90.0867 48.0036 93.4256 36.5609 97.5064C25.5313 101.464 19.4588 105.751 19.8719 109.254C20.285 112.882 27.3489 116.138 38.709 117.993C51.1844 120.013 66.9234 120.096 83.0753 118.241C99.2686 116.344 114.76 112.635 126.698 107.77C137.686 103.319 143.965 98.4957 143.552 94.8683C143.139 91.3645 136.241 88.5615 124.591 87.2424C119.676 86.7065 114.099 86.418 108.068 86.418Z" fill="#11245A"/>
<path d="M58.1276 132.215C31.5244 132.215 12.522 126.732 9.91949 117.293C9.83687 116.963 10.0021 116.633 10.3326 116.551C10.6631 116.468 10.9936 116.633 11.0762 116.963C14.2983 128.546 45.9413 133.864 84.6483 129.329C102.618 127.227 119.596 123.105 132.443 117.623C145.043 112.264 152.561 106.163 153.676 100.433C153.759 100.104 154.048 99.8976 154.42 99.9388C154.75 100.021 154.957 100.31 154.916 100.681C152.52 113.336 122.364 126.197 84.8548 130.566C75.3537 131.679 66.3482 132.215 58.1276 132.215Z" fill="#EDF7FF"/>
<path d="M117.82 66.1374C120.174 84.0686 106.79 100.31 88.6551 101.34C83.6566 101.629 77.9559 101.629 71.4703 101.258C64.9847 100.887 59.3253 100.227 54.4095 99.3615C36.5225 96.27 25.1211 78.5862 29.5412 61.026C34.7875 40.0857 54.2029 25.8645 75.8078 27.1011C97.4126 28.3378 115.052 44.7437 117.82 66.1374Z" fill="url(#paint0_radial_13836_154452)"/>
<path d="M71.1375 62.0965C71.2201 60.4889 71.5919 59.0462 72.2115 57.6859C72.8312 56.3256 73.74 55.1302 74.8553 54.0996C75.9294 53.1103 77.1687 52.3684 78.5319 51.8737C79.8951 51.3791 81.3409 51.2142 82.7867 51.2966C84.2739 51.3791 85.6371 51.75 86.959 52.3684C88.2809 53.0279 89.3962 53.8935 90.3877 55.0065C91.3791 56.1195 92.0814 57.3973 92.5771 58.7988C93.0315 60.2003 93.238 61.7255 93.1141 63.3331C93.0315 64.6934 92.7836 65.9301 92.3292 67.0843C91.8748 68.2384 91.2551 69.3102 90.4703 70.217C89.3136 71.5773 87.9091 72.6079 86.298 73.2674C84.8935 73.8857 83.3237 74.1743 81.7953 74.133C80.2255 74.0918 78.7384 73.7208 77.3339 73.0201C76.0533 72.3605 74.8966 71.4949 73.9465 70.3819C72.9551 69.2277 72.2115 67.9499 71.7158 66.5072C71.2201 65.1881 71.0549 63.7041 71.1375 62.0965ZM76.4251 62.4263C76.3011 64.2812 76.7555 65.8888 77.7883 67.2079C78.821 68.527 80.1429 69.2277 81.7127 69.3514C83.3237 69.4339 84.7283 68.898 85.8849 67.7026C87.0416 66.5072 87.7025 64.982 87.7852 63.0858C87.9091 61.1896 87.4547 59.582 86.422 58.263C85.3892 56.9439 84.1086 56.2431 82.4563 56.1195C80.8452 56.037 79.482 56.5729 78.284 57.7683C77.1686 59.0049 76.549 60.5301 76.4251 62.4263Z" fill="#EDF7FF"/>
<path d="M61.1003 52.0804L57.4651 50.3079C57.2172 50.1842 56.928 50.3079 56.8041 50.5552C54.0364 56.1613 54.0777 59.2116 54.0777 59.2116L54.0364 59.7063C53.9538 61.3963 53.4994 62.633 52.7558 63.4986C51.9709 64.323 50.8969 64.7352 49.5337 64.6528C48.1291 64.5704 47.0964 64.0345 46.4355 63.0452C45.7745 62.0559 45.5266 60.6131 45.6506 58.717L45.6919 58.0574C45.8985 56.2437 46.5594 51.6682 48.6662 47.0927C48.7901 46.8453 48.6662 46.5568 48.4183 46.4331L44.7418 44.7018C44.4939 44.5782 44.1635 44.7018 44.0808 44.9492C41.6436 50.2667 40.9 55.5017 40.6521 57.604C40.6521 57.6452 40.6108 57.6864 40.6108 57.7277L40.5695 58.1811C40.5695 58.3872 40.5282 58.5109 40.5282 58.5521L40.4869 58.9643C40.3216 62.0971 40.9413 64.5291 42.4698 66.3429C43.9569 68.1566 46.1463 69.1459 48.9967 69.3108C51.847 69.4757 54.119 68.7749 55.8127 67.0848C59.0349 63.8284 59.1588 59.1292 59.1588 59.1292C59.1588 59.088 59.1588 57.3155 61.3482 52.7399C61.4308 52.5338 61.3482 52.2041 61.1003 52.0804Z" fill="#EDF7FF"/>
<path d="M70.5572 90.4166C70.5159 90.4166 70.5159 90.4166 70.4746 90.4166C66.1784 90.1693 62.9149 88.6029 62.791 88.5204L65.0217 83.9861C65.4348 84.1922 74.8947 88.6029 81.2564 80.8945L85.1808 84.1098C81.4629 88.5616 76.3818 90.7464 70.5572 90.4166Z" fill="#EDF7FF"/>
<path d="M55.8945 80.771L53.7051 78.2977C53.5399 78.0916 53.5399 77.7618 53.7465 77.597C59.9842 71.9497 60.8517 68.4459 62.4214 62.1803C62.9998 59.9544 63.6194 57.3987 64.5695 54.3895C66.7589 47.5881 70.8898 44.3728 73.9467 42.8889C76.5492 41.6522 78.78 41.3637 79.8127 41.2812C80.1019 41.2812 80.3497 41.4874 80.3497 41.7759L80.3084 45.5682L80.3497 43.4247V45.1148C80.3497 45.3621 80.1432 45.6095 79.8953 45.6095C78.0777 45.7743 71.5508 46.9285 68.7418 55.7086C67.7916 58.5941 67.2133 61.0673 66.635 63.252C64.9826 69.8886 63.8673 74.2993 56.6381 80.8534C56.3903 81.0183 56.0598 80.9771 55.8945 80.771Z" fill="#F0C5FF"/>
<path d="M55.9772 61.0672L54.49 58.1405C54.3661 57.8932 54.49 57.5634 54.7379 57.4398C56.3489 56.739 61.5953 54.678 65.9328 56.4917C70.0224 58.1818 72.9553 57.1925 73.9468 56.739C74.1533 56.6154 74.4425 56.6978 74.5664 56.9039L76.4667 59.6245C76.6319 59.8718 76.5493 60.2016 76.3014 60.3665C74.8969 61.1497 70.4355 63.0458 64.2804 60.4901C61.5953 59.3772 57.8774 60.7787 56.5968 61.3146C56.3902 61.397 56.1011 61.2733 55.9772 61.0672Z" fill="#F0C5FF"/>
<path d="M76.8823 22.4838C75.8909 21.8655 75.4365 20.6289 75.8496 19.5159L81.9634 3.23361C83.0787 0.306917 86.59 -0.888493 89.2752 0.719126C91.795 2.2443 92.4146 5.62443 90.6383 7.97402L80.1457 21.8243C79.3609 22.896 77.9564 23.1434 76.8823 22.4838Z" fill="#1E6BFF"/>
<path d="M85.4338 22.8959C84.8968 21.8242 85.1859 20.5463 86.136 19.8456L99.8508 9.16933C102.329 7.23194 105.965 8.05636 107.369 10.8182C108.732 13.4563 107.493 16.6715 104.725 17.7433L88.532 24.0913C87.334 24.5448 86.0121 24.0501 85.4338 22.8959Z" fill="#1E6BFF"/>
<defs>
<radialGradient id="paint0_radial_13836_154452" cx="0" cy="0" r="1" gradientUnits="userSpaceOnUse" gradientTransform="translate(55.8638 30.9897) rotate(-18.2462) scale(107.618 85.9473)">
<stop offset="0.298" stop-color="#1E6BFF"/>
<stop offset="1" stop-color="#174ED1"/>
</radialGradient>
</defs>
</svg>
