<svg width="955" height="851" viewBox="0 0 955 851" fill="none" xmlns="http://www.w3.org/2000/svg">
<path fill-rule="evenodd" clip-rule="evenodd" d="M408.115 201.574L348.564 156.294C344.518 153.32 338.51 154.167 335.528 158.204C307.332 195.246 288.748 226.286 276.612 250.119C272.167 251.707 269.429 256.676 270.843 261.489L270.915 261.754C257.886 289.498 254.854 304.694 254.854 304.694L252.501 313.706C244.621 343.895 232.417 364.783 215.203 377.155C198.441 389.644 177.473 392.382 153.084 386.054C127.792 379.492 111.058 366.009 103.215 346.173C94.9209 326.22 95.7535 299.013 104.575 265.22L107.75 253.054C117.907 221.531 146.657 140.95 200.6 65.4617C203.582 61.4246 202.735 55.4317 198.69 52.4574L138.904 8.07857C134.858 5.10435 128.85 5.95101 125.867 9.98808C63.0938 97.1367 30.0489 188.631 18.3628 226.011C17.6759 226.795 17.4407 227.697 17.2055 228.598L15.0884 236.708L13.3242 243.467L11.3248 251.127C-3.14175 306.549 -0.431701 353.437 20.0239 391.46C40.4796 429.482 76.2251 455.115 127.261 468.357C177.844 481.482 221.922 477.043 257.705 452.651C327.445 405.317 346.494 321.256 346.494 321.256C346.5 321.233 346.51 321.192 346.524 321.131L346.525 321.128C346.579 320.893 346.699 320.375 346.923 319.563C368.244 318.461 392.482 319.672 414.119 326.598C409.125 336.953 404.38 346.924 399.803 356.542L399.79 356.568C398.77 358.712 397.758 360.839 396.753 362.949L396.126 364.266C345.289 470.961 316.751 530.857 184.222 610.104C179.669 612.774 178.256 618.183 180.924 622.724L211.606 674.953C214.274 679.494 220.141 681.015 224.125 678.678C378.093 586.473 413.987 510.661 467.608 397.405L467.9 396.788C472.931 386.035 478.181 374.9 483.76 363.319C512.81 376.678 539.877 383.556 563.804 386.527C559.574 396.611 556.022 407.161 553.146 418.177C545.737 446.563 543.766 474.437 547.233 501.797C550.7 529.157 559.39 554.986 573.301 579.283C586.879 603.012 603.89 622.821 625.24 638.945C647.709 656.322 673.514 668.31 701.751 674.674C729.536 680.921 757.947 681.077 785.963 675.356C817.611 668.654 846.723 655.039 872.278 634.729C889.963 620.554 904.956 603.758 917.259 584.338C929.561 564.918 938.604 543.21 944.837 519.329C952.364 490.491 954.335 462.618 951.32 435.375C948.304 408.132 939.497 382.754 925.919 359.025C912.342 335.296 894.878 315.369 873.529 299.245C852.18 283.121 828.633 271.72 802.438 264.923C776.243 258.126 750.109 256.637 723.584 260.339C697.06 264.04 672.52 273.068 649.633 286.855C639.815 292.915 630.647 299.541 622.12 306.765C603.668 310.26 566.193 313.117 519.556 292.613C523.783 284.697 528.195 276.587 532.811 268.268C615.013 119.685 737.282 122.016 770.503 125.813C775.252 126.081 779.922 122.96 780.649 118.336L787.07 88.2361L778.862 127.017L793.707 59.155C795.12 53.7461 791.55 48.9707 786.016 48.0178C767.493 45.1422 725.776 42.5118 674.617 55.7229C613.588 71.6698 527.615 114.841 463.863 229.704C458.985 238.539 454.336 247.149 449.89 255.543C430.07 247.926 409.272 243.779 389.11 241.873C394.983 233.315 401.657 223.999 409.239 213.894C413.125 210.091 412.161 204.549 408.115 201.574ZM655.02 534.095C641.48 506.527 638.836 476.012 647.539 442.669C656.36 408.875 673.588 383.517 698.89 366.027C724.191 348.537 751.52 343.601 779.973 350.984C808.878 358.484 829.875 375.96 843.415 403.528C856.955 431.096 859.599 461.61 850.778 495.404C842.074 528.747 824.846 554.105 799.545 571.595C774.244 589.085 747.366 594.139 718.461 586.639C690.008 579.256 668.56 561.663 655.02 534.095Z" fill="#F7F7F7"/>
<path d="M519.973 734.849L509.389 745.948C509.389 745.948 464.689 721.514 449.956 718.118C435.222 714.722 420.363 724.081 420.363 724.081L543.173 808.192L570.898 769.098L519.973 734.849Z" fill="#F7F7F7"/>
<path d="M543.09 808.814C542.965 808.814 542.841 808.772 542.758 808.689L419.948 724.578C419.782 724.454 419.657 724.247 419.657 724.04C419.657 723.833 419.782 723.626 419.948 723.543C420.114 723.46 435.221 714.101 450.038 717.497C464.108 720.727 504.367 742.511 509.223 745.161L519.515 734.393C519.723 734.186 520.055 734.145 520.304 734.311L571.188 768.601C571.312 768.684 571.437 768.85 571.437 769.015C571.478 769.181 571.437 769.347 571.312 769.471L543.588 808.565C543.505 808.731 543.297 808.814 543.09 808.814ZM421.483 724.123L542.965 807.364L569.984 769.305L520.055 735.636L509.804 746.362C509.596 746.569 509.306 746.61 509.057 746.486C508.6 746.238 464.274 722.052 449.789 718.739C437.421 715.882 424.762 722.259 421.483 724.123Z" fill="#888888"/>
<path d="M416.296 559.67L399.612 562.693C399.612 562.693 377.905 516.683 367.986 505.294C358.066 493.905 340.552 492.704 340.552 492.704L390.19 632.848L434.516 617.152L416.296 559.67Z" fill="#F7F7F7"/>
<path d="M390.192 633.469C390.109 633.469 390.026 633.469 389.943 633.427C389.777 633.344 389.694 633.22 389.611 633.055L339.972 492.953C339.889 492.745 339.93 492.538 340.055 492.373C340.179 492.207 340.387 492.124 340.594 492.124C340.76 492.124 358.483 493.45 368.485 504.921C372.635 509.684 379.235 520.824 388.116 538.01C394.01 549.399 398.949 559.794 400.028 562.03L416.214 559.09C416.505 559.049 416.837 559.214 416.92 559.504L435.099 616.986C435.182 617.317 435.016 617.649 434.725 617.773L390.399 633.469C390.316 633.469 390.233 633.469 390.192 633.469ZM341.466 493.45L390.565 632.061L433.729 616.779L415.882 560.374L399.737 563.314C399.447 563.356 399.198 563.231 399.073 562.983C398.866 562.527 377.284 516.931 367.53 505.708C359.188 496.141 345.243 493.905 341.466 493.45Z" fill="#888888"/>
<ellipse cx="55.7024" cy="51.2351" rx="55.7024" ry="51.2351" transform="matrix(0.99283 0.119534 -0.119542 0.992829 633.081 355)" fill="#F7F7F7"/>
<path d="M703.627 461.437C703.586 461.437 703.544 461.437 703.503 461.437C703.17 461.354 702.963 461.023 703.046 460.691C703.544 458.579 704.042 456.509 704.499 454.438C711.388 425.241 717.365 400.062 691.591 382.544C687.98 380.101 684.203 379.562 680.343 380.929C660.048 388.093 642.782 444.706 642.616 445.285C642.533 445.617 642.16 445.782 641.828 445.7C641.496 445.617 641.33 445.244 641.413 444.913C641.454 444.789 645.812 430.335 652.702 415.219C661.957 394.802 671.13 382.875 679.928 379.728C684.203 378.237 688.354 378.817 692.296 381.509C704.416 389.75 710.517 400.062 711.513 414.06C712.384 426.442 709.147 440.192 705.744 454.686C705.246 456.757 704.748 458.828 704.291 460.94C704.167 461.271 703.918 461.437 703.627 461.437Z" fill="#888888"/>
<path fill-rule="evenodd" clip-rule="evenodd" d="M533.254 494.526L567.827 490.882L594.805 454.396C597.834 450.297 602.939 448.226 608.003 449.054L638.425 454.148L641.413 445.078C641.413 445.078 652.744 456.012 667.976 461.354C683.208 466.696 704.831 460.816 704.831 460.816L704.167 467.856L753.764 480.653C760.986 482.516 766.091 488.935 766.257 496.39L768.042 574.04C767.419 582.613 759.118 588.452 750.818 586.133L729.817 580.625L728.157 598.681L589.285 557.599L589.326 552.34L570.4 529.769L545.623 518.09L533.254 494.526Z" fill="#D7EAFF"/>
<path fill-rule="evenodd" clip-rule="evenodd" d="M527.57 612.638L430.16 632.64L410.155 542.815L502.377 538.3L589.286 557.599L728.158 598.681L730.648 647.177C731.022 654.424 726.871 661.133 720.272 664.073L650.629 695.009L593.187 790.84L497.687 724.993L558.407 639.308L527.57 612.638Z" fill="#888888"/>
<path fill-rule="evenodd" clip-rule="evenodd" d="M587.254 541.406L584.432 533.289L562.643 539.543C559.115 540.578 557.04 544.264 558.077 547.784C559.115 551.304 562.809 553.375 566.336 552.34L579.078 549.026L619.876 557.392L615.519 522.522L581.693 511.879L587.254 541.406Z" fill="#F7F7F7"/>
<path d="M619.876 557.972C619.835 557.972 619.793 557.972 619.752 557.972L579.078 549.606L566.461 552.919C564.593 553.458 562.642 553.209 560.941 552.298C559.239 551.346 557.994 549.813 557.454 547.95C556.915 546.086 557.122 544.098 558.077 542.4C559.032 540.702 560.567 539.46 562.435 538.922L584.224 532.668C584.556 532.585 584.888 532.751 584.971 533.041L585.054 533.248L581.029 511.961C580.987 511.754 581.07 511.547 581.236 511.382C581.402 511.216 581.61 511.175 581.817 511.257L615.684 521.859C615.933 521.942 616.099 522.149 616.099 522.356L620.457 557.226C620.499 557.433 620.416 557.641 620.25 557.765C620.208 557.889 620.042 557.972 619.876 557.972ZM579.078 548.322C579.119 548.322 579.161 548.322 579.202 548.322L619.171 556.522L614.979 522.895L582.481 512.707L587.877 541.241C587.918 541.572 587.752 541.862 587.42 541.945C587.088 542.028 586.798 541.862 586.673 541.531L584.017 533.952L562.808 540.081C561.273 540.537 559.986 541.531 559.198 542.939C558.409 544.347 558.243 545.962 558.658 547.536C559.115 549.068 560.111 550.352 561.522 551.139C562.933 551.925 564.552 552.091 566.129 551.677L578.912 548.322C578.995 548.364 579.036 548.322 579.078 548.322Z" fill="#888888"/>
<path d="M684.827 464.584C679.847 464.584 674.825 463.963 669.803 462.721C655.235 459.035 642.825 450.379 634.94 438.287C627.012 426.194 624.522 412.155 627.926 398.737C634.94 371.072 665.155 354.756 695.245 362.376C709.813 366.061 722.222 374.717 730.108 386.81C738.035 398.902 740.526 412.942 737.122 426.36C733.719 439.778 724.837 450.959 712.095 457.834C703.795 462.265 694.415 464.584 684.827 464.584ZM680.345 361.754C656.314 361.754 634.815 376.58 629.129 399.068C625.809 412.155 628.258 425.821 635.977 437.624C643.739 449.427 655.858 457.917 670.135 461.52C684.412 465.123 699.105 463.425 711.556 456.674C723.965 449.965 732.64 439.073 735.96 425.987C739.28 412.9 736.832 399.234 729.112 387.431C721.351 375.628 709.232 367.138 694.954 363.535C690.057 362.334 685.159 361.754 680.345 361.754Z" fill="#888888"/>
<path d="M716.039 527.781C715.997 527.781 715.956 527.781 715.914 527.781L696.325 523.806C695.993 523.723 695.785 523.391 695.827 523.06C695.91 522.729 696.242 522.522 696.574 522.563L715.416 526.373V515.399C715.416 515.067 715.707 514.777 716.039 514.777C716.371 514.777 716.661 515.067 716.661 515.399V527.16C716.661 527.367 716.578 527.533 716.412 527.657C716.329 527.74 716.205 527.781 716.039 527.781Z" fill="#888888"/>
<path fill-rule="evenodd" clip-rule="evenodd" d="M413.393 419.775L459.171 522.563L513.873 540.33L470.626 427.395L413.393 419.775Z" fill="#F7F7F7"/>
<path d="M513.873 540.951C513.79 540.951 513.749 540.951 513.666 540.909L458.964 523.143C458.798 523.102 458.673 522.977 458.59 522.812L412.811 420.023C412.728 419.816 412.728 419.568 412.894 419.402C413.019 419.236 413.268 419.112 413.475 419.154L470.709 426.774C470.917 426.815 471.124 426.939 471.207 427.188L514.454 540.123C514.537 540.33 514.496 540.578 514.33 540.785C514.205 540.909 514.039 540.951 513.873 540.951ZM459.628 522.066L512.794 539.336L470.17 427.975L414.43 420.562L459.628 522.066Z" fill="#888888"/>
<path fill-rule="evenodd" clip-rule="evenodd" d="M459.169 522.563L463.651 533.786L514.701 549.813L513.871 540.33L459.169 522.563Z" fill="#F7F7F7"/>
<path d="M514.702 550.435C514.619 550.435 514.578 550.435 514.495 550.393L463.445 534.366C463.279 534.325 463.113 534.159 463.071 533.993L458.63 522.77C458.547 522.563 458.589 522.273 458.755 522.108C458.921 521.942 459.17 521.859 459.419 521.942L514.121 539.708C514.37 539.791 514.536 539.998 514.536 540.247L515.366 549.731C515.366 549.938 515.283 550.145 515.117 550.269C514.951 550.393 514.827 550.435 514.702 550.435ZM464.109 533.289L513.997 548.944L513.291 540.785L460.249 523.557L464.109 533.289Z" fill="#888888"/>
<path fill-rule="evenodd" clip-rule="evenodd" d="M513.873 540.33L619.873 549.813V559.835L514.703 549.813L513.873 540.33Z" fill="#F7F7F7"/>
<path d="M619.873 560.457H619.831L514.619 550.434C514.329 550.393 514.08 550.186 514.038 549.855L513.208 540.371C513.208 540.205 513.25 539.998 513.374 539.874C513.499 539.75 513.706 539.667 513.872 539.708L619.914 549.192C620.246 549.234 620.495 549.482 620.495 549.813V559.835C620.495 560.001 620.412 560.167 620.288 560.291C620.205 560.374 620.039 560.457 619.873 560.457ZM515.283 549.275L619.25 559.131V550.393L514.536 541.034L515.283 549.275Z" fill="#888888"/>
<path fill-rule="evenodd" clip-rule="evenodd" d="M619.873 549.813L530.557 527.367L507.854 524.675L513.873 540.33L619.873 549.813Z" fill="#F7F7F7"/>
<path d="M619.874 550.435H619.833L513.832 540.951C513.583 540.909 513.375 540.785 513.292 540.537L507.274 524.841C507.191 524.634 507.233 524.427 507.357 524.22C507.482 524.054 507.689 523.971 507.938 523.971L530.641 526.663C530.682 526.663 530.682 526.663 530.724 526.663L620.082 549.151C620.414 549.234 620.58 549.523 620.538 549.855C620.455 550.228 620.206 550.435 619.874 550.435ZM514.33 539.75L612.113 548.488L530.433 527.947L508.81 525.379L514.33 539.75Z" fill="#888888"/>
<path d="M466.135 492.114C468.674 491.252 468.895 485.164 466.628 478.517C464.361 471.869 460.466 467.179 457.927 468.041C455.388 468.903 455.167 474.99 457.434 481.638C459.7 488.285 463.596 492.975 466.135 492.114Z" fill="#B0B0B0"/>
<path fill-rule="evenodd" clip-rule="evenodd" d="M548.156 496.349L558.407 515.482L551.518 524.51L543.092 509.021L548.156 496.349Z" fill="#F7F7F7"/>
<path fill-rule="evenodd" clip-rule="evenodd" d="M513.625 520.161C510.471 518.505 509.225 514.612 510.886 511.464L515.492 502.643C518.771 496.348 526.574 493.864 532.924 497.135L522.382 517.387C520.68 520.575 516.779 521.818 513.625 520.161Z" fill="#F7F7F7"/>
<path d="M516.612 521.528C515.533 521.528 514.413 521.279 513.375 520.741C509.93 518.96 508.561 514.653 510.345 511.216L514.952 502.395C516.612 499.206 519.435 496.845 522.879 495.727C526.324 494.651 529.977 494.94 533.214 496.638L533.753 496.928L522.921 517.759C521.634 520.12 519.144 521.528 516.612 521.528ZM513.915 519.623C516.778 521.114 520.306 519.996 521.8 517.138L532.052 497.425C529.271 496.141 526.158 495.976 523.253 496.887C520.14 497.881 517.567 500.034 516.031 502.933L511.424 511.754C509.93 514.612 511.051 518.132 513.915 519.623Z" fill="#888888"/>
<path fill-rule="evenodd" clip-rule="evenodd" d="M524.206 521.279C520.512 519.374 519.059 514.778 520.968 511.092L527.526 498.502C529.435 494.816 534.042 493.367 537.736 495.272C541.43 497.177 542.882 501.774 540.973 505.459L534.416 518.091C532.465 521.776 527.899 523.226 524.206 521.279Z" fill="#F7F7F7"/>
<path d="M527.693 522.77C526.406 522.77 525.119 522.48 523.916 521.859C519.89 519.789 518.354 514.819 520.429 510.843L526.987 498.253C527.983 496.307 529.685 494.899 531.801 494.236C533.877 493.574 536.118 493.781 538.027 494.775C539.978 495.769 541.389 497.467 542.053 499.579C542.717 501.649 542.509 503.886 541.513 505.791L534.956 518.38C533.503 521.155 530.639 522.77 527.693 522.77ZM524.497 520.741C526.157 521.611 528.025 521.776 529.809 521.197C531.594 520.658 533.005 519.416 533.877 517.801L540.434 505.211C541.306 503.554 541.472 501.691 540.891 499.91C540.351 498.129 539.106 496.721 537.487 495.851C535.827 494.982 533.96 494.816 532.175 495.396C530.39 495.934 528.979 497.177 528.108 498.792L521.55 511.382C519.765 514.777 521.093 519.002 524.497 520.741Z" fill="#888888"/>
<path fill-rule="evenodd" clip-rule="evenodd" d="M533.459 521.694C530.263 519.871 529.184 515.771 531.01 512.583L539.02 498.75C540.847 495.562 544.955 494.485 548.151 496.307C551.347 498.129 552.426 502.229 550.6 505.418L542.59 519.25C540.764 522.439 536.655 523.516 533.459 521.694Z" fill="#F7F7F7"/>
<path d="M536.781 523.226C535.536 523.226 534.249 522.895 533.129 522.232C529.642 520.244 528.439 515.771 530.472 512.293L538.483 498.461C539.437 496.763 541.014 495.562 542.924 495.065C544.791 494.568 546.783 494.816 548.444 495.81C551.93 497.798 553.134 502.271 551.1 505.749L543.09 519.581C542.135 521.279 540.558 522.48 538.649 522.977C538.068 523.143 537.445 523.226 536.781 523.226ZM533.793 521.155C536.698 522.812 540.392 521.818 542.052 518.96L550.062 505.128C551.722 502.229 550.726 498.543 547.863 496.887C544.957 495.23 541.263 496.224 539.603 499.082L531.593 512.914C529.891 515.813 530.887 519.499 533.793 521.155Z" fill="#888888"/>
<path fill-rule="evenodd" clip-rule="evenodd" d="M537.241 529.935C534.585 526.705 535.042 521.984 538.237 519.292L546.289 512.666C549.527 510.015 554.258 510.471 556.956 513.659C559.612 516.89 559.155 521.611 555.96 524.303L547.908 530.929C544.671 533.579 539.898 533.124 537.241 529.935Z" fill="#F7F7F7"/>
<path d="M543.092 533.289C542.843 533.289 542.553 533.289 542.304 533.248C540.146 533.041 538.153 532.006 536.784 530.308C533.92 526.829 534.376 521.694 537.863 518.795L545.915 512.168C547.616 510.76 549.733 510.139 551.891 510.346C554.049 510.553 556.041 511.589 557.411 513.287C558.822 514.985 559.445 517.097 559.237 519.25C559.03 521.404 557.992 523.392 556.291 524.758L548.239 531.384C546.828 532.627 545.001 533.289 543.092 533.289ZM551.103 511.547C549.525 511.547 547.99 512.086 546.703 513.121L538.651 519.747C537.24 520.907 536.327 522.605 536.161 524.427C535.995 526.249 536.535 528.071 537.738 529.479C538.9 530.887 540.602 531.799 542.428 531.964C544.254 532.13 546.081 531.591 547.492 530.39L555.543 523.764C558.49 521.321 558.905 516.972 556.457 514.032C555.087 512.417 553.136 511.547 551.103 511.547Z" fill="#888888"/>
<path d="M527.571 527.616C527.28 527.616 527.031 527.409 526.948 527.16L525.703 522.191C525.62 521.859 525.827 521.528 526.159 521.445C526.491 521.362 526.823 521.569 526.906 521.901L528.152 526.87C528.235 527.202 528.027 527.533 527.695 527.616C527.654 527.616 527.612 527.616 527.571 527.616Z" fill="#888888"/>
<path fill-rule="evenodd" clip-rule="evenodd" d="M557.123 536.892C553.844 535.484 552.35 531.674 553.761 528.444L557.704 519.292C560.526 512.748 568.121 509.725 574.679 512.541L565.631 533.496C564.178 536.768 560.401 538.3 557.123 536.892Z" fill="#F7F7F7"/>
<path d="M559.653 538.052C558.74 538.052 557.785 537.886 556.872 537.472C555.129 536.727 553.801 535.36 553.096 533.579C552.39 531.84 552.431 529.893 553.179 528.154L557.121 519.002C560.068 512.168 568.037 508.98 574.927 511.961L575.508 512.21L566.211 533.745C565.007 536.437 562.392 538.052 559.653 538.052ZM569.573 512.127C564.8 512.127 560.276 514.902 558.284 519.54L554.341 528.692C553.718 530.101 553.718 531.716 554.258 533.165C554.839 534.615 555.959 535.733 557.37 536.354C560.317 537.638 563.762 536.271 565.049 533.331L573.847 512.955C572.436 512.376 570.984 512.127 569.573 512.127Z" fill="#888888"/>
<path fill-rule="evenodd" clip-rule="evenodd" d="M587.545 543.891C584.017 542.897 581.942 539.211 582.938 535.691L587.254 520.327C588.25 516.807 591.944 514.736 595.472 515.73C599 516.724 601.075 520.41 600.079 523.93L595.762 539.294C594.766 542.814 591.114 544.885 587.545 543.891Z" fill="#F7F7F7"/>
<path d="M589.371 544.761C588.707 544.761 588.043 544.678 587.379 544.471C583.519 543.394 581.236 539.377 582.315 535.484L586.631 520.12C587.711 516.268 591.736 513.991 595.638 515.067C597.505 515.606 599.083 516.807 600.037 518.505C600.992 520.203 601.241 522.149 600.701 524.054L596.385 539.419C595.845 541.282 594.642 542.856 592.94 543.808C591.819 544.471 590.574 544.761 589.371 544.761ZM593.646 516.061C590.989 516.061 588.582 517.801 587.835 520.451L583.519 535.816C582.606 539.004 584.515 542.359 587.711 543.27C589.246 543.684 590.906 543.518 592.317 542.732C593.729 541.945 594.725 540.661 595.181 539.087L599.498 523.723C599.913 522.191 599.747 520.534 598.958 519.126C598.169 517.718 596.883 516.724 595.306 516.268C594.725 516.144 594.185 516.061 593.646 516.061Z" fill="#888888"/>
<path fill-rule="evenodd" clip-rule="evenodd" d="M573.764 540.04C569.738 538.921 567.373 534.739 568.535 530.722L572.353 517.055C573.474 513.038 577.666 510.677 581.692 511.837C585.717 512.955 588.083 517.138 586.921 521.155L583.103 534.822C581.982 538.839 577.79 541.158 573.764 540.04Z" fill="#F7F7F7"/>
<path d="M575.799 540.951C575.052 540.951 574.305 540.868 573.599 540.661C571.482 540.081 569.739 538.714 568.66 536.809C567.581 534.904 567.332 532.709 567.913 530.597L571.731 516.931C572.935 512.582 577.459 510.056 581.817 511.257C583.933 511.837 585.677 513.204 586.756 515.109C587.835 517.014 588.084 519.209 587.503 521.321L583.684 534.987C583.103 537.099 581.734 538.839 579.825 539.915C578.579 540.619 577.21 540.951 575.799 540.951ZM579.617 512.21C576.587 512.21 573.765 514.198 572.935 517.262L569.117 530.929C568.619 532.709 568.826 534.573 569.739 536.188C570.652 537.803 572.146 538.963 573.931 539.46C575.716 539.957 577.583 539.75 579.202 538.839C580.821 537.928 581.983 536.437 582.481 534.656L586.299 520.989C586.797 519.209 586.59 517.345 585.677 515.73C584.764 514.115 583.269 512.955 581.485 512.458C580.904 512.293 580.24 512.21 579.617 512.21Z" fill="#888888"/>
<path d="M556.58 641.254C556.414 641.254 556.289 641.213 556.165 641.089C555.916 640.882 555.874 640.468 556.123 640.219L570.359 624.151C570.401 624.109 570.442 624.068 570.484 624.026L585.093 614.667C585.384 614.501 585.757 614.584 585.965 614.833C586.131 615.122 586.048 615.495 585.799 615.702L571.272 625.02L557.078 641.047C556.912 641.213 556.746 641.254 556.58 641.254Z" fill="#F7F7F7"/>
<path fill-rule="evenodd" clip-rule="evenodd" d="M677.107 409.049L662.415 424.993L676.734 428.389" fill="#F7F7F7"/>
<path d="M676.732 429.01C676.691 429.01 676.649 429.01 676.608 429.01L662.289 425.614C662.081 425.573 661.915 425.407 661.832 425.2C661.749 424.993 661.832 424.744 661.957 424.579L676.649 408.635C676.898 408.386 677.272 408.345 677.521 408.593C677.77 408.842 677.811 409.214 677.562 409.463L663.575 424.62L676.857 427.768C677.189 427.85 677.396 428.182 677.313 428.513C677.272 428.803 676.981 429.01 676.732 429.01Z" fill="#888888"/>
<path d="M684.578 418.698C685.701 418.698 686.612 417.79 686.612 416.669C686.612 415.548 685.701 414.64 684.578 414.64C683.455 414.64 682.544 415.548 682.544 416.669C682.544 417.79 683.455 418.698 684.578 418.698Z" fill="#888888"/>
<path d="M664.449 413.563C665.572 413.563 666.482 412.654 666.482 411.533C666.482 410.413 665.572 409.504 664.449 409.504C663.326 409.504 662.415 410.413 662.415 411.533C662.415 412.654 663.326 413.563 664.449 413.563Z" fill="#888888"/>
<path fill-rule="evenodd" clip-rule="evenodd" d="M669.761 435.678C669.761 435.678 683.831 439.57 690.97 432.654C690.97 432.654 694.207 443.422 688.811 442.925" fill="#F7F7F7"/>
<path d="M689.145 443.546C689.02 443.546 688.854 443.546 688.73 443.546C688.398 443.505 688.149 443.215 688.149 442.884C688.149 442.552 688.481 442.304 688.813 442.304C689.601 442.387 690.141 442.18 690.556 441.724C691.843 440.192 691.179 436.092 690.598 433.814C687.526 436.299 683.085 437.541 677.648 437.417C673.207 437.293 669.721 436.34 669.597 436.299C669.265 436.216 669.057 435.885 669.182 435.553C669.306 435.222 669.597 435.015 669.929 435.139C670.053 435.181 683.708 438.866 690.515 432.282C690.681 432.116 690.888 432.075 691.096 432.116C691.303 432.157 691.469 432.323 691.552 432.53C691.76 433.276 693.71 439.902 691.552 442.552C691.137 442.966 690.39 443.546 689.145 443.546Z" fill="#888888"/>
<path d="M404.759 573.212C404.551 573.212 404.302 573.088 404.219 572.881L399.114 563.024C398.948 562.734 399.073 562.362 399.363 562.196C399.654 562.03 400.027 562.155 400.193 562.444L405.298 572.301C405.464 572.591 405.34 572.964 405.049 573.129C404.925 573.171 404.842 573.212 404.759 573.212Z" fill="#888888"/>
<path d="M518.686 753.154C518.562 753.154 518.437 753.112 518.313 753.03L508.975 746.445C508.684 746.238 508.643 745.865 508.809 745.575C509.016 745.285 509.39 745.244 509.68 745.41L519.018 751.994C519.309 752.201 519.351 752.574 519.184 752.864C519.06 753.071 518.894 753.154 518.686 753.154Z" fill="#888888"/>
<path d="M689.104 830.58C684.725 830.58 682.164 825.989 681.627 821.709C681.131 817.546 681.586 813.267 682.866 809.26C682.412 809.065 681.916 808.909 681.462 808.754C674.522 806.536 667.375 805.953 659.691 807.081C653.164 808.015 647.504 810.388 642.465 814.278C642.217 814.473 641.804 814.434 641.597 814.201C641.391 813.967 641.432 813.578 641.68 813.384C646.926 809.337 652.751 806.886 659.526 805.914C667.416 804.786 674.728 805.369 681.875 807.665C682.37 807.82 682.825 807.976 683.279 808.17C683.899 806.536 684.684 804.902 685.593 803.385C693.111 790.819 713.023 784.088 727.192 785.1C727.523 785.139 727.771 785.411 727.771 785.722C727.771 786.033 727.44 786.267 727.11 786.267C713.353 785.294 693.979 791.791 686.708 803.969C685.799 805.447 685.056 807.042 684.477 808.637C690.261 811.205 694.392 815.679 695.466 820.775C696.044 823.46 695.301 826.572 693.607 828.518C692.326 829.84 690.839 830.58 689.104 830.58ZM684.023 809.726C682.784 813.539 682.371 817.585 682.866 821.554C683.238 824.705 685.221 829.412 689.104 829.412C689.104 829.412 689.104 829.412 689.145 829.412C690.798 829.412 691.955 828.518 692.574 827.739C694.061 826.028 694.681 823.304 694.185 820.97C693.194 816.379 689.311 812.139 684.023 809.726Z" fill="#888888"/>
<path d="M451.261 307.482C449.983 307.482 448.704 307.381 447.459 307.18C444.263 306.677 441.201 305.536 438.375 303.758C435.448 301.946 432.992 299.665 431.041 296.948C429.089 294.23 427.676 291.11 426.835 287.655C425.994 284.199 425.759 280.777 426.23 277.456C426.667 274.135 427.777 270.947 429.527 267.995C431.175 265.177 433.329 262.762 435.953 260.816C438.577 258.87 441.504 257.494 444.7 256.723C447.897 255.951 451.16 255.783 454.39 256.287C457.62 256.79 460.682 257.931 463.541 259.675C466.401 261.42 468.824 263.701 470.741 266.418C472.659 269.136 474.072 272.323 474.947 275.812C475.654 278.731 475.956 281.616 475.754 284.4C475.586 287.185 474.913 289.869 473.837 292.418C472.255 296.075 469.934 299.229 466.94 301.779C464.282 303.993 461.153 305.67 457.822 306.576C455.635 307.18 453.448 307.482 451.261 307.482ZM427.811 287.42C428.652 290.741 429.998 293.76 431.848 296.377C433.699 298.96 436.087 301.175 438.88 302.919C441.572 304.597 444.499 305.704 447.594 306.207C450.891 306.744 454.222 306.542 457.519 305.637C460.682 304.764 463.71 303.154 466.267 301.04C469.16 298.625 471.381 295.606 472.895 292.083C473.938 289.668 474.543 287.084 474.745 284.4C474.913 281.717 474.644 278.932 473.971 276.114C473.13 272.725 471.784 269.706 469.934 267.056C468.083 264.439 465.762 262.258 463.037 260.581C460.312 258.903 457.351 257.796 454.256 257.327C451.16 256.857 448.031 256.991 444.97 257.729C441.908 258.467 439.082 259.809 436.592 261.654C434.035 263.5 431.983 265.814 430.402 268.498C428.719 271.35 427.676 274.403 427.239 277.59C426.802 280.777 427.003 284.098 427.811 287.42ZM451.497 296.713C449.007 296.713 446.652 295.908 444.398 294.331C441.302 292.15 439.216 288.963 438.173 284.837C437.13 280.676 437.501 276.886 439.216 273.497C441 270.142 443.691 267.962 447.257 267.089C450.857 266.217 454.256 266.888 457.385 269.069C460.48 271.249 462.566 274.47 463.609 278.63C464.618 282.757 464.282 286.547 462.566 289.902C460.816 293.291 458.125 295.438 454.525 296.344C453.482 296.612 452.472 296.713 451.497 296.713ZM439.183 284.635C440.125 288.493 442.11 291.479 445.003 293.526C447.897 295.539 450.992 296.176 454.289 295.371C457.586 294.566 460.076 292.553 461.657 289.466C463.272 286.313 463.575 282.757 462.633 278.865C461.657 274.973 459.706 271.954 456.813 269.907C453.953 267.895 450.824 267.257 447.527 268.062C444.263 268.867 441.773 270.847 440.158 274C438.544 277.154 438.207 280.71 439.183 284.635Z" fill="#888888"/>
<path d="M424.346 295.908C421.049 295.908 418.189 295.337 417.584 293.559C416.642 290.842 421.486 287.286 425.692 284.769C431.445 281.347 439.453 277.791 448.2 274.839C456.981 271.853 465.46 269.807 472.121 269.002C477 268.431 482.989 268.331 483.931 271.048C484.873 273.765 480.028 277.322 475.822 279.838C470.069 283.26 462.062 286.816 453.314 289.768C444.533 292.754 436.054 294.8 429.393 295.606C427.744 295.773 425.995 295.908 424.346 295.908ZM477.168 269.673C475.856 269.673 474.207 269.773 472.222 270.008C465.628 270.78 457.217 272.826 448.503 275.778C439.789 278.731 431.883 282.22 426.163 285.642C418.29 290.338 418.324 292.653 418.526 293.224C418.728 293.828 420.107 295.639 429.258 294.566C435.853 293.794 444.264 291.748 452.978 288.795C461.692 285.843 469.598 282.354 475.318 278.932C483.224 274.202 483.191 271.92 482.989 271.316C482.787 270.914 481.946 269.673 477.168 269.673Z" fill="#888888"/>
<path d="M624.933 270.576C624.685 270.576 624.437 270.498 624.231 270.382L620.058 268.086C619.397 267.736 619.191 266.958 619.563 266.335C625.635 256.376 625.305 251.474 624.644 242.603C624.396 239.413 624.148 235.795 624.148 231.36C624.107 221.245 628.527 215.137 632.245 211.791C635.343 208.99 638.4 207.628 639.929 207.083C640.3 206.966 640.672 206.966 641.003 207.122C641.333 207.278 641.622 207.55 641.705 207.9L642.407 210.04L643.151 212.258C643.192 212.335 643.192 212.413 643.192 212.452L643.316 212.88C643.399 213.191 643.233 213.503 642.903 213.619C642.82 213.658 642.738 213.658 642.655 213.658C642.572 213.736 642.448 213.775 642.325 213.853C639.805 214.864 631.625 219.027 631.666 231.399C631.666 235.601 631.914 239.102 632.162 242.175C632.864 251.785 633.319 258.126 626.048 269.992C625.883 270.304 625.553 270.498 625.222 270.576C625.139 270.576 625.057 270.576 624.933 270.576ZM640.424 208.134H640.383C638.937 208.678 636.045 209.962 633.112 212.608C629.56 215.798 625.346 221.634 625.387 231.36C625.387 235.756 625.676 239.374 625.883 242.526C626.544 251.629 626.916 256.648 620.637 266.919C620.595 266.958 620.637 267.036 620.678 267.075L624.85 269.37C624.892 269.409 624.933 269.37 624.933 269.37C624.974 269.37 624.974 269.331 625.015 269.331C632.08 257.776 631.625 251.59 630.964 242.175C630.758 239.063 630.468 235.562 630.468 231.321C630.427 218.249 639.226 213.775 641.911 212.724C641.953 212.724 641.994 212.686 641.994 212.647L640.548 208.211C640.548 208.173 640.507 208.134 640.466 208.134C640.466 208.134 640.466 208.134 640.424 208.134Z" fill="#888888"/>
<path d="M616.298 244.626C615.926 244.626 615.596 244.51 615.307 244.237L611.878 240.969C611.63 240.736 611.465 240.386 611.465 240.036C611.465 239.685 611.63 239.335 611.919 239.102C613.778 237.507 620.471 232.41 627.659 232.955C633.855 233.422 637.325 231.049 638.482 229.998C638.978 229.57 639.721 229.531 640.217 229.92L644.1 232.721C644.389 232.955 644.596 233.266 644.637 233.655C644.678 234.005 644.554 234.394 644.265 234.628C642.365 236.495 636.912 240.814 626.998 240.074C622.949 239.763 618.405 243.226 617.124 244.315C616.918 244.51 616.587 244.626 616.298 244.626ZM616.216 243.42C616.257 243.459 616.339 243.459 616.381 243.42C618.157 241.942 622.784 238.596 627.204 238.907C636.582 239.608 641.704 235.6 643.439 233.811C643.48 233.772 643.48 233.733 643.48 233.733C643.48 233.694 643.48 233.655 643.439 233.655L639.556 230.854C639.515 230.815 639.432 230.815 639.391 230.854C638.069 231.982 634.31 234.628 627.617 234.122C620.925 233.616 614.604 238.479 612.828 239.997C612.787 240.036 612.787 240.074 612.787 240.074C612.787 240.113 612.787 240.113 612.828 240.152L616.216 243.42Z" fill="#888888"/>
<path opacity="0.51" d="M361.005 292.343L327.61 314.335L294.192 336.36L273.153 274.236L310.384 243.849L361.005 292.343Z" fill="#F8E7FF"/>
<path d="M332.434 321.631C350.873 309.482 363.655 296.362 360.984 292.326C358.314 288.289 341.201 294.866 322.762 307.015C304.323 319.164 291.54 332.285 294.211 336.321C296.882 340.357 313.995 333.78 332.434 321.631Z" fill="#F8E7FF"/>
<path d="M324.341 215.376C331.468 228.868 326.163 245.617 312.54 252.558C306.644 255.551 299.204 258.601 289.81 261.472C280.417 264.343 272.544 265.95 265.966 266.757C250.767 268.631 237.016 257.701 235.376 242.53L234.839 237.584C232.414 215.484 246.095 194.781 267.425 188.265C288.756 181.748 311.69 191.282 322.035 210.95L324.341 215.376Z" fill="#F7F7F7"/>
<path d="M272.448 266.193C270.233 266.597 268.09 266.932 265.987 267.176C258.552 268.083 251.227 266.039 245.349 261.392C239.438 256.723 235.732 250.046 234.934 242.583L234.398 237.637C231.969 215.368 245.807 194.439 267.27 187.871C288.759 181.297 311.937 190.927 322.367 210.749L324.695 215.142C328.2 221.8 328.881 229.397 326.572 236.554C324.284 243.678 319.354 249.482 312.682 252.87C306.165 256.174 298.492 259.182 289.876 261.826C283.786 263.756 277.917 265.194 272.448 266.193ZM272.696 187.415C270.946 187.734 269.216 188.163 267.501 188.674C246.412 195.118 232.815 215.664 235.201 237.547L235.737 242.493C236.522 249.732 240.112 256.234 245.851 260.737C251.563 265.245 258.681 267.242 265.892 266.348C273.077 265.458 281.089 263.685 289.655 261.077C298.221 258.47 305.867 255.468 312.329 252.174C318.792 248.88 323.588 243.27 325.796 236.329C328.004 229.388 327.362 222.01 323.952 215.559L321.624 211.166C312.228 193.298 292.248 183.844 272.696 187.415Z" fill="#888888"/>
<path d="M338.327 240.746L324.56 234.216L324.532 234.221C322.12 240.353 317.553 245.668 311.194 248.915C305.172 251.987 297.573 255.094 287.993 258.027C278.413 260.961 270.349 262.603 263.661 263.43C257.029 264.246 250.694 262.67 245.435 259.404L245.062 259.528L237.161 271.651C235.441 273.994 234.788 276.143 235.36 278.039C237.936 286.417 264.191 285.82 294.032 276.706C323.874 267.592 346.008 253.405 343.437 245.054C342.837 243.163 341.079 241.737 338.327 240.746Z" fill="#11245A"/>
<path d="M326.376 236.448C327.976 241.65 311.241 252.907 288.892 259.723C266.542 266.538 247.039 266.352 245.439 261.15C243.839 255.947 260.679 246.193 283.028 239.377C305.378 232.562 324.776 231.245 326.376 236.448Z" fill="#F7F7F7"/>
<path d="M274.091 263.778C268.841 264.737 263.854 265.282 259.377 265.367C251.098 265.526 245.88 264.028 245.039 261.279C244.461 259.356 245.698 255.917 255.054 250.517C262.185 246.397 272.058 242.283 282.898 238.978C293.739 235.674 304.227 233.533 312.463 232.987C323.237 232.259 326.198 234.395 326.776 236.318C327.968 240.215 320.231 245.657 316.84 247.826C309.448 252.53 299.565 256.899 289.021 260.122C283.962 261.665 278.904 262.899 274.091 263.778ZM301.438 235.282C295.723 236.326 289.503 237.856 283.135 239.809C272.349 243.103 262.526 247.18 255.444 251.263C248.621 255.214 245.12 258.784 245.817 261.052C246.528 263.402 251.598 264.702 259.342 264.556C267.844 264.384 278.272 262.536 288.74 259.356C299.23 256.143 309.036 251.816 316.35 247.155C323.086 242.881 326.66 238.932 325.948 236.582C325.251 234.314 320.346 233.294 312.475 233.83C309.157 234.069 305.43 234.553 301.438 235.282Z" fill="#888888"/>
<path d="M273.917 271.616C256.308 274.833 243.067 273.503 240.203 267.573C240.109 267.365 240.178 267.127 240.387 267.033C240.596 266.938 240.835 267.007 240.929 267.215C244.462 274.489 266.05 274.181 291.124 266.501C302.765 262.938 313.505 258.158 321.347 252.978C329.04 247.91 333.279 242.965 333.325 239.039C333.34 238.811 333.507 238.64 333.758 238.622C333.986 238.637 334.158 238.803 334.176 239.053C334.119 247.715 315.711 259.869 291.41 267.294C285.255 269.179 279.359 270.623 273.917 271.616Z" fill="#F7F7F7"/>
<path d="M305.441 220.687C309.166 232.264 302.269 244.626 290.389 247.501C287.115 248.296 283.342 248.985 279.004 249.524C274.666 250.063 270.84 250.311 267.481 250.332C255.267 250.45 245.584 240.13 246.388 227.978C247.33 213.491 258.464 201.736 272.914 199.942C287.365 198.148 301.024 206.868 305.441 220.687Z" fill="url(#paint0_radial_13836_155085)"/>
<path d="M274.055 223.658C273.916 222.584 273.987 221.585 274.233 220.61C274.479 219.635 274.936 218.735 275.55 217.918C276.141 217.134 276.872 216.493 277.715 216.001C278.557 215.509 279.494 215.225 280.461 215.105C281.456 214.98 282.403 215.06 283.353 215.31C284.307 215.586 285.15 216.024 285.941 216.64C286.732 217.257 287.351 218.017 287.849 218.884C288.319 219.757 288.64 220.741 288.752 221.819C288.862 222.729 288.847 223.577 288.686 224.395C288.524 225.214 288.244 225.998 287.834 226.693C287.232 227.732 286.427 228.584 285.44 229.215C284.585 229.794 283.581 230.175 282.564 230.332C281.52 230.495 280.491 230.429 279.477 230.135C278.549 229.854 277.679 229.421 276.916 228.8C276.12 228.156 275.473 227.4 274.971 226.506C274.483 225.693 274.195 224.731 274.055 223.658ZM277.595 223.237C277.737 224.479 278.232 225.488 279.075 226.235C279.918 226.983 280.878 227.287 281.932 227.179C283.008 227.039 283.873 226.514 284.495 225.584C285.116 224.653 285.369 223.564 285.195 222.3C285.048 221.03 284.552 220.022 283.709 219.274C282.866 218.526 281.934 218.217 280.825 218.335C279.749 218.476 278.911 218.995 278.263 219.931C277.674 220.884 277.448 221.967 277.595 223.237Z" fill="#F7F7F7"/>
<path d="M266.202 218.245L263.582 217.512C263.403 217.46 263.226 217.577 263.174 217.756C262.019 221.799 262.415 223.812 262.415 223.812L262.448 224.144C262.597 225.272 262.446 226.145 262.058 226.808C261.638 227.448 260.977 227.85 260.065 227.961C259.125 228.076 258.377 227.846 257.82 227.272C257.263 226.697 256.924 225.773 256.777 224.503L256.725 224.062C256.642 222.837 256.527 219.73 257.369 216.449C257.421 216.27 257.304 216.094 257.125 216.042L254.482 215.342C254.303 215.29 254.099 215.412 254.074 215.585C253.104 219.398 253.244 222.951 253.334 224.371C253.339 224.399 253.317 224.431 253.322 224.458L253.349 224.763C253.374 224.9 253.362 224.986 253.367 225.014L253.389 225.291C253.658 227.384 254.362 228.918 255.593 229.933C256.797 230.953 258.365 231.343 260.272 231.107C262.179 230.872 263.598 230.133 264.515 228.81C266.254 226.267 265.769 223.143 265.769 223.143C265.764 223.116 265.549 221.943 266.446 218.651C266.476 218.505 266.381 218.297 266.202 218.245Z" fill="#F7F7F7"/>
<path d="M277.096 242.462C277.069 242.467 277.069 242.467 277.041 242.472C274.168 242.828 271.818 242.186 271.726 242.146L272.655 238.877C272.953 238.963 279.748 240.738 283.028 234.869L286.014 236.522C284.091 239.916 280.991 241.976 277.096 242.462Z" fill="#F7F7F7"/>
<path d="M266.222 237.854L264.473 236.482C264.339 236.366 264.299 236.148 264.416 236.014C267.863 231.523 268.014 229.101 268.296 224.766C268.41 223.223 268.511 221.458 268.776 219.352C269.404 214.588 271.75 211.962 273.594 210.61C275.167 209.478 276.609 209.017 277.283 208.838C277.474 208.803 277.663 208.909 277.698 209.1L278.129 211.614L277.897 210.191L278.101 211.309C278.131 211.472 278.024 211.661 277.86 211.691C276.677 212.02 272.496 213.572 271.697 219.72C271.417 221.744 271.333 223.45 271.214 224.966C270.922 229.556 270.717 232.608 266.724 237.818C266.58 237.957 266.356 237.97 266.222 237.854Z" fill="#F0C5FF"/>
<path d="M263.898 224.809L262.56 223.053C262.448 222.904 262.49 222.671 262.639 222.559C263.621 221.901 266.845 219.903 269.935 220.579C272.846 221.202 274.668 220.193 275.27 219.773C275.391 219.667 275.593 219.686 275.7 219.808L277.286 221.378C277.426 221.521 277.411 221.749 277.267 221.888C276.431 222.576 273.707 224.37 269.324 223.424C267.412 223.012 265.121 224.389 264.338 224.898C264.211 224.978 264.005 224.931 263.898 224.809Z" fill="#F0C5FF"/>
<path d="M273.071 196.758C272.34 196.468 271.89 195.705 272.029 194.919L274.109 183.408C274.494 181.337 276.673 180.122 278.645 180.861C280.497 181.565 281.316 183.726 280.424 185.496L275.152 195.927C274.762 196.731 273.862 197.064 273.071 196.758Z" fill="#1E6BFF"/>
<path d="M278.78 195.997C278.295 195.353 278.332 194.472 278.876 193.894L286.665 185.173C288.071 183.592 290.577 183.698 291.841 185.355C293.062 186.935 292.63 189.212 290.927 190.256L280.975 196.413C280.237 196.858 279.302 196.69 278.78 195.997Z" fill="#1E6BFF"/>
<path d="M287.316 257.487C310.503 251.135 328.436 242.835 327.371 238.947C326.306 235.06 306.645 237.058 283.458 243.41C260.271 249.762 242.338 258.063 243.404 261.95C244.469 265.838 264.129 263.84 287.316 257.487Z" fill="url(#paint1_radial_13836_155085)"/>
<defs>
<radialGradient id="paint0_radial_13836_155085" cx="0" cy="0" r="1" gradientUnits="userSpaceOnUse" gradientTransform="translate(260.182 204.925) rotate(-28.5868) scale(72.4112 57.8019)">
<stop offset="0.298" stop-color="#1E6BFF"/>
<stop offset="1" stop-color="#174ED1"/>
</radialGradient>
<radialGradient id="paint1_radial_13836_155085" cx="0" cy="0" r="1" gradientUnits="userSpaceOnUse" gradientTransform="translate(285.382 250.448) rotate(-15.3205) scale(31.5913 7.25193)">
<stop stop-color="#1E6BFF" stop-opacity="0.6"/>
<stop offset="1" stop-color="#1E6BFF" stop-opacity="0"/>
</radialGradient>
</defs>
</svg>
