<svg width="72" height="72" viewBox="0 0 72 72" fill="none" xmlns="http://www.w3.org/2000/svg">
<path d="M19.3339 46.5179C24.8035 46.5146 30.1916 47.825 35.0322 50.3359V25.3642C30.3756 22.3297 24.9157 20.7146 19.3339 20.7207C18.4625 20.6712 17.5889 20.6712 16.7175 20.7207V46.5179H19.3339Z" fill="black"/>
<path d="M19.3339 46.5179C24.8035 46.5146 30.1916 47.825 35.0322 50.3359V25.3642C30.3756 22.3297 24.9157 20.7146 19.3339 20.7207C18.4625 20.6712 17.5889 20.6712 16.7175 20.7207V46.5179H19.3339Z" fill="#B9DCFF"/>
<path d="M52.2256 46.6459H55.0912V21.5945C54.1368 21.5466 53.18 21.5466 52.2256 21.5945C46.1123 21.5886 40.1323 23.1507 35.0323 26.0858V50.3388C40.3339 47.9102 46.2351 46.6427 52.2256 46.6459Z" fill="black"/>
<path d="M52.2256 46.6459H55.0912V21.5945C54.1368 21.5466 53.18 21.5466 52.2256 21.5945C46.1123 21.5886 40.1323 23.1507 35.0323 26.0858V50.3388C40.3339 47.9102 46.2351 46.6427 52.2256 46.6459Z" fill="white"/>
<path d="M16.7175 53.9766C25.801 50.8736 32.4127 55.6422 34.5347 57.4982C34.9516 57.8628 35.5908 57.8756 36.0134 57.5177C44.501 50.3282 54.219 53.9766 54.219 53.9766" stroke="#1E6BFF" stroke-width="2.5" stroke-linecap="round"/>
<path d="M53.8196 20.1894C52.3681 19.9445 50.8982 19.8184 49.4253 19.8125C44.4 19.8085 39.4795 21.22 35.2503 23.8788C31.0102 21.2549 26.0905 19.878 21.0752 19.9117C19.6023 19.9176 18.1325 20.0437 16.681 20.2886C16.2055 20.3688 15.7749 20.6128 15.4668 20.9764C15.1587 21.3401 14.9932 21.7996 15.0002 22.2721V46.0745C14.9959 46.366 15.0572 46.6548 15.1797 46.9204C15.3023 47.186 15.4831 47.4219 15.7093 47.6113C15.9355 47.8007 16.2016 47.9389 16.4885 48.0161C16.7754 48.0933 17.0762 48.1077 17.3695 48.0581C20.2713 47.5659 23.2444 47.6476 26.1136 48.2982C28.9827 48.9489 31.69 50.1554 34.0758 51.8466L34.3188 51.9855H34.5415C34.7661 52.0771 35.007 52.1243 35.2503 52.1243C35.4936 52.1243 35.7345 52.0771 35.959 51.9855H36.1818L36.4248 51.8466C38.794 50.1176 41.4934 48.872 44.3631 48.1837C47.2328 47.4955 50.2144 47.3786 53.1311 47.8399C53.4243 47.8895 53.7251 47.8751 54.0121 47.7979C54.299 47.7207 54.565 47.5825 54.7913 47.3931C55.0175 47.2037 55.1983 46.9678 55.3208 46.7022C55.4434 46.4366 55.5047 46.1478 55.5004 45.8564V22.0539C55.4793 21.602 55.3011 21.1707 54.9954 20.8315C54.6897 20.4924 54.2748 20.2658 53.8196 20.1894ZM34.0974 48.2948C30.3509 46.3642 25.3085 45.3567 21.0752 45.3592C20.407 45.3592 17.9945 45.3592 17.306 45.3592V22.0353C17.9804 21.9973 20.4008 21.9973 21.0752 22.0353C25.3954 22.0307 30.4933 23.2724 34.0974 25.6057V48.2948ZM53.1946 45.4386C52.5061 45.4386 50.0936 45.4386 49.4253 45.4386C45.192 45.436 40.1497 46.4436 36.4032 48.3742V25.6057C40.0072 23.2724 45.1052 22.0307 49.4253 22.0353C50.0998 21.9973 52.5202 21.9973 53.1946 22.0353V45.4386Z" fill="#1E6BFF"/>
<path d="M52 11C50.6868 11 49.3864 11.2587 48.1732 11.7612C46.9599 12.2638 45.8575 13.0003 44.9289 13.9289C43.0536 15.8043 42 18.3478 42 21C41.9912 23.3091 42.7908 25.5485 44.26 27.33L42.26 29.33C42.1212 29.4706 42.0272 29.6492 41.9899 29.8432C41.9525 30.0372 41.9734 30.2379 42.05 30.42C42.133 30.5999 42.2677 30.7511 42.4368 30.8544C42.606 30.9577 42.802 31.0083 43 31H52C54.6522 31 57.1957 29.9464 59.0711 28.0711C60.9464 26.1957 62 23.6522 62 21C62 18.3478 60.9464 15.8043 59.0711 13.9289C57.1957 12.0536 54.6522 11 52 11Z" fill="#E276FC"/>
<path fill-rule="evenodd" clip-rule="evenodd" d="M50.9528 18.5007C50.6634 18.9788 50.0231 19.1421 49.5227 18.8656C49.0224 18.5891 48.8514 17.9773 49.1408 17.4993C49.6822 16.6052 50.6965 16 51.8601 16C53.5942 16 55 17.3431 55 19C55 20.0977 54.2952 20.994 53.43 21.5C52.7351 21.9065 53.1684 23 51.8573 23C51.2793 23 50.8107 22.5523 50.8107 22C50.8107 21.9649 50.8126 21.9302 50.8163 21.896C50.8453 21.3672 51.0921 20.9368 51.3609 20.6239C51.6447 20.2935 52.0178 20.0237 52.3032 19.8616C53.8906 18.96 51.9544 17.1154 50.9528 18.5007ZM51.8573 24C51.2793 24 50.8107 24.4477 50.8107 25C50.8107 25.5523 51.2793 26 51.8573 26C52.4354 26 52.904 25.5523 52.904 25C52.904 24.4477 52.4354 24 51.8573 24Z" fill="white"/>
</svg>
