<svg width="72" height="72" viewBox="0 0 72 72" fill="none" xmlns="http://www.w3.org/2000/svg">
<rect x="15" y="30" width="39" height="26" rx="3" fill="white"/>
<path d="M14.4631 27.3164C14.4631 22.8981 18.0448 19.3164 22.4631 19.3164H50.7263C52.9354 19.3164 54.7263 21.1073 54.7263 23.3164V29.5796H14.4631V27.3164Z" fill="#B9DCFF"/>
<path d="M50.2769 17.7954H45.6634V15.2574C45.6634 14.5991 45.1159 13.9709 44.4732 14.001C44.1594 14.0075 43.8602 14.1419 43.6383 14.3762C43.4164 14.6104 43.289 14.9262 43.2829 15.2574V17.7954H26.6192V15.2574C26.6192 14.5991 26.0716 13.9709 25.4289 14.001C25.1151 14.0075 24.8159 14.1419 24.594 14.3762C24.3721 14.6104 24.2447 14.9262 24.2386 15.2574V17.7954H19.6252C18.0473 17.7974 16.5347 18.4599 15.419 19.6376C14.3033 20.8152 13.6757 22.4119 13.6738 24.0774V51.718C13.6738 55.1832 16.3448 58 19.6252 58H50.2745C53.5573 58 56.2259 55.1832 56.2259 51.718V24.0774C56.2259 22.4118 55.5992 20.8143 54.4836 19.6363C53.368 18.4582 51.8549 17.7961 50.2769 17.7954ZM19.6252 20.3082H24.2386V21.7958C24.2386 22.4541 24.7862 23.0823 25.4289 23.0522C26.074 23.022 26.6192 22.4994 26.6192 21.7958V20.3082H43.2829V21.7958C43.2829 22.4541 43.8304 23.0823 44.4732 23.0522C45.1183 23.022 45.6634 22.4994 45.6634 21.7958V20.3082H50.2745C52.2432 20.3082 53.8453 21.9993 53.8453 24.0774V28.0577H16.0544V24.0774C16.0544 21.9993 17.6565 20.3082 19.6252 20.3082ZM50.2769 55.4872H19.6252C17.6565 55.4872 16.0544 53.7961 16.0544 51.718V30.5704H53.8453V51.718C53.8453 52.7173 53.4694 53.6756 52.8003 54.3824C52.1312 55.0891 51.2235 55.4865 50.2769 55.4872Z" fill="#1E6BFF"/>
<path d="M21.8268 38.0127V39.7748C21.8268 40.3491 22.2924 40.8148 22.8668 40.8148H24.6289C25.2032 40.8148 25.6689 40.3491 25.6689 39.7748V38.0127C25.6689 37.4383 25.2032 36.9727 24.6289 36.9727H22.8668C22.2924 36.9727 21.8268 37.4383 21.8268 38.0127Z" fill="#B9DCFF" stroke="#B9DCFF"/>
<path d="M21.8268 47.1259V48.888C21.8268 49.4624 22.2924 49.928 22.8668 49.928H24.6289C25.2032 49.928 25.6689 49.4624 25.6689 48.888V47.1259C25.6689 46.5516 25.2032 46.0859 24.6289 46.0859H22.8668C22.2924 46.0859 21.8268 46.5516 21.8268 47.1259Z" fill="#B9DCFF" stroke="#B9DCFF"/>
<path d="M29.7847 38.0127V39.7748C29.7847 40.3491 30.2504 40.8148 30.8247 40.8148H32.5868C33.1612 40.8148 33.6268 40.3491 33.6268 39.7748V38.0127C33.6268 37.4383 33.1612 36.9727 32.5868 36.9727H30.8247C30.2504 36.9727 29.7847 37.4383 29.7847 38.0127Z" fill="#B9DCFF" stroke="#B9DCFF"/>
<path d="M29.7847 47.1259V48.888C29.7847 49.4624 30.2504 49.928 30.8247 49.928H32.5868C33.1612 49.928 33.6268 49.4624 33.6268 48.888V47.1259C33.6268 46.5516 33.1612 46.0859 32.5868 46.0859H30.8247C30.2504 46.0859 29.7847 46.5516 29.7847 47.1259Z" fill="#B9DCFF" stroke="#B9DCFF"/>
<path d="M37.7423 38.0127V39.7748C37.7423 40.3491 38.2079 40.8148 38.7823 40.8148H40.5444C41.1188 40.8148 41.5844 40.3491 41.5844 39.7748V38.0127C41.5844 37.4383 41.1188 36.9727 40.5444 36.9727H38.7823C38.2079 36.9727 37.7423 37.4383 37.7423 38.0127Z" fill="#B9DCFF" stroke="#B9DCFF"/>
<path d="M39.8715 48.0604L43.7576 43.9781C43.7576 43.978 43.7577 43.978 43.7577 43.978C43.8406 43.8909 43.9398 43.821 44.05 43.773C44.1604 43.7249 44.2792 43.7 44.3996 43.7C44.52 43.7 44.6388 43.7249 44.7492 43.773C44.8595 43.821 44.9587 43.8909 45.0416 43.9781M39.8715 48.0604L40.5419 50.0098L45.0415 45.2833L45.0415 45.2833C45.2086 45.1078 45.3 44.8728 45.3 44.6307C45.3 44.3885 45.2086 44.1536 45.0416 43.9781M39.8715 48.0604L38.251 46.3583C38.1691 46.2698 38.0706 46.1983 37.9607 46.1486C37.8498 46.0986 37.73 46.072 37.6083 46.0709C37.4866 46.0698 37.3663 46.0942 37.2546 46.1422C37.1428 46.1902 37.0424 46.2607 36.9586 46.3487C36.8748 46.4367 36.8093 46.5406 36.7652 46.6538C36.7211 46.767 36.699 46.8879 36.7 47.0094C36.701 47.131 36.7251 47.2515 36.7711 47.3639C36.8167 47.4755 36.8833 47.5775 36.9676 47.6636L39.2016 50.0098C39.2016 50.0098 39.2016 50.0098 39.2016 50.0098C39.2882 50.1008 39.3918 50.1738 39.5069 50.2239C39.6221 50.274 39.7461 50.3 39.8717 50.3C39.9973 50.3 40.1214 50.274 40.2365 50.2239C40.3517 50.1738 40.4553 50.1008 40.5419 50.0098L39.8715 48.0604ZM45.0416 43.9781L44.8242 44.1848L45.0415 43.978C45.0416 43.978 45.0416 43.978 45.0416 43.9781Z" fill="#1E6BFF" stroke="#1E6BFF" stroke-width="0.6"/>
<path d="M57 26C55.6868 26 54.3864 26.2587 53.1732 26.7612C51.9599 27.2638 50.8575 28.0003 49.9289 28.9289C48.0536 30.8043 47 33.3478 47 36C46.9913 38.3091 47.7908 40.5485 49.26 42.33L47.26 44.33C47.1212 44.4706 47.0272 44.6492 46.9899 44.8432C46.9525 45.0372 46.9734 45.2379 47.05 45.42C47.1331 45.5999 47.2677 45.7511 47.4369 45.8544C47.606 45.9577 47.802 46.0083 48 46H57C59.6522 46 62.1957 44.9464 64.0711 43.0711C65.9464 41.1957 67 38.6522 67 36C67 33.3478 65.9464 30.8043 64.0711 28.9289C62.1957 27.0536 59.6522 26 57 26Z" fill="#E276FC"/>
<path d="M58.8614 32.667C60.9961 33.9791 62.064 34.6357 62.064 35.608C62.064 36.5803 60.9961 37.2369 58.8614 38.5491L58.8606 38.5496C56.6954 39.8798 55.6138 40.5443 54.8064 40.0559C54 39.5674 54 38.2472 54 35.608C54 32.9688 54 31.6486 54.8064 31.1601C55.6128 30.6717 56.6957 31.3364 58.8614 32.667Z" fill="white"/>
</svg>
