<svg width="72" height="72" viewBox="0 0 72 72" fill="none" xmlns="http://www.w3.org/2000/svg">
<g clip-path="url(#clip0_10606_32450)">
<path d="M34.4518 56.7896C34.4518 60.6646 29.8445 60.0639 24.1612 60.0639C18.4779 60.0639 13.8706 60.6646 13.8706 56.7896C13.8706 52.9146 18.4779 46.0312 24.1612 46.0312C29.8445 46.0312 34.4518 52.9146 34.4518 56.7896Z" fill="#B9DCFF"/>
<path d="M29.7746 39.4841C29.7746 42.5841 27.2615 45.0972 24.1615 45.0972C21.0615 45.0972 18.5485 42.5841 18.5485 39.4841C18.5485 36.3841 21.0615 33.8711 24.1615 33.8711C27.2615 33.8711 29.7746 36.3841 29.7746 39.4841Z" fill="#B9DCFF"/>
<path d="M25.0068 32C25.5891 32.1276 26.1784 32.2127 26.7396 32.4466C29.4126 33.5454 31.0542 35.5161 31.4541 38.4155C31.833 41.166 30.8859 43.4486 28.7742 45.235C28.5847 45.398 28.5777 45.4548 28.8162 45.554C31.2156 46.5677 33.1028 48.1911 34.4849 50.417C35.439 51.9482 36.0283 53.6141 36.2248 55.4147C36.3019 56.1094 36.3651 56.797 36.2809 57.4988C36.0494 59.3845 34.3025 60.9936 32.4223 61.0007C26.915 61.0149 21.4077 61.0149 15.9005 61.0007C14.0203 60.9936 12.2594 59.3916 12.0489 57.4988C11.8945 56.1448 12.091 54.8263 12.4768 53.5361C13.5783 49.8215 15.9005 47.1774 19.4083 45.5965C19.4574 45.5753 19.5065 45.5469 19.5626 45.5256C19.7591 45.4618 19.745 45.391 19.5977 45.2704C18.363 44.278 17.5141 43.0233 17.0791 41.485C16.5319 39.5213 16.7213 37.6286 17.6965 35.8493C18.7769 33.8786 20.4326 32.6451 22.6074 32.1418C22.8459 32.0851 23.0845 32.0425 23.316 32C23.8843 32 24.4455 32 25.0068 32ZM24.1579 58.711C26.8378 58.711 29.5178 58.7181 32.1908 58.711C33.3203 58.711 34.085 57.91 34.0569 56.7616C34.0359 56.1377 33.9868 55.521 33.8605 54.9114C33.4115 52.7989 32.4363 50.9912 30.8438 49.5451C28.3672 47.2908 25.4628 46.4897 22.2075 47.1065C20.1099 47.5034 18.3349 48.5455 16.8897 50.1476C15.1919 52.0262 14.35 54.245 14.2728 56.7757C14.2658 57.0877 14.3079 57.3996 14.4553 57.6831C14.8201 58.3849 15.3953 58.7181 16.1811 58.7181C18.833 58.7039 21.4919 58.711 24.1579 58.711ZM29.2653 39.4434C29.2793 36.5865 27.0273 34.2897 24.207 34.2755C21.3516 34.2543 19.0786 36.5369 19.0645 39.4221C19.0575 42.2789 21.3376 44.6041 24.1509 44.6041C26.9711 44.6112 29.2512 42.3073 29.2653 39.4434Z" fill="#1E6BFF"/>
<path d="M59 56.7077C59 60.5644 54.0751 59.9665 48 59.9665C41.9249 59.9665 37 60.5644 37 56.7077C37 52.8509 41.9249 46 48 46C54.0751 46 59 52.8509 59 56.7077Z" fill="white"/>
<path d="M54.0001 39.5C54.0001 42.5376 51.3138 45 48.0001 45C44.6864 45 42.0001 42.5376 42.0001 39.5C42.0001 36.4624 44.6864 34 48.0001 34C51.3138 34 54.0001 36.4624 54.0001 39.5Z" fill="white"/>
<path d="M48.6562 32C49.2385 32.1276 49.8278 32.2127 50.389 32.4466C53.062 33.5454 54.7036 35.5161 55.1035 38.4155C55.4824 41.166 54.5353 43.4486 52.4236 45.235C52.2341 45.398 52.2271 45.4548 52.4657 45.554C54.865 46.5677 56.7522 48.1911 58.1343 50.417C59.0884 51.9482 59.6777 53.6141 59.8742 55.4147C59.9513 56.1094 60.0145 56.797 59.9303 57.4988C59.6988 59.3845 57.9519 60.9936 56.0717 61.0007C50.5644 61.0149 45.0572 61.0149 39.5499 61.0007C37.6697 60.9936 35.9088 59.3916 35.6983 57.4988C35.544 56.1448 35.7404 54.8263 36.1263 53.5361C37.2277 49.8215 39.5499 47.1774 43.0577 45.5965C43.1068 45.5753 43.1559 45.5469 43.212 45.5256C43.4085 45.4618 43.3945 45.391 43.2471 45.2704C42.0124 44.278 41.1635 43.0233 40.7285 41.485C40.1813 39.5213 40.3707 37.6286 41.3459 35.8493C42.4263 33.8786 44.082 32.6451 46.2568 32.1418C46.4954 32.0851 46.7339 32.0425 46.9654 32C47.5337 32 48.0949 32 48.6562 32ZM47.8073 58.711C50.4873 58.711 53.1672 58.7181 55.8402 58.711C56.9697 58.711 57.7344 57.91 57.7063 56.7616C57.6853 56.1377 57.6362 55.521 57.5099 54.9114C57.0609 52.7989 56.0857 50.9912 54.4932 49.5451C52.0167 47.2908 49.1122 46.4897 45.8569 47.1065C43.7593 47.5034 41.9843 48.5455 40.5391 50.1476C38.8413 52.0262 37.9994 54.245 37.9223 56.7757C37.9152 57.0877 37.9573 57.3996 38.1047 57.6831C38.4695 58.3849 39.0448 58.7181 39.8305 58.7181C42.4824 58.7039 45.1413 58.711 47.8073 58.711ZM52.9147 39.4434C52.9287 36.5865 50.6767 34.2897 47.8564 34.2755C45.001 34.2543 42.728 36.5369 42.7139 39.4221C42.7069 42.2789 44.987 44.6041 47.8003 44.6041C50.6206 44.6112 52.9006 42.3073 52.9147 39.4434Z" fill="#1E6BFF"/>
<path d="M43.5416 25.4112C43.1369 28.7809 40.9298 30.1274 39.9766 31.1049C39.022 32.0852 39.1812 31.5564 39.2571 32.4642C39.2678 32.6421 39.2419 32.8203 39.1812 32.9878C39.1204 33.1553 39.0259 33.3086 38.9037 33.4382C38.7814 33.5678 38.6339 33.671 38.4702 33.7415C38.3065 33.8119 38.1301 33.8481 37.9519 33.8478H34.1647C33.9865 33.8479 33.8102 33.8116 33.6465 33.7411C33.4828 33.6706 33.3353 33.5674 33.213 33.4378C33.0906 33.3083 32.996 33.1551 32.935 32.9877C32.874 32.8203 32.8478 32.6421 32.8581 32.4642C32.8581 31.6891 32.9892 31.9797 32.14 31.1049C31.0571 30.022 28.5095 28.4931 28.5095 24.2884C28.503 23.244 28.7129 22.2096 29.126 21.2503C29.5392 20.2911 30.1465 19.4278 30.9098 18.7149C31.6732 18.0021 32.5759 17.4551 33.5611 17.1084C34.5463 16.7617 35.5927 16.6229 36.6342 16.7007C37.6757 16.7785 38.6899 17.0712 39.6126 17.5604C40.5354 18.0496 41.3469 18.7246 41.9958 19.543C42.6448 20.3613 43.1172 21.3052 43.3832 22.3152C43.6492 23.3252 43.7032 24.3793 43.5416 25.4112Z" fill="#E276FC"/>
<path d="M46.5056 21.7248H49.1188H46.5056ZM43.8754 16.0083L45.7291 14.1546L43.8754 16.0083ZM36.0587 11V13.113V11ZM26.4267 14.1532L28.2676 16.0083L26.4267 14.1532ZM25.6117 21.7248H23H25.6117Z" fill="white"/>
<path d="M34.0378 36.9052H35.7972H38.3481M46.5056 21.7248H49.1188M43.8754 16.0083L45.7291 14.1546M36.0587 11V13.113M26.4267 14.1532L28.2676 16.0083M25.6117 21.7248H23" stroke="#E276FC" stroke-width="2.5" stroke-linecap="round" stroke-linejoin="round"/>
<path d="M34.9475 20.0039C34.1062 20.0043 33.2995 20.3388 32.7047 20.9338C32.11 21.5288 31.7758 22.3357 31.7758 23.177" stroke="white" stroke-width="2" stroke-linecap="round" stroke-linejoin="round"/>
</g>
<defs>
<clipPath id="clip0_10606_32450">
<rect width="49" height="51" fill="white" transform="translate(11 10)"/>
</clipPath>
</defs>
</svg>
