<svg width="72" height="72" viewBox="0 0 72 72" fill="none" xmlns="http://www.w3.org/2000/svg">
<path d="M35.9064 55.0356C44.7149 55.0356 51.8555 48.0207 51.8555 39.3674C51.8555 30.7141 44.7149 23.6992 35.9064 23.6992C27.098 23.6992 19.9574 30.7141 19.9574 39.3674C19.9574 48.0207 27.098 55.0356 35.9064 55.0356Z" fill="#B9DCFF"/>
<path d="M22.7483 52.5096L18.9156 56.9337M49.5773 52.5096L53.4101 56.9337M49.5773 21.5148L50.7195 20.8556C52.3388 19.9199 52.9463 20.0283 54.2341 21.5148C55.5219 23.0013 55.6139 23.7048 54.8052 25.5718L54.2341 26.8902M22.7483 21.5148L21.6061 20.8556C19.9868 19.9199 19.3793 20.0283 18.0915 21.5148C16.8037 23.0013 16.7118 23.7048 17.5205 25.5718L18.0915 26.8902M36.1628 32.8774V40.8409L39.9955 45.265" stroke="#1E6BFF" stroke-width="2.72965" stroke-linecap="round" stroke-linejoin="round"/>
<path d="M53.0735 39.659C53.0735 48.4781 45.5667 55.6268 36.306 55.6268C27.0454 55.6268 19.5386 48.4781 19.5386 39.659C19.5386 33.749 22.9105 28.3722 27.9223 25.6113C30.7169 24.3158 37.8151 22.5021 43.8514 25.6113C49.3218 28.2406 53.0735 33.4248 53.0735 39.659Z" stroke="#1E6BFF" stroke-width="2.38844" stroke-linecap="round" stroke-linejoin="round"/>
<path d="M35.5139 12.6038C35.8506 11.9385 36.8007 11.9385 37.1375 12.6038L39.0682 16.418L43.5689 17.0219C44.3032 17.1204 44.6182 18.0085 44.1101 18.5477L40.763 22.0996L41.7206 27.0955C41.8658 27.8526 41.0626 28.4358 40.3876 28.0636L36.3257 25.8235L32.2637 28.0636C31.5887 28.4358 30.7856 27.8526 30.9307 27.0955L31.8883 22.0996L28.5413 18.5477C28.0332 18.0085 28.3482 17.1204 29.0825 17.0219L33.5832 16.418L35.5139 12.6038Z" fill="#E276FC"/>
</svg>
