<svg width="40" height="46" viewBox="0 0 40 46" fill="none" xmlns="http://www.w3.org/2000/svg">
<g clip-path="url(#clip0_13947_87862)">
<path d="M19.0835 46.0338C35.6896 46.0338 49.1514 43.7876 49.1514 41.0169C49.1514 38.2461 35.6896 36 19.0835 36C2.47748 36 -10.9844 38.2461 -10.9844 41.0169C-10.9844 43.7876 2.47748 46.0338 19.0835 46.0338Z" fill="url(#paint0_radial_13947_87862)"/>
<path d="M35.7075 27.8661C36.9376 34.2117 32.5518 40.2728 26.158 41.009C24.3915 41.2126 22.3745 41.3377 20.0754 41.337C17.7606 41.3362 15.7425 41.21 13.99 41.0052C7.59019 40.2651 3.17063 34.2012 4.33344 27.8564C5.72585 20.2865 12.3037 14.8229 19.9674 14.8253C27.631 14.8119 34.2378 20.2954 35.7075 27.8661Z" fill="url(#paint1_radial_13947_87862)"/>
<path d="M19.0902 27.381C19.088 26.8157 19.1797 26.2819 19.3809 25.7796C19.5666 25.2773 19.8618 24.838 20.2355 24.4459C20.5935 24.0695 21.0145 23.7874 21.4827 23.5838C21.9508 23.3803 22.4507 23.2867 22.9822 23.2875C23.498 23.2881 23.9986 23.383 24.484 23.5878C24.9694 23.7926 25.3926 24.0759 25.7536 24.4533C26.1302 24.8307 26.4133 25.2708 26.6029 25.7736C26.7924 26.2763 26.8883 26.8104 26.8906 27.3915C26.8925 27.8783 26.8317 28.3179 26.6926 28.7418C26.5536 29.1656 26.3676 29.558 26.1032 29.9031C25.73 30.4051 25.2625 30.7971 24.7009 31.079C24.2172 31.3139 23.6707 31.4546 23.1236 31.4695C22.5609 31.4845 22.029 31.3895 21.5123 31.169C21.0426 30.9642 20.6194 30.681 20.2427 30.3036C19.866 29.9105 19.5673 29.4703 19.3778 28.9676C19.1883 28.4805 19.0924 27.9464 19.0902 27.381ZM20.966 27.3836C20.9687 28.0588 21.1584 28.6087 21.551 29.0647C21.9436 29.5206 22.429 29.7411 22.9918 29.7419C23.5702 29.7427 24.0383 29.5234 24.4273 29.0685C24.8163 28.6136 25.0017 28.0642 24.9991 27.3889C24.9965 26.7137 24.8067 26.1481 24.4141 25.6921C24.0215 25.2362 23.5361 25.0157 22.9733 25.0149C22.4105 25.0141 21.9268 25.2334 21.5378 25.6883C21.1644 26.1432 20.9634 26.7083 20.966 27.3836Z" fill="#EDF7FF"/>
<path d="M15.2776 24.0625L13.947 23.4956C13.8531 23.464 13.7438 23.4953 13.7129 23.5894C12.8614 25.6449 12.9437 26.7282 12.9437 26.7282L12.9444 26.9009C12.9467 27.4974 12.8235 27.9525 12.5746 28.2662C12.3258 28.5798 11.9513 28.7363 11.4669 28.7357C10.9668 28.735 10.591 28.5618 10.3397 28.2318C10.0883 27.8861 9.96128 27.3836 9.95865 26.7085L9.95774 26.4731C9.98648 25.8294 10.1207 24.1813 10.7706 22.5023C10.8014 22.4082 10.7541 22.2982 10.6759 22.2667L9.34533 21.7155C9.25144 21.684 9.14216 21.7152 9.11127 21.8094C8.36864 23.7394 8.20414 25.6387 8.17582 26.3922C8.17588 26.4079 8.1603 26.4236 8.16036 26.4393L8.16098 26.5963C8.16128 26.6748 8.16147 26.7219 8.16153 26.7376L8.16214 26.8945C8.16648 28.0092 8.45116 28.873 9.01616 29.486C9.58116 30.099 10.3794 30.414 11.3953 30.4154C12.3955 30.4167 13.207 30.1195 13.7515 29.4922C14.8095 28.2691 14.756 26.5893 14.756 26.5893C14.756 26.5736 14.7066 25.9456 15.3877 24.2667C15.4188 24.204 15.3714 24.094 15.2776 24.0625Z" fill="#EDF7FF"/>
<path d="M19.4823 37.4607C19.4667 37.4607 19.4667 37.4607 19.451 37.4607C17.917 37.4578 16.7414 36.952 16.6787 36.9362L17.3621 35.2693C17.5032 35.3325 20.9513 36.7081 23.0396 33.8478L24.4988 34.9206C23.2989 36.5865 21.5642 37.4646 19.4823 37.4607Z" fill="#EDF7FF"/>
<path d="M14.1008 34.3456L13.2706 33.5127C13.208 33.4499 13.2073 33.3243 13.2694 33.2616C15.3471 31.1296 15.5745 29.8585 15.984 27.5989C16.1358 26.7986 16.3026 25.8728 16.5776 24.7745C17.1887 22.311 18.5852 21.0885 19.6265 20.4933C20.5123 19.9921 21.3065 19.8518 21.6647 19.8052C21.7737 19.7896 21.8676 19.8682 21.8682 19.9781L21.9373 21.3279L21.9022 20.5588L21.9364 21.1553C21.9369 21.2495 21.8749 21.3279 21.7815 21.3434C21.143 21.4368 18.8703 21.9835 18.0602 25.1686C17.8005 26.2199 17.6336 27.1143 17.4973 27.8989C17.0573 30.2998 16.7691 31.8846 14.3658 34.3616C14.2882 34.4243 14.1791 34.4242 14.1008 34.3456Z" fill="#F0C5FF"/>
<path d="M13.6709 27.3484L13.0726 26.3204C13.0253 26.2255 13.0562 26.1149 13.15 26.0675C13.6969 25.7834 15.5256 24.9468 17.1085 25.5013C18.5973 26.024 19.6134 25.6138 19.9572 25.4243C20.0353 25.3769 20.1293 25.4086 20.1765 25.4719L20.9153 26.4051C20.9782 26.4842 20.963 26.6107 20.8693 26.6738C20.385 26.9738 18.8536 27.7473 16.6124 26.9553C15.6408 26.6226 14.3434 27.1908 13.9059 27.4118C13.8278 27.4591 13.7181 27.4274 13.6709 27.3484Z" fill="#F0C5FF"/>
<path d="M20.2826 13.2064C19.9071 13.0025 19.7336 12.5789 19.8568 12.1711L21.6588 6.25831C21.9822 5.19181 23.1978 4.69015 24.1835 5.22366C25.1067 5.72578 25.4082 6.90222 24.8343 7.78045L21.4211 12.9244C21.1729 13.3008 20.6738 13.4261 20.2826 13.2064Z" fill="#1E6BFF"/>
<path d="M22.3998 14.4177C22.1794 14.0563 22.2556 13.5849 22.5672 13.3178L27.193 9.2333C28.0341 8.49495 29.3325 8.69957 29.8993 9.67401C30.4347 10.5856 30.0644 11.7483 29.1283 12.1881L23.5269 14.7795C23.1056 14.9679 22.6203 14.8107 22.3998 14.4177Z" fill="#1E6BFF"/>
</g>
<defs>
<radialGradient id="paint0_radial_13947_87862" cx="0" cy="0" r="1" gradientUnits="userSpaceOnUse" gradientTransform="translate(19.0801 41.0153) scale(21.8211 4.9851)">
<stop stop-color="#1E6BFF" stop-opacity="0.6"/>
<stop offset="1" stop-color="#1E6BFF" stop-opacity="0"/>
</radialGradient>
<radialGradient id="paint1_radial_13947_87862" cx="0" cy="0" r="1" gradientUnits="userSpaceOnUse" gradientTransform="translate(12.987 16.6055) rotate(-21.7026) scale(38.1564 30.7087)">
<stop offset="0.298" stop-color="#1E6BFF"/>
<stop offset="1" stop-color="#174ED1"/>
</radialGradient>
<clipPath id="clip0_13947_87862">
<rect width="40" height="46" fill="white"/>
</clipPath>
</defs>
</svg>
