<svg width="24" height="24" viewBox="0 0 24 24" fill="none" xmlns="http://www.w3.org/2000/svg">
<path d="M11.191 18.6384L16.6212 12.9279C16.7412 12.8041 16.8365 12.6569 16.9015 12.4947C16.9665 12.3325 17 12.1585 17 11.9828C17 11.8071 16.9665 11.6331 16.9015 11.4709C16.8365 11.3086 16.7412 11.1614 16.6212 11.0377L11.191 5.39374C11.072 5.26898 10.9303 5.16995 10.7742 5.10237C10.6182 5.03479 10.4508 5 10.2817 5C10.1126 5 9.94525 5.03479 9.78919 5.10237C9.63312 5.16995 9.49148 5.26898 9.37242 5.39374C9.13389 5.64314 9 5.98052 9 6.33218C9 6.68384 9.13389 7.02122 9.37242 7.27062L13.9061 11.9828L9.37242 16.6949C9.13582 16.9429 9.00243 17.2775 9.00101 17.6267C9.00004 17.8019 9.03235 17.9756 9.09608 18.1377C9.15981 18.2999 9.25372 18.4474 9.37242 18.5718C9.48719 18.701 9.62546 18.8053 9.77924 18.8787C9.93302 18.952 10.0993 18.993 10.2684 18.9992C10.4375 19.0054 10.6061 18.9767 10.7644 18.9147C10.9228 18.8528 11.0678 18.7589 11.191 18.6384Z" fill="#1E6BFF"/>
</svg>
