<svg width="24" height="24" viewBox="0 0 24 24" fill="none" xmlns="http://www.w3.org/2000/svg">
<path d="M12.809 5.36164L7.37883 11.0721C7.25879 11.1959 7.16351 11.3431 7.09849 11.5053C7.03348 11.6675 7 11.8415 7 12.0172C7 12.1929 7.03348 12.3669 7.09849 12.5291C7.16351 12.6914 7.25879 12.8386 7.37883 12.9623L12.809 18.6063C12.928 18.731 13.0697 18.83 13.2258 18.8976C13.3818 18.9652 13.5492 19 13.7183 19C13.8874 19 14.0547 18.9652 14.2108 18.8976C14.3669 18.83 14.5085 18.731 14.6276 18.6063C14.8661 18.3569 15 18.0195 15 17.6678C15 17.3162 14.8661 16.9788 14.6276 16.7294L10.0939 12.0172L14.6276 7.30507C14.8642 7.05713 14.9976 6.72249 14.999 6.37329C15 6.1981 14.9677 6.02444 14.9039 5.86226C14.8402 5.70008 14.7463 5.55257 14.6276 5.42819C14.5128 5.29897 14.3745 5.19467 14.2208 5.12132C14.067 5.04797 13.9007 5.00701 13.7316 5.00082C13.5625 4.99464 13.3939 5.02334 13.2356 5.08527C13.0772 5.1472 12.9322 5.24113 12.809 5.36164Z" fill="#1E6BFF"/>
</svg>
