<svg width="24" height="24" viewBox="0 0 24 24" fill="none" xmlns="http://www.w3.org/2000/svg">
<path d="M5.36164 10.191L11.0721 15.6212C11.1959 15.7412 11.3431 15.8365 11.5053 15.9015C11.6675 15.9665 11.8415 16 12.0172 16C12.1929 16 12.3669 15.9665 12.5291 15.9015C12.6914 15.8365 12.8386 15.7412 12.9623 15.6212L18.6063 10.191C18.731 10.072 18.83 9.93031 18.8976 9.77424C18.9652 9.61818 19 9.45078 19 9.28171C19 9.11265 18.9652 8.94525 18.8976 8.78919C18.83 8.63312 18.731 8.49148 18.6063 8.37242C18.3569 8.13389 18.0195 8 17.6678 8C17.3162 8 16.9788 8.13389 16.7294 8.37242L12.0172 12.9061L7.30507 8.37242C7.05713 8.13582 6.72249 8.00243 6.37329 8.00101C6.1981 8.00004 6.02444 8.03235 5.86226 8.09608C5.70008 8.15981 5.55257 8.25372 5.42819 8.37242C5.29897 8.48719 5.19467 8.62546 5.12132 8.77924C5.04797 8.93302 5.00701 9.09927 5.00082 9.26836C4.99463 9.43746 5.02334 9.60606 5.08527 9.76442C5.14719 9.92279 5.24113 10.0678 5.36164 10.191Z" fill="#1E6BFF"/>
</svg>
