<svg width="24" height="24" viewBox="0 0 24 24" fill="none" xmlns="http://www.w3.org/2000/svg">
<path fill-rule="evenodd" clip-rule="evenodd" d="M18.4327 7.01992L18.4824 15.5037C18.4767 15.6894 18.4343 15.8722 18.3576 16.0415C18.2809 16.2107 18.1714 16.3631 18.0355 16.4898C17.8995 16.6165 17.7398 16.715 17.5656 16.7796C17.3913 16.8442 17.206 16.8737 17.0204 16.8663C16.8352 16.8655 16.6521 16.8282 16.4814 16.7565C16.3108 16.6849 16.1559 16.5802 16.0258 16.4485C15.766 16.1865 15.6195 15.8329 15.618 15.4639L15.618 10.1915L7.58493 18.2246C7.03564 18.7739 6.14506 18.7739 5.59577 18.2246C5.04648 17.6753 5.04648 16.7847 5.59577 16.2355L13.4089 8.42227L8.57636 8.42227C8.20477 8.42117 7.84872 8.27307 7.58597 8.01031C7.32321 7.74756 7.17511 7.3915 7.17401 7.01992C7.17324 6.83424 7.20925 6.65024 7.27996 6.47855C7.35066 6.30686 7.45467 6.15086 7.58596 6.01957C7.71726 5.88827 7.87325 5.78427 8.04494 5.71356C8.21664 5.64286 8.40063 5.60685 8.58631 5.60761L17.0204 5.60761C17.206 5.60685 17.39 5.64286 17.5617 5.71356C17.7334 5.78427 17.8894 5.88827 18.0207 6.01957C18.152 6.15086 18.256 6.30686 18.3267 6.47855C18.3974 6.65024 18.4334 6.83424 18.4327 7.01992Z" fill="#1E6BFF"/>
</svg>
