<svg width="24" height="24" viewBox="0 0 24 24" fill="none" xmlns="http://www.w3.org/2000/svg">
<path d="M18.6384 13.809L12.9279 8.37883C12.8041 8.25879 12.6569 8.16351 12.4947 8.09849C12.3325 8.03348 12.1585 8 11.9828 8C11.8071 8 11.6331 8.03348 11.4709 8.09849C11.3086 8.16351 11.1614 8.25879 11.0377 8.37883L5.39374 13.809C5.26898 13.928 5.16995 14.0697 5.10237 14.2258C5.03479 14.3818 5 14.5492 5 14.7183C5 14.8874 5.03479 15.0547 5.10237 15.2108C5.16995 15.3669 5.26898 15.5085 5.39374 15.6276C5.64314 15.8661 5.98052 16 6.33218 16C6.68384 16 7.02122 15.8661 7.27062 15.6276L11.9828 11.0939L16.6949 15.6276C16.9429 15.8642 17.2775 15.9976 17.6267 15.999C17.8019 16 17.9756 15.9677 18.1377 15.9039C18.2999 15.8402 18.4474 15.7463 18.5718 15.6276C18.701 15.5128 18.8053 15.3745 18.8787 15.2208C18.952 15.067 18.993 14.9007 18.9992 14.7316C19.0054 14.5625 18.9767 14.3939 18.9147 14.2356C18.8528 14.0772 18.7589 13.9322 18.6384 13.809Z" fill="#1E6BFF"/>
</svg>
