<svg width="24" height="24" viewBox="0 0 24 24" fill="none" xmlns="http://www.w3.org/2000/svg">
<path d="M21.92 6.62C21.8185 6.37565 21.6243 6.18147 21.38 6.08C21.2598 6.02876 21.1307 6.00158 21 6H16C15.7348 6 15.4804 6.10536 15.2929 6.29289C15.1054 6.48043 15 6.73478 15 7C15 7.26522 15.1054 7.51957 15.2929 7.70711C15.4804 7.89464 15.7348 8 16 8H18.59L13 13.59L9.71 10.29C9.61704 10.1963 9.50644 10.1219 9.38458 10.0711C9.26272 10.0203 9.13201 9.9942 9 9.9942C8.86799 9.9942 8.73728 10.0203 8.61542 10.0711C8.49356 10.1219 8.38296 10.1963 8.29 10.29L2.29 16.29C2.19627 16.383 2.12188 16.4936 2.07111 16.6154C2.02034 16.7373 1.9942 16.868 1.9942 17C1.9942 17.132 2.02034 17.2627 2.07111 17.3846C2.12188 17.5064 2.19627 17.617 2.29 17.71C2.38296 17.8037 2.49356 17.8781 2.61542 17.9289C2.73728 17.9797 2.86799 18.0058 3 18.0058C3.13201 18.0058 3.26272 17.9797 3.38458 17.9289C3.50644 17.8781 3.61704 17.8037 3.71 17.71L9 12.41L12.29 15.71C12.383 15.8037 12.4936 15.8781 12.6154 15.9289C12.7373 15.9797 12.868 16.0058 13 16.0058C13.132 16.0058 13.2627 15.9797 13.3846 15.9289C13.5064 15.8781 13.617 15.8037 13.71 15.71L20 9.41V12C20 12.2652 20.1054 12.5196 20.2929 12.7071C20.4804 12.8946 20.7348 13 21 13C21.2652 13 21.5196 12.8946 21.7071 12.7071C21.8946 12.5196 22 12.2652 22 12V7C21.9984 6.86932 21.9712 6.74022 21.92 6.62Z" fill="#1E6BFF"/>
</svg>
