<svg width="24" height="24" viewBox="0 0 24 24" fill="none" xmlns="http://www.w3.org/2000/svg">
<path d="M21.38 5.75894C21.3458 5.63125 21.2867 5.51159 21.206 5.40689C21.1254 5.30218 21.0247 5.21451 20.91 5.14894L15.71 2.14894C15.5964 2.08241 15.4709 2.03894 15.3405 2.02103C15.2101 2.00311 15.0775 2.01111 14.9502 2.04455C14.823 2.078 14.7035 2.13623 14.5988 2.21592C14.4941 2.29561 14.4061 2.39519 14.34 2.50894L12 6.56894L9.65997 2.50894C9.59381 2.39519 9.50584 2.29561 9.40112 2.21592C9.2964 2.13623 9.17698 2.078 9.0497 2.04455C8.92243 2.01111 8.7898 2.00311 8.65943 2.02103C8.52906 2.03894 8.40351 2.08241 8.28997 2.14894L3.08997 5.14894C2.9752 5.21451 2.87457 5.30218 2.7939 5.40689C2.71323 5.51159 2.65411 5.63125 2.61997 5.75894C2.55379 6.01239 2.58969 6.28169 2.71997 6.50894L6.71997 13.3389C6.27372 14.1565 6.02701 15.0679 5.99997 15.9989C5.99759 16.9072 6.20145 17.8042 6.59619 18.6222C6.99093 19.4403 7.56623 20.158 8.27873 20.7213C8.99122 21.2846 9.82232 21.6788 10.7093 21.8742C11.5964 22.0696 12.5162 22.061 13.3994 21.8492C14.2826 21.6373 15.1063 21.2277 15.8081 20.6512C16.51 20.0747 17.0719 19.3464 17.4513 18.5212C17.8308 17.6959 18.0179 16.7953 17.9986 15.8873C17.9793 14.9792 17.7541 14.0873 17.34 13.2789L21.24 6.51894C21.3126 6.40788 21.3623 6.28349 21.3864 6.15301C21.4104 6.02253 21.4082 5.88857 21.38 5.75894ZM4.99997 6.37894L8.45997 4.37894L11.68 9.99894C10.3074 10.0837 9.00676 10.6422 7.99997 11.5789L4.99997 6.37894ZM12 19.9989C10.9391 19.9989 9.92169 19.5775 9.17154 18.8274C8.4214 18.0772 7.99997 17.0598 7.99997 15.9989C7.99997 14.9381 8.4214 13.9207 9.17154 13.1705C9.92169 12.4204 10.9391 11.9989 12 11.9989C13.0608 11.9989 14.0783 12.4204 14.8284 13.1705C15.5785 13.9207 16 14.9381 16 15.9989C16 17.0598 15.5785 18.0772 14.8284 18.8274C14.0783 19.5775 13.0608 19.9989 12 19.9989ZM16 11.5489C15.457 11.0531 14.8262 10.663 14.14 10.3989L13.16 8.56894L15.58 4.37894L19.04 6.37894L16 11.5489Z" fill="#1E6BFF"/>
</svg>
