<svg width="24" height="24" viewBox="0 0 24 24" fill="none" xmlns="http://www.w3.org/2000/svg">
<path fill-rule="evenodd" clip-rule="evenodd" d="M18 10V13.18C18.5835 13.3863 19.089 13.7681 19.4471 14.2729C19.8051 14.7778 19.9983 15.3811 20 16V18C20 18.2652 19.8946 18.5196 19.7071 18.7071C19.5196 18.8946 19.2652 19 19 19H15.86C15.6297 19.8474 15.127 20.5954 14.4294 21.1287C13.7318 21.6621 12.8781 21.951 12 21.951C11.1219 21.951 10.2682 21.6621 9.5706 21.1287C8.873 20.5954 8.37028 19.8474 8.14 19H5C4.73478 19 4.48043 18.8946 4.29289 18.7071C4.10536 18.5196 4 18.2652 4 18V16C4.00174 15.3811 4.19488 14.7778 4.55294 14.2729C4.911 13.7681 5.41645 13.3863 6 13.18V10C6.00144 8.58312 6.50425 7.21247 7.41939 6.13077C8.33452 5.04908 9.60294 4.32615 11 4.09V3C11 2.73478 11.1054 2.48043 11.2929 2.29289C11.4804 2.10536 11.7348 2 12 2C12.2652 2 12.5196 2.10536 12.7071 2.29289C12.8946 2.48043 13 2.73478 13 3V4.09C14.3971 4.32615 15.6655 5.04908 16.5806 6.13077C17.4958 7.21247 17.9986 8.58312 18 10ZM9.17157 7.17157C8.42143 7.92172 8 8.93913 8 10V12V13V15H7C6.73478 15 6.48043 15.1054 6.29289 15.2929C6.10536 15.4804 6 15.7348 6 16V17H18V16C18 15.7348 17.8946 15.4804 17.7071 15.2929C17.5196 15.1054 17.2652 15 17 15H16V13V12V10C16 8.93913 15.5786 7.92172 14.8284 7.17157C14.0783 6.42143 13.0609 6 12 6C10.9391 6 9.92172 6.42143 9.17157 7.17157ZM11.0068 19.7291C11.3086 19.9045 11.651 19.9979 12 20C12.349 19.9979 12.6914 19.9045 12.9932 19.7291C13.2949 19.5536 13.5455 19.3023 13.72 19H10.28C10.4545 19.3023 10.7051 19.5536 11.0068 19.7291Z" fill="#1E6BFF"/>
</svg>
