<svg width="24" height="24" viewBox="0 0 24 24" fill="none" xmlns="http://www.w3.org/2000/svg">
<path d="M21.17 2.0611C20.4532 1.93763 19.7274 1.87408 19 1.8711C16.5184 1.86906 14.0885 2.58067 12 3.9211C9.90617 2.59827 7.47667 1.90413 5.00002 1.9211C4.27267 1.92408 3.54683 1.98763 2.83002 2.1111C2.59523 2.15158 2.3826 2.27456 2.23044 2.45789C2.07827 2.64123 1.99656 2.87287 2.00002 3.1111V15.1111C1.99788 15.258 2.02815 15.4036 2.08867 15.5375C2.1492 15.6714 2.23849 15.7904 2.3502 15.8858C2.4619 15.9813 2.59328 16.051 2.73498 16.0899C2.87668 16.1289 3.02522 16.1361 3.17002 16.1111C4.60304 15.863 6.07123 15.9041 7.48809 16.2322C8.90495 16.5602 10.2418 17.1685 11.42 18.0211L11.54 18.0911H11.65C11.7609 18.1373 11.8799 18.1611 12 18.1611C12.1202 18.1611 12.2391 18.1373 12.35 18.0911H12.46L12.58 18.0211C13.75 17.1494 15.083 16.5214 16.5002 16.1745C17.9173 15.8275 19.3897 15.7685 20.83 16.0011C20.9748 16.0261 21.1234 16.0189 21.2651 15.9799C21.4068 15.941 21.5381 15.8713 21.6498 15.7758C21.7616 15.6804 21.8508 15.5614 21.9114 15.4275C21.9719 15.2936 22.0022 15.148 22 15.0011V3.0011C21.9896 2.77325 21.9016 2.55581 21.7507 2.38484C21.5997 2.21386 21.3948 2.09963 21.17 2.0611ZM11 15.3511C9.14991 14.3778 7.09054 13.8698 5.00002 13.8711C4.67002 13.8711 4.34002 13.8711 4.00002 13.8711V3.8711C4.33308 3.8519 4.66697 3.8519 5.00002 3.8711C7.13341 3.86874 9.22024 4.49479 11 5.6711V15.3511ZM20 13.9111C19.66 13.9111 19.33 13.9111 19 13.9111C16.9095 13.9098 14.8501 14.4178 13 15.3911V5.6711C14.7798 4.49479 16.8666 3.86874 19 3.8711C19.3331 3.8519 19.667 3.8519 20 3.8711V13.9111ZM21.17 18.0611C20.4532 17.9376 19.7274 17.8741 19 17.8711C16.5184 17.8691 14.0885 18.5807 12 19.9211C9.91154 18.5807 7.48166 17.8691 5.00002 17.8711C4.27267 17.8741 3.54683 17.9376 2.83002 18.0611C2.69985 18.0818 2.57505 18.1279 2.46279 18.197C2.35053 18.2661 2.25302 18.3566 2.17589 18.4635C2.09876 18.5704 2.04351 18.6914 2.01333 18.8197C1.98315 18.948 1.97862 19.081 2.00002 19.2111C2.05084 19.4708 2.20251 19.6997 2.42181 19.8478C2.64111 19.9959 2.91016 20.051 3.17002 20.0011C4.60304 19.753 6.07123 19.7942 7.48809 20.1222C8.90495 20.4502 10.2418 21.0585 11.42 21.9111C11.5894 22.0317 11.7921 22.0965 12 22.0965C12.2079 22.0965 12.4107 22.0317 12.58 21.9111C13.7582 21.0585 15.0951 20.4502 16.512 20.1222C17.9288 19.7942 19.397 19.753 20.83 20.0011C21.0899 20.051 21.3589 19.9959 21.5782 19.8478C21.7975 19.6997 21.9492 19.4708 22 19.2111C22.0214 19.081 22.0169 18.948 21.9867 18.8197C21.9565 18.6914 21.9013 18.5704 21.8242 18.4635C21.747 18.3566 21.6495 18.2661 21.5373 18.197C21.425 18.1279 21.3002 18.0818 21.17 18.0611Z" fill="#1E6BFF"/>
</svg>
