<svg width="24" height="24" viewBox="0 0 24 24" fill="none" xmlns="http://www.w3.org/2000/svg">
<path d="M21.71 4.72079L19.28 2.29079C19.0927 2.10454 18.8392 2 18.575 2C18.3108 2 18.0574 2.10454 17.87 2.29079L12.29 7.87079C12.1973 7.96423 12.124 8.07505 12.0742 8.19689C12.0245 8.31872 11.9993 8.44919 12 8.58079V11.0008C12 11.266 12.1054 11.5204 12.2929 11.7079C12.4804 11.8954 12.7348 12.0008 13 12.0008H15.42C15.5516 12.0016 15.6821 11.9763 15.8039 11.9266C15.9258 11.8768 16.0366 11.8035 16.13 11.7108L21.71 6.13079C21.8963 5.94343 22.0008 5.68998 22.0008 5.42579C22.0008 5.16161 21.8963 4.90815 21.71 4.72079ZM15 10.0008H14V9.00079L18.58 4.42079L19.58 5.42079L15 10.0008ZM19 12.0008C18.7348 12.0008 18.4804 12.1061 18.2929 12.2937C18.1054 12.4812 18 12.7356 18 13.0008C18 14.8573 17.2625 16.6378 15.9498 17.9505C14.637 19.2633 12.8565 20.0008 11 20.0008H5.41002L6.05002 19.3708C6.14375 19.2778 6.21814 19.1672 6.26891 19.0454C6.31968 18.9235 6.34582 18.7928 6.34582 18.6608C6.34582 18.5288 6.31968 18.3981 6.26891 18.2762C6.21814 18.1544 6.14375 18.0438 6.05002 17.9508C5.07095 16.9718 4.40418 15.7245 4.13404 14.3666C3.8639 13.0086 4.00253 11.6011 4.53238 10.3219C5.06224 9.0428 5.95952 7.94951 7.11076 7.18034C8.262 6.41118 9.61547 6.00069 11 6.00079C11.2652 6.00079 11.5196 5.89544 11.7071 5.7079C11.8947 5.52036 12 5.26601 12 5.00079C12 4.73558 11.8947 4.48122 11.7071 4.29369C11.5196 4.10615 11.2652 4.00079 11 4.00079C9.30748 4.00636 7.65082 4.48907 6.2202 5.39353C4.78959 6.29799 3.64301 7.58752 2.91209 9.11411C2.18116 10.6407 1.89553 12.3424 2.08796 14.024C2.2804 15.7056 2.94311 17.2988 4.00002 18.6208L2.29002 20.2908C2.15126 20.4314 2.05726 20.61 2.01989 20.804C1.98252 20.998 2.00344 21.1987 2.08002 21.3808C2.15504 21.5634 2.28244 21.7197 2.44616 21.8301C2.60988 21.9404 2.80259 21.9998 3.00002 22.0008H11C12.1819 22.0008 13.3522 21.768 14.4442 21.3157C15.5361 20.8634 16.5282 20.2005 17.364 19.3648C18.1997 18.529 18.8626 17.5369 19.3149 16.4449C19.7672 15.353 20 14.1827 20 13.0008C20 12.7356 19.8947 12.4812 19.7071 12.2937C19.5196 12.1061 19.2652 12.0008 19 12.0008Z" fill="#1E6BFF"/>
</svg>
