<svg width="24" height="24" viewBox="0 0 24 24" fill="none" xmlns="http://www.w3.org/2000/svg">
<path d="M5 18.0019H9.24C9.37161 18.0027 9.50207 17.9774 9.62391 17.9277C9.74574 17.8779 9.85656 17.8046 9.95 17.7119L16.87 10.7819L19.71 8.00189C19.8037 7.90893 19.8781 7.79833 19.9289 7.67647C19.9797 7.55461 20.0058 7.4239 20.0058 7.29189C20.0058 7.15988 19.9797 7.02917 19.9289 6.90732C19.8781 6.78546 19.8037 6.67486 19.71 6.58189L15.47 2.29189C15.377 2.19816 15.2664 2.12377 15.1446 2.073C15.0227 2.02223 14.892 1.99609 14.76 1.99609C14.628 1.99609 14.4973 2.02223 14.3754 2.073C14.2536 2.12377 14.143 2.19816 14.05 2.29189L11.23 5.12189L4.29 12.0519C4.19732 12.1453 4.12399 12.2561 4.07423 12.378C4.02446 12.4998 3.99924 12.6303 4 12.7619V17.0019C4 17.2671 4.10536 17.5215 4.29289 17.709C4.48043 17.8965 4.73478 18.0019 5 18.0019ZM14.76 4.41189L17.59 7.24189L16.17 8.66189L13.34 5.83189L14.76 4.41189ZM6 13.1719L11.93 7.24189L14.76 10.0719L8.83 16.0019H6V13.1719ZM21 20.0019H3C2.73478 20.0019 2.48043 20.1072 2.29289 20.2948C2.10536 20.4823 2 20.7367 2 21.0019C2 21.2671 2.10536 21.5215 2.29289 21.709C2.48043 21.8965 2.73478 22.0019 3 22.0019H21C21.2652 22.0019 21.5196 21.8965 21.7071 21.709C21.8946 21.5215 22 21.2671 22 21.0019C22 20.7367 21.8946 20.4823 21.7071 20.2948C21.5196 20.1072 21.2652 20.0019 21 20.0019Z" fill="#1E6BFF"/>
</svg>
