<svg width="24" height="24" viewBox="0 0 24 24" fill="none" xmlns="http://www.w3.org/2000/svg">
<path d="M12 15.9983C11.8022 15.9983 11.6089 16.057 11.4444 16.1668C11.28 16.2767 11.1518 16.4329 11.0761 16.6156C11.0004 16.7984 10.9806 16.9994 11.0192 17.1934C11.0578 17.3874 11.153 17.5656 11.2929 17.7054C11.4327 17.8453 11.6109 17.9405 11.8049 17.9791C11.9989 18.0177 12.2 17.9979 12.3827 17.9222C12.5654 17.8465 12.7216 17.7183 12.8315 17.5539C12.9413 17.3894 13 17.1961 13 16.9983C13 16.7331 12.8946 16.4787 12.7071 16.2912C12.5196 16.1037 12.2652 15.9983 12 15.9983ZM22.67 17.4683L14.62 3.46832C14.3598 3.00183 13.9798 2.61328 13.5192 2.34279C13.0586 2.0723 12.5341 1.92969 12 1.92969C11.4659 1.92969 10.9414 2.0723 10.4808 2.34279C10.0202 2.61328 9.64019 3.00183 9.38 3.46832L1.38 17.4683C1.11079 17.9223 0.966141 18.4393 0.960643 18.9671C0.955144 19.4949 1.089 20.0148 1.34868 20.4744C1.60837 20.9339 1.9847 21.3168 2.43968 21.5843C2.89466 21.8519 3.41218 21.9947 3.94 21.9983H20.06C20.5921 22.0036 21.1159 21.8672 21.5779 21.6032C22.0399 21.3393 22.4234 20.9572 22.689 20.4961C22.9546 20.0351 23.0928 19.5117 23.0895 18.9797C23.0862 18.4476 22.9414 17.926 22.67 17.4683ZM20.94 19.4683C20.8523 19.6243 20.7245 19.7539 20.5697 19.8436C20.4149 19.9333 20.2389 19.9798 20.06 19.9783H3.94C3.76111 19.9798 3.5851 19.9333 3.43032 19.8436C3.27553 19.7539 3.14765 19.6243 3.06 19.4683C2.97223 19.3163 2.92602 19.1439 2.92602 18.9683C2.92602 18.7928 2.97223 18.6203 3.06 18.4683L11.06 4.46832C11.1439 4.30452 11.2714 4.16705 11.4284 4.07106C11.5855 3.97507 11.766 3.92428 11.95 3.92428C12.134 3.92428 12.3145 3.97507 12.4716 4.07106C12.6286 4.16705 12.7561 4.30452 12.84 4.46832L20.89 18.4683C20.9892 18.6182 21.0462 18.792 21.055 18.9715C21.0638 19.1509 21.0241 19.3295 20.94 19.4883V19.4683ZM12 7.99832C11.7348 7.99832 11.4804 8.10368 11.2929 8.29121C11.1054 8.47875 11 8.7331 11 8.99832V12.9983C11 13.2635 11.1054 13.5179 11.2929 13.7054C11.4804 13.893 11.7348 13.9983 12 13.9983C12.2652 13.9983 12.5196 13.893 12.7071 13.7054C12.8946 13.5179 13 13.2635 13 12.9983V8.99832C13 8.7331 12.8946 8.47875 12.7071 8.29121C12.5196 8.10368 12.2652 7.99832 12 7.99832Z" fill="#1E6BFF"/>
</svg>
