<svg width="24" height="24" viewBox="0 0 24 24" fill="none" xmlns="http://www.w3.org/2000/svg">
<path fill-rule="evenodd" clip-rule="evenodd" d="M5.85892 2C3.72717 2 2 3.73184 2 5.867C2 8.00216 3.72717 9.73401 5.85892 9.73401C7.53502 9.73401 8.96056 8.66348 9.49371 7.16863H20.4766C21.07 7.16863 21.5 6.63476 21.5 6.04325C21.5 5.45174 21.07 4.91788 20.4766 4.91788H9.60069C9.17844 3.24142 7.66389 2 5.85892 2ZM4.04668 5.867C4.04668 4.86305 4.85858 4.05014 5.85892 4.05014C6.85927 4.05014 7.67116 4.86305 7.67116 5.867C7.67116 6.87096 6.85927 7.68387 5.85892 7.68387C4.85858 7.68387 4.04668 6.87096 4.04668 5.867ZM11.7727 8.32216C9.96774 8.32216 8.45318 9.56358 8.03093 11.24L3.08404 11.24C2.49065 11.24 2.0607 11.7739 2.0607 12.3654C2.0607 12.9569 2.49065 13.4908 3.08404 13.4908L8.13791 13.4908C8.67107 14.9856 10.0966 16.0562 11.7727 16.0562C13.4488 16.0562 14.8743 14.9857 15.4075 13.4908H20.4767C21.0701 13.4908 21.5 12.957 21.5 12.3654C21.5 11.7739 21.0701 11.2401 20.4767 11.2401H15.5145C15.0922 9.5636 13.5777 8.32216 11.7727 8.32216ZM9.96046 12.1892C9.96046 11.1852 10.7724 10.3723 11.7727 10.3723C12.773 10.3723 13.5849 11.1852 13.5849 12.1892C13.5849 13.1931 12.773 14.006 11.7727 14.006C10.7724 14.006 9.96046 13.1931 9.96046 12.1892ZM17.459 14.766C15.6606 14.766 14.1505 15.9984 13.7219 17.6657L3.02334 17.6657C2.42995 17.6657 2 18.1995 2 18.791C2 19.3826 2.42995 19.9164 3.02334 19.9164L13.8178 19.9164C14.3459 21.4208 15.7761 22.5 17.459 22.5C19.5908 22.5 21.3179 20.7682 21.3179 18.633C21.3179 16.4978 19.5908 14.766 17.459 14.766ZM15.6468 18.633C15.6468 17.629 16.4587 16.8161 17.459 16.8161C18.4594 16.8161 19.2713 17.629 19.2713 18.633C19.2713 19.6369 18.4594 20.4499 17.459 20.4499C16.4587 20.4499 15.6468 19.6369 15.6468 18.633Z" fill="#1E6BFF"/>
</svg>
