<svg width="24" height="24" viewBox="0 0 24 24" fill="none" xmlns="http://www.w3.org/2000/svg">
<path d="M8.46774 8.3947L8.46549 8.39653L8.46335 8.39861L8.46774 8.3947ZM18.4219 8.20817C18.3523 8.14111 18.2751 8.08244 18.1918 8.03336C18.074 7.96402 17.9432 7.91958 17.8076 7.9028C17.6719 7.88601 17.5342 7.89723 17.4031 7.93577C17.2719 7.9743 17.1501 8.03933 17.045 8.12683C16.94 8.21433 16.854 8.32245 16.7924 8.4445C16.448 9.12319 15.9729 9.72718 15.3944 10.2218C15.4829 9.72344 15.5275 9.21825 15.5277 8.71207C15.5296 7.17217 15.1234 5.65928 14.3504 4.32743C13.5774 2.99558 12.4653 1.89235 11.1274 1.13007C10.98 1.04651 10.8138 1.00178 10.6443 1.00005C10.4749 0.998327 10.3078 1.03967 10.1588 1.12021C10.0097 1.20074 9.88355 1.31783 9.79214 1.46048C9.70072 1.60313 9.64704 1.76666 9.63614 1.93574C9.58018 2.88391 9.3323 3.81085 8.90753 4.6604C8.48276 5.50995 7.88993 6.26442 7.16497 6.8781L6.9345 7.0656C6.17641 7.57569 5.50539 8.2045 4.9472 8.9279C4.07951 10.021 3.47844 11.3012 3.19166 12.6671C2.90487 14.0329 2.94025 15.4468 3.295 16.7966C3.64974 18.1464 4.31409 19.3949 5.23537 20.4433C6.15664 21.4916 7.3095 22.3109 8.60251 22.8361C8.75433 22.8981 8.91908 22.9219 9.08223 22.9052C9.24538 22.8885 9.40192 22.8319 9.53804 22.7404C9.67416 22.6489 9.78567 22.5254 9.86274 22.3806C9.93981 22.2358 9.98007 22.0743 9.97997 21.9103C9.97925 21.8042 9.96246 21.6989 9.93017 21.5978C9.70644 20.7568 9.64202 19.8814 9.74022 19.0168C10.6865 20.8015 12.2054 22.2162 14.0527 23.0334C14.2782 23.1342 14.5331 23.1478 14.7681 23.0715C16.2276 22.6004 17.5425 21.7639 18.5877 20.6415C19.6329 19.5191 20.3738 18.1481 20.7399 16.6588C21.1061 15.1694 21.0853 13.6112 20.6796 12.1321C20.2738 10.653 19.4966 9.30227 18.4219 8.20817ZM14.5171 21.0392C13.6454 20.5975 12.8764 19.9772 12.2602 19.2187C11.644 18.4602 11.1943 17.5806 10.9404 16.6369C10.8629 16.3191 10.8029 15.9974 10.7607 15.673C10.7321 15.4665 10.6397 15.274 10.4964 15.1226C10.3531 14.9711 10.1661 14.8682 9.9614 14.8283C9.89835 14.8159 9.83423 14.8096 9.76997 14.8097C9.59421 14.8097 9.42155 14.856 9.26938 14.9439C9.11722 15.0319 8.99093 15.1584 8.90327 15.3107C8.07354 16.7419 7.65627 18.3748 7.6977 20.0285C6.96794 19.4611 6.35805 18.7545 5.90338 17.9497C5.4487 17.1449 5.15829 16.2578 5.04897 15.3399C4.93965 14.422 5.0136 13.4915 5.26652 12.6024C5.51945 11.7133 5.94632 10.8833 6.52241 10.1603C6.95982 9.59218 7.4875 9.09964 8.08441 8.70235C8.11026 8.68567 8.13504 8.6674 8.15863 8.64766C8.15863 8.64766 8.45532 8.40218 8.46546 8.39656C9.89016 7.19152 10.9035 5.57207 11.3642 3.76387C12.4538 4.7711 13.1803 6.1099 13.431 7.57238C13.6816 9.03485 13.4424 10.5392 12.7504 11.8518C12.659 12.0269 12.6215 12.2252 12.6427 12.4216C12.6638 12.6181 12.7426 12.8039 12.8693 12.9555C12.9959 13.1072 13.1645 13.218 13.354 13.2739C13.5435 13.3298 13.7453 13.3284 13.934 13.2698C15.4658 12.7896 16.8137 11.8517 17.7963 10.5823C18.3869 11.4545 18.773 12.4489 18.9258 13.4911C19.0787 14.5334 18.9944 15.5967 18.6792 16.6018C18.364 17.6069 17.826 18.528 17.1053 19.2963C16.3847 20.0646 15.4999 20.6604 14.517 21.0393L14.5171 21.0392Z" fill="#1E6BFF"/>
</svg>
