<svg width="24" height="24" viewBox="0 0 24 24" fill="none" xmlns="http://www.w3.org/2000/svg">
<path d="M20.16 5.00017C19.0999 3.93737 17.6948 3.28871 16.1983 3.17134C14.7018 3.05397 13.2127 3.47563 12 4.36017C10.7276 3.4138 9.14396 2.98468 7.56789 3.1592C5.99182 3.33373 4.54041 4.09894 3.50594 5.30075C2.47148 6.50256 1.93079 8.05169 1.99277 9.63618C2.05475 11.2207 2.71479 12.7228 3.83997 13.8402L10.05 20.0602C10.57 20.5719 11.2704 20.8588 12 20.8588C12.7296 20.8588 13.43 20.5719 13.95 20.0602L20.16 13.8402C21.3275 12.6654 21.9829 11.0764 21.9829 9.42017C21.9829 7.76389 21.3275 6.1749 20.16 5.00017ZM18.75 12.4602L12.54 18.6702C12.4693 18.7415 12.3852 18.7982 12.2925 18.8368C12.1998 18.8755 12.1004 18.8954 12 18.8954C11.8995 18.8954 11.8001 18.8755 11.7074 18.8368C11.6147 18.7982 11.5306 18.7415 11.46 18.6702L5.24997 12.4302C4.46573 11.6285 4.02658 10.5516 4.02658 9.43017C4.02658 8.3087 4.46573 7.23182 5.24997 6.43017C6.04913 5.64115 7.12694 5.19873 8.24997 5.19873C9.373 5.19873 10.4508 5.64115 11.25 6.43017C11.3429 6.52389 11.4535 6.59829 11.5754 6.64906C11.6973 6.69983 11.828 6.72596 11.96 6.72596C12.092 6.72596 12.2227 6.69983 12.3445 6.64906C12.4664 6.59829 12.577 6.52389 12.67 6.43017C13.4691 5.64115 14.5469 5.19873 15.67 5.19873C16.793 5.19873 17.8708 5.64115 18.67 6.43017C19.465 7.22132 19.9186 8.29236 19.9335 9.41385C19.9485 10.5353 19.5236 11.6181 18.75 12.4302V12.4602Z" fill="#1E6BFF"/>
</svg>
