<svg width="24" height="24" viewBox="0 0 24 24" fill="none" xmlns="http://www.w3.org/2000/svg">
<path d="M12.11 15.3891L8.23002 19.2691C7.76026 19.7225 7.13288 19.9759 6.48002 19.9759C5.82716 19.9759 5.19978 19.7225 4.73002 19.2691C4.49962 19.0396 4.31681 18.7669 4.19207 18.4666C4.06733 18.1663 4.00312 17.8443 4.00312 17.5191C4.00312 17.1939 4.06733 16.8719 4.19207 16.5716C4.31681 16.2713 4.49962 15.9986 4.73002 15.7691L8.61002 11.8891C8.79832 11.7008 8.90411 11.4454 8.90411 11.1791C8.90411 10.9128 8.79832 10.6574 8.61002 10.4691C8.42172 10.2808 8.16632 10.175 7.90002 10.175C7.63372 10.175 7.37832 10.2808 7.19002 10.4691L3.31002 14.3591C2.52838 15.2099 2.10564 16.3298 2.13009 17.4849C2.15455 18.64 2.6243 19.7409 3.44125 20.5579C4.2582 21.3748 5.35918 21.8446 6.51427 21.869C7.66935 21.8935 8.78923 21.4708 9.64002 20.6891L13.53 16.8091C13.7183 16.6208 13.8241 16.3654 13.8241 16.0991C13.8241 15.8328 13.7183 15.5774 13.53 15.3891C13.3417 15.2008 13.0863 15.095 12.82 15.095C12.5537 15.095 12.2983 15.2008 12.11 15.3891ZM20.69 3.30912C19.8488 2.47313 18.711 2.00391 17.525 2.00391C16.339 2.00391 15.2012 2.47313 14.36 3.30912L10.47 7.18912C10.3768 7.28236 10.3028 7.39305 10.2524 7.51487C10.2019 7.63669 10.1759 7.76726 10.1759 7.89912C10.1759 8.03098 10.2019 8.16155 10.2524 8.28337C10.3028 8.40519 10.3768 8.51588 10.47 8.60912C10.5633 8.70236 10.6739 8.77632 10.7958 8.82678C10.9176 8.87724 11.0482 8.90321 11.18 8.90321C11.3119 8.90321 11.4424 8.87724 11.5643 8.82678C11.6861 8.77632 11.7968 8.70236 11.89 8.60912L15.77 4.72912C16.2398 4.27574 16.8672 4.02237 17.52 4.02237C18.1729 4.02237 18.8003 4.27574 19.27 4.72912C19.5004 4.9586 19.6832 5.23133 19.808 5.53164C19.9327 5.83195 19.9969 6.15393 19.9969 6.47912C19.9969 6.8043 19.9327 7.12629 19.808 7.4266C19.6832 7.72691 19.5004 7.99963 19.27 8.22912L15.39 12.1091C15.2963 12.2021 15.2219 12.3127 15.1711 12.4345C15.1204 12.5564 15.0942 12.6871 15.0942 12.8191C15.0942 12.9511 15.1204 13.0818 15.1711 13.2037C15.2219 13.3256 15.2963 13.4362 15.39 13.5291C15.483 13.6228 15.5936 13.6972 15.7154 13.748C15.8373 13.7988 15.968 13.8249 16.1 13.8249C16.232 13.8249 16.3627 13.7988 16.4846 13.748C16.6065 13.6972 16.7171 13.6228 16.81 13.5291L20.69 9.63912C21.526 8.7979 21.9952 7.66009 21.9952 6.47412C21.9952 5.28814 21.526 4.15034 20.69 3.30912ZM8.83002 15.1691C8.92346 15.2618 9.03428 15.3351 9.15611 15.3849C9.27795 15.4347 9.40841 15.4599 9.54002 15.4591C9.67163 15.4599 9.80209 15.4347 9.92393 15.3849C10.0458 15.3351 10.1566 15.2618 10.25 15.1691L15.17 10.2491C15.3583 10.0608 15.4641 9.80542 15.4641 9.53912C15.4641 9.27282 15.3583 9.01742 15.17 8.82912C14.9817 8.64081 14.7263 8.53503 14.46 8.53503C14.1937 8.53503 13.9383 8.64081 13.75 8.82912L8.83002 13.7491C8.73629 13.8421 8.6619 13.9527 8.61113 14.0745C8.56036 14.1964 8.53422 14.3271 8.53422 14.4591C8.53422 14.5911 8.56036 14.7218 8.61113 14.8437C8.6619 14.9656 8.73629 15.0762 8.83002 15.1691Z" fill="#1E6BFF"/>
</svg>
