<svg width="24" height="24" viewBox="0 0 24 24" fill="none" xmlns="http://www.w3.org/2000/svg">
<path d="M17 8.99894H9V6.99894C8.99854 6.40513 9.17334 5.82424 9.50226 5.32985C9.83118 4.83545 10.2994 4.44979 10.8477 4.2217C11.3959 3.99362 11.9996 3.93337 12.5821 4.04859C13.1646 4.16381 13.6999 4.44931 14.12 4.86894C14.4959 5.25301 14.7649 5.72877 14.9 6.24894C14.9328 6.37633 14.9904 6.49599 15.0695 6.60112C15.1486 6.70624 15.2476 6.79476 15.3609 6.86161C15.4742 6.92847 15.5995 6.97236 15.7298 6.99078C15.86 7.00919 15.9926 7.00177 16.12 6.96894C16.2474 6.93611 16.3671 6.87851 16.4722 6.79944C16.5773 6.72036 16.6658 6.62135 16.7327 6.50806C16.7995 6.39477 16.8434 6.26943 16.8618 6.13918C16.8802 6.00893 16.8728 5.87633 16.84 5.74894C16.6122 4.88374 16.1603 4.09388 15.53 3.45894C14.8302 2.76131 13.9393 2.28668 12.97 2.09499C12.0006 1.90329 10.9961 2.00313 10.0835 2.3819C9.17078 2.76067 8.3908 3.40137 7.84201 4.22312C7.29321 5.04486 7.00021 6.01079 7 6.99894V8.99894C6.20435 8.99894 5.44129 9.31501 4.87868 9.87762C4.31607 10.4402 4 11.2033 4 11.9989V18.9989C4 19.7946 4.31607 20.5577 4.87868 21.1203C5.44129 21.6829 6.20435 21.9989 7 21.9989H17C17.7956 21.9989 18.5587 21.6829 19.1213 21.1203C19.6839 20.5577 20 19.7946 20 18.9989V11.9989C20 11.2033 19.6839 10.4402 19.1213 9.87762C18.5587 9.31501 17.7956 8.99894 17 8.99894ZM18 18.9989C18 19.2642 17.8946 19.5185 17.7071 19.7061C17.5196 19.8936 17.2652 19.9989 17 19.9989H7C6.73478 19.9989 6.48043 19.8936 6.29289 19.7061C6.10536 19.5185 6 19.2642 6 18.9989V11.9989C6 11.7337 6.10536 11.4794 6.29289 11.2918C6.48043 11.1043 6.73478 10.9989 7 10.9989H17C17.2652 10.9989 17.5196 11.1043 17.7071 11.2918C17.8946 11.4794 18 11.7337 18 11.9989V18.9989Z" fill="#1E6BFF"/>
</svg>
