<svg width="24" height="24" viewBox="0 0 24 24" fill="none" xmlns="http://www.w3.org/2000/svg">
<path d="M20.5054 9.5903L7.90611 3.29064C7.40888 3.04316 6.84742 2.95506 6.29829 3.03834C5.74915 3.12162 5.23907 3.37224 4.83757 3.75602C4.43608 4.1398 4.16272 4.63807 4.05476 5.18289C3.9468 5.72771 4.0095 6.29256 4.23431 6.80045L6.39419 11.6332C6.4432 11.75 6.46844 11.8755 6.46844 12.0022C6.46844 12.1289 6.4432 12.2543 6.39419 12.3711L4.23431 17.2039C4.05135 17.6149 3.974 18.0651 4.0093 18.5136C4.0446 18.9622 4.19142 19.3947 4.43642 19.7721C4.68142 20.1494 5.01684 20.4596 5.41218 20.6743C5.80753 20.889 6.25027 21.0016 6.70017 21.0017C7.12156 20.9975 7.53667 20.8991 7.91511 20.7137L20.5144 14.414C20.9613 14.1892 21.337 13.8446 21.5995 13.4188C21.862 12.9929 22.001 12.5024 22.001 12.0022C22.001 11.5019 21.862 11.0115 21.5995 10.5856C21.337 10.1597 20.9613 9.81512 20.5144 9.5903H20.5054ZM19.7045 12.8031L7.10515 19.1028C6.93971 19.1822 6.75393 19.2092 6.57273 19.18C6.39153 19.1509 6.22357 19.0671 6.09137 18.9398C5.95917 18.8125 5.86905 18.6478 5.8331 18.4678C5.79715 18.2878 5.81708 18.1012 5.89022 17.9328L8.0411 13.1001C8.06894 13.0356 8.09298 12.9695 8.1131 12.9021H14.3138C14.5524 12.9021 14.7813 12.8073 14.9501 12.6385C15.1189 12.4698 15.2137 12.2408 15.2137 12.0022C15.2137 11.7635 15.1189 11.5346 14.9501 11.3658C14.7813 11.197 14.5524 11.1022 14.3138 11.1022H8.1131C8.09298 11.0349 8.06894 10.9688 8.0411 10.9042L5.89022 6.07149C5.81708 5.90316 5.79715 5.7165 5.8331 5.53653C5.86905 5.35656 5.95917 5.19188 6.09137 5.06458C6.22357 4.93727 6.39153 4.85343 6.57273 4.82429C6.75393 4.79515 6.93971 4.82211 7.10515 4.90155L19.7045 11.2012C19.8519 11.2767 19.9756 11.3915 20.062 11.5328C20.1484 11.6741 20.1941 11.8365 20.1941 12.0022C20.1941 12.1678 20.1484 12.3302 20.062 12.4715C19.9756 12.6129 19.8519 12.7276 19.7045 12.8031Z" fill="#E276FC"/>
</svg>
