<svg width="24" height="24" viewBox="0 0 24 24" fill="none" xmlns="http://www.w3.org/2000/svg">
<path fill-rule="evenodd" clip-rule="evenodd" d="M7 3C5.34315 3 4 4.34315 4 6V18C4 19.6569 5.34315 21 7 21H17C18.6569 21 20 19.6569 20 18V6C20 4.34315 18.6569 3 17 3H7ZM16 9H8C7.73478 9 7.48043 8.89464 7.29289 8.70711C7.10536 8.51957 7 8.26522 7 8C7 7.73478 7.10536 7.48043 7.29289 7.29289C7.48043 7.10536 7.73478 7 8 7H16C16.2652 7 16.5196 7.10536 16.7071 7.29289C16.8946 7.48043 17 7.73478 17 8C17 8.26522 16.8946 8.51957 16.7071 8.70711C16.5196 8.89464 16.2652 9 16 9ZM8 10.5H13C13.2652 10.5 13.5196 10.6054 13.7071 10.7929C13.8946 10.9804 14 11.2348 14 11.5C14 11.7652 13.8946 12.0196 13.7071 12.2071C13.5196 12.3946 13.2652 12.5 13 12.5H8C7.73478 12.5 7.48043 12.3946 7.29289 12.2071C7.10536 12.0196 7 11.7652 7 11.5C7 11.2348 7.10536 10.9804 7.29289 10.7929C7.48043 10.6054 7.73478 10.5 8 10.5ZM15 14H8C7.73478 14 7.48043 14.1054 7.29289 14.2929C7.10536 14.4804 7 14.7348 7 15C7 15.2652 7.10536 15.5196 7.29289 15.7071C7.48043 15.8946 7.73478 16 8 16H15C15.2652 16 15.5196 15.8946 15.7071 15.7071C15.8946 15.5196 16 15.2652 16 15C16 14.7348 15.8946 14.4804 15.7071 14.2929C15.5196 14.1054 15.2652 14 15 14Z" fill="#1E6BFF"/>
</svg>
