<svg width="24" height="24" viewBox="0 0 24 24" fill="none" xmlns="http://www.w3.org/2000/svg">
<path fill-rule="evenodd" clip-rule="evenodd" d="M16.0752 19.193C15.9659 19.3321 15.8216 19.4398 15.6571 19.5049C15.4795 19.568 15.2876 19.5795 15.1037 19.5382C14.9198 19.4969 14.7513 19.4045 14.6177 19.2716L10.5884 15.2424L6.12132 19.2586C5.93379 19.4461 5.67943 19.5515 5.41422 19.5515C5.149 19.5515 4.89464 19.4461 4.70711 19.2586C4.51957 19.0711 4.41422 18.8167 4.41422 18.5515C4.41422 18.2863 4.51957 18.0319 4.70711 17.8444L9.17421 13.8281L4.71817 9.37209C4.58526 9.23844 4.49284 9.06994 4.45156 8.88603C4.41027 8.70212 4.4218 8.51029 4.48482 8.33265C4.53066 8.19047 4.6108 8.06176 4.71817 7.95788C4.87859 7.79931 5.08791 7.69963 5.31214 7.67504L11.3296 7.00329L14.865 3.60149C15.0526 3.41395 15.3069 3.30859 15.5721 3.30859C15.8373 3.30859 16.0917 3.41395 16.2792 3.60149L20.5219 7.84413C20.7094 8.03166 20.8148 8.28602 20.8148 8.55123C20.8148 8.81645 20.7094 9.07081 20.5219 9.25834L16.9865 12.6601L16.2794 18.713C16.255 18.8882 16.1845 19.0539 16.0752 19.193ZM11.9024 8.94783L7.60316 9.42866L14.5611 16.3866L15.0419 12.0874C15.0665 11.8632 15.1662 11.6538 15.3248 11.4934L18.4006 8.55123L15.5721 5.72281L12.4963 8.66499C12.3359 8.82356 12.1266 8.92324 11.9024 8.94783Z" fill="#1E6BFF"/>
</svg>
