<svg width="24" height="24" viewBox="0 0 24 24" fill="none" xmlns="http://www.w3.org/2000/svg">
<path d="M21.15 2.8583C20.7679 2.46886 20.2835 2.19552 19.7526 2.06988C19.2217 1.94423 18.6661 1.97142 18.15 2.1483L3.99999 6.8783C3.4293 7.0651 2.93068 7.42445 2.57294 7.90674C2.21521 8.38902 2.016 8.97047 2.00283 9.5708C1.98966 10.1711 2.16318 10.7608 2.49942 11.2583C2.83566 11.7558 3.31804 12.1367 3.87999 12.3483L9.11999 14.3483C9.23931 14.3939 9.34795 14.4636 9.43913 14.5531C9.53032 14.6426 9.6021 14.7499 9.64999 14.8683L11.65 20.1183C11.8536 20.6723 12.223 21.15 12.708 21.4865C13.1929 21.8229 13.7698 22.0016 14.36 21.9983H14.43C15.031 21.9874 15.6135 21.7886 16.0959 21.43C16.5783 21.0713 16.9364 20.5707 17.12 19.9983L21.85 5.8283C22.022 5.31724 22.0476 4.76824 21.9239 4.24339C21.8002 3.71853 21.5321 3.23875 21.15 2.8583ZM20 5.1983L15.22 19.3783C15.1645 19.5578 15.053 19.7148 14.9019 19.8263C14.7507 19.9379 14.5678 19.9981 14.38 19.9983C14.1932 20.0014 14.01 19.9475 13.8546 19.8439C13.6992 19.7403 13.579 19.5919 13.51 19.4183L11.51 14.1683C11.365 13.7868 11.1414 13.4401 10.8537 13.1507C10.566 12.8613 10.2206 12.6356 9.83999 12.4883L4.58999 10.4883C4.41288 10.4234 4.26064 10.3045 4.15477 10.1484C4.0489 9.99228 3.99476 9.80685 3.99999 9.6183C4.00014 9.43045 4.0604 9.24757 4.17196 9.09643C4.28352 8.94528 4.44052 8.8338 4.61999 8.7783L18.8 4.0483C18.9628 3.98195 19.1413 3.96417 19.314 3.99713C19.4867 4.03008 19.6462 4.11235 19.7731 4.23399C19.9 4.35563 19.989 4.51143 20.0293 4.68256C20.0695 4.85369 20.0594 5.03282 20 5.1983Z" fill="#1E6BFF"/>
</svg>
