<svg width="24" height="24" viewBox="0 0 24 24" fill="none" xmlns="http://www.w3.org/2000/svg">
<path d="M17.0065 14.0011C16.4157 14.005 15.833 14.1397 15.3005 14.3956C14.768 14.6515 14.2987 15.0222 13.9265 15.4811L8.8265 13.1311C9.06629 12.3968 9.06629 11.6053 8.8265 10.8711L13.9265 8.52109C14.5281 9.24706 15.3668 9.73717 16.2946 9.90493C17.2225 10.0727 18.1797 9.90732 18.9974 9.43799C19.8152 8.96867 20.4409 8.22557 20.764 7.33983C21.0872 6.4541 21.0871 5.48267 20.7638 4.597C20.4405 3.71132 19.8146 2.96833 18.9968 2.49916C18.179 2.02998 17.2217 1.86478 16.2939 2.03271C15.3662 2.20065 14.5275 2.69091 13.926 3.41699C13.3245 4.14306 12.9989 5.05827 13.0065 6.00109C13.0095 6.23932 13.0329 6.47686 13.0765 6.71109L7.7965 9.14109C7.23358 8.59067 6.52074 8.21861 5.7473 8.07152C4.97386 7.92443 4.17422 8.00886 3.44855 8.31422C2.72288 8.61959 2.10346 9.13231 1.6679 9.78815C1.23234 10.444 1 11.2138 1 12.0011C1 12.7884 1.23234 13.5582 1.6679 14.214C2.10346 14.8699 2.72288 15.3826 3.44855 15.688C4.17422 15.9933 4.97386 16.0778 5.7473 15.9307C6.52074 15.7836 7.23358 15.4115 7.7965 14.8611L13.0765 17.2911C13.0329 17.5253 13.0095 17.7629 13.0065 18.0011C13.0065 18.7922 13.2411 19.5656 13.6806 20.2234C14.1201 20.8812 14.7449 21.3939 15.4758 21.6966C16.2067 21.9994 17.0109 22.0786 17.7869 21.9242C18.5628 21.7699 19.2755 21.3889 19.8349 20.8295C20.3943 20.2701 20.7753 19.5574 20.9296 18.7815C21.084 18.0055 21.0048 17.2013 20.702 16.4704C20.3993 15.7395 19.8866 15.1147 19.2288 14.6752C18.571 14.2357 17.7976 14.0011 17.0065 14.0011ZM17.0065 4.00109C17.4021 4.00109 17.7887 4.11839 18.1176 4.33815C18.4465 4.55791 18.7029 4.87027 18.8543 5.23572C19.0056 5.60118 19.0452 6.00331 18.9681 6.39127C18.8909 6.77923 18.7004 7.1356 18.4207 7.4153C18.141 7.69501 17.7846 7.88549 17.3967 7.96266C17.0087 8.03983 16.6066 8.00023 16.2411 7.84885C15.8757 7.69747 15.5633 7.44113 15.3436 7.11223C15.1238 6.78333 15.0065 6.39665 15.0065 6.00109C15.0065 5.47066 15.2172 4.96195 15.5923 4.58688C15.9674 4.2118 16.4761 4.00109 17.0065 4.00109ZM5.0065 14.0011C4.61094 14.0011 4.22426 13.8838 3.89536 13.664C3.56646 13.4443 3.31011 13.1319 3.15874 12.7665C3.00736 12.401 2.96776 11.9989 3.04493 11.6109C3.1221 11.2229 3.31258 10.8666 3.59228 10.5869C3.87199 10.3072 4.22836 10.1167 4.61632 10.0395C5.00428 9.96235 5.40641 10.002 5.77186 10.1533C6.13732 10.3047 6.44967 10.5611 6.66944 10.89C6.8892 11.2188 7.0065 11.6055 7.0065 12.0011C7.0065 12.5315 6.79578 13.0402 6.42071 13.4153C6.04564 13.7904 5.53693 14.0011 5.0065 14.0011ZM17.0065 20.0011C16.6109 20.0011 16.2243 19.8838 15.8954 19.664C15.5665 19.4443 15.3101 19.1319 15.1587 18.7665C15.0074 18.401 14.9678 17.9989 15.0449 17.6109C15.1221 17.2229 15.3126 16.8666 15.5923 16.5869C15.872 16.3072 16.2284 16.1167 16.6163 16.0395C17.0043 15.9623 17.4064 16.002 17.7719 16.1533C18.1373 16.3047 18.4497 16.5611 18.6694 16.8899C18.8892 17.2188 19.0065 17.6055 19.0065 18.0011C19.0065 18.5315 18.7958 19.0402 18.4207 19.4153C18.0456 19.7904 17.5369 20.0011 17.0065 20.0011Z" fill="#1E6BFF"/>
</svg>
