<svg width="24" height="24" viewBox="0 0 24 24" fill="none" xmlns="http://www.w3.org/2000/svg">
<path d="M22 9.67161C21.9368 9.4887 21.822 9.32804 21.6693 9.20911C21.5167 9.09019 21.3328 9.01811 21.14 9.00161L15.45 8.17161L12.9 3.00161C12.8181 2.83254 12.6902 2.68995 12.5311 2.59018C12.3719 2.49041 12.1878 2.4375 12 2.4375C11.8121 2.4375 11.6281 2.49041 11.4689 2.59018C11.3097 2.68995 11.1819 2.83254 11.1 3.00161L8.54998 8.16161L2.85998 9.00161C2.6749 9.02792 2.5009 9.10557 2.35773 9.22577C2.21455 9.34596 2.10794 9.50388 2.04998 9.68161C1.99692 9.85528 1.99216 10.0401 2.03621 10.2163C2.08025 10.3925 2.17144 10.5533 2.29998 10.6816L6.42998 14.6816L5.42998 20.3616C5.3896 20.55 5.40453 20.7461 5.47296 20.9262C5.54139 21.1064 5.66041 21.2629 5.81571 21.377C5.971 21.4911 6.15595 21.5579 6.34831 21.5694C6.54066 21.5808 6.73224 21.5365 6.89998 21.4416L12 18.7716L17.1 21.4416C17.2403 21.5208 17.3988 21.5621 17.56 21.5616C17.7718 21.5624 17.9784 21.4958 18.15 21.3716C18.3051 21.2605 18.4252 21.1073 18.4961 20.9301C18.567 20.7529 18.5857 20.5591 18.55 20.3716L17.55 14.6916L21.68 10.6916C21.8244 10.5693 21.9311 10.4085 21.9877 10.228C22.0444 10.0474 22.0486 9.85448 22 9.67161Z" fill="#E276FC"/>
</svg>
