<svg width="24" height="24" viewBox="0 0 24 24" fill="none" xmlns="http://www.w3.org/2000/svg">
<path d="M13.41 12.0002L19.71 5.71019C19.8983 5.52188 20.0041 5.26649 20.0041 5.00019C20.0041 4.73388 19.8983 4.47849 19.71 4.29019C19.5217 4.10188 19.2663 3.99609 19 3.99609C18.7337 3.99609 18.4783 4.10188 18.29 4.29019L12 10.5902L5.71 4.29019C5.5217 4.10188 5.2663 3.99609 5 3.99609C4.7337 3.99609 4.4783 4.10188 4.29 4.29019C4.1017 4.47849 3.99591 4.73388 3.99591 5.00019C3.99591 5.26649 4.1017 5.52188 4.29 5.71019L10.59 12.0002L4.29 18.2902C4.19627 18.3831 4.12188 18.4937 4.07111 18.6156C4.02034 18.7375 3.9942 18.8682 3.9942 19.0002C3.9942 19.1322 4.02034 19.2629 4.07111 19.3848C4.12188 19.5066 4.19627 19.6172 4.29 19.7102C4.38296 19.8039 4.49356 19.8783 4.61542 19.9291C4.73728 19.9798 4.86799 20.006 5 20.006C5.13201 20.006 5.26272 19.9798 5.38458 19.9291C5.50644 19.8783 5.61704 19.8039 5.71 19.7102L12 13.4102L18.29 19.7102C18.383 19.8039 18.4936 19.8783 18.6154 19.9291C18.7373 19.9798 18.868 20.006 19 20.006C19.132 20.006 19.2627 19.9798 19.3846 19.9291C19.5064 19.8783 19.617 19.8039 19.71 19.7102C19.8037 19.6172 19.8781 19.5066 19.9289 19.3848C19.9797 19.2629 20.0058 19.1322 20.0058 19.0002C20.0058 18.8682 19.9797 18.7375 19.9289 18.6156C19.8781 18.4937 19.8037 18.3831 19.71 18.2902L13.41 12.0002Z" fill="#1E6BFF"/>
</svg>
