<svg width="24" height="24" viewBox="0 0 24 24" fill="none" xmlns="http://www.w3.org/2000/svg">
<path d="M20.9709 15.9836H6.99233C6.72752 15.9836 6.47356 15.8783 6.28631 15.691C6.09906 15.5037 5.99387 15.2496 5.99387 14.9847C5.99387 14.7198 6.09906 14.4658 6.28631 14.2785C6.47356 14.0911 6.72752 13.9859 6.99233 13.9859H17.4163C18.0839 13.9859 18.7324 13.7629 19.2589 13.3521C19.7853 12.9413 20.1594 12.3664 20.3219 11.7186L21.9693 5.23619C22.0067 5.08877 22.01 4.93476 21.9788 4.78589C21.9477 4.63703 21.883 4.49725 21.7896 4.3772C21.6925 4.25408 21.5678 4.15556 21.4255 4.08962C21.2833 4.02368 21.1275 3.99217 20.9709 3.99765H6.7527C6.5467 3.41479 6.16553 2.90993 5.66144 2.55229C5.15735 2.19465 4.55502 2.00174 3.93702 2H2.99847C2.73366 2 2.47969 2.10523 2.29244 2.29255C2.1052 2.47987 2 2.73392 2 2.99883C2 3.26373 2.1052 3.51779 2.29244 3.7051C2.47969 3.89242 2.73366 3.99765 2.99847 3.99765H3.93702C4.16511 3.991 4.38859 4.06271 4.57026 4.20082C4.75193 4.33894 4.88082 4.53514 4.93549 4.75676L4.9954 5.23619L6.72275 11.9883C5.92832 12.024 5.18063 12.374 4.64416 12.9612C4.10769 13.5485 3.82639 14.3249 3.86214 15.1196C3.89789 15.9143 4.24776 16.6622 4.83478 17.1989C5.42181 17.7356 6.1979 18.017 6.99233 17.9812H7.17206C7.00784 18.4338 6.95508 18.9193 7.01822 19.3966C7.08137 19.874 7.25857 20.329 7.53482 20.7233C7.81106 21.1176 8.17823 21.4395 8.60521 21.6617C9.03219 21.884 9.50642 22 9.98773 22C10.469 22 10.9433 21.884 11.3703 21.6617C11.7972 21.4395 12.1644 21.1176 12.4406 20.7233C12.7169 20.329 12.8941 19.874 12.9572 19.3966C13.0204 18.9193 12.9676 18.4338 12.8034 17.9812H15.1598C14.9956 18.4338 14.9428 18.9193 15.006 19.3966C15.0691 19.874 15.2463 20.329 15.5225 20.7233C15.7988 21.1176 16.166 21.4395 16.5929 21.6617C17.0199 21.884 17.4941 22 17.9755 22C18.4568 22 18.931 21.884 19.358 21.6617C19.785 21.4395 20.1521 21.1176 20.4284 20.7233C20.7046 20.329 20.8818 19.874 20.945 19.3966C21.0081 18.9193 20.9553 18.4338 20.7911 17.9812H20.9709C21.2357 17.9812 21.4896 17.876 21.6769 17.6887C21.8641 17.5013 21.9693 17.2473 21.9693 16.9824C21.9693 16.7175 21.8641 16.4634 21.6769 16.2761C21.4896 16.0888 21.2357 15.9836 20.9709 15.9836ZM19.6928 5.9953L18.3848 11.2291C18.3302 11.4508 18.2013 11.647 18.0196 11.7851C17.8379 11.9232 17.6144 11.9949 17.3864 11.9883H8.7696L7.2719 5.9953H19.6928ZM9.98773 19.9789C9.79025 19.9789 9.59721 19.9203 9.43301 19.8105C9.26881 19.7008 9.14084 19.5448 9.06527 19.3623C8.9897 19.1798 8.96992 18.9789 9.00845 18.7852C9.04698 18.5914 9.14207 18.4134 9.28171 18.2738C9.42135 18.1341 9.59926 18.0389 9.79294 18.0004C9.98662 17.9619 10.1874 17.9816 10.3698 18.0572C10.5523 18.1328 10.7082 18.2609 10.8179 18.4251C10.9276 18.5894 10.9862 18.7825 10.9862 18.98C10.9862 19.2449 10.881 19.499 10.6938 19.6863C10.5065 19.8736 10.2525 19.9789 9.98773 19.9789ZM17.9755 19.9789C17.778 19.9789 17.5849 19.9203 17.4207 19.8105C17.2565 19.7008 17.1286 19.5448 17.053 19.3623C16.9774 19.1798 16.9577 18.9789 16.9962 18.7852C17.0347 18.5914 17.1298 18.4134 17.2694 18.2738C17.4091 18.1341 17.587 18.0389 17.7807 18.0004C17.9744 17.9619 18.1751 17.9816 18.3576 18.0572C18.54 18.1328 18.6959 18.2609 18.8057 18.4251C18.9154 18.5894 18.9739 18.7825 18.9739 18.98C18.9739 19.2449 18.8687 19.499 18.6815 19.6863C18.4942 19.8736 18.2403 19.9789 17.9755 19.9789Z" fill="#1E6BFF"/>
</svg>
