<svg width="24" height="24" viewBox="0 0 24 24" fill="none" xmlns="http://www.w3.org/2000/svg">
<path d="M21.71 20.2914L18 16.6114C19.4401 14.8158 20.1375 12.5367 19.9488 10.2427C19.7601 7.94867 18.6997 5.81415 16.9855 4.27801C15.2714 2.74188 13.0338 1.92088 10.7329 1.98384C8.43207 2.0468 6.24275 2.98893 4.61517 4.61651C2.98759 6.24409 2.04546 8.43341 1.9825 10.7343C1.91954 13.0352 2.74053 15.2727 4.27667 16.9869C5.81281 18.701 7.94733 19.7615 10.2413 19.9502C12.5353 20.1389 14.8144 19.4415 16.61 18.0014L20.29 21.6814C20.383 21.7751 20.4936 21.8495 20.6154 21.9003C20.7373 21.951 20.868 21.9772 21 21.9772C21.132 21.9772 21.2627 21.951 21.3846 21.9003C21.5065 21.8495 21.6171 21.7751 21.71 21.6814C21.8903 21.4949 21.991 21.2457 21.991 20.9864C21.991 20.727 21.8903 20.4778 21.71 20.2914ZM11 18.0014C9.61556 18.0014 8.26218 17.5908 7.11103 16.8217C5.95989 16.0525 5.06268 14.9592 4.53287 13.6802C4.00306 12.4011 3.86443 10.9936 4.13453 9.63574C4.40463 8.27787 5.07131 7.03059 6.05028 6.05162C7.02925 5.07265 8.27653 4.40597 9.63439 4.13587C10.9923 3.86578 12.3997 4.0044 13.6788 4.53421C14.9579 5.06403 16.0511 5.96123 16.8203 7.11238C17.5895 8.26352 18 9.6169 18 11.0014C18 12.8579 17.2625 14.6384 15.9498 15.9511C14.637 17.2639 12.8565 18.0014 11 18.0014Z" fill="#1E6BFF"/>
</svg>
