<svg width="24" height="24" viewBox="0 0 24 24" fill="none" xmlns="http://www.w3.org/2000/svg">
<path d="M21.53 6.15C21.378 6.06223 21.2055 6.01603 21.03 6.01603C20.8545 6.01603 20.682 6.06223 20.53 6.15L17 7.89C16.9715 7.11357 16.6429 6.37847 16.0834 5.83944C15.5238 5.3004 14.777 4.99948 14 5H5C4.20435 5 3.44129 5.31607 2.87868 5.87868C2.31607 6.44129 2 7.20435 2 8V16C2 16.7956 2.31607 17.5587 2.87868 18.1213C3.44129 18.6839 4.20435 19 5 19H14C14.777 19.0005 15.5238 18.6996 16.0834 18.1606C16.6429 17.6215 16.9715 16.8864 17 16.11L20.56 17.89C20.6963 17.9599 20.8468 17.9975 21 18C21.1872 18.0006 21.3709 17.9486 21.53 17.85C21.6741 17.7599 21.7929 17.6346 21.8751 17.4859C21.9574 17.3372 22.0003 17.1699 22 17V7C22.0003 6.83006 21.9574 6.66283 21.8751 6.51411C21.7929 6.36538 21.6741 6.24007 21.53 6.15ZM15 16C15 16.2652 14.8946 16.5196 14.7071 16.7071C14.5196 16.8946 14.2652 17 14 17H5C4.73478 17 4.48043 16.8946 4.29289 16.7071C4.10536 16.5196 4 16.2652 4 16V8C4 7.73478 4.10536 7.48043 4.29289 7.29289C4.48043 7.10536 4.73478 7 5 7H14C14.2652 7 14.5196 7.10536 14.7071 7.29289C14.8946 7.48043 15 7.73478 15 8V16ZM20 15.38L17 13.88V10.12L20 8.62V15.38Z" fill="#1E6BFF"/>
</svg>
