<svg width="24" height="24" viewBox="0 0 24 24" fill="none" xmlns="http://www.w3.org/2000/svg">
<path d="M12 14.999C11.4066 14.999 10.8266 15.1749 10.3333 15.5046C9.83994 15.8342 9.45542 16.3028 9.22835 16.8509C9.00129 17.3991 8.94188 18.0023 9.05764 18.5843C9.17339 19.1662 9.45912 19.7007 9.87867 20.1203C10.2982 20.5399 10.8328 20.8256 11.4147 20.9413C11.9967 21.0571 12.5999 20.9977 13.148 20.7706C13.6962 20.5436 14.1648 20.159 14.4944 19.6657C14.824 19.1723 15 18.5923 15 17.999C15 17.2033 14.6839 16.4403 14.1213 15.8777C13.5587 15.3151 12.7956 14.999 12 14.999ZM12 18.999C11.8022 18.999 11.6089 18.9403 11.4444 18.8305C11.28 18.7206 11.1518 18.5644 11.0761 18.3817C11.0004 18.1989 10.9806 17.9979 11.0192 17.8039C11.0578 17.6099 11.153 17.4317 11.2929 17.2919C11.4327 17.152 11.6109 17.0568 11.8049 17.0182C11.9989 16.9796 12.2 16.9994 12.3827 17.0751C12.5654 17.1508 12.7216 17.279 12.8315 17.4434C12.9413 17.6079 13 17.8012 13 17.999C13 18.2642 12.8946 18.5186 12.7071 18.7061C12.5196 18.8936 12.2652 18.999 12 18.999ZM12 10.999C10.1447 11.0054 8.36654 11.7418 7.04999 13.049C6.86374 13.2363 6.7592 13.4898 6.7592 13.754C6.7592 14.0182 6.86374 14.2716 7.04999 14.459C7.23736 14.6452 7.49081 14.7498 7.75499 14.7498C8.01918 14.7498 8.27263 14.6452 8.45999 14.459C8.92445 13.9934 9.47621 13.6239 10.0837 13.3719C10.6911 13.1198 11.3423 12.99 12 12.99C12.6577 12.99 13.3089 13.1198 13.9163 13.3719C14.5238 13.6239 15.0755 13.9934 15.54 14.459C15.7246 14.6474 15.9762 14.7552 16.24 14.759C16.4429 14.7707 16.6445 14.7202 16.818 14.6144C16.9916 14.5086 17.1287 14.3525 17.2113 14.1668C17.2938 13.9811 17.3178 13.7746 17.2801 13.5749C17.2423 13.3752 17.1446 13.1918 17 13.049C16.342 12.3957 15.5618 11.8784 14.7039 11.5267C13.846 11.1749 12.9272 10.9956 12 10.999ZM12 6.99899C9.08398 7.00673 6.28857 8.1637 4.21999 10.219C4.12675 10.3122 4.05279 10.4229 4.00233 10.5447C3.95187 10.6666 3.9259 10.7971 3.9259 10.929C3.9259 11.1953 4.03169 11.4507 4.21999 11.639C4.4083 11.8273 4.66369 11.9331 4.92999 11.9331C5.19629 11.9331 5.45169 11.8273 5.63999 11.639C7.3275 9.95358 9.61499 9.0069 12 9.0069C14.385 9.0069 16.6725 9.95358 18.36 11.639C18.4534 11.7317 18.5642 11.805 18.6861 11.8548C18.8079 11.9045 18.9384 11.9297 19.07 11.929C19.2016 11.9297 19.3321 11.9045 19.4539 11.8548C19.5757 11.805 19.6866 11.7317 19.78 11.639C19.8737 11.546 19.9481 11.4354 19.9989 11.3136C20.0497 11.1917 20.0758 11.061 20.0758 10.929C20.0758 10.797 20.0497 10.6663 19.9989 10.5444C19.9481 10.4225 19.8737 10.3119 19.78 10.219C17.7114 8.1637 14.916 7.00673 12 6.99899ZM22.61 7.38898C21.217 5.99509 19.563 4.88934 17.7425 4.13491C15.922 3.38049 13.9706 2.99219 12 2.99219C10.0294 2.99219 8.07803 3.38049 6.25752 4.13491C4.43701 4.88934 2.783 5.99509 1.38999 7.38898C1.20169 7.57729 1.0959 7.83268 1.0959 8.09899C1.0959 8.36529 1.20169 8.62068 1.38999 8.80899C1.5783 8.99729 1.83369 9.10308 2.09999 9.10308C2.36629 9.10308 2.62169 8.99729 2.80999 8.80899C5.24777 6.37247 8.55335 5.00376 12 5.00376C15.4466 5.00376 18.7522 6.37247 21.19 8.80899C21.283 8.90271 21.3936 8.97711 21.5154 9.02788C21.6373 9.07865 21.768 9.10478 21.9 9.10478C22.032 9.10478 22.1627 9.07865 22.2846 9.02788C22.4064 8.97711 22.517 8.90271 22.61 8.80899C22.7037 8.71602 22.7781 8.60542 22.8289 8.48356C22.8797 8.3617 22.9058 8.231 22.9058 8.09899C22.9058 7.96697 22.8797 7.83627 22.8289 7.71441C22.7781 7.59255 22.7037 7.48195 22.61 7.38898Z" fill="#1E6BFF"/>
</svg>
