<svg width="24" height="24" viewBox="0 0 24 24" fill="none" xmlns="http://www.w3.org/2000/svg">
<path d="M21.71 20.2914L18 16.6114C19.4401 14.8158 20.1375 12.5367 19.9488 10.2427C19.7601 7.94867 18.6997 5.81415 16.9855 4.27801C15.2714 2.74188 13.0338 1.92088 10.7329 1.98384C8.43203 2.0468 6.24272 2.98893 4.61514 4.61651C2.98756 6.24409 2.04543 8.43341 1.98247 10.7343C1.91951 13.0352 2.7405 15.2727 4.27664 16.9869C5.81278 18.701 7.9473 19.7615 10.2413 19.9502C12.5353 20.1389 14.8144 19.4415 16.61 18.0014L20.29 21.6814C20.383 21.7751 20.4936 21.8495 20.6154 21.9003C20.7373 21.951 20.868 21.9772 21 21.9772C21.132 21.9772 21.2627 21.951 21.3846 21.9003C21.5064 21.8495 21.617 21.7751 21.71 21.6814C21.8902 21.4949 21.991 21.2457 21.991 20.9864C21.991 20.727 21.8902 20.4778 21.71 20.2914ZM11 18.0014C9.61553 18.0014 8.26215 17.5908 7.111 16.8217C5.95986 16.0525 5.06265 14.9592 4.53284 13.6802C4.00303 12.4011 3.8644 10.9936 4.1345 9.63574C4.4046 8.27787 5.07128 7.03059 6.05025 6.05162C7.02922 5.07265 8.2765 4.40597 9.63436 4.13587C10.9922 3.86578 12.3997 4.0044 13.6788 4.53421C14.9579 5.06403 16.0511 5.96123 16.8203 7.11238C17.5895 8.26352 18 9.6169 18 11.0014C18 12.8579 17.2625 14.6384 15.9497 15.9511C14.637 17.2639 12.8565 18.0014 11 18.0014ZM15 10.0014H7C6.73478 10.0014 6.48043 10.1067 6.29289 10.2943C6.10535 10.4818 6 10.7362 6 11.0014C6 11.2666 6.10535 11.5209 6.29289 11.7085C6.48043 11.896 6.73478 12.0014 7 12.0014H15C15.2652 12.0014 15.5196 11.896 15.7071 11.7085C15.8946 11.5209 16 11.2666 16 11.0014C16 10.7362 15.8946 10.4818 15.7071 10.2943C15.5196 10.1067 15.2652 10.0014 15 10.0014Z" fill="#1E6BFF"/>
</svg>
